<?xml version="1.0" encoding="UTF-8"?>
<svg width="10px" height="10px" viewBox="0 0 10 10" version="1.1" xmlns="http://www.w3.org/2000/svg" xmlns:xlink="http://www.w3.org/1999/xlink">
    <!-- Generator: Sketch 63.1 (92452) - https://sketch.com -->
    <title>B</title>
    <desc>Created with Sketch.</desc>
    <g id="workfly-0208✅" stroke="none" stroke-width="1" fill="none" fill-rule="evenodd">
        <g id="编辑器图标" transform="translate(-983.000000, -219.000000)" fill="#555555" fill-rule="nonzero">
            <g id="模板" transform="translate(569.000000, 124.000000)">
                <g id="编辑器" transform="translate(90.000000, 89.000000)">
                    <path d="M329.544,16 C330.608,16 331.434,15.804 332.022,15.412 C332.708,14.936 333.058,14.208 333.058,13.2 C333.058,12.528 332.89,11.982 332.554,11.576 C332.218,11.17 331.714,10.904 331.056,10.778 C331.56,10.596 331.938,10.316 332.218,9.952 C332.498,9.56 332.638,9.084 332.638,8.524 C332.638,7.754 332.372,7.152 331.84,6.704 C331.28,6.228 330.524,6.004 329.544,6.004 L324.98,6.004 L324.98,16 L329.544,16 Z M329.138,10.246 L326.506,10.246 L326.506,7.264 L329.166,7.264 C329.838,7.264 330.342,7.376 330.65,7.614 C330.958,7.838 331.112,8.202 331.112,8.706 C331.112,9.238 330.958,9.63 330.65,9.882 C330.342,10.12 329.838,10.246 329.138,10.246 Z M329.334,14.74 L326.506,14.74 L326.506,11.492 L329.376,11.492 C330.104,11.492 330.65,11.618 331,11.884 C331.35,12.15 331.532,12.584 331.532,13.172 C331.532,13.746 331.294,14.166 330.846,14.432 C330.482,14.628 329.978,14.74 329.334,14.74 Z" id="B"></path>
                </g>
            </g>
        </g>
    </g>
</svg>