<?xml version="1.0" encoding="UTF-8"?>
<svg width="17px" height="17px" viewBox="0 0 17 17" version="1.1" xmlns="http://www.w3.org/2000/svg" xmlns:xlink="http://www.w3.org/1999/xlink">
    <!-- Generator: Sketch 63.1 (92452) - https://sketch.com -->
    <title>+</title>
    <desc>Created with Sketch.</desc>
    <g id="workfly-0208✅" stroke="none" stroke-width="1" fill="none" fill-rule="evenodd">
        <g id="OKR-新建和侧边设置" transform="translate(-541.000000, -222.000000)">
            <g id="编组-4" transform="translate(490.000000, 127.000000)">
                <g id="+-2" transform="translate(51.000000, 95.000000)">
                    <g id="+">
                        <circle id="椭圆形" stroke="#979797" cx="8.5" cy="8.5" r="8"></circle>
                        <path d="M8.5,4 C8.72593467,4 8.90909091,4.18315624 8.90909091,4.40909091 L8.909,8.09 L12.5909091,8.09090909 C12.8168438,8.09090909 13,8.27406533 13,8.5 C13,8.72593467 12.8168438,8.90909091 12.5909091,8.90909091 L8.909,8.909 L8.90909091,12.5909091 C8.90909091,12.8168438 8.72593467,13 8.5,13 C8.27406533,13 8.09090909,12.8168438 8.09090909,12.5909091 L8.09,8.909 L4.40909091,8.90909091 C4.18315624,8.90909091 4,8.72593467 4,8.5 C4,8.27406533 4.18315624,8.09090909 4.40909091,8.09090909 L8.09,8.09 L8.09090909,4.40909091 C8.09090909,4.18315624 8.27406533,4 8.5,4 Z" id="形状结合" fill="#7C8192"></path>
                    </g>
                </g>
            </g>
        </g>
    </g>
</svg>