<?xml version="1.0" encoding="UTF-8"?>
<svg width="36px" height="32px" viewBox="0 0 36 32" version="1.1" xmlns="http://www.w3.org/2000/svg" xmlns:xlink="http://www.w3.org/1999/xlink">
    <!-- Generator: Sketch 59 (86127) - https://sketch.com -->
    <title>biaoge-black</title>
    <desc>Created with Sketch.</desc>
    <g id="页面-3" stroke="none" stroke-width="1" fill="none" fill-rule="evenodd">
        <path d="M0.1250048,0.875008 L0.1250048,31.1250432 L35.8750464,31.1250432 L35.8750464,0.875008 L0.1250048,0.875008 Z M13.4171453,18.070778 L13.4171453,11.19577 L21.6671549,11.19577 L21.6671549,18.070778 L13.4171453,18.070778 L13.4171453,18.070778 Z M21.6671549,20.8207812 L21.6671549,28.37504 L13.4171453,28.37504 L13.4171453,20.8207812 L21.6671549,20.8207812 Z M2.875008,11.19577 L10.6671421,11.19577 L10.6671421,18.070778 L2.875008,18.070778 L2.875008,11.19577 Z M24.4171581,11.19577 L33.1250432,11.19577 L33.1250432,18.070778 L24.4171581,18.070778 L24.4171581,11.19577 Z M33.1250432,3.6250112 L33.1250432,8.44576681 L2.875008,8.44576681 L2.875008,3.6250112 L33.1250432,3.6250112 Z M2.875008,20.8207812 L10.6671421,20.8207812 L10.6671421,28.37504 L2.875008,28.37504 L2.875008,20.8207812 Z M24.4171581,28.37504 L24.4171581,20.8207812 L33.1250432,20.8207812 L33.1250432,28.37504 L24.4171581,28.37504 Z" id="biaoge-black" fill="#000000" fill-rule="nonzero"></path>
    </g>
</svg>