<?xml version="1.0" encoding="UTF-8"?>
<svg width="28px" height="28px" viewBox="0 0 28 28" version="1.1" xmlns="http://www.w3.org/2000/svg" xmlns:xlink="http://www.w3.org/1999/xlink">
    <!-- Generator: Sketch 63.1 (92452) - https://sketch.com -->
    <title>有问题@1x</title>
    <desc>Created with Sketch.</desc>
    <g id="新版定稿" stroke="none" stroke-width="1" fill="none" fill-rule="evenodd">
        <g id="切图3" transform="translate(-108.000000, -1925.000000)" fill="#FFFFFF" fill-rule="nonzero">
            <path d="M135.823899,1950.61495 L123.47381,1925.91104 C123.170165,1925.30369 122.58514,1925 121.999986,1925 C121.414832,1925 120.829806,1925.30369 120.526161,1925.91104 L108.176105,1950.61495 C107.62827,1951.71075 108.42494,1953 109.649929,1953 L134.350106,1953 C135.575031,1953 136.371734,1951.71078 135.823899,1950.61495 Z M134.428588,1951.40056 C134.40152,1951.44422 134.370576,1951.44422 134.350074,1951.44422 L109.649929,1951.44422 C109.629428,1951.44422 109.598483,1951.44422 109.571415,1951.40056 C109.544443,1951.35679 109.558313,1951.32914 109.567443,1951.31082 L121.9175,1926.60681 C121.930025,1926.58176 121.94303,1926.55581 122.000018,1926.55581 C122.056973,1926.55581 122.069979,1926.58173 122.082536,1926.60681 L134.432592,1951.31082 C134.441786,1951.32914 134.45556,1951.35676 134.428588,1951.40056 Z M122.2,1944 C121.645942,1943.994 121.199967,1943.54509 121.2,1942.99342 L121.2,1934.99548 C121.200088,1934.44567 121.647778,1934 122.2,1934 C122.752222,1934 123.199912,1934.44567 123.2,1934.99548 L123.2,1942.99342 C123.200033,1943.54509 122.754058,1943.994 122.2,1944 L122.2,1944 Z M122.199217,1947.99946 C121.937129,1948.00242 121.684613,1947.89998 121.497229,1947.71467 C121.309845,1947.52937 121.202945,1947.27637 121.200049,1947.01137 C121.197439,1946.74218 121.300034,1946.48283 121.485525,1946.28972 C121.884632,1945.90343 122.513803,1945.90343 122.912909,1946.28972 C123.0984,1946.48283 123.200996,1946.74218 123.198386,1947.01137 C123.207083,1947.14191 123.180515,1947.27239 123.121527,1947.38884 C123.071723,1947.51466 123.001185,1947.63103 122.912909,1947.73301 C122.718444,1947.91248 122.462366,1948.00809 122.199217,1947.99946 L122.199217,1947.99946 Z" id="有问题"></path>
        </g>
    </g>
</svg>