<?xml version="1.0" encoding="UTF-8"?>
<svg width="20px" height="20px" viewBox="0 0 20 20" version="1.1" xmlns="http://www.w3.org/2000/svg" xmlns:xlink="http://www.w3.org/1999/xlink">
    <!-- Generator: Sketch 63.1 (92452) - https://sketch.com -->
    <title>解除关联</title>
    <desc>Created with Sketch.</desc>
    <g id="workfly-0208✅" stroke="none" stroke-width="1" fill="none" fill-rule="evenodd">
        <g id="OKR-O编辑-kr详情" transform="translate(-944.000000, -388.000000)" fill="#999999" fill-rule="nonzero">
            <g id="编组备份" transform="translate(589.000000, -20.000000)">
                <g id="进度" transform="translate(26.000000, 358.000000)">
                    <g id="解除关联-2" transform="translate(329.000000, 50.000000)">
                        <g id="解除关联">
                            <path d="M10.6111438,12.7200304 L7.21811025,16.1519248 C6.70563345,16.6708784 6.02071185,16.9566672 5.29004784,16.9566672 C4.56019344,16.9566672 3.87527184,16.6708784 3.36239025,16.1519248 C2.29371825,15.0711088 2.29371825,13.3122528 3.36239025,12.231032 L6.75461424,8.79913761 C6.99061263,8.56071039 6.98818383,8.17615041 6.74975664,7.94055681 C6.51092463,7.70496321 6.12676944,7.7065824 5.89117584,7.94541441 L2.49895185,11.3773088 C0.964759834,12.929312 0.964759834,15.4540496 2.49854703,17.005648 C3.24135504,17.7569568 4.23271023,18.1710672 5.29004784,18.1710672 C6.34819503,18.1710672 7.33955025,17.7569568 8.08195344,17.005648 L11.4745822,13.5737536 C11.7105806,13.3357312 11.7081518,12.9507664 11.4697246,12.7151728 C11.2308926,12.4795792 10.8467374,12.4811984 10.6111438,12.7200304 Z M16.931772,8.05333407 C18.465964,6.50133087 18.465964,3.97659327 16.9321768,2.42499489 C16.1893688,1.67328129 15.1980136,1.25957568 14.1402712,1.25957568 C13.0825288,1.25957568 12.0911736,1.67328129 11.3487704,2.42499489 L7.9561416,5.85648447 C7.72014321,6.09491169 7.72257201,6.47947167 7.9609992,6.71506527 C8.19983121,6.95106369 8.5839864,6.94863489 8.81958,6.71061249 L12.2126136,3.27871809 C12.7250904,2.75976447 13.410012,2.47397568 14.1402712,2.47397568 C14.8705304,2.47397568 15.555452,2.75976447 16.0683336,3.27871809 C17.1370056,4.35953409 17.1370056,6.11839008 16.0683336,7.19961087 L12.6761096,10.6311005 C12.4401112,10.8699325 12.44254,11.2540877 12.6809672,11.4896813 C12.7995736,11.6066685 12.9538024,11.6653645 13.1080312,11.6653645 C13.264284,11.6653645 13.4209416,11.6050493 13.539548,11.4852285 L16.931772,8.05333407 Z M5.23924545,6.05107185 C5.35785183,6.17129745 5.51450943,6.23120784 5.67076224,6.23120784 C5.82499104,6.23120784 5.97921984,6.17291664 6.09782625,6.05592945 C6.33625344,5.82033585 6.33868224,5.43577584 6.10268385,5.19734865 L3.74310465,2.80983825 C3.50751105,2.57141103 3.12295104,2.56898223 2.88452385,2.80498065 C2.64609663,3.04057425 2.64366783,3.42513423 2.87966625,3.66396624 L5.23924545,6.05107185 Z M8.74250607,3.746424 C9.07768047,3.746424 9.34970607,3.4743984 9.34970607,3.139224 L9.34970607,0.6072 C9.34970607,0.2720256 9.07768047,0 8.74250607,0 C8.40733167,0 8.13530607,0.2720256 8.13530607,0.6072 L8.13530607,3.139224 C8.13530607,3.4743984 8.40733167,3.746424 8.74250607,3.746424 Z M3.71768319,8.62576176 C3.71768319,8.29058736 3.44565759,8.01856176 3.11048319,8.01856176 L0.6072,8.01856176 C0.2720256,8.01856176 0,8.29058736 0,8.62576176 C0,8.96093616 0.2720256,9.23296176 0.6072,9.23296176 L3.11048319,9.23296176 C3.44565759,9.23296176 3.71768319,8.96093616 3.71768319,8.62576176 Z M14.1914784,13.3794091 C13.9562896,13.1405771 13.5721344,13.1385531 13.3328976,13.3745515 C13.0944704,13.6101451 13.0920416,13.9947051 13.32804,14.2331323 L15.6876192,16.6206427 C15.8062256,16.7408683 15.9628832,16.8007787 16.1195408,16.8007787 C16.2737696,16.8007787 16.4275936,16.7424875 16.5462,16.6255003 C16.7846272,16.3899067 16.787056,16.0053467 16.5510576,15.7665147 L14.1914784,13.3794091 Z M10.6882178,15.684057 C10.3530434,15.684057 10.0810178,15.9560826 10.0810178,16.291257 L10.0810178,18.823281 C10.0810178,19.1584554 10.3530434,19.430481 10.6882178,19.430481 C11.0233922,19.430481 11.2954178,19.1584554 11.2954178,18.823281 L11.2954178,16.291257 C11.2954178,15.9560826 11.0233922,15.684057 10.6882178,15.684057 Z M18.8233619,10.1975192 L16.3200787,10.1975192 C15.9849043,10.1975192 15.7128787,10.4695448 15.7128787,10.8047192 C15.7128787,11.1398936 15.9849043,11.4119192 16.3200787,11.4119192 L18.8233619,11.4119192 C19.1585363,11.4119192 19.4305619,11.1398936 19.4305619,10.8047192 C19.4305619,10.4695448 19.1585363,10.1975192 18.8233619,10.1975192 Z" id="形状"></path>
                        </g>
                    </g>
                </g>
            </g>
        </g>
    </g>
</svg>