<?xml version="1.0" encoding="UTF-8"?>
<svg width="18px" height="21px" viewBox="0 0 18 21" version="1.1" xmlns="http://www.w3.org/2000/svg" xmlns:xlink="http://www.w3.org/1999/xlink">
    <!-- Generator: Sketch 63.1 (92452) - https://sketch.com -->
    <title>铃铛-红@1x</title>
    <desc>Created with Sketch.</desc>
    <g id="新版定稿（20202-8-22）" stroke="none" stroke-width="1" fill="none" fill-rule="evenodd">
        <g id="项目-设置" transform="translate(-729.000000, -223.000000)" fill="#FC766A">
            <g id="铃铛-红" transform="translate(729.000000, 223.000000)">
                <path d="M8.70995941,-1.08357767e-13 C9.08930561,-1.08357767e-13 9.40658361,0.296969925 9.44300085,0.686078158 L9.44643774,0.758936016 L9.44643774,1.05087342 C12.7586263,1.41617463 15.3382644,4.305697 15.3382644,7.81602906 L15.3382644,13.4635249 C15.7894801,14.5159162 16.4572204,15.3305075 17.2275768,15.7848572 C17.8835335,16.1709027 17.6174193,17.2025497 16.8622835,17.2025497 L11.8915458,17.2025497 C11.7641046,18.9163731 10.3774537,20.24 8.70946842,20.24 C7.04148317,20.24 5.65483224,18.9163731 5.52739105,17.2025497 L0.737827008,17.2025497 C-0.0173087784,17.2025497 -0.283422932,16.1714086 0.372042757,15.7848572 C1.02750847,15.3993177 1.60932635,14.7516923 2.04728548,13.9163568 L2.13271696,13.7463551 L2.13271696,7.81704096 C2.13271696,4.32441742 4.68584183,1.447038 7.9729901,1.05745086 L7.97348108,0.758936016 C7.97348108,0.339787228 8.30321366,-1.08357767e-13 8.70995941,-1.08357767e-13 Z" id="路径" fill-rule="nonzero"></path>
                <path d="M10.4112243,17.2025497 L7.00869447,17.2025497 C7.12936639,18.0752396 7.85453905,18.7235911 8.70995941,18.7235911 C9.56537977,18.7235911 10.2905524,18.0752396 10.4112243,17.2025497 L10.4112243,17.2025497 Z" id="路径"></path>
                <path d="M8.87443958,2.53181055 L8.70750448,2.52978673 L8.59654175,2.53181055 C5.82738323,2.60770415 3.60567362,4.94421516 3.60567362,7.81602906 L3.60567362,13.9209104 C3.60566982,14.032313 3.5818665,14.1423487 3.53595365,14.2432052 C3.30434387,14.756396 3.01567408,15.2401281 2.67574697,15.6846777 L14.9238726,15.6836658 C14.5261743,15.1675893 14.1873942,14.5700536 13.921771,13.9102853 C13.8844966,13.8179252 13.8653076,13.7188828 13.8653077,13.6188538 L13.8653077,7.81552309 C13.8653077,4.94370921 11.6431071,2.6071982 8.87443958,2.5313046 L8.87443958,2.53181055 Z" id="路径"></path>
            </g>
        </g>
    </g>
</svg>