<?xml version="1.0" encoding="UTF-8"?>
<svg width="17px" height="17px" viewBox="0 0 17 17" version="1.1" xmlns="http://www.w3.org/2000/svg" xmlns:xlink="http://www.w3.org/1999/xlink">
    <!-- Generator: Sketch 59 (86127) - https://sketch.com -->
    <title>路径@1</title>
    <desc>Created with Sketch.</desc>
    <g id="客服系统" stroke="none" stroke-width="1" fill="none" fill-rule="evenodd">
        <g id="画板备份" transform="translate(-596.000000, -87.000000)" fill="#FFFFFF" fill-rule="nonzero">
            <g id="编组-34" transform="translate(596.000000, 87.000000)">
                <path d="M16.5566314,14.4151146 L10.642248,8.5 L16.5566314,2.58488545 C17.1449878,1.99645624 17.1449878,1.03255316 16.5566314,0.441321905 C15.9682749,-0.147107302 15.004491,-0.147107302 14.4133328,0.441321905 L8.49894936,6.35643646 L2.58456594,0.441321905 C1.99620947,-0.147107302 1.03242553,-0.147107302 0.441267356,0.441321905 C-0.147089119,1.02975111 -0.147089119,1.99365419 0.441267356,2.58488545 L6.35565078,8.5 L0.441267356,14.4151146 C-0.147089119,15.0035438 -0.147089119,15.9674468 0.441267356,16.5586781 C1.02962383,17.1471073 1.99340777,17.1471073 2.58456594,16.5586781 L8.49894936,10.6435635 L14.4133328,16.5586781 C15.0016893,17.1471073 15.9654732,17.1471073 16.5566314,16.5586781 C17.1477895,15.9702489 17.1477895,15.0063458 16.5566314,14.4151146 Z" id="路径"></path>
            </g>
        </g>
    </g>
</svg>