<?xml version="1.0" encoding="UTF-8"?>
<svg width="23px" height="19px" viewBox="0 0 23 19" version="1.1" xmlns="http://www.w3.org/2000/svg" xmlns:xlink="http://www.w3.org/1999/xlink">
    <!-- Generator: Sketch 63.1 (92452) - https://sketch.com -->
    <title>拳头-灰色@1x</title>
    <desc>Created with Sketch.</desc>
    <g id="workfly-0208✅" stroke="none" stroke-width="1" fill="none" fill-rule="evenodd">
        <g id="OKR-O编辑-kr详情" transform="translate(-1190.000000, -428.000000)" fill="#E2E2E2">
            <g id="拳头-灰色" transform="translate(1190.000000, 428.000000)">
                <path d="M19.1011796,4.12466934 C19.1290934,4.39025155 19.1384463,4.6523217 19.13052,4.9088189 C19.3179436,4.99145175 19.5029103,5.08251513 19.6845071,5.18185309 C20.3897588,5.56764316 20.9586937,6.00452972 21.5607042,7.19176031 C22.1627148,8.37899089 22.2008547,10.3354633 21.9765749,11.4903735 C21.4592296,14.154388 19.7789015,16.6293213 16.7733237,18.0219301 C15.3032853,18.7030598 13.4859058,18.9905105 11.6084225,18.9905105 C9.76921939,18.9905105 8.12029573,18.7685115 6.61693173,18.1750832 C4.18791154,17.2162671 2.29310378,15.1067929 1.4986868,12.9182708 L1.33690738,12.5085713 C0.89662147,11.3732981 0.40299642,9.95146982 0.279724691,9.57207844 C-0.488269489,7.2084354 0.379456988,4.80809345 2.21784602,4.21076464 C2.61575018,4.08147774 3.02651395,4.04725329 3.43371718,4.09696355 C3.86897577,3.06413622 4.65927983,2.30428935 5.67281989,2.08885476 C6.47761489,1.9177903 7.29344134,2.11755349 8.0049468,2.59092244 C8.42506544,1.48478239 9.24079153,0.664260145 10.3006008,0.438990738 C11.2682159,0.233317794 12.2517776,0.563696766 13.0508022,1.26115513 C13.5840054,0.564256023 14.3124628,0.103196504 15.1499749,0.0151704354 C17.0723823,-0.186882731 18.8413969,1.6530026 19.1011796,4.12466934 Z M15.7032156,1.57131667 L15.2807838,1.58942614 C14.5034336,1.64986424 13.9107217,2.29263031 13.8972175,3.05662771 L13.9015694,3.20118533 L14.1145172,4.9555651 C13.799574,5.03676707 13.5209865,5.14818236 13.2925926,5.29043066 L13.1868213,5.3597374 L13.0908779,5.42963684 L13.0933586,5.16831232 C12.9497459,3.11385201 12.6211178,2.82002038 12.1074742,2.2868174 C11.8709526,2.04128919 11.5311524,1.89055775 11.0880736,1.83462308 C10.9256132,1.81411393 10.7608908,1.82034428 10.6004438,1.85306685 C9.83645767,2.008879 9.32749622,2.71982684 9.40830878,3.47967219 L9.43045427,3.62259261 L10.1583729,7.19176031 L10.3951067,8.08555435 C10.5733832,8.75864103 11.2027519,9.21170322 11.8976222,9.16716658 C12.4953201,9.12885804 12.9752233,8.68375863 13.072441,8.11226046 C13.1228249,8.16201353 13.4689026,8.65777588 13.5106886,8.75105926 C13.9492506,9.73010835 15.5657351,9.30275437 15.8100067,9.30275437 C16.0704143,9.30275437 16.1405238,9.63823142 15.8100067,10.9526184 C13.802141,11.7943797 12.4444236,12.5145855 11.7368545,13.1132357 L11.6187383,13.2176181 C10.616433,14.1457027 10.774583,12.408185 11.2362034,11.6612737 L11.4541077,11.3240833 C11.7116339,10.9460222 11.7345822,10.9933685 11.6970913,10.8565468 C11.6544982,10.7011043 10.8780852,10.7326146 10.5439911,10.4932098 L10.3951067,10.3946838 C10.1315744,10.0910031 9.81952143,12.4812849 6.72626379,11.161092 C6.28154869,12.2424005 5.36817351,12.279169 3.85064176,12.255999 C2.95999478,12.2424005 2.69075745,12.5790318 3.67366079,13.881159 C4.65656413,15.1832862 4.5680668,15.0916506 5.97816305,16.1909735 C9.59003836,18.2728114 12.4154096,17.8347004 14.9978044,17.0001694 C17.5801992,16.1656384 19.590492,14.0841095 20.1615563,12.1163032 C20.5422658,10.8044323 20.6602669,8.75105926 20.1615563,7.87648245 C19.9388001,7.47909832 19.5444982,7.01499171 18.9786505,6.4841626 C18.4824211,6.11155365 18.2162628,5.92907715 17.6630096,5.92907715 C17.2941742,5.92907715 17.2007881,5.89365186 17.3828513,5.82280128 L17.2633587,3.10571306 C17.2641203,3.07365084 17.2638534,3.04157246 17.2625584,3.00952735 C17.2291087,2.18177581 16.5309672,1.53786696 15.7032156,1.57131667 Z M2.60374563,5.53556394 L2.46702098,5.56801506 L2.40889107,5.58468354 C2.37579979,5.59417231 2.3430717,5.60488474 2.31077424,5.61679875 C1.63158396,5.86734106 1.26458422,6.59144089 1.44569159,7.27739785 L1.48612995,7.40544287 L2.49938077,10.1522448 L2.50750235,10.1817431 C2.71456379,10.9038522 3.43567709,11.3392973 4.15945119,11.2046097 L4.31801818,11.1660237 L4.40900984,11.1365352 C5.09366176,10.888522 5.46707947,10.1623334 5.28894854,9.47128401 L5.24902685,9.34224935 L5.07995717,8.87552475 L4.30414542,6.53750071 C4.06570255,5.81891768 3.33371515,5.39776617 2.60374563,5.53556394 Z M6.43645229,3.27657456 L6.29833644,3.31227028 L6.19264851,3.34501093 C5.46373042,3.57081958 5.02786032,4.30331361 5.15953473,5.04014012 L5.1909416,5.17822322 L6.12797962,8.56132555 L6.37685803,9.17902558 C6.59937222,9.73129133 7.12500454,10.0955133 7.71161974,10.1174175 L7.8479648,10.1163255 L8.08582345,10.1036546 C8.133778,10.1011 8.18152685,10.0955608 8.22879264,10.087069 C8.81548316,9.98166447 9.21874459,9.45098718 9.17808619,8.86962604 L9.16248405,8.74440939 L8.90864842,7.33153927 L8.14947593,4.28775962 C7.92189559,3.55312245 7.17436129,3.12303717 6.43645229,3.27657456 Z" id="形状"></path>
                <path d="M17.8391247,4.92321131 L17.8391247,5.92321131 L13.6803764,6.05459852 L13.6390824,6.06947456 C12.8087064,6.37844467 12.6576976,7.02527348 13.4119555,8.55580515 L13.5106886,8.75105926 L12.5169167,9.21244635 C11.4118581,7.07914677 11.677848,5.56489433 13.2428219,4.99824241 L13.4040072,4.94474319 L13.5491563,4.92321131 L17.8391247,4.92321131 Z" id="路径" fill-rule="nonzero"></path>
            </g>
        </g>
    </g>
</svg>