<?xml version="1.0" encoding="UTF-8"?>
<svg width="27px" height="27px" viewBox="0 0 27 27" version="1.1" xmlns="http://www.w3.org/2000/svg" xmlns:xlink="http://www.w3.org/1999/xlink">
    <!-- Generator: Sketch 63.1 (92452) - https://sketch.com -->
    <title>okr@1x</title>
    <desc>Created with Sketch.</desc>
    <g id="workfly-0208✅" stroke="none" stroke-width="1" fill="none" fill-rule="evenodd">
        <g id="OKR-20220730" transform="translate(-28.000000, -241.000000)" fill="#FFFFFF" fill-rule="nonzero">
            <g id="okr" transform="translate(28.000000, 241.000000)">
                <path d="M12.9532,0.6204 C13.9356128,0.6204 14.9035872,0.729891209 15.8456928,0.945264 C16.1600294,1.01705094 16.4121904,1.25108138 16.5071894,1.5591983 C16.6021884,1.86731522 16.5255926,2.20270834 16.306255,2.43903831 C16.0869174,2.67536828 15.7581606,2.77673096 15.443824,2.704944 C14.626742,2.5185409 13.7912745,2.42470216 12.9532,2.4252 C6.80665281,2.4252 1.82360001,7.4082528 1.82360001,13.5548 C1.82360001,19.7013472 6.80665281,24.6844 12.9532,24.6844 C19.0997472,24.6844 24.0828,19.7013472 24.0828,13.5548 C24.0828,12.7221856 23.9913568,11.9016032 23.81208,11.1038816 C23.7413677,10.7893301 23.8438381,10.460948 24.0808915,10.2424336 C24.3179449,10.0239192 24.6535674,9.9484701 24.9613331,10.0445072 C25.2690988,10.1405443 25.5022509,10.3934773 25.5729632,10.7080288 C25.7817184,11.635696 25.8876,12.5886304 25.8876,13.5548 C25.8876,20.6981984 20.0965984,26.4892 12.9532,26.4892 C5.80980159,26.4892 0.0188000094,20.6981984 0.0188000094,13.5548 C0.0188000094,6.41140161 5.80980159,0.6204 12.9532,0.6204 Z M12.9532,7.53879999 C13.4515817,7.53879999 13.8556,7.94281823 13.8556,8.44119999 C13.8556,8.93958175 13.4515817,9.34359999 12.9532,9.34359999 C10.6274185,9.34360001 8.74200002,11.2290185 8.74200003,13.5548 C8.74200003,15.8805815 10.6274185,17.766 12.9532,17.766 C15.2789815,17.766 17.1644,15.8805815 17.1644,13.5548 C17.1644,13.0564183 17.5684183,12.6524 18.0668,12.6524 C18.5651818,12.6524 18.9692,13.0564183 18.9692,13.5548 C18.9692,16.8774368 16.2758368,19.5708 12.9532,19.5708 C9.63056316,19.5708 6.9372,16.8774368 6.9372,13.5548 C6.9372,10.2321632 9.63056319,7.53879999 12.9532,7.53879999 L12.9532,7.53879999 Z M22.058416,0.195068791 C22.1244795,0.260931422 22.1743212,0.341254958 22.2040032,0.429692791 L23.0799328,3.0532704 C23.1396694,3.23297475 23.2805343,3.37406256 23.460144,3.4340832 L26.0765024,4.30459839 C26.2740295,4.37073035 26.4232905,4.53433736 26.4710685,4.73708759 C26.5188465,4.93983781 26.4583418,5.15287603 26.3111264,5.3002464 L22.1588832,9.45369279 C21.9976019,9.61485298 21.7590743,9.67099083 21.5428448,9.59867841 L19.0257504,8.75764161 L15.0894816,12.694512 C14.8614398,12.9225538 14.5290617,13.0116142 14.2175509,12.9281452 C13.90604,12.8446761 13.6627223,12.6013584 13.5792532,12.2898476 C13.4957842,11.9783367 13.5848446,11.6459586 13.8128864,11.4179168 L17.7467488,7.48465599 L16.9081184,4.96395201 C16.8364568,4.74796665 16.8927975,4.51003184 17.0537056,4.3491168 L21.2077536,0.195068791 C21.4426783,-0.0397849824 21.8234913,-0.0397849824 22.058416,0.195068791 L22.058416,0.195068791 Z M20.6825568,3.27285441 L18.854896,5.0999136 L19.4913888,7.0111968 L21.4080864,7.6519008 L23.2327392,5.827248 L22.4650976,5.57156799 C21.7934936,5.34803409 21.2543653,4.84015327 20.9911776,4.1830752 L20.942448,4.05072321 L20.6825568,3.27285441 L20.6825568,3.27285441 Z" id="形状"></path>
            </g>
        </g>
    </g>
</svg>