<?xml version="1.0" encoding="UTF-8"?>
<svg width="12px" height="11px" viewBox="0 0 12 11" version="1.1" xmlns="http://www.w3.org/2000/svg" xmlns:xlink="http://www.w3.org/1999/xlink">
    <!-- Generator: Sketch 63.1 (92452) - https://sketch.com -->
    <title>新建企业@1x</title>
    <desc>Created with Sketch.</desc>
    <g id="新版定稿" stroke="none" stroke-width="1" fill="none" fill-rule="evenodd">
        <g id="首页-默认状态" transform="translate(-297.000000, -808.000000)" fill="#8890E1">
            <g id="新建企业" transform="translate(297.000000, 808.000000)">
                <polygon id="路径" points="11.7938174 2.32009524 11.7938174 2.89185318 0.19334127 2.89185318 0.19334127 2.32009524 5.99353412 1.30076917e-05"></polygon>
                <path d="M0.966706348,2.70677777 L11.0204524,2.70677777 L11.0204524,3.28680158 C11.0204524,3.39358102 10.9338905,3.48014285 10.8271111,3.48014285 L1.16004762,3.48014285 C1.05326818,3.48014285 0.966706348,3.39358102 0.966706348,3.28680158 L0.966706348,2.70677777 L0.966706348,2.70677777 Z" id="矩形"></path>
                <rect id="矩形" x="2.12675397" y="3.86682539" width="1.54673016" height="4.83353174"></rect>
                <path d="M1.12520828,8.50701586 L10.8619504,8.50701586 C10.9541126,8.50701586 11.0334627,8.5720674 11.0515372,8.66243979 L11.1675419,9.2424636 C11.1884831,9.34716945 11.1205784,9.44902648 11.0158725,9.46996765 C11.0033879,9.47246459 10.9906871,9.47372221 10.9779552,9.47372221 L1.00920351,9.47372221 C0.902424079,9.47372221 0.815862244,9.38716038 0.815862244,9.28038094 C0.815862244,9.26764903 0.817119869,9.25494826 0.819616801,9.2424636 L0.935621563,8.66243979 C0.95369604,8.5720674 1.03304616,8.50701586 1.12520828,8.50701586 Z" id="矩形"></path>
                <path d="M0.357125896,9.66706348 L11.6300328,9.66706348 C11.7245456,9.66706348 11.8052057,9.73539281 11.8207435,9.82861964 L11.9496377,10.6019847 C11.9671921,10.7073113 11.8960387,10.8069261 11.7907121,10.8244805 C11.7802076,10.8262312 11.7695764,10.8271111 11.758927,10.8271111 L0.228231717,10.8271111 C0.121452282,10.8271111 0.034890447,10.7405493 0.034890447,10.6337698 C0.034890447,10.6231204 0.0357703119,10.6124892 0.0375210631,10.6019847 L0.166415243,9.82861964 C0.181953049,9.73539281 0.262613114,9.66706348 0.357125896,9.66706348 Z" id="矩形备份-3"></path>
                <rect id="矩形备份" x="5.22021428" y="3.86682539" width="1.54673016" height="4.83353174"></rect>
                <rect id="矩形备份-2" x="8.31367459" y="3.86682539" width="1.54673016" height="4.83353174"></rect>
            </g>
        </g>
    </g>
</svg>