<?xml version="1.0" encoding="UTF-8"?>
<svg width="14px" height="15px" viewBox="0 0 14 15" version="1.1" xmlns="http://www.w3.org/2000/svg" xmlns:xlink="http://www.w3.org/1999/xlink">
    <!-- Generator: Sketch 59 (86127) - https://sketch.com -->
    <title>QQ</title>
    <desc>Created with Sketch.</desc>
    <g id="客服系统" stroke="none" stroke-width="1" fill="none" fill-rule="evenodd">
        <g id="客户" transform="translate(-69.000000, -893.000000)" fill="#000000" fill-rule="nonzero">
            <g id="编组-17备份-7" transform="translate(69.000000, 888.000000)">
                <g id="QQ" transform="translate(0.000000, 5.000000)">
                    <path d="M13.2734907,7.12660668 C12.7648354,6.34461299 12.5444046,5.5025847 12.4124191,4.61128353 C11.9323592,1.36947896 8.64762075,-0.725425698 5.4669395,0.2340429 C3.36662515,0.867620616 2.08757363,2.29279237 1.6620896,4.40187293 C1.4633075,5.3871593 1.27318728,6.34856294 0.689193348,7.22690281 C0.0997748354,8.11338717 -0.0588274152,9.15432558 0.0180504349,10.2101803 C0.0624829045,10.8202097 0.253898217,11.3757734 0.719136274,11.8279712 C0.859083923,11.9639761 0.997754778,12.1885847 0.990281445,12.366815 C0.936503889,13.6517951 1.71735464,14.3309753 2.82355669,14.7060875 C4.04894215,15.1216276 5.30271943,15.1033753 6.51377558,14.6076933 C6.84380788,14.4725737 7.10909067,14.4237095 7.45560877,14.587364 C8.45167407,15.0577792 9.5226095,15.0652032 10.5801973,14.8781363 C12.2681786,14.5795823 13.0106209,13.6961294 13.0161617,12.0565505 C13.544995,11.6840356 13.8763218,11.1616222 13.9526046,10.5079021 C14.0920797,9.31316018 13.9404245,8.15190801 13.2734992,7.126618 L13.2734907,7.12660668 Z M12.5887333,9.92571398 C12.5793533,10.2285923 12.4533881,10.5280481 12.3311513,11.0348315 C11.8996185,10.6792228 11.6558613,10.4783493 11.3958286,10.264057 C11.0948636,10.713002 10.8085272,11.1400875 10.4974827,11.6040669 C10.685573,11.7044531 10.9065989,11.7733574 11.05624,11.914148 C11.2644724,12.1100333 11.5219159,12.340177 11.57249,12.5910903 C11.6456751,12.9542578 11.3070328,13.1658414 10.9930638,13.3025107 C9.99619307,13.7364562 8.96079615,13.7850153 7.99126375,13.3100192 C7.29819336,12.9704666 6.72820038,12.9476853 6.03502909,13.3026809 C5.12681393,13.7677335 4.14424168,13.7134192 3.18269565,13.3844917 C3.07792312,13.3486516 2.97631708,13.2976242 2.88218558,13.2398716 C2.25223664,12.8534802 2.23582267,12.362718 2.84767555,11.9657713 C3.05244316,11.8329162 3.28129131,11.73522 3.51101336,11.6152373 C3.20843744,11.1502529 2.926898,10.7175503 2.6230617,10.2506076 C2.36819198,10.4622078 2.11276133,10.6742872 1.84473033,10.8968188 C1.3608021,10.5350307 1.3851272,10.0854884 1.41142923,9.66541928 C1.46692172,8.77920778 1.7105575,7.94604276 2.33394291,7.26431858 C2.56762052,7.00877309 2.64771857,6.73581054 2.69334011,6.39249429 C2.79268772,5.64482556 2.9457951,4.89632159 3.16283129,4.17253559 C3.68770894,2.42191221 5.38473695,1.27436341 7.22343335,1.37131523 C9.03148396,1.46662766 10.5648169,2.74525742 10.9442296,4.49856457 C11.1040049,5.23688752 11.2018818,5.9881152 11.3702677,6.72431343 C11.4205978,6.94435928 11.5969457,7.1464257 11.7455556,7.33424135 C12.3516344,8.10024723 12.6181758,8.97322955 12.5887237,9.92571835 L12.5887333,9.92571398 Z" id="形状"></path>
                </g>
            </g>
        </g>
    </g>
</svg>