<?xml version="1.0" encoding="UTF-8"?>
<svg width="17px" height="16px" viewBox="0 0 17 16" version="1.1" xmlns="http://www.w3.org/2000/svg" xmlns:xlink="http://www.w3.org/1999/xlink">
    <!-- Generator: Sketch 59 (86127) - https://sketch.com -->
    <title>路径</title>
    <desc>Created with Sketch.</desc>
    <g id="客服系统" stroke="none" stroke-width="1" fill="none" fill-rule="evenodd">
        <g id="客户" transform="translate(-67.000000, -476.000000)" fill="#000000" fill-rule="nonzero">
            <g id="编组-15备份-13" transform="translate(67.000000, 475.000000)">
                <g id="编组-3" transform="translate(0.000000, 1.000000)">
                    <path d="M5.43965293,4.56652013 L7.20289189,1.04802738 C7.44820826,0.55817853 7.95131534,0.25 8.50026401,0.25 C9.04921267,0.25 9.55231975,0.55817853 9.79754628,1.04784803 L11.5608789,4.56652767 L15.5068351,5.13123558 C16.0513389,5.20831525 16.5066505,5.58626802 16.6782737,6.10779284 C16.8505738,6.63137447 16.7067615,7.20570722 16.3087082,7.58881925 L13.4590875,10.3242841 L14.1313613,14.1843765 C14.2255021,14.7272588 13.9997228,15.2747467 13.5517304,15.5954212 C13.3035727,15.7735602 13.0062351,15.8674715 12.7035404,15.8674715 C12.4718082,15.8674715 12.2422654,15.8118634 12.0336591,15.704248 L8.50077984,13.8747173 L4.96766255,15.7041165 C4.48161691,15.9560542 3.89455048,15.9144943 3.44961924,15.5960102 C3.00080517,15.2747467 2.7750259,14.7272588 2.86926027,14.1838379 L3.54144052,10.3242841 L0.691876182,7.58887336 C0.293493448,7.20652959 0.149268959,6.63181639 0.321714424,6.10779284 C0.493264555,5.58649002 0.947586327,5.20940739 1.49203736,5.13139438 L5.43965293,4.56652013 Z M6.42905569,5.94022278 L1.82653118,6.59880959 L5.15618592,9.79507829 L4.36709165,14.325933 L8.50082786,12.1855416 L12.6333816,14.3256196 L11.8443421,9.79507829 L15.1739295,6.59887506 L10.5714686,5.94021532 L8.50026402,1.80718592 L6.42905569,5.94022278 Z" id="路径"></path>
                </g>
            </g>
        </g>
    </g>
</svg>