<?xml version="1.0" encoding="UTF-8"?>
<svg width="11px" height="17px" viewBox="0 0 11 17" version="1.1" xmlns="http://www.w3.org/2000/svg" xmlns:xlink="http://www.w3.org/1999/xlink">
    <!-- Generator: Sketch 59 (86127) - https://sketch.com -->
    <title>形状</title>
    <desc>Created with Sketch.</desc>
    <g id="客服系统" stroke="none" stroke-width="1" fill="none" fill-rule="evenodd">
        <g id="客户" transform="translate(-70.000000, -542.000000)" fill="#000000" fill-rule="nonzero">
            <g id="编组-17备份-2" transform="translate(69.000000, 540.000000)">
                <g id="编组-4" transform="translate(1.000000, 2.000000)">
                    <path d="M4.84239494,14.2841744 C4.48653813,13.9058932 4.50204364,13.2644554 4.84239494,12.9026215 C5.03578485,12.6970353 5.25238988,12.5983581 5.49991795,12.6065719 C5.74746293,12.6148042 5.96212744,12.715544 6.1419879,12.9026215 C6.32571077,13.093825 6.41662902,13.3216768 6.41273108,13.593398 C6.40886778,13.8646029 6.31990801,14.0950338 6.1419879,14.2841744 C5.79387455,14.6540746 5.20597827,14.6706874 4.84239494,14.2841744 L4.84239494,14.2841744 Z M1.40002092,1.83373499 C1.40002092,1.59534749 1.57021433,1.39797509 1.81001586,1.39797509 L9.18210873,1.39797509 C9.42194579,1.39797509 9.59210367,1.59534749 9.59210367,1.83373499 L9.59210367,10.5424762 C9.59210367,10.797401 9.42194579,10.9783278 9.18210873,10.9783278 L1.81001586,10.9783278 C1.57021433,10.9783278 1.40002092,10.797401 1.40002092,10.5424762 L1.40002092,1.83373499 Z M0,15.6491198 C0,15.8795507 0.185680307,16.0769231 0.409873137,16.0769231 L10.5822785,16.0769231 C10.8220801,16.0769231 11,15.8877645 11,15.6491198 L11,0.427711549 C11,0.197372404 10.8220631,1.24344979e-14 10.5822785,1.24344979e-14 L0.409856219,1.24344979e-14 C0.185663388,1.24344979e-14 0,0.189066871 0,0.427711549 L0,15.6491198 L0,15.6491198 Z" id="形状"></path>
                </g>
            </g>
        </g>
    </g>
</svg>