<?xml version="1.0" encoding="UTF-8"?>
<svg width="14px" height="14px" viewBox="0 0 14 14" version="1.1" xmlns="http://www.w3.org/2000/svg" xmlns:xlink="http://www.w3.org/1999/xlink">
    <!-- Generator: Sketch 59 (86127) - https://sketch.com -->
    <title>指数</title>
    <desc>Created with Sketch.</desc>
    <g id="客服系统" stroke="none" stroke-width="1" fill="none" fill-rule="evenodd">
        <g id="客户" transform="translate(-67.000000, -427.000000)" fill="#000000" fill-rule="nonzero">
            <g id="编组-15备份-12" transform="translate(67.000000, 424.000000)">
                <g id="指数" transform="translate(0.000000, 3.000000)">
                    <path d="M1.24050633,14 L2.39240506,14 L2.39240506,10.3636364 L1.24050633,10.3636364 L1.24050633,14 Z M4.78481013,14 L5.93670886,14 L5.93670886,8.63636364 L4.78481013,8.63636364 L4.78481013,14 Z M8.7721519,14 L9.92405063,14 L9.92405063,7.27272727 L8.7721519,7.27272727 L8.7721519,14 Z M12.4936709,14 L13.556962,14 L13.556962,5.27272727 L12.4936709,5.27272727 L12.4936709,14 Z M13.2025316,3.81818182 L14,0 L9.65822785,0.909090909 L10.9873418,2 L7.26582278,5.36363636 L5.40506329,3.90909091 L0,8.81818182 L0.797468354,9.45454545 L5.40506329,5.27272727 L7.26582278,6.72727273 L11.7848101,2.63636364 L13.2025316,3.81818182 Z" id="形状"></path>
                </g>
            </g>
        </g>
    </g>
</svg>