<?xml version="1.0" encoding="UTF-8"?>
<svg width="14px" height="18px" viewBox="0 0 14 18" version="1.1" xmlns="http://www.w3.org/2000/svg" xmlns:xlink="http://www.w3.org/1999/xlink">
    <!-- Generator: Sketch 59 (86127) - https://sketch.com -->
    <title>Locate</title>
    <desc>Created with Sketch.</desc>
    <g id="客服系统" stroke="none" stroke-width="1" fill="none" fill-rule="evenodd">
        <g id="客户" transform="translate(-67.000000, -613.000000)" fill="#000000" fill-rule="nonzero">
            <g id="编组-17备份-3" transform="translate(67.000000, 612.000000)">
                <g id="Locate" transform="translate(0.000000, 1.000000)">
                    <path d="M7,0 C3.1428491,0 0,3 0,6.68181641 C0,12.1363629 6.28571662,17.3181848 6.5714285,17.5909095 L7,18 L7.4285715,17.5909095 C7.71428707,17.3181812 14,12.1363629 14,6.68181641 C14,2.99998916 10.8571325,0 7,0 L7,0 Z M7.00000552,16.0909149 C5.57143139,14.863641 1.42857782,10.6363684 1.42857782,6.68181641 C1.42857782,3.81818081 4.00000316,1.36364102 7.00000552,1.36364102 C10.142873,1.36364102 12.5714332,3.81818081 12.5714332,6.68181641 C12.5714332,10.7727219 8.42856493,14.863641 7.00000552,16.0909149 Z M7.00000552,3.40908498 C6.14286068,3.40908498 5.28571767,3.68181319 4.57142613,4.36363018 C3.85713985,4.90908498 3.57142613,5.72726769 3.57142613,6.68181641 C3.57142613,8.45453568 5.1428562,9.95454784 7.00000552,9.95454784 C8.85714196,9.95454784 10.4285849,8.45454798 10.4285849,6.68181641 C10.4285849,4.90909714 8.85715485,3.40908498 7.00000552,3.40908498 Z M7.00000395,8.59090681 C5.85714695,8.59090681 5.00000395,7.77272425 5.00000395,6.68181641 C5.00000395,6.13636176 5.14286136,5.72727121 5.57143323,5.3181789 C6.00000395,4.90908835 6.42857808,4.77272425 7.00000395,4.77272425 C8.14286594,4.77272425 9.00000395,5.59090711 9.00000395,6.68181465 C9.00000395,7.77272425 8.1428641,8.59090681 7.00000395,8.59090681 L7.00000395,8.59090681 Z" id="形状"></path>
                </g>
            </g>
        </g>
    </g>
</svg>