<?xml version="1.0" encoding="UTF-8"?>
<svg width="46px" height="44px" viewBox="0 0 46 44" version="1.1" xmlns="http://www.w3.org/2000/svg" xmlns:xlink="http://www.w3.org/1999/xlink">
    <!-- Generator: Sketch 59 (86127) - https://sketch.com -->
    <title>编组 2@1</title>
    <desc>Created with Sketch.</desc>
    <g id="客服系统" stroke="none" stroke-width="1" fill="none" fill-rule="evenodd">
        <g id="编组-18备份" transform="translate(-1.000000, -1.000000)" fill="#333333" fill-rule="nonzero">
            <path d="M24.1086174,0.647989153 L24.5050021,0.650617548 C37.0503568,0.828370209 47.2682411,9.78657786 47.4750245,20.9765115 L47.4769347,21.3852838 L47.4738225,21.6639602 L47.4596255,22.1078778 C46.9725663,33.071469 36.840305,41.7490283 24.4879116,41.9239666 L24.1068191,41.926413 L23.5738637,41.9223724 C20.9837541,41.8753473 18.4173277,41.4385134 15.9480379,40.6247505 L9.01460044,44.8037421 L8.81727879,44.9106021 C8.34689289,45.1469608 7.84608208,45.2868835 7.23742542,45.3415652 L7.02735847,45.3505553 L6.86061539,45.3499754 L6.62944998,45.338908 C5.83621587,45.2755672 5.0880602,44.9865758 4.39114063,44.4592849 L4.24599324,44.3393991 L4.13559338,44.2402936 L3.97650428,44.0856472 C2.88246328,42.9559507 2.51723253,41.3127618 3.03415082,39.7470662 L3.11298917,39.538952 L5.50374433,33.7595947 L5.20953454,33.4099194 C2.50528386,30.123873 0.97102924,26.2153534 0.790823604,22.106384 C0.778873792,21.8339097 0.772896643,21.5609372 0.772896643,21.2875935 C0.772896643,9.98794246 11.0495913,0.836042374 23.7504066,0.650597834 L24.1086174,0.647989153 Z M24.1160959,2.64798718 L23.7722905,2.65046471 C12.1182958,2.82064921 2.77289664,11.1431851 2.77289664,21.2875935 C2.77289664,21.5317311 2.77823405,21.7754869 2.78890297,22.0187549 C2.95765691,25.8666078 4.45745716,29.5222442 7.10798061,32.5570545 L7.83087548,33.3661389 L4.97303186,40.2732446 L4.91988516,40.412118 C4.64786133,41.2374911 4.84013467,42.1025371 5.39016261,42.6712539 L5.4941017,42.7731396 L5.54294715,42.8174223 L5.62754185,42.8877423 C5.99251847,43.1633706 6.37862678,43.3125133 6.75431617,43.3431061 L6.90216151,43.3510074 L6.97637255,43.3516798 L7.09911232,43.3468364 C7.41855023,43.3176305 7.67635821,43.2456009 7.88993702,43.1388972 L8.01993316,43.069175 L15.7160266,38.4293346 L16.1598365,38.5845669 C18.5656726,39.4260611 21.0757029,39.8766871 23.5994906,39.9225651 L24.1076113,39.9264632 L24.4670664,39.9240893 C35.8032956,39.7635164 45.0241231,31.8665353 45.4611162,22.0317105 L45.4743812,21.6218323 L45.4770005,21.3799011 L45.4752077,20.9999553 C45.2896395,10.9625114 35.9948705,2.81361598 24.4840215,2.65049398 L24.1160959,2.64798718 Z M16.0067741,26.0877228 C17.8018553,28.3539371 21.0310719,29.7905095 24.6061287,29.7905095 C28.1356249,29.7905095 31.3299528,28.3905313 33.1397144,26.169582 C33.5321724,25.6879554 34.2407579,25.61567 34.7223845,26.0081279 C35.2040111,26.4005859 35.2762966,27.1091715 34.8838386,27.5907981 C32.6299375,30.3567979 28.788558,32.0403593 24.6061287,32.0403593 C20.3683244,32.0403593 16.4824161,30.3116463 14.2431656,27.4846872 C13.8574046,26.9976801 13.9394807,26.2901618 14.4264877,25.9044008 C14.9134947,25.5186397 15.6210131,25.6007158 16.0067741,26.0877228 Z M30.8164724,16 C32.0426332,16 33.036633,16.9658297 33.036633,18.157241 C33.036633,19.3486523 32.0426332,20.314482 30.8164724,20.314482 C29.5903116,20.314482 28.5963119,19.3486523 28.5963119,18.157241 C28.5963119,16.9658297 29.5903116,16 30.8164724,16 Z M18.0851839,16 C19.3113447,16 20.3053444,16.9658297 20.3053444,18.157241 C20.3053444,19.3486523 19.3113447,20.314482 18.0851839,20.314482 C16.8590231,20.314482 15.8650234,19.3486523 15.8650234,18.157241 C15.8650234,16.9658297 16.8590231,16 18.0851839,16 Z" id="形状结合"></path>
        </g>
    </g>
</svg>