<?xml version="1.0" encoding="UTF-8"?>
<svg width="16px" height="16px" viewBox="0 0 16 16" version="1.1" xmlns="http://www.w3.org/2000/svg" xmlns:xlink="http://www.w3.org/1999/xlink">
    <!-- Generator: Sketch 59 (86127) - https://sketch.com -->
    <title>时间</title>
    <desc>Created with Sketch.</desc>
    <g id="客服系统" stroke="none" stroke-width="1" fill="none" fill-rule="evenodd">
        <g id="客户" transform="translate(-66.000000, -368.000000)" fill="#000000" fill-rule="nonzero">
            <g id="编组-15备份-11" transform="translate(66.000000, 366.000000)">
                <g id="时间" transform="translate(0.000000, 2.000000)">
                    <path d="M7.76809903,3.29213988 L6.51088351,3.29213988 L6.51088351,9.73735411 L11.5778675,9.73735411 L11.5778675,8.45991769 L7.76809903,8.45991769 L7.76809903,3.29213988 Z M8.01229244,0.182362221 C3.78861409,0.182362221 0.360735101,3.66531179 0.360735101,7.95685043 C0.360735101,12.2483891 3.7885969,15.7313386 8.01229244,15.7313386 C12.2359364,15.7313386 15.6637982,12.2483891 15.6637982,7.95685043 C15.6637982,3.66531179 12.2359364,0.182362221 8.01229244,0.182362221 Z M8.01229244,14.1764057 C4.64560102,14.1764057 1.89104313,11.3776076 1.89104313,7.95683281 C1.89104313,4.53605799 4.64560102,1.73720698 8.01229244,1.73720698 C11.3789323,1.73720698 14.1334902,4.53604036 14.1334902,7.95683281 C14.1334902,11.3776252 11.3789323,14.1764057 8.01229244,14.1764057 Z" id="形状"></path>
                </g>
            </g>
        </g>
    </g>
</svg>