<?xml version="1.0" encoding="UTF-8"?>
<svg width="14px" height="16px" viewBox="0 0 14 16" version="1.1" xmlns="http://www.w3.org/2000/svg" xmlns:xlink="http://www.w3.org/1999/xlink">
    <!-- Generator: Sketch 59 (86127) - https://sketch.com -->
    <title>备注_note</title>
    <desc>Created with Sketch.</desc>
    <g id="客服系统" stroke="none" stroke-width="1" fill="none" fill-rule="evenodd">
        <g id="客户" transform="translate(-69.000000, -963.000000)" fill="#000000" fill-rule="nonzero">
            <g id="备注_note" transform="translate(69.000000, 963.000000)">
                <path d="M12.3472384,0.145833956 L12.3472383,0.145833956 C13.2331955,0.145833956 13.9514069,0.864045273 13.9514069,1.75000249 L13.9514069,14.351281 L13.9514069,14.3515423 C13.9514069,15.2374995 13.2331956,15.9557108 12.3472384,15.9557108 C11.9560101,15.9557108 11.5782685,15.8127405 11.2850833,15.5536995 L7.35380092,12.0822788 L7.35380092,12.0822788 C7.15159882,11.9036847 6.84802998,11.9036847 6.64582787,12.0822788 L2.71454552,15.5536995 L2.71454549,15.5536995 C2.05042139,16.140095 1.03666876,16.0770846 0.450278317,15.41296 C0.191470789,15.1198483 0.0486128974,14.7423005 0.0486128974,14.3512811 L0.0486128974,1.75000257 L0.0486128974,1.75000281 C0.0486128974,0.864045592 0.766822544,0.145833956 1.65278143,0.145833956 L12.3472384,0.145833956 Z M12.3472384,1.21527622 L1.65278151,1.21527622 L1.65278149,1.21527622 C1.35746242,1.21527622 1.11805858,1.45468342 1.11805858,1.75000249 C1.11805858,1.75000249 1.11805858,1.75000249 1.11805858,1.75000249 L1.11805858,14.351281 L1.11805858,14.3512854 C1.11791447,14.6466044 1.35720174,14.8861252 1.65252081,14.8862722 C1.78299151,14.8862722 1.90898391,14.8386924 2.00677135,14.75232 L5.9380537,11.2808993 L5.93805382,11.2808992 C6.54465845,10.7451152 7.45536832,10.7451152 8.06197296,11.2808994 L11.9932553,14.7523201 L11.9932553,14.7523201 C12.2145988,14.9478214 12.5525169,14.926872 12.7480183,14.7055298 C12.8343899,14.6077416 12.8819644,14.4817483 12.8819644,14.3512776 L12.8819644,1.74999906 L12.8819644,1.74999906 C12.8819644,1.45467999 12.6425606,1.21527622 12.3472415,1.21527622 L12.3472384,1.21527622 Z M8.06945564,6.56250809 L8.06945562,6.56250809 C8.36477469,6.56250809 8.60417847,6.80191186 8.60417847,7.09723093 C8.60417847,7.39255001 8.36477469,7.63195378 8.06945562,7.63195378 L3.25695002,7.63195378 L3.25695,7.63195378 C2.96163093,7.63195378 2.72222715,7.39255001 2.72222715,7.09723093 C2.72222715,6.80191186 2.96163093,6.56250809 3.25695,6.56250809 L8.0694556,6.56250809 L8.06945564,6.56250809 Z M10.7430699,3.88889387 L10.7430698,3.88889387 C11.0383889,3.88889387 11.2777927,4.12829764 11.2777927,4.42361671 C11.2777927,4.71893578 11.0383889,4.95833956 10.7430698,4.95833956 L3.25695002,4.95833956 L3.25695,4.95833956 C2.96163093,4.95833956 2.72222715,4.71893578 2.72222715,4.42361671 C2.72222715,4.12829764 2.96163093,3.88889387 3.25695,3.88889387 L10.7430698,3.88889387 L10.7430699,3.88889387 Z" id="形状"></path>
            </g>
        </g>
    </g>
</svg>