<?xml version="1.0" encoding="UTF-8"?>
<svg width="15px" height="16px" viewBox="0 0 15 16" version="1.1" xmlns="http://www.w3.org/2000/svg" xmlns:xlink="http://www.w3.org/1999/xlink">
    <!-- Generator: Sketch 59 (86127) - https://sketch.com -->
    <title>同级单位管理</title>
    <desc>Created with Sketch.</desc>
    <g id="客服系统" stroke="none" stroke-width="1" fill="none" fill-rule="evenodd">
        <g id="客户" transform="translate(-69.000000, -686.000000)" fill="#000000" fill-rule="nonzero">
            <g id="编组-17备份-4" transform="translate(69.000000, 684.000000)">
                <g id="同级单位管理" transform="translate(0.000000, 2.000000)">
                    <path d="M2.99542715,2.99600504 L4.99297232,2.99600504 L4.99297232,4.99289781 L2.99542715,4.99289781 L2.99542715,2.99600504 L2.99542715,2.99600504 Z M5.99156627,2.99598728 L7.98841475,2.99598728 L7.98841475,4.99289781 L5.99192355,4.99289781 L5.99156627,2.99598728 L5.99156627,2.99598728 Z M2.99542715,6.99000365 L4.99297232,6.99000365 L4.99297232,8.98744685 L2.99542715,8.98744685 L2.99542715,6.99000365 L2.99542715,6.99000365 Z M5.99156627,6.99000365 L7.98841475,6.99000365 L7.98841475,8.98744685 L5.99192355,8.98744685 L5.99156627,6.99000365 L5.99156627,6.99000365 Z M2.99542715,10.9850854 L4.99297232,10.9850854 L4.99297232,12.9814632 L2.99542715,12.9814632 L2.99542715,10.9850854 Z M10.9819993,8 L14.5000512,8 L14.5000512,8 C14.7769993,8.00090089 15.0008023,8.22473022 15.0000022,8.5 L15.0000022,15.5 L15.0000022,15.5 C15.0008026,15.7752681 14.7770011,15.999098 14.500053,16 L0.499944473,16 L0.49994446,16 C0.222996308,15.9990992 -0.000806638156,15.7752699 2.187173e-06,15.5 L2.187173e-06,0.5 L2.187173e-06,0.5 C-0.000806959477,0.224731891 0.222994527,0.000901988643 0.499942679,0 L10.4820593,0 L10.4820593,0 C10.7590074,0.000900786678 10.9828104,0.224730115 10.9819994,0.5 L10.9819994,8 L10.9819993,8 Z M5.99156627,10.9850854 L7.98841475,10.9850854 L7.98841475,12.9814632 L5.99192355,12.9814632 L5.99156627,10.9850854 L5.99156627,10.9850854 Z M9.98194735,14.9949042 L9.98194735,0.994904171 L0.981947348,0.994904171 L0.981947348,14.9949042 L9.98194735,14.9949042 Z M13.9819993,14.9949042 L13.9819993,8.99490423 L10.9819993,8.99490423 L10.9819993,14.9949042 L13.9819993,14.9949042 Z" id="形状"></path>
                </g>
            </g>
        </g>
    </g>
</svg>