<?xml version="1.0" encoding="UTF-8"?>
<svg width="17px" height="17px" viewBox="0 0 17 17" version="1.1" xmlns="http://www.w3.org/2000/svg" xmlns:xlink="http://www.w3.org/1999/xlink">
    <!-- Generator: Sketch 59 (86127) - https://sketch.com -->
    <title>形状</title>
    <desc>Created with Sketch.</desc>
    <g id="客服系统" stroke="none" stroke-width="1" fill="none" fill-rule="evenodd">
        <g id="客户" transform="translate(-66.000000, -172.000000)" fill="#000000" fill-rule="nonzero">
            <g id="编组-15备份-14" transform="translate(66.000000, 172.000000)">
                <g id="编组-2">
                    <path d="M0.00583036878,8.72885791 C-0.000513037352,8.64717319 0.00533195292,8.56326585 0.0266050095,8.47959557 L1.55665513,1.43159864 C1.57813207,1.34714767 1.6135418,1.2704987 1.65844395,1.20238481 C1.82233029,0.860868113 2.07151165,0.55885929 2.40286422,0.339056882 C2.75179738,0.107526873 3.14164347,-0.000519078025 3.52668759,0.00023642344 L3.52668759,0.00461029174 L13.3548205,0.00886593677 C13.3891882,0.00354637471 13.4239635,0 13.4597583,0 C13.4956891,0 13.5305778,0.00352273929 13.5651268,0.0090787248 L16.1793914,0.0101426418 C16.2161151,0.00406651552 16.2534506,0 16.2919187,0 C16.6830112,0 17,0.330734074 17,0.738850421 L16.993566,9.61012422 C16.993566,10.0182406 16.6764643,10.3489746 16.2853696,10.3489746 C16.2561219,10.3489746 16.2274634,10.346634 16.1991219,10.3428749 L13.8492859,10.3486436 L13.8492859,10.3625218 C11.6871378,10.5240473 9.97387176,12.3737891 9.91270163,14.6558957 C9.91822946,14.7200377 9.9221261,14.7846528 9.9221261,14.8502841 C9.9221261,16.0374911 8.99993168,17 7.862174,17 C6.88443055,17 6.06769316,16.2885972 5.85675253,15.3352606 L5.84633123,15.3366555 C5.73031499,14.7924288 5.66710763,14.2274685 5.66710763,13.6468321 C5.66710763,12.7516807 5.81359492,11.8925115 6.08160331,11.0929137 L2.12927823,11.088398 C2.09287171,11.088398 2.05737135,11.0845679 2.02236933,11.0790356 C1.34754529,11.0513738 0.697640945,10.6887209 0.314726591,10.0447956 C0.0711862524,9.6352838 -0.0258911561,9.17505865 0.00582521039,8.72883222 M15.5831971,1.48773189 L14.1671231,1.48706989 L14.1617992,8.86995959 L15.5765802,8.86664964 L15.5831971,1.48773383 L15.5831971,1.48773383 L15.5831971,1.48773383 L15.5831971,1.48773189 Z M1.50999481,9.27263155 C1.64603801,9.50172732 1.88645343,9.62204289 2.12745663,9.6084739 L2.12745663,9.61071993 L2.12917841,9.61071993 L7.1250264,9.6161577 C7.516006,9.6161577 7.83301691,9.9471043 7.83301691,10.355223 C7.83301691,10.4726552 7.80601217,10.5834676 7.75916156,10.6821033 L7.76672833,10.688534 C7.48388015,11.2381047 7.27806028,11.8372035 7.16145404,12.4692163 L7.15255063,12.4688853 C7.15255063,12.4688853 7.05844184,12.8679472 7.05966503,13.6332771 C7.06057122,14.2395174 7.1664608,14.7929418 7.1664608,14.7929418 L7.17187534,14.7929418 C7.17137693,14.8037465 7.17024418,14.8143146 7.17024418,14.8251902 C7.17024418,15.2067323 7.46668572,15.5160951 7.8324047,15.5160951 C8.19812367,15.5160951 8.49456521,15.2067323 8.49456521,14.8251902 C8.49456521,14.8091842 8.49322856,14.7934857 8.49232237,14.7778105 L8.50152029,14.7776923 C8.50152029,14.7776923 8.49028341,14.2007688 8.60065862,13.6024232 C8.64750923,13.3486694 8.71327674,13.1118878 8.77331246,12.9244033 C8.77453584,12.9250653 8.7755553,12.9255854 8.77680133,12.9261292 C9.37278608,11.0246822 10.8713235,9.55074737 12.7442474,9.05421887 L12.7509985,1.48656632 L3.52325387,1.48259439 C3.49203519,1.48259439 3.46156437,1.47982821 3.43150112,1.47554893 C3.33943112,1.48836316 3.24849397,1.52158092 3.16489635,1.57706985 C3.04622941,1.65563391 2.9601179,1.76732083 2.90966439,1.89319292 L2.90782933,1.89210536 L1.43466543,8.67777924 L1.44028387,8.67959973 C1.38149414,8.87152944 1.4001166,9.08804646 1.50997066,9.27262448" id="形状" transform="translate(8.500000, 8.500000) rotate(-180.000000) translate(-8.500000, -8.500000) "></path>
                </g>
            </g>
        </g>
    </g>
</svg>