<?xml version="1.0" encoding="UTF-8"?>
<svg width="16px" height="13px" viewBox="0 0 16 13" version="1.1" xmlns="http://www.w3.org/2000/svg" xmlns:xlink="http://www.w3.org/1999/xlink">
    <!-- Generator: Sketch 59 (86127) - https://sketch.com -->
    <title>形状</title>
    <desc>Created with Sketch.</desc>
    <g id="客服系统" stroke="none" stroke-width="1" fill="none" fill-rule="evenodd">
        <g id="客户" transform="translate(-69.000000, -824.000000)" fill="#000000" fill-rule="nonzero">
            <g id="邮箱" transform="translate(69.000000, 824.000000)">
                <g id="编组-5">
                    <path d="M15,0 L1,0 L1,0 C0.447715,0 0,0.454710542 0,1.01562499 C0,1.01562499 0,1.01562499 0,1.01562499 L0,11.9843749 L0,11.984375 C0,12.5452895 0.447715,13 1,13 L15,13 L15,13 C15.0740326,12.9998334 15.1478174,12.9913177 15.2199999,12.9746095 L15.22,12.9746095 C15.3456412,12.9755491 15.4670262,12.9284121 15.56,12.8425783 L15.56,12.8121095 L15.5599999,12.8121095 C15.8312162,12.625967 15.9955637,12.3167968 16,11.9843751 L16,1.01562528 L16,1.01562528 C16,0.454710831 15.5522849,0 15,0 L15,0 Z M8.00000004,7.41406241 L1.12500004,1.14257811 L14.915,1.14257811 L8.00000004,7.41406241 Z M1.00000004,2.39179685 L5.61000004,6.60156242 L1.00000004,11.2683592 L1.00000004,2.39179685 Z M6.35500004,7.26171866 L7.68500004,8.47539052 L7.685,8.47539049 C7.8745425,8.64679879 8.1604575,8.64679879 8.35,8.47539056 L9.765,7.19062495 L14.1,11.9843749 L1.705,11.9843749 L6.35500004,7.26171866 Z M10.5,6.51015617 L15,2.44765622 L15,11.4867186 L10.5,6.51015617 Z" id="形状"></path>
                </g>
            </g>
        </g>
    </g>
</svg>