<?xml version="1.0" encoding="UTF-8"?>
<svg width="18px" height="19px" viewBox="0 0 18 19" version="1.1" xmlns="http://www.w3.org/2000/svg" xmlns:xlink="http://www.w3.org/1999/xlink">
    <!-- Generator: Sketch 59 (86127) - https://sketch.com -->
    <title>形状</title>
    <desc>Created with Sketch.</desc>
    <g id="客服系统" stroke="none" stroke-width="1" fill="none" fill-rule="evenodd">
        <g id="客户" transform="translate(-67.000000, -69.000000)" fill="#000000" fill-rule="nonzero">
            <g id="编组" transform="translate(67.000000, 69.000000)">
                <path d="M8.9375104,8.2500096 C10.8281376,8.2500096 12.3750144,6.7031328 12.3750144,4.8125056 C12.3750144,2.9218784 10.8281376,1.3750016 8.9375104,1.3750016 C7.0468832,1.3750016 5.5000064,2.9218784 5.5000064,4.8125056 C5.5000064,6.7031328 7.0468832,8.2500096 8.9375104,8.2500096 Z M8.52500992,11.5500134 C8.35313472,11.4125133 8.2500096,11.2406381 8.2500096,11.0000128 C8.2500096,10.6218874 8.55938496,10.312512 8.9375104,10.312512 C9.31563584,10.312512 9.6250112,10.6218874 9.6250112,11.0000128 C9.6250112,11.2406381 9.52188608,11.4125133 9.35001088,11.5500134 L10.278137,14.8156422 C10.346887,15.0562675 10.278137,15.2968928 10.1062618,15.468768 L9.17813568,16.3968941 C9.04063552,16.5343942 8.83438528,16.5343942 8.69688512,16.3968941 L7.76875904,15.468768 C7.59688384,15.2968928 7.52813376,15.0562675 7.59688384,14.8156422 L8.52500992,11.5500134 L8.52500992,11.5500134 Z M5.94688192,8.59376 C4.84688064,7.70000896 4.1250048,6.3593824 4.1250048,4.8125056 C4.1250048,2.16562752 6.29063232,-1.77635684e-15 8.9375104,-1.77635684e-15 C11.5843885,-1.77635684e-15 13.750016,2.16562752 13.750016,4.8125056 C13.750016,6.32500736 13.0281402,7.70000896 11.9281389,8.59376 C15.3656429,9.59063616 17.8750208,12.7531398 17.8750208,16.5000192 C17.8750208,17.6343955 16.9468947,18.5625216 15.8125184,18.5625216 L2.0625024,18.5625216 C0.92812608,18.5625216 6.39488462e-14,17.6343955 6.39488462e-14,16.5000192 C6.39488462e-14,12.7531398 2.50937792,9.59063616 5.94688192,8.59376 Z M15.8125184,17.18752 C16.1906438,17.18752 16.5000192,16.8781446 16.5000192,16.5000192 C16.5000192,12.7187648 13.4062656,9.6250112 9.6250112,9.6250112 L8.2500096,9.6250112 C4.4687552,9.6250112 1.3750016,12.7187648 1.3750016,16.5000192 C1.3750016,16.8781446 1.68437696,17.18752 2.0625024,17.18752 L15.8125184,17.18752 Z" id="形状"></path>
            </g>
        </g>
    </g>
</svg>