<?xml version="1.0" encoding="UTF-8"?>
<svg width="9px" height="19px" viewBox="0 0 9 19" version="1.1" xmlns="http://www.w3.org/2000/svg" xmlns:xlink="http://www.w3.org/1999/xlink">
    <!-- Generator: Sketch 59 (86127) - https://sketch.com -->
    <title>职务管理</title>
    <desc>Created with Sketch.</desc>
    <g id="客服系统" stroke="none" stroke-width="1" fill="none" fill-rule="evenodd">
        <g id="客户" transform="translate(-69.000000, -754.000000)" fill="#000000" fill-rule="nonzero">
            <g id="职务管理" transform="translate(69.000000, 754.000000)">
                <path d="M6.73355278,1.266644 L5.7729235,2.55391822 C5.72381366,2.61034854 5.55539179,2.69046855 5.46314676,2.69046855 L3.5368188,2.69046855 C3.4445964,2.69046855 3.27594821,2.61024231 3.22984833,2.55767882 L2.2664354,1.26666525 L6.73355278,1.26666525 M5.05580663,6.25216517 C5.07284797,6.25265384 5.10378491,6.2668464 5.12234255,6.28123019 L7.71407494,14.4615022 C7.71731121,14.4925006 7.69773517,14.5573232 7.68193855,14.5771461 L4.49998278,17.6922443 L1.32180643,14.5809917 C1.30227565,14.5571957 1.28279013,14.4923944 1.280957,14.4817287 L3.87780406,6.28120894 C3.89627117,6.26680391 3.92714021,6.25263259 3.94404577,6.25216517 L5.05580663,6.25216517 M7.53198379,0 L1.46807229,0 C1.09026596,0 0.772115651,0.161047378 0.616684127,0.430876099 C0.461297866,0.70070482 0.4959237,1.0322967 0.709087579,1.31799645 L2.19399273,3.30795139 C2.47480146,3.68411813 3.03947413,3.95709131 3.53684143,3.95709131 L5.46316939,3.95709131 C5.96058195,3.95709131 6.52523199,3.68411813 6.80590493,3.30795139 L8.29094587,1.31801769 C8.50408712,1.0322967 8.5385998,0.700662327 8.38332669,0.430854853 C8.22803096,0.161026132 7.90972222,0 7.53200642,0 L7.53198379,0 Z M5.05605557,4.98554241 L3.94404577,4.98554241 C3.37238003,4.98554241 2.82112769,5.36495984 2.66182622,5.86800981 L0.0535730074,14.1044572 C-0.0892755333,14.5557722 0.0614260561,15.1325258 0.411803291,15.4755695 L3.67450741,18.6697891 C3.88893864,18.8795969 4.1898213,19 4.49996015,19 C4.81023478,19 5.11104955,18.8795969 5.32548078,18.6697891 L8.58829805,15.4755695 C8.93869792,15.1325258 9.08924109,14.555751 8.94641518,14.1044572 L6.33832038,5.86800981 C6.17899628,5.36485361 5.62776657,4.98554241 5.05605557,4.98554241 L5.05605557,4.98554241 Z" id="形状"></path>
            </g>
        </g>
    </g>
</svg>