<?xml version="1.0" encoding="UTF-8"?>
<svg width="14px" height="17px" viewBox="0 0 14 17" version="1.1" xmlns="http://www.w3.org/2000/svg" xmlns:xlink="http://www.w3.org/1999/xlink">
    <!-- Generator: Sketch 59 (86127) - https://sketch.com -->
    <title>电子工单</title>
    <desc>Created with Sketch.</desc>
    <g id="客服系统" stroke="none" stroke-width="1" fill="none" fill-rule="evenodd">
        <g id="客户" transform="translate(-67.000000, -245.000000)" fill="#000000" fill-rule="nonzero">
            <g id="编组-15备份-9" transform="translate(67.000000, 243.000000)">
                <g id="电子工单" transform="translate(0.000000, 2.000000)">
                    <path d="M2.63052463,5.94895938 L11.3764104,5.94895938 L11.3764104,7.65332135 L2.63052463,7.65332135 L2.63052463,5.94895938 Z M2.63052463,8.49911896 L10.5016388,8.49911896 L10.5016388,10.2027661 L2.63052463,10.2027661 L2.63052463,8.49911896 Z M2.63052463,11.0482146 L7.87951361,11.0482146 L7.87951361,12.7525766 L2.63052463,12.7525766 L2.63052463,11.0482146 Z M12.4383985,0 L3.38120376,0 L3.38120376,0 L0,3.38885901 L0,15.5041617 C0,16.3300994 0.699233958,17 1.56159633,17 L12.4384036,17 C13.3011321,17 14,16.3300994 14,15.5041617 L14,1.4954892 C14,0.66955154 13.3011321,0 12.4384037,0 L12.4383985,0 Z M12.2508177,15.295638 L1.77909861,15.295638 L1.77909861,4.25132987 L4.37968639,4.25132987 L4.37968641,1.70401288 L12.2508177,1.70401288 L12.2508177,15.295638 L12.2508177,15.295638 Z" id="形状"></path>
                </g>
            </g>
        </g>
    </g>
</svg>