<?xml version="1.0" encoding="UTF-8"?>
<svg width="18px" height="21px" viewBox="0 0 18 21" version="1.1" xmlns="http://www.w3.org/2000/svg" xmlns:xlink="http://www.w3.org/1999/xlink">
    <!-- Generator: Sketch 63.1 (92452) - https://sketch.com -->
    <title>铃铛@1x</title>
    <desc>Created with Sketch.</desc>
    <g id="新版定稿（20202-8-22）" stroke="none" stroke-width="1" fill="none" fill-rule="evenodd">
        <g id="项目-设置" transform="translate(-729.000000, -183.000000)" fill="#333333" fill-rule="nonzero">
            <path d="M737.709959,183 C738.089306,183 738.406584,183.29697 738.443001,183.686078 L738.446438,183.758936 L738.446438,184.050873 C741.758626,184.416175 744.338264,187.305697 744.338264,190.816029 L744.338264,196.463525 C744.78948,197.515916 745.45722,198.330508 746.227577,198.784857 C746.883533,199.170903 746.617419,200.20255 745.862284,200.20255 L740.891546,200.20255 C740.764105,201.916373 739.377454,203.24 737.709468,203.24 C736.041483,203.24 734.654832,201.916373 734.527391,200.20255 L729.737827,200.20255 C728.982691,200.20255 728.716577,199.171409 729.372043,198.784857 C730.027508,198.399318 730.609326,197.751692 731.047285,196.916357 L731.132717,196.746355 L731.132717,190.817041 C731.132717,187.324417 733.685842,184.447038 736.97299,184.057451 L736.973481,183.758936 C736.973481,183.339787 737.303214,183 737.709959,183 Z M739.411224,200.20255 L736.008694,200.20255 C736.129366,201.07524 736.854539,201.723591 737.709959,201.723591 C738.56538,201.723591 739.290552,201.07524 739.411224,200.20255 L739.411224,200.20255 Z M737.87444,185.531811 L737.707504,185.529787 L737.596542,185.531811 C734.827383,185.607704 732.605674,187.944215 732.605674,190.816029 L732.605674,196.92091 C732.60567,197.032313 732.581866,197.142349 732.535954,197.243205 C732.304344,197.756396 732.015674,198.240128 731.675747,198.684678 L743.923873,198.683666 C743.526174,198.167589 743.187394,197.570054 742.921771,196.910285 C742.884497,196.817925 742.865308,196.718883 742.865308,196.618854 L742.865308,190.815523 C742.865308,187.943709 740.643107,185.607198 737.87444,185.531305 L737.87444,185.531811 Z" id="铃铛"></path>
        </g>
    </g>
</svg>