<?xml version="1.0" encoding="UTF-8"?>
<svg width="116px" height="110px" viewBox="0 0 116 110" version="1.1" xmlns="http://www.w3.org/2000/svg" xmlns:xlink="http://www.w3.org/1999/xlink">
    <!-- Generator: Sketch 59 (86127) - https://sketch.com -->
    <title>编组 2@1</title>
    <desc>Created with Sketch.</desc>
    <defs>
        <linearGradient x1="98.6900415%" y1="6.32192126%" x2="19.937629%" y2="75.2099908%" id="linearGradient-1">
            <stop stop-color="#2D40D0" offset="0%"></stop>
            <stop stop-color="#596BEF" offset="100%"></stop>
        </linearGradient>
    </defs>
    <g id="客服系统" stroke="none" stroke-width="1" fill="none" fill-rule="evenodd">
        <g id="画板备份-3" transform="translate(-22.000000, -30.000000)" fill="url(#linearGradient-1)">
            <g id="编组-18备份" transform="translate(22.000000, 30.000000)">
                <g id="编组-2" transform="translate(1.000000, 1.000000)">
                    <path d="M57.2922688,0.619906591 L58.2377571,0.626292963 C88.4954453,1.05131237 113.180325,22.36394 113.67618,48.9536772 L113.681101,49.9373543 L113.674392,50.5804359 L113.639801,51.658741 C112.471948,77.7202208 88.0173962,98.3914527 58.2135353,98.8099724 L57.288218,98.8161023 L55.9711717,98.806343 C49.3152217,98.6865416 42.7198031,97.5138516 36.3965788,95.3212309 L18.0044387,106.313942 L17.5809167,106.542656 C16.7015047,106.980732 15.7487251,107.253489 14.6099727,107.356707 L14.1900395,107.376405 L13.8930978,107.377501 L13.3967296,107.355202 C11.9034124,107.236987 10.4692165,106.70225 9.14972851,105.714371 L8.85797111,105.477397 L8.66052917,105.30395 L8.3174642,104.974919 C6.22647807,102.8344 5.50743484,99.7030814 6.48991059,96.7477575 L6.65863702,96.3030195 L13.2901459,80.4103573 L12.5222488,79.5583142 C5.4635193,71.5461015 1.44376847,61.8725089 0.991829156,51.6564237 C0.963316526,51.0118959 0.949043708,50.3659859 0.949043708,49.7189837 C0.949043708,22.8408001 25.7741336,1.06964566 56.3889548,0.626428294 L57.2922688,0.619906591 Z M36.8431695,61.7193071 C35.8703807,60.5017895 34.0862041,60.2965993 32.8580994,61.2610019 C31.6299947,62.2254045 31.4230202,63.9942003 32.3958089,65.2117179 C38.0426144,72.2791158 47.8418616,76.6008983 58.5284986,76.6008983 C69.0754941,76.6008983 78.7624511,72.3919947 84.4462016,65.4769952 C85.4358783,64.2729287 85.2535932,62.5014648 84.0390566,61.5203199 C82.82452,60.5391749 81.0376521,60.7198885 80.0479754,61.923955 C75.4842289,67.4763284 67.4289671,70.9762737 58.5284986,70.9762737 C49.5131378,70.9762737 41.3698961,67.3848428 36.8431695,61.7193071 Z M74.1893653,36.5 C71.0973076,36.5 68.5906996,38.9145742 68.5906996,41.8931025 C68.5906996,44.8716308 71.0973076,47.286205 74.1893653,47.286205 C77.281423,47.286205 79.788031,44.8716308 79.788031,41.8931025 C79.788031,38.9145742 77.281423,36.5 74.1893653,36.5 Z M42.0843768,36.5 C38.9923191,36.5 36.4857111,38.9145742 36.4857111,41.8931025 C36.4857111,44.8716308 38.9923191,47.286205 42.0843768,47.286205 C45.1764345,47.286205 47.6830425,44.8716308 47.6830425,41.8931025 C47.6830425,38.9145742 45.1764345,36.5 42.0843768,36.5 Z" id="形状结合"></path>
                </g>
            </g>
        </g>
    </g>
</svg>