<?xml version="1.0" encoding="UTF-8"?>
<svg width="19px" height="23px" viewBox="0 0 19 23" version="1.1" xmlns="http://www.w3.org/2000/svg" xmlns:xlink="http://www.w3.org/1999/xlink">
    <!-- Generator: Sketch 63.1 (92452) - https://sketch.com -->
    <title>压缩包-归档项目@1x</title>
    <desc>Created with Sketch.</desc>
    <g id="新版定稿（20202-8-22）" stroke="none" stroke-width="1" fill="none" fill-rule="evenodd">
        <g id="项目-设置" transform="translate(-584.000000, -218.000000)" fill="#333333" fill-rule="nonzero">
            <g id="压缩包-归档项目" transform="translate(585.000000, 219.000000)">
                <path d="M16.51488,4.80768 C15.957444,4.066044 15.3465358,3.36615204 14.68704,2.71360001 C14.0344691,2.05255224 13.3345887,1.43994293 12.59296,0.880639992 C11.50752,0.087040008 10.98016,-3.12152414e-05 10.6832,-3.12152414e-05 L1.70272001,-3.12152414e-05 C1.25508251,-0.00272329579 0.824770756,0.172842522 0.506799711,0.48793165 C0.188828665,0.803020779 0.00935233793,1.23171625 0.007999992,1.67935999 L0.007999992,19.82464 C0.00935233793,20.2722837 0.188828665,20.7009792 0.506799711,21.0160683 C0.824770756,21.3311575 1.25508251,21.5067233 1.70272001,21.5040312 L15.72128,21.5040312 C16.1689175,21.5067233 16.5992292,21.3311575 16.9172003,21.0160683 C17.2351713,20.7009792 17.4146477,20.2722837 17.416,19.82464 L17.416,6.71743999 C17.416,6.41535998 17.32384,5.89311998 16.53024,4.80768 L16.51488,4.80768 Z M11.81472,1.35168 C12.6015456,1.96984879 13.3488259,2.63675792 14.05216,3.34848 C14.763746,4.05194344 15.4306473,4.7992149 16.04896,5.58592001 L11.81472,5.58592001 L11.81472,1.35168 Z M16.44832,20.25984 C16.4455684,20.4538 16.289,20.6103684 16.09504,20.61312 L1.32895999,20.61312 C1.13500002,20.6103684 0.978431606,20.4538 0.975679992,20.25984 L0.975679992,1.23904001 C0.978431606,1.04508004 1.13500002,0.888511622 1.32895999,0.885760008 L10.8112,0.885760008 L10.8112,5.81632001 C10.8112,6.00371137 10.8856409,6.18342767 11.0181466,6.31593338 C11.1506523,6.44843908 11.3303686,6.52288001 11.51776,6.52288001 L16.44832,6.52288001 L16.44832,20.26496 L16.44832,20.25984 Z" id="形状" stroke="#333333" stroke-width="0.5"></path>
                <path d="M5.28672,4.12672001 L6.97120001,4.12672001 L6.97120001,5.81119999 L5.28672,5.81119999 L5.28672,4.12672001 Z M3.59200001,5.81119999 L5.27647999,5.81119999 L5.27647999,7.49568 L3.59200001,7.49568 L3.59200001,5.81119999 Z M3.59200001,2.44224 L5.27647999,2.44224 L5.27647999,4.12672001 L3.59200001,4.12672001 L3.59200001,2.44224 Z M3.59200001,9.17503999 L5.27647999,9.17503999 L5.27647999,10.85952 L3.59200001,10.85952 L3.59200001,9.17503999 Z M5.27647999,10.85952 L6.97120001,10.85952 L6.97120001,12.544 L5.28672,12.544 L5.27647999,10.85952 Z M5.27647999,7.49056001 L6.97120001,7.49056001 L6.97120001,9.17503999 L5.28672,9.17503999 L5.27647999,7.49056001 Z M3.59200001,12.544 L5.27647999,12.544 L5.27647999,14.22848 L3.59200001,14.22848 L3.59200001,12.544 Z M3.59200001,15.91296 L3.59200001,19.28192 L6.97120001,19.28192 L6.97120001,14.22848 L5.28672,14.22848 L5.28672,15.91296" id="形状"></path>
            </g>
        </g>
    </g>
</svg>