<?xml version="1.0" encoding="UTF-8"?>
<svg width="40px" height="40px" viewBox="0 0 40 40" version="1.1" xmlns="http://www.w3.org/2000/svg" xmlns:xlink="http://www.w3.org/1999/xlink">
    <!-- Generator: Sketch 59 (86127) - https://sketch.com -->
    <title>分享@1</title>
    <desc>Created with Sketch.</desc>
    <g id="页面-4" stroke="none" stroke-width="1" fill="none" fill-rule="evenodd">
        <g id="分享" fill="#414141" fill-rule="nonzero">
            <path d="M30.5766694,28.4806058 C29.0466837,28.4806058 27.6571285,29.1162519 26.6593114,30.1288503 L13.3772686,22.7523964 C13.7690044,21.9984916 14.005524,21.1558906 14.005524,20.2467654 C14.005524,19.7072061 13.9020465,19.1972095 13.7616129,18.7019983 L26.8514992,10.5716139 C27.8271445,11.4511723 29.1058272,11.9981222 30.5101636,11.9981222 C33.5405726,11.9981222 36.0092247,9.5294486 36.0092247,6.49906109 C36.0092247,3.46865209 33.5405511,1 30.5101636,1 C27.4797546,1 25.0111025,3.46867358 25.0111025,6.49906109 C25.0111025,7.1273165 25.1367536,7.71861446 25.328926,8.28034988 L12.3572898,16.3293944 C11.3668633,15.3537491 10.006875,14.7402793 8.49906109,14.7402793 C5.46865209,14.7402793 3,17.2089528 3,20.2393404 C3,23.2697494 5.46867358,25.7384014 8.49906109,25.7384014 C9.60035573,25.7384014 10.6277397,25.4057959 11.485122,24.8440617 L25.2845521,32.5087933 C25.15151,32.9818325 25.062815,33.4622624 25.062815,33.9722591 C25.062815,37.0026681 27.5314886,39.4713202 30.5618761,39.4713202 C33.5922851,39.4713202 36.0609372,37.0026466 36.0609372,33.9722591 C36.0609372,30.9418501 33.6070449,28.4805886 30.5766574,28.4805886 L30.5766694,28.4806058 Z M30.5101481,3.74952625 C32.0253526,3.74952625 33.2596873,4.98386518 33.2596873,6.49906538 C33.2596873,8.01426988 32.0253483,9.24860452 30.5101481,9.24860452 C28.9949436,9.24860452 27.760609,8.01426558 27.760609,6.49906538 C27.760609,4.98386089 28.9949479,3.74952625 30.5101481,3.74952625 Z M5.75689668,20.2467525 C5.75689668,18.731548 6.99123562,17.4972133 8.50643582,17.4972133 C10.0216403,17.4972133 11.255975,18.7315523 11.255975,20.2467525 C11.255975,21.761957 10.021636,22.9962916 8.50643582,22.9962916 C6.99123132,22.9962916 5.75689668,21.7619527 5.75689668,20.2467525 L5.75689668,20.2467525 Z M30.5766638,36.7291974 C29.0614593,36.7291974 27.8271247,35.4948585 27.8271247,33.9796583 C27.8271247,32.4644538 29.0614636,31.2301192 30.5766638,31.2301192 C32.0918683,31.2301192 33.326203,32.4644581 33.326203,33.9796583 C33.326203,35.5022534 32.091864,36.7291974 30.5766638,36.7291974 Z" id="形状"></path>
        </g>
    </g>
</svg>