<?xml version="1.0" encoding="UTF-8"?>
<svg width="40px" height="40px" viewBox="0 0 40 40" version="1.1" xmlns="http://www.w3.org/2000/svg" xmlns:xlink="http://www.w3.org/1999/xlink">
    <!-- Generator: Sketch 59 (86127) - https://sketch.com -->
    <title>预览@1</title>
    <desc>Created with Sketch.</desc>
    <g id="页面-4" stroke="none" stroke-width="1" fill="none" fill-rule="evenodd">
        <g id="预览" fill="#414141" fill-rule="nonzero">
            <path d="M19.8960345,15.3211562 C17.1303003,15.3211562 15.0153106,17.4361553 15.0153106,20.2018801 C15.0153106,22.9676142 17.1303097,25.082604 19.8960345,25.082604 C22.6617687,25.082604 24.7767584,22.9676518 24.7767584,20.2018801 C24.7767584,17.436099 22.6617593,15.3211562 19.8960345,15.3211562 L19.8960345,15.3211562 Z M19.8960345,28.3364199 C15.3406922,28.3364199 11.7614947,24.7572083 11.7614947,20.2018801 C11.7614947,15.6465378 15.3407063,12.0673403 19.8960345,12.0673403 C24.4513768,12.0673403 28.0305743,15.6465518 28.0305743,20.2018801 C28.0305743,24.7572224 24.4513627,28.3364199 19.8960345,28.3364199 Z M19.8960345,8 C11.7614947,8 4.76572947,13.0434194 2,20.2018332 C4.76573416,27.360247 11.7614478,32.4036664 19.8960345,32.4036664 C28.0305743,32.4036664 35.0263395,27.360247 37.792069,20.2018332 C35.0263348,13.0434194 28.0306212,8 19.8960345,8 Z" id="形状"></path>
        </g>
    </g>
</svg>