<?xml version="1.0" encoding="UTF-8"?>
<svg width="40px" height="40px" viewBox="0 0 40 40" version="1.1" xmlns="http://www.w3.org/2000/svg" xmlns:xlink="http://www.w3.org/1999/xlink">
    <!-- Generator: Sketch 59 (86127) - https://sketch.com -->
    <title>分享2@1</title>
    <desc>Created with Sketch.</desc>
    <g id="页面-4" stroke="none" stroke-width="1" fill="none" fill-rule="evenodd">
        <g id="分享" fill="#414141" fill-rule="nonzero">
            <path d="M20.8515856,3.05820552 C21.659399,3.05820552 22.3125248,3.71133128 22.3125248,4.51914472 C22.3125248,5.32695816 21.659399,5.98008392 20.8515856,5.98008392 L20.8515856,5.98008392 L5.404302,5.98008392 C4.5878948,5.98008392 3.9218784,6.6289128 3.9218784,7.42813248 L3.9218784,7.42813248 L3.9218784,33.9312883 C3.9218784,34.730508 4.5878948,35.3793369 5.404302,35.3793369 L5.404302,35.3793369 L32.2555051,35.3793369 C33.0719123,35.3793369 33.7379287,34.730508 33.7379287,33.9312883 L33.7379287,33.9312883 L33.7379287,18.6472862 C33.7379287,17.8394727 34.3910545,17.186347 35.1988679,17.186347 C36.0066814,17.186347 36.6598071,17.8394727 36.6598071,18.6472862 L36.6598071,18.6472862 L36.6598071,33.9312883 C36.6598071,36.341838 34.6832423,38.3012153 32.2555051,38.3012153 L32.2555051,38.3012153 L5.404302,38.3012153 C2.9765648,38.3012153 1,36.3375411 1,33.9312883 L1,33.9312883 L1,7.42813248 C1,5.0175828 2.9765648,3.05820552 5.404302,3.05820552 L5.404302,3.05820552 Z M35.6543372,1 C37.0551201,1 38.1937933,2.13437632 38.1895085,3.52656544 L38.1895085,3.52656544 L38.1895085,13.211733 C38.1895085,14.0195464 37.5363706,14.6726722 36.7285572,14.6726722 C35.9207438,14.6726722 35.267618,14.0195464 35.267618,13.211733 L35.267618,13.211733 L35.267618,5.9199276 L15.072282,26.1152636 C14.7886879,26.4031546 14.4148594,26.5449516 14.0410308,26.5449516 C13.6672022,26.5449516 13.2933737,26.3988577 13.0097796,26.1152636 C12.4382946,25.5437786 12.4382946,24.6199494 13.0097796,24.0484643 L13.0097796,24.0484643 L33.1320686,3.9218784 L25.8402633,3.9218784 C25.0324498,3.9218784 24.3793241,3.26875264 24.3793241,2.4609392 C24.3793241,1.65312576 25.0324498,1 25.8402633,1 L25.8402633,1 Z" id="形状结合"></path>
        </g>
    </g>
</svg>