<?xml version="1.0" encoding="UTF-8"?>
<svg width="40px" height="40px" viewBox="0 0 40 40" version="1.1" xmlns="http://www.w3.org/2000/svg" xmlns:xlink="http://www.w3.org/1999/xlink">
    <!-- Generator: Sketch 59 (86127) - https://sketch.com -->
    <title>最近黑</title>
    <desc>Created with Sketch.</desc>
    <g id="客服系统" stroke="none" stroke-width="1" fill="none" fill-rule="evenodd">
        <path d="M20.0000256,0.7500032 C9.37813824,0.7500032 0.7500032,9.37813824 0.7500032,20.0000256 C0.7500032,30.621913 9.37813824,39.250048 20.0000256,39.250048 C30.621913,39.250048 39.250048,30.621913 39.250048,20.0000256 C39.250048,9.37813824 30.621913,0.7500032 20.0000256,0.7500032 Z M20.0000256,36.5000448 C10.89064,36.5000448 3.5000064,29.1094112 3.5000064,20.0000256 C3.5000064,10.89064 10.89064,3.5000064 20.0000256,3.5000064 C29.1094112,3.5000064 36.5000448,10.89064 36.5000448,20.0000256 C36.5000448,29.1094112 29.1094112,36.5000448 20.0000256,36.5000448 Z M21.3750272,19.5875251 L29.5906618,24.3312806 L28.2156602,26.7031584 L19.0031494,21.3750272 L18.625024,21.3750272 L18.625024,9.0000128 L21.3750272,9.0000128 L21.3750272,19.5875251 Z" id="最近黑" fill="#000000" fill-rule="nonzero"></path>
    </g>
</svg>