<?xml version="1.0" encoding="UTF-8"?>
<svg width="38px" height="38px" viewBox="0 0 38 38" version="1.1" xmlns="http://www.w3.org/2000/svg" xmlns:xlink="http://www.w3.org/1999/xlink">
    <!-- Generator: Sketch 59 (86127) - https://sketch.com -->
    <title>收藏黑</title>
    <desc>Created with Sketch.</desc>
    <g id="客服系统" stroke="none" stroke-width="1" fill="none" fill-rule="evenodd">
        <path d="M37.9265536,14.3717467 L37.9265536,14.3717468 C37.6800602,13.653846 37.0437556,13.1407921 36.2897966,13.0520304 L25.529435,11.4155827 L20.7141812,1.20626555 L20.7141813,1.20626575 C20.3771353,0.261665625 19.3380108,-0.230910442 18.3932276,0.106071833 C17.8799087,0.289161967 17.4759499,0.69303941 17.2928256,1.20626575 L12.4775719,11.4155829 L1.71721028,13.0520306 L1.71721027,13.0520306 C0.959553294,13.1400832 0.321401948,13.6587411 0.0804532271,14.3823035 L0.0804532275,14.3823035 C-0.134665072,15.1393682 0.0891864673,15.9532165 0.661238423,16.4938526 L8.44376005,24.4016083 L6.60636894,35.6139062 L6.60636888,35.6139065 C6.48422794,36.2252443 6.63034805,36.8595959 7.00763882,37.3559328 L7.00763879,37.3559327 C7.33200596,37.765151 7.82648693,38.0026146 8.34872625,37.9999783 L8.34872637,37.9999783 C8.7196471,37.9992981 9.08385069,37.900981 9.40469821,37.7148972 L19.0351604,32.4360133 L28.6656225,37.7148972 L28.6656227,37.7148973 C29.4336839,38.1998792 30.4414732,38.0469398 31.031002,37.3559342 L31.031002,37.3559341 C31.4082928,36.8595973 31.554412,36.2252457 31.432272,35.6139079 L29.5632008,24.40161 L37.3457225,16.4516192 L37.3457226,16.4516191 C37.9060623,15.9172163 38.1289386,15.1190643 37.9265078,14.3717441 L37.9265536,14.3717467 Z M27.1133768,22.8179428 L27.1133768,22.8179429 C26.7886221,23.1581606 26.643762,23.6318003 26.7226667,24.0954288 L28.3911037,34.2836512 L19.6476549,29.5537777 L19.6476549,29.5537777 C19.246855,29.3320614 18.7601697,29.3320614 18.359369,29.5537777 L9.61592009,34.3681213 L11.2843571,24.1798989 L11.2843571,24.1798991 C11.3685528,23.7159485 11.2229704,23.2399398 10.8936475,22.9024132 L3.81864021,15.6914679 L13.5969303,14.2028294 L13.5969303,14.2028294 C14.0618579,14.1384066 14.4608665,13.8392086 14.6529022,13.4110013 L19.0035096,4.10962458 L23.3752386,13.3687663 L23.3752385,13.3687661 C23.5672765,13.7969752 23.9662827,14.0961754 24.4312104,14.1605941 L34.2095005,15.6492327 L27.1133768,22.8179428 Z" id="收藏黑" fill="#000000" fill-rule="nonzero"></path>
    </g>
</svg>