<?xml version="1.0" encoding="UTF-8"?>
<svg width="35px" height="35px" viewBox="0 0 35 35" version="1.1" xmlns="http://www.w3.org/2000/svg" xmlns:xlink="http://www.w3.org/1999/xlink">
    <!-- Generator: Sketch 59 (86127) - https://sketch.com -->
    <title>网摘黑</title>
    <desc>Created with Sketch.</desc>
    <g id="客服系统" stroke="none" stroke-width="1" fill="none" fill-rule="evenodd">
        <path d="M19.4552199,21.9016571 L19.4552196,21.9016571 C17.5607338,21.8958456 15.7461442,21.1377234 14.4105965,19.794046 L14.4105966,19.7940461 C14.0093161,19.4298589 13.9792457,18.8093258 14.3434334,18.4080445 C14.7076206,18.006764 15.3281536,17.9766936 15.729435,18.3408812 C15.7528938,18.3621716 15.7753076,18.3845857 15.7965982,18.4080445 L15.7965985,18.4080447 C17.8278797,20.4047533 21.0847257,20.4047533 23.1159898,18.4080442 L30.155998,11.368036 L30.1559984,11.3680357 C32.1771991,9.34683489 32.1771948,6.06981076 30.1559976,4.04864435 C28.1347968,2.02744356 24.8577727,2.02744785 22.8366063,4.04864506 L16.8965994,9.98865197 L16.8965994,9.98865196 C16.5324122,10.3899324 15.9118791,10.4200029 15.5105978,10.0558152 C15.1093173,9.69162799 15.0792469,9.07109492 15.4434345,8.66981359 C15.4647249,8.64635478 15.487139,8.62394096 15.5105978,8.60265035 L21.4506047,2.66264344 L21.4506046,2.66264356 C24.2214777,-0.108229587 28.7139646,-0.108229587 31.4848077,2.6626435 C34.2556808,5.43351665 34.2556808,9.92600351 31.4848077,12.6968466 L24.4447995,19.7368548 L24.4447997,19.7368546 C23.1512627,21.1156117 21.3457481,21.8989544 19.4551767,21.9016571 L19.4552199,21.9016571 Z M7.86782357,33.5000448 L7.86782339,33.5000448 C3.93356998,33.4937422 0.749354167,30.2992903 0.755618358,26.3650326 C0.758633056,24.4889503 1.50160465,22.6897908 2.82320892,21.3582221 L9.86321712,14.3182139 L9.86321745,14.3182136 C12.6338929,11.5473447 17.1261907,11.5471857 19.8970768,14.3178594 C19.897195,14.3179777 19.8973133,14.318096 19.8974316,14.3182142 L19.8974315,14.3182142 C20.298712,14.6824014 20.3287824,15.3029345 19.9645948,15.7042158 C19.6004075,16.1054963 18.9798745,16.1355667 18.5785932,15.771379 C18.5551343,15.7500887 18.5327205,15.7276746 18.5114299,15.7042158 L18.5114298,15.7042157 C16.4801485,13.7075071 13.2233025,13.7075071 11.1920384,15.7042159 L4.15203025,22.7442241 L4.15203028,22.7442241 C2.13082949,24.7654249 2.13082949,28.042449 4.15203032,30.0636154 C6.17323111,32.0848162 9.45025524,32.0848162 11.4714217,30.0636154 L17.4114286,24.1236085 L17.4114286,24.1236084 C17.8127091,23.7594212 18.4332439,23.7894912 18.7974302,24.1907717 C19.136922,24.5648413 19.136922,25.1355396 18.7974301,25.5096087 L12.8574232,31.4496157 L12.8574235,31.4496154 C11.5172911,32.7454942 9.73190737,33.4791736 7.86780051,33.5000448 L7.86782357,33.5000448 Z M7.86782357,34.0434454 L7.86782384,34.0434454 C5.8213488,34.063819 3.85647581,33.242073 2.43381751,31.7708428 L2.43381725,31.7708425 C0.984213221,30.3335147 0.166469691,28.3782151 0.161214607,26.3368362 L0.161214465,26.3368219 C0.14084489,24.2903469 0.962595476,22.3254739 2.4338257,20.9028156 L9.4738339,13.8628074 L9.47383409,13.8628072 C10.9111619,12.4132032 12.8664615,11.5954597 14.9078404,11.5902046 L14.9078404,11.5902046 C16.9542639,11.5700912 18.9190381,12.3917961 20.3418468,13.8628072 L20.3418468,13.8628073 C20.6293287,14.1561312 20.7877298,14.5521385 20.7820055,14.9628085 L20.7820055,14.9628064 C20.7667065,15.3693033 20.611226,15.7580042 20.3418469,16.0628077 L20.341847,16.0628076 C19.7621205,16.6599923 18.8080456,16.6741462 18.2108609,16.0944225 C18.2001669,16.0840412 18.1896275,16.0735018 18.1792462,16.0628078 L18.1792463,16.0628079 C16.3592899,14.2882394 13.4564166,14.2882394 11.6364301,16.0628078 L4.59642187,23.102816 L4.59642173,23.1028161 C3.73604886,23.9724917 3.26053463,25.1509755 3.2764202,26.3742199 L3.27642002,26.374198 C3.28614958,27.592501 3.75791121,28.7617035 4.59640437,29.6456061 L4.59640447,29.6456062 C5.46608009,30.5059791 6.64456389,30.9814933 7.86780828,30.9656077 L7.86780835,30.9656077 C9.08611133,30.9558726 10.2553139,30.4841036 11.1392122,29.6456062 L17.0792191,23.7055993 L17.0792191,23.7055993 C17.6764037,23.1084146 18.6446369,23.1084146 19.2418216,23.7055993 C19.8390063,24.3027839 19.8390063,25.2710171 19.2418216,25.8682018 L13.3018147,31.8082087 L13.3018147,31.8082086 C11.8556525,33.2400193 9.90286664,34.0432694 7.86780842,34.0434112 L7.86782357,34.0434454 Z M14.8528317,12.8200379 L14.8528319,12.8200379 C13.1154358,12.7977663 11.4474471,13.5009989 10.2504438,14.7604402 L3.21043557,21.8004484 L3.21043583,21.8004481 C1.98168713,23.0184503 1.28420898,24.6727792 1.27003357,26.4028363 L1.27003343,26.4028471 C1.24803302,28.1401917 1.95122641,29.8080773 3.21044428,31.0052353 L3.21044398,31.005235 C4.42844618,32.2339837 6.08277505,32.9314618 7.81283215,32.9456373 L7.81283211,32.9456373 C9.55022827,32.9679089 11.2182169,32.2646763 12.4152203,31.005235 L18.3552272,25.0652281 L18.3552272,25.0652281 C18.5083207,24.9121345 18.5083207,24.663921 18.3552272,24.5108274 C18.2021336,24.3577339 17.95392,24.3577339 17.8008265,24.5108275 L11.8608196,30.4508344 L11.8608198,30.4508342 C9.62273826,32.6864837 5.99605123,32.6845157 3.76042753,30.4464345 C1.52477806,28.208353 1.52674603,24.581666 3.7648272,22.3460423 L10.8048354,15.3060341 L10.8048358,15.3060337 C13.067663,13.0948077 16.6820223,13.0948077 18.9448453,15.3060345 L18.9448452,15.3060345 C19.0798609,15.459128 19.3134196,15.473783 19.4665122,15.3387672 C19.4780963,15.3285509 19.4890287,15.3176186 19.4992448,15.3060346 L19.4992448,15.3060346 C19.6467507,15.1506688 19.6467507,14.9069996 19.4992448,14.7516339 L19.4992449,14.751634 C18.2816724,13.4966357 16.6012658,12.7980532 14.8528137,12.8200232 L14.8528317,12.8200379 Z M19.4552199,22.4670491 L19.4552201,22.4670491 C17.4087451,22.4874227 15.4438721,21.6656767 14.0212138,20.1944465 L14.0212138,20.1944465 C13.4240291,19.5972618 13.4240291,18.6290287 14.0212138,18.031844 C14.6183985,17.4346593 15.5866317,17.4346593 16.1838163,18.031844 L16.1838162,18.0318439 C18.0037726,19.8064123 20.9066459,19.8064123 22.7266324,18.0318441 L29.7666406,10.9918359 L29.7666406,10.9918359 C30.6270135,10.1221603 31.1025277,8.94367648 31.0866422,7.72043208 L31.0866423,7.72045358 C31.0769127,6.5021506 30.6051512,5.33294807 29.766658,4.44904548 L29.7666582,4.44904567 C28.8969826,3.58867279 27.7184988,3.11315857 26.4952544,3.12904413 L26.4952545,3.12904413 C25.2769515,3.13877923 24.107749,3.61054821 23.2238507,4.44904567 L17.2838437,10.3890526 L17.2838438,10.3890526 C16.679363,10.9838138 15.7071853,10.9759333 15.1124241,10.3714527 C14.5176628,9.76697193 14.5255433,8.79479424 15.1300239,8.200033 L21.0700308,2.26002608 L21.070031,2.26002589 C22.5073589,0.810421857 24.4626584,-0.00732167283 26.5040373,-0.0125767571 L26.5040376,-0.0125767596 C28.5504611,-0.0326901541 30.5152352,0.789014798 31.9380439,2.26002588 L31.9380437,2.2600257 C34.9293554,5.26433974 34.9293554,10.1215114 31.9380441,13.1258469 L24.8980359,20.1658551 L24.8980362,20.1658548 C23.4607084,21.6154589 21.5054088,22.4332024 19.4640299,22.4384575 L19.4552199,22.4670491 Z M15.0750234,18.7424448 L15.0750234,18.7424448 C14.9723623,18.7443883 14.8738834,18.7834673 14.797823,18.8524449 L14.7978231,18.8524449 C14.6447295,18.9874606 14.6300746,19.2210193 14.7650904,19.3741119 C14.7753066,19.385696 14.7862389,19.3966284 14.797823,19.4068445 L14.7978227,19.4068442 C16.0158249,20.6355929 17.6701537,21.3330711 19.4002108,21.3472465 L19.4002108,21.3472465 C21.137607,21.3695181 22.8055956,20.6662855 24.002599,19.4068442 L31.0426072,12.366836 L31.0426072,12.3668359 C33.6039903,9.79735756 33.597429,5.63796483 31.0279482,3.07659466 C29.8088589,1.86134676 28.1614867,1.17314557 26.4402124,1.16003149 L26.4402126,1.1600315 C24.7025802,1.1400877 23.0353606,1.84572761 21.8400159,3.10703376 L15.900009,9.04704067 L15.900009,9.04704068 C15.7469154,9.20013422 15.7469154,9.44834779 15.900009,9.60144133 C16.0531025,9.75453486 16.3013161,9.75453486 16.4544096,9.60144132 L22.3944165,3.66143441 L22.3944165,3.66143444 C24.6294601,1.42639082 28.2531694,1.42639082 30.4882345,3.66143439 C32.7232781,5.896478 32.7232781,9.5201873 30.4882346,11.7552524 L23.4482264,18.7952606 L23.4482263,18.7952606 C21.1853991,21.0064866 17.5710398,21.0064866 15.3082169,18.7952606 C15.3082169,18.7402605 15.1982167,18.7402605 15.0882166,18.7402605 L15.0750234,18.7424448 Z" id="网摘黑" fill="#000000" fill-rule="nonzero"></path>
    </g>
</svg>