<?xml version="1.0" encoding="UTF-8"?>
<svg width="15px" height="16px" viewBox="0 0 15 16" version="1.1" xmlns="http://www.w3.org/2000/svg" xmlns:xlink="http://www.w3.org/1999/xlink">
    <!-- Generator: Sketch 63.1 (92452) - https://sketch.com -->
    <title>电池改为火苗-白色@1x</title>
    <desc>Created with Sketch.</desc>
    <g id="又更新了（2021-6-29）" stroke="none" stroke-width="1" fill="none" fill-rule="evenodd">
        <g id="画板" transform="translate(-97.000000, -80.000000)" fill="#FFFFFF" fill-rule="nonzero">
            <g id="电池改为火苗-白色" transform="translate(97.000000, 80.000000)">
                <path d="M6.68409894,1.89399294 C7.07985866,3.53356891 8.02685513,4.63604241 8.77597173,5.58303887 L8.87491166,5.6819788 L10.019788,7.08127208 L10.6275618,5.44169611 C10.7265018,5.08833922 10.8678445,4.73498233 10.9667845,4.33922261 C12.5215548,5.93639575 13.609894,8.2826855 12.8749117,11.1236749 C12.6204947,12.0706714 12.069258,12.9611307 11.3766784,13.4558304 C10.6275618,14.1060071 9.32720847,14.8551237 7.27773852,14.8551237 C4.63462897,14.8551237 3.24946997,13.6113074 2.59929328,12.8621908 C2.40141342,12.664311 2.24593639,12.4664311 2.14699647,12.2685512 C1.15759717,10.5724382 1.00212014,8.81978798 1.75123675,7.33568905 C1.99151944,7.57597173 2.24593639,7.83038869 2.50035336,8.02826855 C2.64169611,8.18374558 2.79717314,8.28268552 2.89611308,8.38162544 L5.04452297,10.5724382 L4.63462897,7.53356891 C4.13992933,5.03180213 5.38374558,3.13780919 6.68409894,1.89399294 Z M7.48975266,0 C5.04452297,1.63957597 3.05159011,4.33922261 3.48975266,7.67491166 C2.95265019,7.12367491 1.94911661,6.4876325 1.65229681,5.48409894 C-0.00141342187,7.37809187 -0.439575969,10.1201413 1.2,12.819788 C1.35547703,13.0600707 1.55335689,13.3568905 1.79363958,13.6113074 C2.50035336,14.459364 4.19646644,16 7.27773852,16 C9.62402827,16 11.1222615,15.1095406 12.069258,14.360424 C13.0162544,13.6678445 13.6664311,12.4664311 13.9632509,11.4628975 C14.9667845,7.67491167 13.0162544,4.38162545 10.3731449,2.58657244 C10.3731449,3.49116608 9.97738516,4.59363958 9.7795053,5.18727916 C8.63462897,3.84452297 7.48975264,2.48763252 7.48975266,0 Z" id="形状"></path>
            </g>
        </g>
    </g>
</svg>