<?xml version="1.0" encoding="UTF-8"?>
<svg width="20px" height="16px" viewBox="0 0 20 16" version="1.1" xmlns="http://www.w3.org/2000/svg" xmlns:xlink="http://www.w3.org/1999/xlink">
    <!-- Generator: Sketch 63.1 (92452) - https://sketch.com -->
    <title>归档@1x</title>
    <desc>Created with Sketch.</desc>
    <g id="新版定稿（20202-8-22）" stroke="none" stroke-width="1" fill="none" fill-rule="evenodd">
        <g id="项目-设置" transform="translate(-585.000000, -179.000000)" fill="#333333" fill-rule="nonzero">
            <g id="归档" transform="translate(585.000000, 179.000000)">
                <path d="M18.9393131,7.10560808 C18.9349495,7.09287273 18.9349495,7.07987878 18.9307152,7.07118385 L14.9896727,1.73642828 C14.8524283,1.49177373 14.5908363,1.34596363 14.3119838,1.34596363 L12.8899879,1.34596363 C12.8899879,1.34596363 12.0855273,1.34596363 12.0855273,2.15039193 C12.0855273,2.95475555 12.9257051,2.9076283 12.9257051,2.90762828 L14.0431192,2.90762828 L16.6736485,6.67658183 L12.9222142,6.67658183 C12.714863,6.67587442 12.5158012,6.75793578 12.369187,6.90456211 C12.2225728,7.05118844 12.140528,7.25025697 12.1412525,7.45760808 L12.1412525,10.0330586 L7.19767272,10.0330586 L7.19767272,7.45760808 C7.19844034,7.25028312 7.1164404,7.05122391 6.96986583,6.90459472 C6.82329125,6.75796553 6.6242626,6.67589144 6.41693737,6.67658183 L2.58585857,6.67658183 L5.36465455,2.90762828 L6.43413332,2.90762828 C6.43413332,2.90762828 7.07765655,2.8475717 7.07765657,2.15039193 C7.0776566,1.45321215 6.43413335,1.34596363 6.43413332,1.34596363 L5.07054545,1.34596363 C4.7959596,1.34596363 4.54286867,1.4875717 4.4012606,1.72343435 L0.121503025,7.05408485 C0.112937375,7.0670788 0.117107075,7.08427475 0.10873535,7.0970101 C0.0571798,7.19572525 0.0228202,7.30297373 0.01425455,7.41875555 C0.01425455,7.43171718 0.00565236539,7.44031515 0.00565236539,7.4531798 L0.00565236539,14.8752727 C0.00497530948,15.0825361 0.087008925,15.2815071 0.233567083,15.4280652 C0.380125241,15.5746234 0.579096185,15.656657 0.7863596,15.65598 L18.2442667,15.65598 C18.2442667,15.65598 18.5565091,15.65598 18.7976727,15.4286788 C18.9434505,15.2826424 19.029398,15.0810747 19.029398,14.8752727 L19.029398,7.46177778 C19.0335677,7.3286707 18.995006,7.21282425 18.9393131,7.10560808 Z M17.471903,14.0900768 L1.57155555,14.0857455 L1.57155555,8.23824647 L5.63620202,8.23824647 L5.63620202,10.813794 C5.63547767,11.0210968 5.71749462,11.220121 5.86406259,11.3667253 C6.01063057,11.5133297 6.2096343,11.5953961 6.41693737,11.5947232 L12.9222465,11.5947232 C13.129544,11.5953875 13.3285394,11.5133173 13.4751003,11.3667138 C13.6216613,11.2201104 13.7036738,11.0210912 13.7029495,10.8137939 L13.7029495,8.23824647 L17.471903,8.23824647 L17.471903,14.0900768 L17.471903,14.0900768 Z" id="形状"></path>
                <path d="M10.351325,6.19590303 L10.351325,0.697301 C10.3519335,0.513873489 10.2793382,0.337782063 10.1496346,0.208078503 C10.0199311,0.0783749432 9.84383964,0.00577959583 9.66041213,0.00638786386 C9.47697047,0.00576237735 9.30085909,0.0783490786 9.17113638,0.208053574 C9.04141368,0.337758069 8.96880225,0.513859261 8.96940231,0.697301 L8.96940231,6.1958707 C8.96880225,6.37931244 9.04141367,6.55541364 9.17113637,6.68511814 C9.30085908,6.81482264 9.47697047,6.88740935 9.66041213,6.88678386 C9.84383402,6.88739208 10.0199205,6.81480116 10.1496231,6.6851046 C10.2793258,6.55540805 10.3519249,6.37932495 10.351325,6.19590303 L10.351325,6.19590303 Z" id="路径"></path>
                <path d="M12.1278707,3.89856163 C12.0020202,3.76512327 11.8281337,3.6874085 11.644772,3.68265121 C11.4614103,3.67789393 11.2837279,3.74648731 11.1511273,3.8732202 L9.67376163,5.27582223 L8.17971718,3.85738183 C8.04712188,3.73064685 7.86944055,3.66205448 7.68608141,3.66681792 C7.50272227,3.67158136 7.3288421,3.74930686 7.20300605,3.88275555 C7.07622468,4.01534895 7.00758875,4.19304801 7.01232188,4.37643863 C7.01705501,4.55982926 7.09476594,4.73375125 7.22821818,4.85962828 L9.10975353,6.64597173 C9.12661902,6.66908723 9.14490619,6.69113115 9.1645091,6.71197575 C9.29035111,6.84545989 9.4642501,6.92321851 9.64763849,6.9280062 C9.83102689,6.93279389 10.0087463,6.86421491 10.1413818,6.7374788 L12.1026909,4.87546668 C12.2361091,4.74956178 12.3137926,4.57563783 12.3185194,4.39225264 C12.3232461,4.20886745 12.2546257,4.0311725 12.1278707,3.89856163 L12.1278707,3.89856163 Z" id="路径"></path>
            </g>
        </g>
    </g>
</svg>