<?xml version="1.0" encoding="UTF-8"?>
<svg width="30px" height="38px" viewBox="0 0 30 38" version="1.1" xmlns="http://www.w3.org/2000/svg" xmlns:xlink="http://www.w3.org/1999/xlink">
    <!-- Generator: Sketch 59 (86127) - https://sketch.com -->
    <title>huoli</title>
    <desc>Created with Sketch.</desc>
    <g id="页面-1" stroke="none" stroke-width="1" fill="none" fill-rule="evenodd">
        <path d="M29.8812808,25.6391467 C29.8812808,25.6336336 29.8825797,25.6309705 29.8839249,25.6255509 L29.882626,25.6255509 C30.1627566,23.656816 30.1319555,20.1918186 27.5765961,16.6283802 C24.5038387,12.3411137 24.2679121,10.3331914 24.0573614,8.55886858 L24.0158915,8.23345599 C23.959578,7.76624323 23.6537955,7.37462934 23.2154383,7.20718225 C22.7931321,7.04244353 22.2877018,7.13158748 21.9391019,7.43672288 C19.607696,9.49464876 18.9092951,12.0386757 18.6571855,14.2018593 C15.9531093,8.38469941 16.4142872,3.51542477 16.6167192,1.38191826 C16.6555914,0.948439637 16.4745898,0.531172902 16.1341091,0.265188849 C15.7989175,0.00186888188 15.325587,-0.0710627155 14.9448434,0.0720902791 C5.73184762,3.38578488 5.71580066,13.6617172 6.65427592,19.9082813 C5.04274848,18.5201483 3.79730935,16.1584937 3.33478515,15.012069 C3.14167674,14.5407927 2.68852324,14.2396756 2.13619499,14.2262205 C1.61067966,14.2397229 1.15752526,14.5718632 0.980559908,15.0688343 C0.936260458,15.1984386 -3.37929527,28.2047219 6.45447765,35.1021723 C9.55539431,37.0250721 12.6859117,38 15.7653871,38 C22.7595958,37.6867349 27.5216449,34.4026612 29.5139613,27.2568138 C29.5474991,27.1677169 29.7445507,26.5762732 29.8812989,25.6391905 M15.7882137,35.4722413 C13.1672145,35.4722413 10.4885913,34.6322977 7.83404309,32.9849608 C4.39259995,30.5705084 2.58673202,27.0030248 2.46334267,22.3795218 C2.43518583,21.3154486 2.50086967,20.202737 2.66039391,19.0658272 C3.877769,20.9157489 5.73185487,22.9818017 8.12361369,23.4300942 C8.54193077,23.4976063 8.95890336,23.3652918 9.24715031,23.0654828 C9.53934145,22.7657203 9.66537447,22.3416776 9.58095023,21.9231033 L9.53799596,21.7233237 C8.63307879,17.4764683 7.28967159,7.29913228 13.9688703,3.31569497 C13.7812355,9.17609203 15.3337097,14.4329034 18.7122433,19.3737226 C19.0191387,19.8220584 19.592945,20.0245496 20.1211982,19.8652294 C20.6494062,19.6951178 21.0060295,19.2062755 21.0060295,18.6512734 L21.0060295,18.3150218 C21.0060295,15.7845596 21.0060295,13.3836993 22.0101659,11.3892184 C22.3949453,12.7868343 23.2368654,14.9027401 25.5347812,18.1084695 C27.5028821,20.8563231 27.5966798,23.5191907 27.4170218,25.06395 C27.4143314,25.0774057 26.5656852,29.8845999 24.4340186,32.0883726 C24.1980952,32.2963284 23.9058107,32.539278 23.5612498,32.7959147 C23.2957777,32.9525708 23.1282284,33.0768953 23.0116096,33.1847746 C21.3947966,34.2758995 18.9185238,35.4695291 15.7894343,35.4722413 L15.7882283,35.4722413 L15.7882137,35.4722413 Z" id="huoli" fill="#FFFFFF" fill-rule="nonzero"></path>
    </g>
</svg>