<?xml version="1.0" encoding="UTF-8"?>
<svg width="19px" height="18px" viewBox="0 0 19 18" version="1.1" xmlns="http://www.w3.org/2000/svg" xmlns:xlink="http://www.w3.org/1999/xlink">
    <!-- Generator: Sketch 63.1 (92452) - https://sketch.com -->
    <title>信心值</title>
    <desc>Created with Sketch.</desc>
    <g id="workfly-0208✅" stroke="none" stroke-width="1" fill="none" fill-rule="evenodd">
        <g id="OKR" transform="translate(-1646.000000, -205.000000)" fill="#999999" fill-rule="nonzero">
            <g id="编组-20" transform="translate(449.000000, 107.000000)">
                <g id="编组-19" transform="translate(1123.000000, 96.000000)">
                    <g id="信心值-2" transform="translate(74.000000, 2.000000)">
                        <g id="信心值">
                            <path d="M12.8213067,0.007333326 C16.453008,0.007333326 18.7806667,2.91954667 18.7806667,6.83894933 C18.7806667,9.880464 16.028496,13.230096 10.6060533,16.9939147 C9.876907,17.4988713 8.911093,17.4988713 8.18194667,16.9939147 C2.759504,13.230096 0.007333326,9.880464 0.007333326,6.83894933 C0.007333326,2.91954667 2.334992,0.007333326 5.96669333,0.007333326 C7.27824533,0.007333326 8.16786665,0.465637326 9.394,1.50544533 C10.620368,0.465872 11.5097547,0.007333326 12.8213067,0.007333326 Z M12.8213067,1.39656 C11.9096267,1.39656 11.2755573,1.73072533 10.2481867,2.60744 C10.2005493,2.64803733 9.93138667,2.87965333 9.85347733,2.94582933 C9.58830509,3.17036229 9.19969491,3.17036229 8.93452267,2.94582933 C8.85661335,2.87941865 8.58745067,2.64803733 8.53981333,2.60744 C7.51244265,1.73072533 6.87837333,1.39656 5.96669333,1.39656 C3.19410667,1.39656 1.41533333,3.61369067 1.41533333,6.81337067 C1.41533333,9.2532 3.91289067,12.2813387 8.989904,15.7921867 C9.23317688,15.9599706 9.55482312,15.9599706 9.798096,15.7921867 C14.8751093,12.2815733 17.3726667,9.2532 17.3726667,6.81337067 C17.3726667,3.61369067 15.5938933,1.39656 12.8213067,1.39656 Z"></path>
                        </g>
                    </g>
                </g>
            </g>
        </g>
    </g>
</svg>