<?xml version="1.0" encoding="UTF-8"?>
<svg width="18px" height="18px" viewBox="0 0 18 18" version="1.1" xmlns="http://www.w3.org/2000/svg" xmlns:xlink="http://www.w3.org/1999/xlink">
    <!-- Generator: Sketch 63.1 (92452) - https://sketch.com -->
    <title>百分比</title>
    <desc>Created with Sketch.</desc>
    <g id="workfly-0208✅" stroke="none" stroke-width="1" fill="none" fill-rule="evenodd">
        <g id="OKR" transform="translate(-1711.000000, -204.000000)" fill="#999999" fill-rule="nonzero">
            <g id="编组-20" transform="translate(449.000000, 107.000000)">
                <g id="编组-19" transform="translate(1123.000000, 96.000000)">
                    <g id="百分比-2" transform="translate(139.000000, 1.000000)">
                        <g id="百分比">
                            <path d="M9.01692,9.59983229 C8.8622747,9.59998688 8.71391875,9.53862285 8.60456795,9.42927205 C8.49521715,9.31992125 8.43385312,9.1715653 8.43400771,9.01692 L8.43400771,0.58509792 C8.43400771,0.26449632 8.6963184,0.00218592 9.01692,0.00218592 C13.9833302,0.00218592 18.0229104,4.04176608 18.0229104,9.00817632 C18.0229104,9.16277419 17.9614966,9.31104014 17.8521794,9.42035735 C17.7428622,9.52967455 17.5945963,9.59108832 17.4399984,9.59108832 L9.01692,9.59983229 Z M9.599832,1.18841184 L9.599832,8.434008 L16.8337699,8.42526432 C16.5510576,4.56347232 13.4587094,1.47403872 9.599832,1.18841184 Z" id="形状"></path>
                            <path d="M16.2362851,12.0538915 C15.017999,14.9276477 12.1529866,16.8454282 9.01692,16.8454282 C4.69462752,16.8454282 1.1767536,13.3275542 1.1767536,9.00526176 C1.1767536,5.75844192 3.17905632,2.86428384 6.18396768,1.69845984 L6.18396768,0.4626864 C6.15190752,0.46851552 6.11984736,0.47434464 6.0877872,0.48600288 C2.45333088,1.73926368 0.0109296,5.16095712 0.0109296,9.00526176 C0.0109296,13.971672 4.05050976,18.0112522 9.01692,18.0112522 C12.7154966,18.0112522 16.0934717,15.694177 17.422511,12.2433379 C17.4458275,12.1821322 17.4574858,12.1180118 17.4574858,12.0538915 L16.2362851,12.0538915 Z" id="路径"></path>
                        </g>
                    </g>
                </g>
            </g>
        </g>
    </g>
</svg>