<?xml version="1.0" encoding="UTF-8"?>
<svg width="18px" height="18px" viewBox="0 0 18 18" version="1.1" xmlns="http://www.w3.org/2000/svg" xmlns:xlink="http://www.w3.org/1999/xlink">
    <!-- Generator: Sketch 63.1 (92452) - https://sketch.com -->
    <title>列表</title>
    <desc>Created with Sketch.</desc>
    <g id="workfly-0208✅" stroke="none" stroke-width="1" fill="none" fill-rule="evenodd">
        <g id="OKR" transform="translate(-1777.000000, -205.000000)" fill-rule="nonzero">
            <g id="编组-20" transform="translate(449.000000, 107.000000)">
                <g id="编组-19" transform="translate(1123.000000, 96.000000)">
                    <g id="列表-2" transform="translate(205.000000, 2.000000)">
                        <g id="列表" transform="translate(0.000000, 1.000000)">
                            <polygon id="路径" fill="#000000" points="15.6600774 12.2652524 15.6680345 12.2652524 15.6680345 12.2173764"></polygon>
                            <path d="M5.0099582,0.0126074475 L1.08532439,0.0126074475 C0.495018176,0.0126074475 0.0146419245,0.49302515 0.0146419245,1.08273042 L0.0146419245,5.00765435 C0.0146419245,5.59796056 0.495018176,6.07775659 1.08532439,6.07775659 L5.00997893,6.07775659 C5.59999502,6.07775659 6.08039201,5.59796054 6.08039201,5.00765435 L6.08039201,1.08270969 C6.08039201,0.493004414 5.59997431,0.0126074475 5.0099582,0.0126074475 M5.05948366,1.08270969 L5.05948366,5.00763362 C5.05948366,5.03475865 5.03708323,5.05773929 5.0099582,5.05773929 L1.08532439,5.05773929 C1.05822007,5.05773929 1.03463849,5.03475863 1.03463849,5.00763362 L1.03463849,1.08270969 C1.03463849,1.05469361 1.05761915,1.03260402 1.08532439,1.03260402 L5.00997893,1.03260402 C5.03768417,1.03260402 5.05948366,1.05471434 5.05948366,1.08270969" id="形状" fill="#999999"></path>
                            <path d="M5.0099582,8.42070464 L1.08532439,8.42070464 C0.495018176,8.42070464 0.0146419245,8.90168183 0.0146419245,9.49105555 L0.0146419245,13.4160209 C0.0146419245,14.0065965 0.495018176,14.4863926 1.08532439,14.4863926 L5.00997893,14.4863926 C5.59999502,14.4863926 6.08039201,14.0065965 6.08039201,13.4160209 L6.08039201,9.49105555 C6.08039201,8.90168185 5.59997431,8.42070464 5.0099582,8.42070464 M5.05948366,9.49105555 L5.05948366,13.4160209 C5.05948366,13.4437262 5.03708323,13.4660852 5.0099582,13.4660852 L1.08532439,13.4660852 C1.05822007,13.4660852 1.03463849,13.4437262 1.03463849,13.4160209 L1.03463849,9.49105555 C1.03463849,9.46337102 1.05761915,9.44094988 1.08532439,9.44094988 L5.00997893,9.44094988 C5.03768417,9.44094988 5.05948366,9.46337102 5.05948366,9.49105555" id="形状" fill="#999999"></path>
                            <path d="M8.4616135,1.4363505 C8.47634682,1.44608982 8.49404335,1.45257579 8.51290033,1.45257579 L8.54887365,1.45257579 C8.55768048,1.45375694 8.56710896,1.45375694 8.57657889,1.45257579 L16.0238821,1.45257579 C16.0286067,1.45317673 16.0338701,1.45375694 16.0380145,1.45375694 C16.0427391,1.45375694 16.0474637,1.45317671 16.0515874,1.45257579 L16.0810333,1.45257579 C16.0969892,1.45257579 16.1117018,1.44727098 16.1240521,1.43989397 C16.367535,1.39774552 16.5472772,1.18998724 16.5472772,0.944494304 C16.5472772,0.702524097 16.3733993,0.497687612 16.1352833,0.451436207 C16.1199698,0.439956239 16.1011129,0.432579224 16.0810333,0.432579224 L8.5128796,0.432579224 C8.49462356,0.432579224 8.47692702,0.441137381 8.46221442,0.453218288 C8.22702029,0.500961652 8.05316313,0.705508036 8.05316313,0.944515019 C8.05316313,1.18410221 8.22702029,1.38862785 8.4616135,1.4363505" id="路径" fill="#999999"></path>
                            <path d="M8.45452659,5.21425218 C8.46984011,5.22809446 8.49049991,5.23723284 8.5128796,5.23723284 L16.0810125,5.23723284 C16.09931,5.23723284 16.1158254,5.2292756 16.1305587,5.21835514 C16.3698765,5.17388583 16.5466969,4.96786821 16.5466969,4.72413661 C16.5466969,4.47864366 16.367535,4.2714656 16.1258134,4.22933789 C16.112282,4.22138065 16.0969477,4.21725698 16.0810125,4.21725698 L16.0668802,4.21959857 C16.0551101,4.21665606 16.0373928,4.2154749 16.0203594,4.21725698 L8.59129147,4.21959857 C8.57889974,4.21665606 8.56178341,4.2154749 8.54470853,4.21725698 L8.51287962,4.21725698 C8.49638494,4.21725698 8.48165165,4.22198159 8.46805805,4.23172091 C8.22938262,4.27710199 8.05374337,4.48278806 8.05374337,4.72415733 C8.05374337,4.96078129 8.22231642,5.16356629 8.45452659,5.21425218" id="路径" fill="#999999"></path>
                            <path d="M8.45512753,10.2602751 C8.47044105,10.2737858 8.49108011,10.2820539 8.5128796,10.2820539 L16.0810125,10.2820539 C16.0892806,10.2820539 16.0969684,10.2808727 16.1052365,10.2785104 C16.3739795,10.2661809 16.5903166,10.0427775 16.5903166,9.76986941 C16.5903166,9.48985369 16.3616085,9.26122841 16.0810125,9.26122841 C16.0769096,9.26122841 16.072185,9.2617879 16.0668802,9.26240956 L8.57595722,9.26240956 C8.56708822,9.26122841 8.55826068,9.26122841 8.54825198,9.26240956 L8.5128796,9.26240956 C8.49582543,9.26240956 8.48047047,9.26767294 8.4668976,9.27710142 C8.2293826,9.32308342 8.05374335,9.52876951 8.05374335,9.76986939 C8.05374335,10.0068663 8.22347685,10.2095685 8.45512753,10.2602751" id="路径" fill="#999999"></path>
                            <path d="M16.1140433,12.6321095 C16.1040553,12.6279859 16.0922231,12.6256443 16.0810125,12.6256443 L8.5128796,12.6256443 C8.49344241,12.6256443 8.474544,12.6350106 8.46043234,12.6485835 C8.22585987,12.697508 8.05374335,12.901412 8.05374335,13.1401703 C8.05374335,13.3812288 8.22940333,13.586977 8.4668976,13.6329383 C8.48044975,13.6411442 8.49582543,13.6452886 8.5128796,13.6452886 L8.52763363,13.642947 C8.53351866,13.6441074 8.5423462,13.6470499 8.58070254,13.6452886 L16.0456609,13.642947 C16.0551101,13.6452886 16.0728066,13.648832 16.0810125,13.648832 C16.3616084,13.648832 16.5903166,13.420186 16.5903166,13.1401703 C16.5903166,12.8702047 16.3798852,12.6497646 16.1140433,12.6321095" id="路径" fill="#999999"></path>
                        </g>
                    </g>
                </g>
            </g>
        </g>
    </g>
</svg>