<?xml version="1.0" encoding="UTF-8"?>
<svg width="26px" height="26px" viewBox="0 0 26 26" version="1.1" xmlns="http://www.w3.org/2000/svg" xmlns:xlink="http://www.w3.org/1999/xlink">
    <!-- Generator: Sketch 63.1 (92452) - https://sketch.com -->
    <title>bangzhu</title>
    <desc>Created with Sketch.</desc>
    <g id="workfly-0208✅" stroke="none" stroke-width="1" fill="none" fill-rule="evenodd">
        <g id="插件下载" transform="translate(-1160.000000, -25.000000)">
            <g id="bangzhu-2" transform="translate(1160.000000, 25.000000)">
                <g id="bangzhu">
                    <rect id="透明背景" fill="#D4D4D4" opacity="0.24" x="0" y="0" width="25.6" height="25.6" rx="12.8"></rect>
                    <g id="编组-17" transform="translate(8.960000, 6.400000)" fill="#666666">
                        <path d="M3.92262621,0 C4.96865986,0 5.8839393,0.270848006 6.53771035,0.947967996 C7.19148137,1.48966401 7.583744,2.437632 7.583744,3.3856 C7.583744,4.19814399 7.32223558,5.01068801 6.92997295,5.552384 C6.79921874,5.687808 6.27620193,6.22950399 5.49167667,6.906624 C5.23016826,7.17747201 4.96865984,7.44832001 4.83790565,7.854592 C4.70715144,8.260864 4.57639723,8.66713599 4.57639723,8.93798402 L4.57639723,9.208832 L2.74583835,9.208832 L2.74583835,8.93798402 C2.74583835,8.26086403 2.87659256,7.71916802 3.13810095,7.31289601 C3.39960937,6.7712 4.0533804,6.09408001 4.96865986,5.14611201 L5.23016828,4.87526401 C5.4916767,4.468992 5.75318512,4.06272001 5.75318509,3.656448 C5.75318509,3.11475199 5.62243088,2.57305601 5.23016828,2.302208 C4.83790565,1.89593599 4.44564305,1.76051199 3.791872,1.76051199 C3.00734677,1.76051199 2.48432993,2.03135999 2.0920673,2.437632 C1.83055888,2.84390401 1.69980467,3.3856 1.6998047,4.19814399 L0,4.19814399 C0,2.97932799 0.392262628,1.89593599 1.04603365,1.218816 C1.69980467,0.406272008 2.74583835,0 3.92262621,0 L3.92262621,0 Z" id="路径"></path>
                        <circle id="椭圆形" cx="3.791872" cy="11.375616" r="1.083392"></circle>
                    </g>
                </g>
            </g>
        </g>
    </g>
</svg>