<?xml version="1.0" encoding="UTF-8"?>
<svg width="176px" height="176px" viewBox="0 0 176 176" version="1.1" xmlns="http://www.w3.org/2000/svg" xmlns:xlink="http://www.w3.org/1999/xlink">
    <!-- Generator: Sketch 63.1 (92452) - https://sketch.com -->
    <title>群头像 圆备份@1x</title>
    <desc>Created with Sketch.</desc>
    <g id="新版定稿（20202-8-22）" stroke="none" stroke-width="1" fill="none" fill-rule="evenodd">
        <g id="画板" transform="translate(-1054.000000, -2427.000000)">
            <g id="群头像-圆备份" transform="translate(1054.000000, 2427.000000)">
                <circle id="椭圆形" stroke="#838383" stroke-width="1.6" cx="88" cy="88" r="87.2"></circle>
                <g id="默认头像" transform="translate(30.000000, 34.000000)" fill="#838383" fill-rule="nonzero">
                    <g id="群-(1)">
                        <path d="M107.901967,64.4720602 C100.487302,60.5190839 92.1958774,57.6696154 92.1807609,53.0288364 C92.1580861,46.6194217 101.946048,40.6105955 101.89314,24.9120645 C101.878024,19.3869677 99.2023956,-0.068024448 78.5078468,-0.000177941522 C73.1641485,0.022674816 69.0600068,1.39072205 65.8628578,3.47680512 C80.0421761,8.29142438 82.1660505,24.1335625 82.1887253,29.2127213 C82.2416332,46.3548822 71.5542366,52.907904 71.5844697,59.9068639 C71.5995862,64.9709061 80.6468378,68.0849142 88.7417471,72.4006875 C95.8843142,76.2402897 103.261188,79.3542977 103.049556,87.5625811 L103.041998,87.7137466 L111.242723,87.6835135 C117.410273,87.6683969 121.030685,83.670071 121.00801,78.3641641 C121.204525,70.8436835 114.44743,67.9942149 107.901967,64.4796184 L107.901967,64.4720602 Z" id="路径"></path>
                        <path d="M78.7421533,76.3536637 C70.6170109,71.969866 61.5470845,68.8105083 61.5319679,63.6633251 C61.5092931,56.5585494 72.2193645,49.8997117 72.1664566,32.4930113 C72.1437818,26.3632527 69.2187306,4.79950272 46.5590311,4.87488724 C24.1336381,4.95066816 21.102771,26.7789577 21.1254458,32.6668516 C21.1783537,49.824129 31.9337748,56.6568069 31.9564496,63.7615826 C31.9715661,68.9087658 22.9167563,72.1285897 14.821847,76.5728536 C7.67927993,80.7676946 0.0529834867,83.7305372 0.0831269767,92.0673112 C0.0983331187,97.9552051 3.56002169,102.195396 10.8461959,102.323886 L82.4003569,102.08958 C89.1650104,102.074463 93.1255449,97.6377577 93.1028701,91.7498638 C93.3145017,83.4130898 85.9073951,80.2537321 78.7421533,76.3536637 Z" id="路径"></path>
                    </g>
                </g>
            </g>
        </g>
    </g>
</svg>