<?xml version="1.0" encoding="UTF-8"?>
<svg width="52px" height="52px" viewBox="0 0 52 52" version="1.1" xmlns="http://www.w3.org/2000/svg" xmlns:xlink="http://www.w3.org/1999/xlink">
    <!-- Generator: Sketch 63.1 (92452) - https://sketch.com -->
    <title>审核已通过@1x</title>
    <desc>Created with Sketch.</desc>
    <g id="新版定稿" stroke="none" stroke-width="1" fill="none" fill-rule="evenodd">
        <g id="切图3" transform="translate(-1550.000000, -1133.000000)" fill-rule="nonzero">
            <g id="审核已通过" transform="translate(1550.000000, 1133.000000)">
                <rect id="矩形" fill="#F05721" x="0" y="0" width="51.8" height="51.8" rx="25.9"></rect>
                <path d="M39.0305108,20.310674 L23.9301104,35.3728729 C23.9014571,35.4015265 23.8966813,35.4397311 23.868028,35.4683845 C23.3236119,36.0128005 22.5213133,36.1321914 21.8575091,35.845655 C21.5996278,35.7501434 21.3560725,35.6116515 21.1507227,35.4063014 C21.0838645,35.3394432 21.0552111,35.2534829 20.9979041,35.1770734 L13.5336712,27.7367165 C12.8221096,27.0251549 12.8221096,25.8694645 13.5336712,25.162678 C14.2452328,24.4511164 15.4056984,24.4511164 16.1172601,25.162678 L22.3923873,31.423452 L36.2797784,17.5694872 C37.0390947,16.8101709 38.2711965,16.8101709 39.0305128,17.5694872 C39.7898291,18.3240283 39.7898291,19.5513549 39.0305128,20.3106712 L39.0305108,20.310674 Z" id="路径" fill="#FFFFFF"></path>
            </g>
        </g>
    </g>
</svg>