<?xml version="1.0" encoding="UTF-8"?>
<svg width="52px" height="52px" viewBox="0 0 52 52" version="1.1" xmlns="http://www.w3.org/2000/svg" xmlns:xlink="http://www.w3.org/1999/xlink">
    <!-- Generator: Sketch 63.1 (92452) - https://sketch.com -->
    <title>待审核@1x</title>
    <desc>Created with Sketch.</desc>
    <g id="新版定稿" stroke="none" stroke-width="1" fill="none" fill-rule="evenodd">
        <g id="切图3" transform="translate(-1550.000000, -1073.000000)" fill-rule="nonzero">
            <g id="待审核" transform="translate(1550.000000, 1073.000000)">
                <rect id="矩形" fill="#FFC107" x="0" y="0" width="51.8" height="51.8" rx="25.9"></rect>
                <path d="M14.5677344,36.1974084 L37.4322656,36.1974084 C37.7461064,36.1974084 38,36.4639693 38,36.7934682 L38,38.4039402 C38,38.7334391 37.7461064,39 37.4322656,39 L14.5677344,39 C14.2538936,39 14,38.7334391 14,38.4039402 L14,36.7934682 C14,36.4639693 14.2538936,36.1974084 14.5677344,36.1974084 Z M36.2262709,28.7300013 L31.7337643,28.7300013 C30.5383485,28.7300013 29.5404055,27.7674203 29.4451954,26.5160651 C29.1948281,23.1322227 32.6682339,21.5143462 32.6682339,17.3641412 C32.6682339,13.8396139 30.1116662,11 26,11 C21.8883338,11 19.3352924,13.8433161 19.3352924,17.3641412 C19.3352924,21.5143462 22.8086982,23.1322227 22.5583309,26.5160651 C22.4595945,27.7674203 21.4651778,28.7300013 20.269762,28.7300013 L15.7737291,28.7300013 C14.7934176,28.7300013 14,29.5630041 14,30.5922253 L14,33.7354225 C14,34.0649213 14.2538936,34.3314822 14.5677344,34.3314822 L37.4322656,34.3314822 C37.7461064,34.3314822 38,34.0649213 38,33.7354225 L38,30.5922253 C38,29.5667063 37.2065824,28.7300013 36.2262709,28.7300013 Z" id="形状" fill="#FFFFFF"></path>
            </g>
        </g>
    </g>
</svg>