<?xml version="1.0" encoding="UTF-8"?>
<svg width="52px" height="52px" viewBox="0 0 52 52" version="1.1" xmlns="http://www.w3.org/2000/svg" xmlns:xlink="http://www.w3.org/1999/xlink">
    <!-- Generator: Sketch 63.1 (92452) - https://sketch.com -->
    <title>审核已拒绝@1x</title>
    <desc>Created with Sketch.</desc>
    <g id="新版定稿" stroke="none" stroke-width="1" fill="none" fill-rule="evenodd">
        <g id="切图3" transform="translate(-1550.000000, -1196.000000)" fill-rule="nonzero">
            <g id="审核已拒绝" transform="translate(1550.000000, 1196.000000)">
                <rect id="矩形" fill="#7D59FF" x="0" y="0" width="51.8" height="51.8" rx="25.9"></rect>
                <g id="类型" transform="translate(17.000000, 16.000000)" fill="#FFFFFF" stroke="#FFFFFF" stroke-width="1.2">
                    <path d="M10.9710341,9.49995227 L18.7070835,1.7606056 C19.0976388,1.37001747 19.0976388,0.725909763 18.7070835,0.335194361 L18.6649747,0.2929411 C18.2744194,-0.0976470332 17.6307027,-0.0976470332 17.2400201,0.2929411 L9.50397072,8.04285109 L1.76779408,0.2929411 C1.37723872,-0.0976470332 0.73339484,-0.0976470332 0.342966692,0.2929411 L0.300730737,0.335194361 C0.108458053,0.522430506 0,0.779466632 0,1.04789998 C0,1.31633333 0.108458053,1.57336945 0.300730737,1.7606056 L8.03690737,9.49995227 L0.300730737,17.2394262 C-0.0896974107,17.6300144 -0.0896974107,18.2742493 0.300730737,18.6647102 L0.342966692,18.7069634 C0.73339484,19.0976789 1.37723872,19.0976789 1.76779408,18.7069634 L9.50397072,10.9676168 L17.2400201,18.7069634 C17.6307027,19.0976789 18.2744194,19.0976789 18.6649747,18.7069634 L18.7070835,18.6647102 C19.0976388,18.2742493 19.0976388,17.6300144 18.7070835,17.2394262 L10.9710341,9.49995227 L10.9710341,9.49995227 Z" id="23任务-取消完成"></path>
                </g>
            </g>
        </g>
    </g>
</svg>