<?xml version="1.0" encoding="UTF-8"?>
<svg width="52px" height="52px" viewBox="0 0 52 52" version="1.1" xmlns="http://www.w3.org/2000/svg" xmlns:xlink="http://www.w3.org/1999/xlink">
    <!-- Generator: Sketch 63.1 (92452) - https://sketch.com -->
    <title>设为关注人@1x</title>
    <desc>Created with Sketch.</desc>
    <g id="新版定稿" stroke="none" stroke-width="1" fill="none" fill-rule="evenodd">
        <g id="切图3" transform="translate(-1550.000000, -955.000000)" fill-rule="nonzero">
            <g id="设为关注人" transform="translate(1550.000000, 955.000000)">
                <rect id="矩形" fill="#1777FF" x="0" y="0" width="51.8" height="51.8" rx="25.9"></rect>
                <g id="日历-" transform="translate(13.000000, 13.000000)" fill="#FFFFFF">
                    <path d="M10.9565947,10.7392143 L10.9565945,10.7392143 C8.26718987,10.7392143 6.08698732,8.55902029 6.08698732,5.86960714 C6.08698732,3.18020256 8.26718131,1 10.9565945,1 C13.645999,1 15.8262016,3.180194 15.8262016,5.86960714 C15.8262016,5.86960714 15.8262016,5.86960717 15.8262016,5.86960717 L15.8262016,5.86960714 C15.8262016,8.55901173 13.6460076,10.7392143 10.9565945,10.7392143 L10.9565947,10.7392143 Z M-1.13686838e-13,21.9392793 C0.474785769,16.1322842 5.18612148,13.1740036 10.9565947,13.1740036 C16.7270679,13.1740036 21.572308,15.9618492 21.9131893,21.9392793 L21.9131893,21.9392792 C21.9895006,22.3968826 21.6804022,22.8297051 21.2227983,22.9060161 C21.1492265,22.9182851 21.0743485,22.9207006 21.0001389,22.9131987 L0.888710208,22.9131987 L0.888710184,22.9131987 C0.443455861,22.7649029 0.107028486,22.3962129 -1.13686838e-13,21.9392801 L-1.13686838e-13,21.9392793 Z" id="形状"></path>
                    <path d="M23.4912247,10 C24.0889931,10 24.5734873,9.50259666 24.5734873,8.88889871 L22.4089717,8.88889871 C22.4089717,9.50259666 22.8934755,10 23.4912247,10 Z M27.2572822,6.39353104 C26.4086207,5.82370025 26.3274522,5.32759376 26.3274522,3.26612277 C26.3274522,1.43036373 25.1629493,0.856681659 24.148879,0.705568426 C24.1505058,0.687962619 24.1465249,0.67056313 24.1465249,0.652967148 C24.1465249,0.281103428 23.8519949,0 23.4912247,0 C23.128311,0 22.8451208,0.281103428 22.8451208,0.653153817 C22.8451208,0.670739974 22.8458481,0.688159112 22.8472931,0.70574527 C21.8332132,0.856671834 20.6708731,1.43036373 20.6708731,3.26629962 C20.6708731,5.32778043 20.5909678,5.82388691 19.7421245,6.39371771 C19.1281262,6.80610819 18.9019415,7.57536012 19.0382973,8.04444877 C19.1200113,8.32593536 19.3938138,8.7037037 19.658066,8.7037037 L27.3426134,8.7037037 C27.6068656,8.7037037 27.8799504,8.32594518 27.9618366,8.04428175 C28.0980105,7.57520293 27.8712804,6.80594117 27.2572822,6.39353104 L27.2572822,6.39353104 Z M27.4883569,7.96481 C27.4650743,8.04517579 27.4432462,8.14813832 27.4181837,8.14813832 L19.5824956,8.14813832 C19.5572417,8.14813832 19.5354041,8.04517579 19.5123321,7.96481 C19.4524366,7.75853125 19.5377582,7.18906396 20.0130466,6.86982117 C21.1097304,6.13354083 21.1654727,5.35629162 21.1654727,3.29166691 C21.1654727,2.05480986 21.7646669,1.36518688 22.9977256,1.2099964 L23.3494526,1.15926181 C23.3741706,1.15609827 23.3963527,1.13926861 23.4106017,1.11833224 C23.4248603,1.0974057 23.4299034,1.06797099 23.4243148,1.04314405 L23.3444095,0.689082631 C23.3411558,0.673707024 23.339529,0.662595324 23.339529,0.652967148 C23.339529,0.565360575 23.4068217,0.495369634 23.4912247,0.488698683 C23.6716194,0.495369634 23.6519445,0.565360575 23.6519445,0.652967148 C23.6519445,0.662585499 23.659514,0.6736972 23.6560976,0.689082631 L23.5761923,1.04314405 C23.5706037,1.06814783 23.5756373,1.0974057 23.5898958,1.11833224 C23.6041544,1.13926861 23.6265183,1.15629476 23.6510545,1.15926181 L24.002791,1.2099964 C25.2356584,1.36536372 25.8350344,2.05480986 25.8350344,3.29166691 C25.8350344,5.3561246 25.8907672,6.13332469 26.9874606,6.86982117 C27.4629211,7.18906396 27.5482332,7.75853125 27.4883569,7.96481 L27.4883569,7.96481 Z" id="形状" stroke="#FFFFFF" stroke-width="0.8"></path>
                </g>
            </g>
        </g>
    </g>
</svg>