<?xml version="1.0" encoding="UTF-8"?>
<svg width="52px" height="52px" viewBox="0 0 52 52" version="1.1" xmlns="http://www.w3.org/2000/svg" xmlns:xlink="http://www.w3.org/1999/xlink">
    <!-- Generator: Sketch 63.1 (92452) - https://sketch.com -->
    <title>取消关注人@1x</title>
    <desc>Created with Sketch.</desc>
    <g id="新版定稿" stroke="none" stroke-width="1" fill="none" fill-rule="evenodd">
        <g id="切图3" transform="translate(-1550.000000, -1013.000000)" fill-rule="nonzero">
            <g id="取消关注人" transform="translate(1550.000000, 1013.000000)">
                <rect id="矩形" fill="#86B93F" x="0" y="0" width="51.8" height="51.8" rx="25.9"></rect>
                <path d="M35.4088602,17.8695886 L33.6871981,16.1479265 L33.6871981,16.1479265 C33.2118479,15.6724307 33.2119647,14.9016169 33.6874624,14.4262644 C34.1628554,13.9510171 34.9334674,13.9510169 35.4088602,14.4262644 L37.1305223,16.1479265 L38.8521844,14.4262644 L38.8520527,14.4263961 C39.3274758,13.9509731 40.0982917,13.950971 40.5737168,14.4263961 C41.049037,14.9017162 41.049154,15.6723285 40.5739811,16.1477959 L38.852319,17.869458 L40.5739811,19.5911201 L40.5739812,19.5911201 C41.0493314,20.0666159 41.0492125,20.8374318 40.5737169,21.3127822 C40.0983239,21.7880295 39.3277119,21.7880297 38.8523191,21.3127822 L37.130657,19.5911201 L35.4089949,21.3127822 L35.4091267,21.3126504 C34.9337037,21.7880734 34.1628877,21.7880755 33.6874626,21.3126504 C33.2121425,20.8373302 33.2120234,20.066716 33.6871983,19.5912506 L35.4088602,17.8695886 Z M24.9565947,22.7392143 L24.9565945,22.7392143 C22.2671899,22.7392143 20.0869873,20.5590203 20.0869873,17.8696071 C20.0869873,15.1802026 22.2671813,13 24.9565945,13 C27.645999,13 29.8262016,15.180194 29.8262016,17.8696071 C29.8262016,17.8696071 29.8262016,17.8696072 29.8262016,17.8696072 L29.8262016,17.8696071 C29.8262016,20.5590117 27.6460076,22.7392143 24.9565945,22.7392143 L24.9565947,22.7392143 Z M14,33.9392793 C14.4747858,28.1322842 19.1861215,25.1740036 24.9565947,25.1740036 C30.7270679,25.1740036 35.572308,27.9618492 35.9131893,33.9392793 L35.9131893,33.9392792 C35.9895006,34.3968826 35.6804022,34.8297051 35.2227983,34.9060161 C35.1492265,34.9182851 35.0743485,34.9207006 35.0001389,34.9131987 L14.8887102,34.9131987 L14.8887102,34.9131987 C14.4434559,34.7649029 14.1070285,34.3962129 14,33.9392801 L14,33.9392793 Z" id="形状" fill="#FFFFFF"></path>
            </g>
        </g>
    </g>
</svg>