<?xml version="1.0" encoding="UTF-8"?>
<svg width="130px" height="79px" viewBox="0 0 130 79" version="1.1" xmlns="http://www.w3.org/2000/svg" xmlns:xlink="http://www.w3.org/1999/xlink">
    <!-- Generator: Sketch 59 (86127) - https://sketch.com -->
    <title>风景黑</title>
    <desc>Created with Sketch.</desc>
    <g id="客服系统" stroke="none" stroke-width="1" fill="none" fill-rule="evenodd">
        <path d="M61.8257,77.0433 C62.2237,77.0433 62.5467,77.3653 62.5467,77.7633 C62.5467,78.1623 62.2237,78.4843 61.8257,78.4843 L44.7677,78.4843 C44.3697,78.4843 44.0467,78.1623 44.0467,77.7633 C44.0467,77.3653 44.3697,77.0433 44.7677,77.0433 L61.8257,77.0433 Z M99.2261,77.0433 C99.6241,77.0433 99.9471,77.3653 99.9471,77.7633 C99.9471,78.1623 99.6241,78.4843 99.2261,78.4843 L67.8321,78.4843 C67.4341,78.4843 67.1121,78.1623 67.1121,77.7633 C67.1121,77.3653 67.4341,77.0433 67.8321,77.0433 L99.2261,77.0433 Z M40.4429,77.0433 C40.8409,77.0433 41.1639,77.3653 41.1639,77.7633 C41.1639,78.1623 40.8409,78.4843 40.4429,78.4843 L26.0269,78.4843 C25.6299,78.4843 25.3069,78.1623 25.3069,77.7633 C25.3069,77.3653 25.6299,77.0433 26.0269,77.0433 L40.4429,77.0433 Z M71.356,72.4779 C71.754,72.4779 72.077,72.7999 72.077,73.1979 C72.077,73.5969 71.754,73.9189 71.356,73.9189 L42.365,73.9189 C41.967,73.9189 41.645,73.5969 41.645,73.1979 C41.645,72.7999 41.967,72.4779 42.365,72.4779 L71.356,72.4779 Z M36.1983,72.4779 C36.5963,72.4779 36.9193,72.7999 36.9193,73.1979 C36.9193,73.5969 36.5963,73.9189 36.1983,73.9189 L14.0143,73.9189 C13.6163,73.9189 13.2943,73.5969 13.2943,73.1979 C13.2943,72.7999 13.6163,72.4779 14.0143,72.4779 L36.1983,72.4779 Z M110.5181,72.4779 C110.9161,72.4779 111.2391,72.7999 111.2391,73.1979 C111.2391,73.5969 110.9161,73.9189 110.5181,73.9189 L76.9621,73.9189 C76.5641,73.9189 76.2411,73.5969 76.2411,73.1979 C76.2411,72.7999 76.5641,72.4779 76.9621,72.4779 L110.5181,72.4779 Z M35.2847,43.7917 C40.0297,43.7917 44.1817,46.9747 45.4617,51.4717 C46.4327,51.1507 47.4437,50.9887 48.4787,50.9887 C53.7997,50.9887 58.1277,55.3177 58.1277,60.6377 C58.1277,61.1657 58.0807,61.7037 57.9877,62.2427 C60.6630071,62.6305071 62.8934384,64.8083473 63.1649586,67.3526001 L83.186399,67.3533745 C83.0419494,66.9063297 82.9683,66.4396472 82.9683,65.9614 C82.9683,63.4604 85.0033,61.4254 87.5033,61.4254 C87.6423,61.4254 87.7833,61.4334 87.9283,61.4494 C89.0983,58.5674 92.1643,56.8024 95.3403,57.5204 C95.9893,53.2894 99.6253,50.0924 103.9783,50.0924 C108.2163,50.0924 111.7693,53.0954 112.5513,57.2014 C112.9103,57.1374 113.2503,57.1064 113.5893,57.1064 C116.4803,57.1064 118.9983,58.9434 119.9123,61.6434 C122.3323,61.6684 124.2933,63.6434 124.2933,66.0694 C124.2933,66.508675 124.229955,66.938746 124.104461,67.3528408 L128.7778,67.3529 C129.1758,67.3529 129.4988,67.6749 129.4988,68.0729 C129.4988,68.4719 129.1758,68.7939 128.7778,68.7939 L99.4658,68.7939 C99.0688,68.7939 98.7458,68.4719 98.7458,68.0729 C98.7458,67.6749 99.0688,67.3529 99.4658,67.3529 L122.577246,67.3531916 C122.586484,67.3121957 122.599446,67.2714565 122.6163,67.2314 C122.7723,66.8634 122.8513,66.4714 122.8513,66.0694 C122.8513,64.4234 121.5123,63.0854 119.8673,63.0854 C119.7713,63.0854 119.6793,63.1004 119.5873,63.1134 L119.4763,63.1284 C119.1113,63.1724 118.7693,62.9384 118.6833,62.5814 C118.1153,60.2064 116.0213,58.5474 113.5893,58.5474 C113.1493,58.5474 112.6923,58.6204 112.1503,58.7754 C111.9433,58.8364 111.7223,58.8004 111.5463,58.6784 C111.3693,58.5584 111.2553,58.3664 111.2343,58.1534 C110.8643,54.3794 107.7453,51.5344 103.9783,51.5344 C100.0893,51.5344 96.8873,54.5904 96.6873,58.4944 C96.6763,58.7214 96.5563,58.9314 96.3663,59.0574 C96.1763,59.1834 95.9383,59.2114 95.7213,59.1344 C95.1163,58.9154 94.5463,58.8074 93.9783,58.8074 C91.7133,58.8074 89.7503,60.2804 89.0953,62.4714 C88.9863,62.8394 88.6053,63.0554 88.2333,62.9654 C87.9593,62.8984 87.7273,62.8674 87.5033,62.8674 C85.7983,62.8674 84.4103,64.2544 84.4103,65.9614 C84.4103,66.3794 84.4913,66.7844 84.6533,67.1644 C84.6794297,67.2260999 84.6962949,67.2894197 84.7045184,67.3528071 L92.4185,67.3529 C92.8165,67.3529 93.1395,67.6749 93.1395,68.0729 C93.1395,68.4719 92.8165,68.7939 92.4185,68.7939 L51.4145,68.7939 C51.0165,68.7939 50.6935,68.4719 50.6935,68.0729 C50.6935,67.6749 51.0165,67.3529 51.4145,67.3529 L61.7080987,67.353308 C61.4094927,65.5079571 59.5720653,63.6428922 57.1767,63.6237 C56.8797,63.6597 56.6837,63.5407 56.5347,63.3477 C56.3987,63.1707 56.3517,62.9407 56.4087,62.7247 C56.5927,62.0217 56.6867,61.3197 56.6867,60.6377 C56.6867,56.1127 53.0047,52.4297 48.4787,52.4297 C47.3557,52.4297 46.2657,52.6547 45.2387,53.0967 C45.0387,53.1827 44.8117,53.1747 44.6187,53.0727 C44.4257,52.9717 44.2897,52.7887 44.2467,52.5747 C43.3977,48.3217 39.6287,45.2337 35.2847,45.2337 C30.6787,45.2337 26.7827,48.6797 26.2207,53.2487 C26.1917,53.4827 26.0507,53.6877 25.8427,53.7977 C25.6367,53.9057 25.3867,53.9097 25.1767,53.8027 C24.0867,53.2447 22.9597,52.9627 21.8247,52.9627 C17.8687,52.9627 14.6307,56.0727 14.4517,60.0407 C14.4357,60.4107 14.1407,60.7087 13.7707,60.7287 C10.7187582,60.8930506 8.03986285,63.9822435 8.01882475,67.3527365 L43.7266,67.3529 C44.1246,67.3529 44.4476,67.6749 44.4476,68.0729 C44.4476,68.4719 44.1246,68.7939 43.7266,68.7939 L0.7206,68.7939 C0.3226,68.7939 -0.0004,68.4719 -0.0004,68.0729 C-0.0004,67.6749 0.3226,67.3529 0.7206,67.3529 L6.5786,67.3524 L6.58180124,67.1353926 C6.70449253,63.2855861 9.56439565,59.8947 13.0607,59.3547 C13.5677,54.9137 17.3047,51.5217 21.8247,51.5217 C22.8827,51.5217 23.9297,51.7227 24.9507,52.1217 C25.9927,47.3117 30.2767,43.7917 35.2847,43.7917 Z M75.9999,39.7081 C79.1439,39.7081 81.7899,41.8921 82.4509,44.9061 C82.6599,44.8771 82.8619,44.8621 83.0629,44.8621 C85.8809,44.8621 88.1739,47.1551 88.1739,49.9741 C88.1739,52.7921 85.8809,55.0851 83.0629,55.0851 L68.6509,55.0851 C65.8849,55.0851 63.6349,52.8351 63.6349,50.0691 C63.6349,47.0261 66.3749,44.5581 69.4959,45.1331 C70.0679,42.0281 72.7729,39.7081 75.9999,39.7081 Z M75.9999,41.1491 C73.2439,41.1491 70.9739,43.3161 70.8329,46.0831 C70.8209,46.3101 70.7019,46.5191 70.5119,46.6461 C70.3209,46.7721 70.0839,46.8041 69.8669,46.7241 C69.4429,46.5701 69.0449,46.4951 68.6509,46.4951 C66.6799,46.4951 65.0759,48.0991 65.0759,50.0691 C65.0759,52.0401 66.6799,53.6431 68.6509,53.6431 L83.0629,53.6431 C85.0869,53.6431 86.7329,51.9971 86.7329,49.9741 C86.7329,47.9501 85.0869,46.3041 83.0629,46.3041 C82.7589,46.3041 82.4399,46.3541 82.0579,46.4641 C81.8519,46.5251 81.6309,46.4861 81.4539,46.3671 C81.2769,46.2471 81.1629,46.0551 81.1419,45.8421 C80.8799,43.1671 78.6699,41.1491 75.9999,41.1491 Z M57.9927,32.6664 C58.3907,32.6664 58.7137,32.9884 58.7137,33.3864 L58.7137,37.7204 C58.7137,38.1194 58.3907,38.4414 57.9927,38.4414 C57.5947,38.4414 57.2717,38.1194 57.2717,37.7204 L57.2717,33.3864 C57.2717,32.9884 57.5947,32.6664 57.9927,32.6664 Z M48.4851,28.7284 C48.7661,29.0094 48.7661,29.4664 48.4851,29.7484 L45.4211,32.8114 C45.2801,32.9524 45.0961,33.0224 44.9111,33.0224 C44.7261,33.0224 44.5421,32.9524 44.4011,32.8114 C44.1201,32.5304 44.1201,32.0734 44.4011,31.7924 L47.4661,28.7284 C47.7481,28.4474 48.2041,28.4474 48.4851,28.7284 Z M68.5197,28.7284 L71.5837,31.7924 C71.8647,32.0734 71.8647,32.5304 71.5837,32.8114 C71.4427,32.9524 71.2587,33.0224 71.0737,33.0224 C70.8887,33.0224 70.7047,32.9524 70.5637,32.8114 L67.4997,29.7484 C67.2187,29.4664 67.2187,29.0094 67.4997,28.7284 C67.7817,28.4474 68.2377,28.4474 68.5197,28.7284 Z M57.9927,8.5004 C63.9047,8.5004 68.7137,13.3094 68.7137,19.2204 C68.7137,25.1314 63.9047,29.9414 57.9927,29.9414 C52.0807,29.9414 47.2717,25.1314 47.2717,19.2204 C47.2717,13.3094 52.0807,8.5004 57.9927,8.5004 Z M57.9927,9.9414 C52.8757,9.9414 48.7137,14.1044 48.7137,19.2204 C48.7137,24.3374 52.8757,28.5004 57.9927,28.5004 C63.1097,28.5004 67.2717,24.3374 67.2717,19.2204 C67.2717,14.1044 63.1097,9.9414 57.9927,9.9414 Z M43.8262,18.5004 C44.2242,18.5004 44.5472,18.8224 44.5472,19.2204 C44.5472,19.6194 44.2242,19.9414 43.8262,19.9414 L39.4932,19.9414 C39.0952,19.9414 38.7722,19.6194 38.7722,19.2204 C38.7722,18.8224 39.0952,18.5004 39.4932,18.5004 L43.8262,18.5004 Z M76.4922,18.5004 C76.8902,18.5004 77.2132,18.8224 77.2132,19.2204 C77.2132,19.6194 76.8902,19.9414 76.4922,19.9414 L72.1592,19.9414 C71.7612,19.9414 71.4382,19.6194 71.4382,19.2204 C71.4382,18.8224 71.7612,18.5004 72.1592,18.5004 L76.4922,18.5004 Z M71.5838,5.6298 C71.8648,5.9108 71.8648,6.3678 71.5838,6.6498 L68.5198,9.7128 C68.3788,9.8538 68.1948,9.9238 68.0098,9.9238 C67.8248,9.9238 67.6408,9.8538 67.4998,9.7128 C67.2188,9.4318 67.2188,8.9748 67.4998,8.6938 L70.5638,5.6298 C70.8458,5.3488 71.3018,5.3488 71.5838,5.6298 Z M45.4206,5.6298 L48.4856,8.6938 C48.7666,8.9748 48.7666,9.4318 48.4856,9.7128 C48.3446,9.8538 48.1606,9.9238 47.9756,9.9238 C47.7906,9.9238 47.6066,9.8538 47.4656,9.7128 L44.4016,6.6498 C44.1206,6.3678 44.1206,5.9108 44.4016,5.6298 C44.6826,5.3488 45.1386,5.3488 45.4206,5.6298 Z M57.9927,0.0004 C58.3907,0.0004 58.7137,0.3224 58.7137,0.7204 L58.7137,5.0534 C58.7137,5.4524 58.3907,5.7744 57.9927,5.7744 C57.5947,5.7744 57.2717,5.4524 57.2717,5.0534 L57.2717,0.7204 C57.2717,0.3224 57.5947,0.0004 57.9927,0.0004 Z" id="风景黑" fill="#3A3A3A"></path>
    </g>
</svg>