<?xml version="1.0" encoding="UTF-8"?>
<svg width="175px" height="99px" viewBox="0 0 175 99" version="1.1" xmlns="http://www.w3.org/2000/svg" xmlns:xlink="http://www.w3.org/1999/xlink">
    <!-- Generator: Sketch 63.1 (92452) - https://sketch.com -->
    <title>当前时间段无可查看任务@1x</title>
    <desc>Created with Sketch.</desc>
    <g id="新版定稿（20202-8-22）" stroke="none" stroke-width="1" fill="none" fill-rule="evenodd">
        <g id="切图" transform="translate(-1031.000000, -860.000000)" fill="#999999">
            <g id="当前时间段无可查看任务" transform="translate(1023.000000, 860.000000)">
                <text font-family="PingFangSC-Regular, PingFang SC" font-size="16" font-weight="normal">
                    <tspan x="7" y="97">当前时间段无可查看任务</tspan>
                </text>
                <g id="无任务" transform="translate(67.000000, 0.000000)" fill-rule="nonzero">
                    <path d="M15.4072188,55.2717875 L0.95665625,55.2717875 L15.4072188,55.2717875 Z" id="路径"></path>
                    <polygon id="路径" points="7.1630625 34.8772188 39.12095 34.8772188 45.0493312 54.3298937 46.068275 54.3298937 39.8620062 33.95095 6.5146125 33.95095 0.308275 54.329825 1.2346125 54.329825"></polygon>
                    <path d="M30.9693313,55.2717875 L45.3272188,55.2717875 L30.9693313,55.2717875 Z M30.1356687,54.3455187 L45.1419375,54.3455187 L30.1356687,54.3455187 Z M1.23454375,54.3455187 L16.24095,54.3455187 L1.23454375,54.3455187 L1.23454375,54.3455187 Z" id="形状"></path>
                    <path d="M23.188275,62.11095 C27.1714438,62.11095 30.5061625,59.146725 30.9694,55.2561625 L30.0429937,55.2561625 C29.5798937,58.59095 26.708275,61.1846125 23.188275,61.1846125 C19.668275,61.1846125 16.796725,58.59095 16.3335563,55.2561625 L15.4072188,55.2561625 C15.8703875,59.146725 19.2051063,62.11095 23.1883438,62.11095 L23.188275,62.11095 Z" id="路径"></path>
                    <path d="M46.3461625,55.2561625 L45.4198937,55.2561625 L45.4198937,69.15095 L0.956725,69.15095 L0.956725,55.2561625 L0.0303875,55.2561625 L0.0303875,70.0772875 L46.3461625,70.0772875 L46.3461625,55.2561625 M45.0493313,54.3298937 L30.0430625,54.3298937 C30.0430625,54.6077813 30.0430625,54.978275 29.9504563,55.2561625 L46.253625,55.2561625 L45.9757375,54.3298937 L45.0494,54.3298937 L45.0493313,54.3298937 Z M0.956725,55.2561625 L16.3335562,55.2561625 C16.3335562,54.978275 16.24095,54.6077812 16.24095,54.3298937 L0.308275,54.3298937 L0.0303875,55.2561625 L0.956725,55.2561625 L0.956725,55.2561625 Z M55.7946125,0.04778125 L46.716725,21.5383437 L43.2893313,12.7383437 L34.5820062,8.9403875 L55.7946125,0.04778125 Z" id="形状"></path>
                    <path d="M39.676725,19.3151062 L38.8429937,18.8520063 C40.4177812,16.1656688 41.2514437,14.0351063 41.2514437,13.9425 L42.0851063,14.2203875 C42.0851063,14.4056688 41.34405,16.6288375 39.676725,19.3151062 L39.676725,19.3151062 Z M22.076725,37.1003875 L21.52095,36.3593313 C23.836725,34.41405 25.6893313,32.5614438 27.0788375,30.8014438 C27.8198937,29.7825 28.2829938,28.578275 28.3756687,27.37405 L29.3020063,27.466725 L29.3020063,27.5593313 C32.4514437,26.5404563 35.3229938,24.1320063 37.82405,20.6120063 L38.565175,21.1677813 C35.7861625,25.0583437 32.636725,27.6520062 29.116725,28.67095 C28.8388375,29.5046125 28.3756,30.43095 27.7272875,31.3572188 C26.4303875,33.1172187 24.4851063,35.0625 22.076725,37.1003875 Z M25.4114437,29.0415125 C24.5777813,29.0415125 23.836725,28.9488375 23.0029937,28.8561625 C20.316725,28.3929937 18.3714437,26.0772875 18.3714437,23.4835562 C18.3714437,23.1129938 18.3714437,22.7425 18.46405,22.3720062 L19.3903875,22.5572188 C19.2977812,22.8351062 19.2977812,23.2056688 19.2977812,23.4835562 C19.2977812,25.6141188 20.9651062,27.5593312 23.1883437,27.9298938 C24.4851062,28.1151063 25.6893312,28.2077813 26.8935562,28.0225 L26.9861625,28.9488375 C26.5229937,29.0414437 25.9672875,29.0414437 25.4114437,29.0414437 L25.4114437,29.0415125 Z M28.1903875,25.4288375 C27.6346125,22.7425 25.6893313,20.6120063 23.0029938,20.1488375 C21.7061625,19.87095 20.7798938,20.1488375 20.1314438,20.8898937 L19.4829937,20.2414438 C20.316725,19.2225 21.6135563,18.9446125 23.188275,19.2225 C26.1525,19.778275 28.468275,22.186725 29.116725,25.2435562 L28.1903875,25.4288375 L28.1903875,25.4288375 Z M15.8703875,41.546725 L15.4072188,40.8056 C17.0746125,39.786725 18.5566562,38.6751063 19.9461625,37.6561625 L20.5020063,38.3972875 C19.0198938,39.4161625 17.5377813,40.4351063 15.8703875,41.546725 L15.8703875,41.546725 Z" id="形状"></path>
                </g>
            </g>
        </g>
    </g>
</svg>