<?xml version="1.0" encoding="UTF-8"?>
<svg width="20px" height="24px" viewBox="0 0 20 24" version="1.1" xmlns="http://www.w3.org/2000/svg" xmlns:xlink="http://www.w3.org/1999/xlink">
    <!-- Generator: Sketch 63.1 (92452) - https://sketch.com -->
    <title>奖章</title>
    <desc>Created with Sketch.</desc>
    <g id="workfly-0208✅" stroke="none" stroke-width="1" fill="none" fill-rule="evenodd">
        <g id="OKR-O编辑-kr详情" transform="translate(-1083.000000, -375.000000)" fill-rule="nonzero">
            <g id="编组" transform="translate(1048.000000, 0.000000)">
                <g id="信心" transform="translate(35.000000, 341.000000)">
                    <g id="编组-5" transform="translate(0.000000, 34.000000)">
                        <g id="奖章-2">
                            <g id="奖章">
                                <path d="M0.017666675,14.51 C0.017666675,19.6941129 4.29663056,23.8966667 9.575,23.8966667 C14.8533694,23.8966667 19.1323333,19.6941129 19.1323333,14.51 C19.1323333,9.32588714 14.8533694,5.12333333 9.575,5.12333333 C4.29663056,5.12333333 0.017666675,9.32588714 0.017666675,14.51 Z" id="路径" fill="#FA656A"></path>
                                <path d="M17.4461467,0.00248 C18.5826596,0.597872171 19.1028973,1.94260988 18.663,3.14786668 L17.3616667,6.7148 C17.255,7.00749333 17.0996934,7.26946667 16.9094,7.49389332 C15.49628,5.98264 13.6564933,4.90658665 11.5931333,4.47736 L12.6683333,1.53336 C12.9064133,0.88056 13.34076,0.35576 13.8817733,0.003333325 L17.4461467,0.00248 L17.4461467,0.00248 Z M5.31174668,0.00248 C5.78022667,0.320773325 6.16508,0.76792 6.40742668,1.31746668 L6.48252,1.5052 L7.56625333,4.4748 C5.50545333,4.90146668 3.66652,5.97325333 2.2534,7.47853333 C2.08425751,7.28318172 1.94611447,7.06301624 1.8438,6.82573333 L1.78833333,6.68578668 L0.487,3.11885333 C0.0747027782,1.99000092 0.503147637,0.726319315 1.51697333,0.080986675 L1.64924,0.003333325 L5.31174668,0.003333325 L5.31174668,0.00248 Z" id="形状" fill="#FA656A"></path>
                                <path d="M9.18332,16.63224 L7.53041333,17.4855733 C7.38644413,17.5599143 7.21278985,17.5462916 7.08217412,17.4504102 C6.95155839,17.3545288 6.88652414,17.192937 6.91430668,17.0333067 L7.22406668,15.2566667 C7.27301592,14.9766002 7.17926562,14.6905498 6.97404,14.4937867 L5.66417333,13.2393867 C5.54630458,13.1264665 5.50319037,12.9561941 5.55311671,12.8007871 C5.60304306,12.64538 5.73725915,12.532077 5.89884,12.5089333 L7.72924,12.2478133 C8.00564492,12.2084397 8.24530717,12.0363418 8.37094668,11.7870133 L9.19356,10.1486133 C9.26590612,10.0042656 9.41353726,9.9131219 9.575,9.9131219 C9.73646274,9.9131219 9.88409388,10.0042656 9.95644,10.1486133 L10.7790533,11.7870133 C10.9046928,12.0363418 11.1443551,12.2084397 11.42076,12.2478133 L13.25116,12.5089333 C13.4127408,12.532077 13.5469569,12.64538 13.5968833,12.8007871 C13.6468096,12.9561941 13.6036954,13.1264665 13.4858267,13.2393867 L12.17596,14.4937867 C11.9707344,14.6905498 11.8769841,14.9766002 11.9259333,15.2566667 L12.2356933,17.0333067 C12.2634759,17.192937 12.1984416,17.3545288 12.0678259,17.4504102 C11.9372101,17.5462916 11.7635559,17.5599143 11.6195867,17.4855733 L9.96668,16.63224 C9.72098627,16.5053053 9.42901373,16.5053053 9.18332,16.63224 L9.18332,16.63224 Z" id="路径" fill="#FFFFFF"></path>
                            </g>
                        </g>
                    </g>
                </g>
            </g>
        </g>
    </g>
</svg>