<?xml version="1.0" encoding="UTF-8"?>
<svg width="21px" height="26px" viewBox="0 0 21 26" version="1.1" xmlns="http://www.w3.org/2000/svg" xmlns:xlink="http://www.w3.org/1999/xlink">
    <!-- Generator: Sketch 63.1 (92452) - https://sketch.com -->
    <title>奖章2</title>
    <desc>Created with Sketch.</desc>
    <g id="workfly-0208✅" stroke="none" stroke-width="1" fill="none" fill-rule="evenodd">
        <g id="OKR-O编辑-kr详情" transform="translate(-1186.000000, -374.000000)" fill-rule="nonzero" stroke="#E2E2E2">
            <g id="编组" transform="translate(1048.000000, 0.000000)">
                <g id="信心" transform="translate(35.000000, 341.000000)">
                    <g id="编组-5" transform="translate(0.000000, 34.000000)">
                        <g id="奖章-(1)备份-10" transform="translate(104.000000, 0.000000)">
                            <g id="奖章2">
                                <path d="M9.575,5.12333333 C14.8533694,5.12333333 19.1323333,9.32588714 19.1323333,14.51 C19.1323333,19.6941129 14.8533694,23.8966667 9.575,23.8966667 C4.29663056,23.8966667 0.017666675,19.6941129 0.017666675,14.51 C0.017666675,9.32588714 4.29663056,5.12333333 9.575,5.12333333 Z M9.575,9.9131219 C9.41353726,9.9131219 9.26590612,10.0042656 9.19356,10.1486133 L9.19356,10.1486133 L8.37094667,11.7870133 C8.24530717,12.0363418 8.00564492,12.2084397 7.72924,12.2478133 L7.72924,12.2478133 L5.89884,12.5089333 C5.73725915,12.532077 5.60304306,12.64538 5.55311671,12.8007871 C5.50319037,12.9561941 5.54630458,13.1264665 5.66417332,13.2393867 L5.66417332,13.2393867 L6.97404,14.4937867 C7.17926562,14.6905498 7.27301592,14.9766002 7.22406667,15.2566667 L7.22406667,15.2566667 L6.91430667,17.0333067 C6.88652414,17.192937 6.95155839,17.3545288 7.08217412,17.4504102 C7.21278985,17.5462916 7.38644413,17.5599143 7.53041332,17.4855733 L7.53041332,17.4855733 L9.18332,16.63224 C9.42901373,16.5053053 9.72098627,16.5053053 9.96668,16.63224 L9.96668,16.63224 L11.6195867,17.4855733 C11.7635559,17.5599143 11.9372101,17.5462916 12.0678259,17.4504102 C12.1984416,17.3545288 12.2634759,17.192937 12.2356933,17.0333067 L12.2356933,17.0333067 L11.9259333,15.2566667 C11.8769841,14.9766002 11.9707344,14.6905498 12.17596,14.4937867 L12.17596,14.4937867 L13.4858267,13.2393867 C13.6036954,13.1264665 13.6468096,12.9561941 13.5968833,12.8007871 C13.5469569,12.64538 13.4127408,12.532077 13.25116,12.5089333 L13.25116,12.5089333 L11.42076,12.2478133 C11.1443551,12.2084397 10.9046928,12.0363418 10.7790533,11.7870133 L10.7790533,11.7870133 L9.95644,10.1486133 C9.88409388,10.0042656 9.73646274,9.9131219 9.575,9.9131219 Z" id="形状结合"></path>
                                <path d="M18.8492844,2.93905913 L17.5885531,6.27201276 C17.4852145,6.54550632 17.3347535,6.79029504 17.1503973,7 C15.7813672,5.58788017 13.9989825,4.58241256 12,4.18134184 L13.0416534,1.43045905 C13.2723052,0.820480693 13.6931001,0.330105935 14.2172337,0.000797349544 L17.6703973,0 C18.7714507,0.556336303 19.2754568,1.81286342 18.8492844,2.93905913 Z M4.81868796,0.00232131078 C5.27195833,0.300247813 5.64431704,0.71878265 5.87879571,1.23316516 L5.95145106,1.40888588 L7,4.18846833 C5.00610575,4.58783363 3.22687506,5.59103924 1.85963329,7 C1.69598217,6.81714847 1.56232406,6.61107085 1.46333133,6.3889711 L1.40966543,6.2579793 L0.150581074,2.91928542 C-0.248330544,1.86266556 0.166204463,0.679843892 1.14711538,0.0758045328 L1.27508789,0.00312003357 L4.69320193,0 L4.81868796,0.00232131078 Z" id="形状"></path>
                            </g>
                        </g>
                    </g>
                </g>
            </g>
        </g>
    </g>
</svg>