<?xml version="1.0" encoding="UTF-8"?>
<svg width="10px" height="6px" viewBox="0 0 10 6" version="1.1" xmlns="http://www.w3.org/2000/svg" xmlns:xlink="http://www.w3.org/1999/xlink">
    <!-- Generator: Sketch 63.1 (92452) - https://sketch.com -->
    <title>下拉箭头 bai</title>
    <desc>Created with Sketch.</desc>
    <g id="workfly-0208✅" stroke="none" stroke-width="1" fill="none" fill-rule="evenodd">
        <g id="OKR" transform="translate(-1126.000000, -40.000000)" fill="#FFFFFF" fill-rule="nonzero">
            <g id="编组-8" transform="translate(966.000000, 27.000000)">
                <g id="下拉箭头-5" transform="translate(160.000000, 13.000000)">
                    <g id="下拉箭头-bai">
                        <path d="M5.495,5.74352047 C5.355,5.89480794 5.165,6.03528915 4.985,5.99206416 C4.805,6.0244829 4.635,5.87319544 4.495,5.74352047 L0.165,1.04280287 C-0.055,0.805065428 -0.055,0.416040523 0.165,0.178303081 C0.385,-0.0594343605 0.745,-0.0594343605 0.965,0.178303081 L4.995,4.65208949 L9.035,0.178303081 C9.255,-0.0594343605 9.615,-0.0594343605 9.835,0.178303081 C10.055,0.416040523 10.055,0.805065428 9.835,1.04280287 L5.495,5.74352047 Z" id="下拉箭头" transform="translate(5.000000, 3.000000) scale(-1, 1) translate(-5.000000, -3.000000) "></path>
                    </g>
                </g>
            </g>
        </g>
    </g>
</svg>