<?xml version="1.0" encoding="UTF-8"?>
<svg width="11px" height="11px" viewBox="0 0 11 11" version="1.1" xmlns="http://www.w3.org/2000/svg" xmlns:xlink="http://www.w3.org/1999/xlink">
    <!-- Generator: Sketch 63.1 (92452) - https://sketch.com -->
    <title>+</title>
    <desc>Created with Sketch.</desc>
    <g id="workfly-0208✅" stroke="none" stroke-width="1" fill="none" fill-rule="evenodd">
        <g id="OKR" transform="translate(-530.000000, -135.000000)" fill="#7C8192">
            <g id="编组-20" transform="translate(449.000000, 107.000000)">
                <g id="编组-11" transform="translate(81.000000, 23.000000)">
                    <g id="+" transform="translate(0.000000, 5.000000)">
                        <path d="M5.5,0 C5.77614237,-5.07265313e-17 6,0.223857625 6,0.5 L6,5 L10.5,5 C10.7761424,5 11,5.22385763 11,5.5 C11,5.77614237 10.7761424,6 10.5,6 L6,6 L6,10.5 C6,10.7761424 5.77614237,11 5.5,11 C5.22385763,11 5,10.7761424 5,10.5 L5,6 L0.5,6 C0.223857625,6 3.38176876e-17,5.77614237 0,5.5 C-3.38176876e-17,5.22385763 0.223857625,5 0.5,5 L5,5 L5,0.5 C5,0.223857625 5.22385763,5.07265313e-17 5.5,0 Z" id="形状结合"></path>
                    </g>
                </g>
            </g>
        </g>
    </g>
</svg>