<?xml version="1.0" encoding="UTF-8"?>
<svg width="15px" height="15px" viewBox="0 0 15 15" version="1.1" xmlns="http://www.w3.org/2000/svg" xmlns:xlink="http://www.w3.org/1999/xlink">
    <!-- Generator: Sketch 63.1 (92452) - https://sketch.com -->
    <title>删除</title>
    <desc>Created with Sketch.</desc>
    <g id="workfly-0208✅" stroke="none" stroke-width="1" fill="none" fill-rule="evenodd">
        <g id="OKR" transform="translate(-678.000000, -823.000000)" fill="#666666" fill-rule="nonzero">
            <g id="分组-19" transform="translate(472.000000, 668.000000)">
                <g id="删除-2" transform="translate(206.000000, 155.000000)">
                    <g id="删除">
                        <path d="M8.11840278,10.5868056 L8.11840278,4.98680556 C8.11840278,4.36458334 9.09618056,4.36458334 9.09618056,4.98680556 L9.09618056,10.5868056 C9.18506945,11.2090278 8.11840278,11.2090278 8.11840278,10.5868056 Z M5.09618056,10.5868056 L5.09618056,4.98680556 C5.09618056,4.36458334 6.07395834,4.36458334 6.07395833,4.98680556 L6.07395833,10.5868056 C6.16284722,11.2090278 5.09618056,11.2090278 5.09618056,10.5868056 Z M13.7184028,2.49791667 L11.140625,2.49791667 L11.140625,1.52013889 C11.140625,0.720138891 10.4295139,0.00902778125 9.62951389,0.00902778125 L4.56284722,0.00902778125 C4.11840278,0.00902778125 3.76284722,0.186805563 3.49618056,0.453472219 C3.22951389,0.720138891 3.05173613,1.16458333 3.05173611,1.52013889 L3.05173611,2.49791667 L0.473958328,2.49791667 C-0.148263891,2.49791667 -0.148263891,3.47569444 0.473958328,3.47569444 L13.7184028,3.47569444 C14.4295139,3.47569444 14.4295139,2.49791666 13.7184028,2.49791667 Z M4.11840278,1.43125 C4.11840278,1.16458333 4.38506945,0.897916672 4.65173611,0.897916672 L9.71840278,0.897916672 C9.98506945,0.897916672 10.2517361,1.07569445 10.2517361,1.43125 L10.2517361,2.40902778 L4.11840278,2.40902778 L4.11840278,1.43125 Z M10.6961806,14.1423611 L3.58506944,14.1423611 C3.140625,14.1423611 2.78506944,13.9645833 2.51840278,13.6979167 C2.25173611,13.43125 2.07395833,12.9868056 2.07395833,12.63125 L2.07395833,4.98680556 C2.07395833,4.72013889 2.340625,4.45347222 2.60729167,4.45347222 C2.87395834,4.45347222 3.140625,4.63125 3.140625,4.98680556 L3.140625,12.63125 C3.140625,12.8979167 3.40729167,13.1645833 3.67395833,13.1645833 L10.7850694,13.1645833 C11.0517361,13.1645833 11.3184028,12.8979167 11.3184028,12.63125 L11.3184028,5.07569444 C11.3184028,4.45347222 12.2961806,4.45347222 12.2961806,5.07569444 L12.2961806,12.7201389 C12.2072917,13.43125 11.5850695,14.1423611 10.6961806,14.1423611 L10.6961806,14.1423611 Z" id="形状"></path>
                    </g>
                </g>
            </g>
        </g>
    </g>
</svg>