<?xml version="1.0" encoding="UTF-8"?>
<svg width="16px" height="16px" viewBox="0 0 16 16" version="1.1" xmlns="http://www.w3.org/2000/svg" xmlns:xlink="http://www.w3.org/1999/xlink">
    <!-- Generator: Sketch 63.1 (92452) - https://sketch.com -->
    <title>修改</title>
    <desc>Created with Sketch.</desc>
    <g id="workfly-0208✅" stroke="none" stroke-width="1" fill="none" fill-rule="evenodd">
        <g id="OKR" transform="translate(-529.000000, -321.000000)" fill="#999999" fill-rule="nonzero">
            <g id="编组-20" transform="translate(449.000000, 107.000000)">
                <g id="编组-17" transform="translate(80.000000, 212.000000)">
                    <g id="修改" transform="translate(0.000000, 2.000000)">
                        <path d="M15.2786335,15.0633681 C15.1609844,15.2491713 14.9556137,15.3612945 14.7353499,15.3599767 L0.627916392,15.3599767 C0.408155139,15.3618483 0.202894243,15.250751 0.0846328484,15.065925 C-0.0282109495,14.8869807 -0.0282109495,14.659323 0.0846328484,14.4803787 C0.202359296,14.2943293 0.407398855,14.1814218 0.627916392,14.181213 L14.7225366,14.181213 C14.9432053,14.1784553 15.1496374,14.2896619 15.2683828,14.4752647 C15.3867182,14.652447 15.3907226,14.8821873 15.2786335,15.0633681 L15.2786335,15.0633681 Z M8.08268916,10.5017316 C7.42363697,11.1007712 6.59625854,11.4836443 5.71223031,11.5986722 L4.17463537,11.7239638 C3.43402715,11.7853311 3.02656449,11.8185813 2.94968474,11.8185813 C2.79234146,11.8194658 2.64111497,11.7578214 2.52940879,11.6472547 C2.32695879,11.4478109 2.32695879,11.4478109 2.44740373,10.0082362 L2.57553664,8.47405351 C2.69082038,7.59198713 3.07454508,6.76644484 3.67491702,6.10885523 L9.31276511,0.49630364 C10.0126106,-0.165434547 11.1089487,-0.165434547 11.8087942,0.49630364 L13.7128493,2.39613318 C14.3994211,3.08197795 14.3994211,4.19310736 13.7128493,4.87895213 L8.08268916,10.5017316 Z M12.8799854,3.22714879 L10.9759303,1.32731925 C10.7450007,1.1025522 10.3765587,1.1025522 10.145629,1.32731925 L4.50778094,6.9526557 C4.09600145,7.40996808 3.82857528,7.97832173 3.73898348,8.58656024 L3.61085056,10.1207429 L3.56984803,10.6142383 L4.06444107,10.5733268 L5.602036,10.4454782 C6.21131851,10.3550633 6.78065437,10.0883627 7.23957461,9.67838691 L12.8774227,4.06839229 C13.1026897,3.83797515 13.1026897,3.47035078 12.8774227,3.23993364 L12.8799854,3.22714879 Z" id="形状"></path>
                    </g>
                </g>
            </g>
        </g>
    </g>
</svg>