<?xml version="1.0" encoding="UTF-8"?>
<svg width="27px" height="27px" viewBox="0 0 27 27" version="1.1" xmlns="http://www.w3.org/2000/svg" xmlns:xlink="http://www.w3.org/1999/xlink">
    <!-- Generator: Sketch 63.1 (92452) - https://sketch.com -->
    <title>关联新按钮</title>
    <desc>Created with Sketch.</desc>
    <g id="workfly-0208✅" stroke="none" stroke-width="1" fill="none" fill-rule="evenodd">
        <g id="OKR-20220730" transform="translate(-2178.000000, -515.000000)">
            <g id="编组" transform="translate(1873.000000, 107.000000)">
                <g id="编组-26" transform="translate(25.000000, 408.000000)">
                    <g id="进度备份" transform="translate(1.000000, 0.000000)">
                        <g id="关联新按钮-2" transform="translate(279.000000, 0.000000)">
                            <g id="关联新按钮">
                                <circle id="椭圆形" fill="#479EFF" cx="13.5" cy="13.5" r="13.5"></circle>
                                <g id="关联" transform="translate(13.500000, 13.500000) scale(-1, 1) translate(-13.500000, -13.500000) translate(5.000000, 5.000000)" fill="#FFFFFF" fill-rule="nonzero">
                                    <path d="M15.7504134,8.49424991 L14.2488727,7.00396006 L13.2566599,8.02617024 L14.7582007,9.51643461 C15.2895857,10.0439801 15.5829314,10.7457428 15.5829314,11.4894348 C15.5815449,12.2338915 15.2895857,12.9335386 14.7582007,13.4617978 L13.2566599,14.9520367 C12.426333,15.7769366 11.0756623,15.7776503 10.2438986,14.9520367 L7.24124562,11.9715334 C6.70986061,11.4432998 6.41714514,10.7443409 6.41714514,9.99922144 C6.4164393,9.2554784 6.70986064,8.55440392 7.2308347,8.03595799 L8.27467348,7.04244842 L7.30282881,6 L6.24895723,7.00398554 C5.44283005,7.80301419 4.999295,8.8672047 5,9.99924692 C5,11.1319773 5.44353591,12.194766 6.24895723,12.9937436 L9.25166059,15.9749605 C9.94084779,16.6592633 10.8459164,17 11.7495734,17 C12.654642,17 13.5596855,16.6592633 14.2488475,15.9749605 L15.7503882,14.4840335 C16.5558095,13.6850048 16.9986388,12.6222417 17,11.4894858 C17,10.3574436 16.5558347,9.29327854 15.7504134,8.49424991 L15.7504134,8.49424991 Z" id="路径"></path>
                                    <path d="M3.241745,2.21413292 C4.34882837,1.13479594 6.14928199,1.13479594 7.25497891,2.21413292 L9.75807932,4.65461259 C10.2895136,5.17369414 10.5815227,5.86115286 10.5829091,6.5919393 C10.5829091,7.32340198 10.2895136,8.01221312 9.75807932,8.53129466 L8.25618882,9.9955975 L9.24882802,11 L10.75029,9.53567213 C11.5557096,8.75056316 12,7.7049367 12,6.5919393 C11.9985127,5.47961814 11.5557096,4.43536913 10.75029,3.64958396 L8.24723999,1.20907924 C6.59558899,-0.402337613 3.90393301,-0.403715067 2.24948393,1.20907924 L1.24897983,2.18528115 C0.443560178,2.97106632 0,4.01534037 0,5.12763647 C-0.000704993713,6.24063386 0.442803942,7.28628537 1.24897983,8.07139433 L2.24948393,9.04762127 L3.2417198,8.04319373 L2.24121571,7.06699183 C1.70975622,6.54866163 1.41638593,5.85912418 1.41711694,5.12763647 C1.41711694,4.39687504 1.70975619,3.70941634 2.24121571,3.1903348 L3.241745,2.21413292 Z" id="路径"></path>
                                </g>
                            </g>
                        </g>
                    </g>
                </g>
            </g>
        </g>
    </g>
</svg>