<?xml version="1.0" encoding="UTF-8"?>
<svg width="18px" height="17px" viewBox="0 0 18 17" version="1.1" xmlns="http://www.w3.org/2000/svg" xmlns:xlink="http://www.w3.org/1999/xlink">
    <!-- Generator: Sketch 63.1 (92452) - https://sketch.com -->
    <title>OKR统计</title>
    <desc>Created with Sketch.</desc>
    <g id="workfly-0208✅" stroke="none" stroke-width="1" fill="none" fill-rule="evenodd">
        <g id="OKR统计-20220730" transform="translate(-1112.000000, -33.000000)" fill="#FFFFFF" fill-rule="nonzero">
            <g id="编组-8备份" transform="translate(1078.000000, 32.000000)">
                <g id="OKR统计-2" transform="translate(34.000000, 1.000000)">
                    <g id="OKR统计">
                        <path d="M12.824984,16.948924 L12.824984,9.623062 C12.824984,8.916088 13.397914,8.340996 14.104888,8.340996 L16.666858,8.340996 C17.373832,8.340996 17.948924,8.913926 17.948924,9.6209 L17.948924,16.948924 L12.824984,16.948924 Z M16.66902,9.303086 L14.10705,9.303086 C13.929766,9.303086 13.787074,9.445778 13.784912,9.6209 L13.784912,15.988996 L16.988996,15.988996 L16.988996,9.623062 C16.988996,9.445778 16.846304,9.303086 16.66902,9.303086 Z M6.42112779,1.292876 C6.418978,0.588064 6.989746,0.012972 7.694558,0.01081 L10.263014,0.01081 C10.967826,0.01081 11.540756,0.58374 11.540756,1.288552 L11.540756,16.948924 L6.42112779,16.948924 L6.42112779,1.292876 Z M10.580828,15.986834 L10.580828,1.295038 C10.580828,1.119916 10.440298,0.977224 10.263014,0.975062 L7.698882,0.975062 C7.52376,0.977224 7.381068,1.119916 7.381068,1.295038 L7.381068,15.986834 L10.580828,15.986834 Z M0.012972,6.418978 C0.012972,5.712004 0.585902,5.139074 1.292876,5.13689984 L3.854846,5.13689984 C4.56182,5.13475 5.136912,5.70768 5.136912,6.414654 L5.136912,16.948924 L0.012972,16.948924 L0.012972,6.418978 Z M4.179146,15.986834 L4.179146,6.418978 C4.179146,6.241694 4.034292,6.099002 3.85917,6.099002 L1.2972,6.099002 C1.119916,6.099002 0.977224,6.241694 0.975062,6.416816 L0.975062,15.986834 L4.179146,15.986834 Z" id="形状"></path>
                    </g>
                </g>
            </g>
        </g>
    </g>
</svg>