<?xml version="1.0" encoding="UTF-8"?>
<svg width="114px" height="148px" viewBox="0 0 114 148" version="1.1" xmlns="http://www.w3.org/2000/svg" xmlns:xlink="http://www.w3.org/1999/xlink">
    <!-- Generator: Sketch 63.1 (92452) - https://sketch.com -->
    <title>2@1x</title>
    <desc>Created with Sketch.</desc>
    <g id="新版定稿" stroke="none" stroke-width="1" fill="none" fill-rule="evenodd">
        <g id="新切图" transform="translate(-847.000000, -645.000000)" fill="#FF6050" fill-rule="nonzero">
            <path d="M888.977926,790.845848 C888.977926,790.845848 826.142038,776.619367 854.225932,706.007839 C854.225932,706.007839 860.601999,713.853565 859.725898,717.62993 C859.725898,717.62993 864.722917,699.806135 875.511934,689.160691 C884.775888,680.01277 894.185858,654.294417 885.505972,645 C885.505972,645 928.499802,654.294417 933.285907,700.782782 C933.285907,700.782782 938.785873,685.970313 950.077837,684.505343 C950.077837,684.505343 946.605882,692.644062 950.077837,704.852141 C950.077837,704.852141 986.92004,766.389254 925.274453,789.128875 C925.274453,789.128875 905.396584,795.19004 888.977926,790.845848 Z" id="2"></path>
        </g>
    </g>
</svg>