<?xml version="1.0" encoding="UTF-8"?>
<svg width="18px" height="22px" viewBox="0 0 18 22" version="1.1" xmlns="http://www.w3.org/2000/svg" xmlns:xlink="http://www.w3.org/1999/xlink">
    <!-- Generator: Sketch 63.1 (92452) - https://sketch.com -->
    <title>火苗-黑@1x</title>
    <desc>Created with Sketch.</desc>
    <g id="新版定稿" stroke="none" stroke-width="1" fill="none" fill-rule="evenodd">
        <g id="项目-设置" transform="translate(-728.000000, -144.000000)" fill-rule="nonzero" stroke="#333333">
            <path d="M734.891639,164.787273 C734.891639,164.787273 726.072567,162.857131 730.014166,153.277087 C730.014166,153.277087 730.909052,154.341536 730.786091,154.853885 C730.786091,154.853885 731.487427,152.435686 733.001675,150.991392 C734.301879,149.750271 735.622577,146.260997 734.404347,145 C734.404347,145 740.438569,146.260997 741.110303,152.56819 C741.110303,152.56819 741.882228,150.558545 743.467065,150.359789 C743.467065,150.359789 742.979773,151.46399 743.467065,153.12029 C743.467065,153.12029 748.6379,161.469185 739.985888,164.554327 C739.985888,164.554327 737.196012,165.37666 734.891639,164.787273 Z" id="火苗-黑"></path>
        </g>
    </g>
</svg>