<?xml version="1.0" encoding="UTF-8"?>
<svg width="32px" height="32px" viewBox="0 0 32 32" version="1.1" xmlns="http://www.w3.org/2000/svg" xmlns:xlink="http://www.w3.org/1999/xlink">
    <!-- Generator: Sketch 63.1 (92452) - https://sketch.com -->
    <title>归档_@1x</title>
    <desc>Created with Sketch.</desc>
    <g id="新版定稿（20202-8-22）" stroke="none" stroke-width="1" fill="none" fill-rule="evenodd">
        <g id="画板" transform="translate(-921.000000, -755.000000)" fill="#FFFFFF" fill-rule="nonzero">
            <g id="归档_" transform="translate(921.000000, 755.000000)">
                <path d="M3.36371094,31.2945313 L27.8082031,31.2945313 C29.6462109,31.2945313 31.1415234,29.7992188 31.1415234,27.9612109 L31.1415234,3.36691406 C31.1415234,1.52890625 29.6462109,0.03359375 27.8082031,0.03359375 L3.36367188,0.03359375 C1.52566406,0.03359375 0.0303515625,1.52890625 0.0303515625,3.36691406 L0.0303515625,27.9612109 C0.0303515625,29.7992188 1.52566406,31.2945313 3.36367188,31.2945313 L3.36371094,31.2945313 Z M27.8081641,29.0723438 L3.36367188,29.0723438 C2.75101563,29.0723438 2.25257813,28.5739063 2.25257813,27.9612109 L2.25257813,20.0180859 L8.9021875,20.0180859 L8.9021875,20.0283594 C8.9021875,23.7137891 11.9005078,26.7120703 15.5858984,26.7120703 C19.2712891,26.7120703 22.2696094,23.7137891 22.2696094,20.0283594 L22.2696094,20.0180859 L28.9192188,20.0180859 L28.9192188,27.9612109 C28.9192188,28.5739062 28.4207813,29.0723438 27.808125,29.0723438 L27.8081641,29.0723438 Z M3.36367188,2.25578125 L27.8082031,2.25578125 C28.4208594,2.25578125 28.9192969,2.75421875 28.9192969,3.36691406 L28.9192969,17.7958594 L21.1585938,17.7958594 C20.5449219,17.7958594 20.0474609,18.2933203 20.0474609,18.9069922 C20.0474609,18.9533984 20.0506641,18.9990234 20.0561719,19.0439453 C20.0504737,19.0893887 20.0475646,19.1351384 20.0474609,19.1809375 L20.0474609,20.0283594 C20.0474609,22.4884375 18.0460547,24.4898437 15.5859766,24.4898437 C13.1258984,24.4898437 11.1244922,22.4884375 11.1244922,20.0283594 L11.1244922,19.1809375 C11.1243885,19.1351384 11.1214794,19.0893887 11.1157812,19.0439453 C11.1214778,18.9985149 11.1243869,18.9527782 11.1244922,18.9069922 C11.1244922,18.2933203 10.6270312,17.7958594 10.0133594,17.7958594 L2.25261719,17.7958594 L2.25261719,3.36691406 C2.25261719,2.75421875 2.75105469,2.25578125 3.36371094,2.25578125 L3.36367188,2.25578125 Z" id="形状"></path>
                <path d="M14.7714063,17.4501563 C14.7779688,17.4567969 14.7848438,17.4629297 14.7915625,17.4692969 C14.7978125,17.4752344 14.8039063,17.4813281 14.8103125,17.4870703 C14.8177344,17.4938281 14.8253516,17.5002344 14.8328906,17.5067188 C14.8397266,17.5125781 14.8464453,17.5186328 14.8533594,17.5243359 C14.8608203,17.5304688 14.8685547,17.53625 14.8760938,17.5421484 C14.8833203,17.5477734 14.8904688,17.5535547 14.8977734,17.5589453 C14.9054297,17.5645313 14.9132422,17.5698438 14.9209375,17.5752344 C14.9284766,17.5804688 14.9358984,17.5858984 14.9435156,17.5909766 C14.9512891,17.5960938 14.9592188,17.6008984 14.9670703,17.6058594 C14.9748828,17.6107813 14.9825781,17.6157813 14.9904297,17.6204688 C14.9984766,17.6252344 15.0067188,17.6296484 15.0148438,17.6342188 C15.0226953,17.6385938 15.0304688,17.643125 15.0383984,17.6473438 C15.0468359,17.6517578 15.0554297,17.6558594 15.0639453,17.6601172 C15.0717578,17.6639453 15.0794922,17.6680078 15.0873828,17.6716797 C15.0962109,17.6757813 15.1051953,17.6794922 15.1141406,17.6833984 C15.1218359,17.6867188 15.1294922,17.6902734 15.1371875,17.6934375 C15.1465625,17.6972266 15.1559375,17.700625 15.1653125,17.7041406 C15.1728906,17.7069531 15.1803516,17.71 15.1878906,17.7126563 C15.1976563,17.7160938 15.2075391,17.7191016 15.2174219,17.7222656 C15.2247266,17.7246094 15.2319531,17.7271094 15.2392969,17.7292969 C15.2495313,17.7323438 15.2598438,17.7349609 15.2701172,17.7376953 C15.2771875,17.7395703 15.2841797,17.7416797 15.2912891,17.7434375 C15.3021484,17.7460938 15.3130469,17.7482813 15.3239453,17.750625 C15.3305859,17.7520313 15.3371484,17.7536719 15.3437891,17.7549609 C15.355,17.7571484 15.3662891,17.7588672 15.3775781,17.7607422 C15.3839844,17.7617578 15.3903516,17.7630859 15.3967578,17.7639453 C15.4082812,17.765625 15.4198047,17.7668359 15.4313281,17.768125 C15.4375781,17.7688281 15.4437891,17.7697656 15.4500781,17.7703906 C15.4626562,17.7715625 15.4752344,17.7723438 15.4878125,17.773125 C15.4930469,17.7734375 15.4982812,17.7739844 15.5035156,17.7742188 C15.539042,17.7759139 15.5746287,17.7759269 15.6101562,17.7742578 C15.6151563,17.7740234 15.6201562,17.7734766 15.6251953,17.7732031 C15.6378516,17.7724219 15.6505078,17.7716406 15.663125,17.7704688 C15.6691016,17.7699219 15.6750391,17.7690234 15.6809766,17.7683594 C15.6926562,17.7670313 15.7043359,17.7658203 15.7159766,17.7641797 C15.7222266,17.7632813 15.7284766,17.7620313 15.7347266,17.7610156 C15.7460156,17.7592188 15.7572656,17.7575 15.7684766,17.7553125 C15.7751953,17.7539844 15.7819141,17.7523438 15.7886328,17.7509375 C15.7992969,17.7486719 15.8099609,17.7465234 15.8205469,17.7439453 C15.8275781,17.7422656 15.8345312,17.7401563 15.8415625,17.7383203 C15.8517578,17.735625 15.8620312,17.7330469 15.8721875,17.7300781 C15.8794922,17.7279297 15.8867187,17.7253906 15.8939453,17.7230859 C15.9037109,17.72 15.9134766,17.7170313 15.9231641,17.7137109 C15.9307813,17.7110547 15.9382812,17.7080078 15.9458203,17.7051953 C15.9550781,17.7017578 15.9643359,17.6984375 15.9735156,17.6947656 C15.9811719,17.6916406 15.98875,17.6882031 15.9964063,17.6848828 C16.0053125,17.6810938 16.0142188,17.6773828 16.0230469,17.6733203 C16.0308594,17.6697266 16.0385547,17.6657813 16.0462891,17.6619531 C16.0548047,17.6577734 16.0633203,17.65375 16.0716797,17.649375 C16.0794922,17.6453125 16.0871484,17.6408594 16.0948828,17.6365625 C16.1030859,17.6320313 16.1112891,17.6276563 16.1194141,17.6228906 C16.1271484,17.6183203 16.1347656,17.6133984 16.1424609,17.6086328 C16.1503125,17.60375 16.1582813,17.5989844 16.1660547,17.5939063 C16.1736719,17.5889063 16.1810938,17.5835547 16.1885938,17.5783203 C16.19625,17.5730078 16.2039844,17.5678906 16.2115234,17.5623438 C16.2188672,17.5570313 16.2259766,17.5513281 16.2332031,17.5457813 C16.2407813,17.5399609 16.2484375,17.5342969 16.2558594,17.5282813 C16.2626953,17.5226953 16.269375,17.5167969 16.2761719,17.5110547 C16.2837109,17.5045703 16.2913672,17.4982813 16.2987891,17.4916016 C16.3051172,17.4859375 16.3112109,17.4799219 16.3174219,17.4741016 C16.3240625,17.4678125 16.3309375,17.4617188 16.3375,17.4552734 L20.8514063,13.0003906 C21.288125,12.5693359 21.2928125,11.8658203 20.8617188,11.4290625 C20.4306641,10.9922656 19.7271484,10.9876953 19.2903906,11.4187109 L16.668125,14.0067578 L16.668125,5.64375 C16.668125,5.03007812 16.1706641,4.53265625 15.5570313,4.53265625 C14.9433984,4.53265625 14.4458984,5.03011719 14.4458984,5.64375 L14.4458984,13.9824219 L11.8865625,11.4237109 C11.4525781,10.9898438 10.7490625,10.9899219 10.3151953,11.4239063 C9.88132813,11.8578906 9.88140625,12.5614063 10.3153906,12.9952734 L14.7714063,17.4501562 L14.7714063,17.4501563 Z" id="路径"></path>
            </g>
        </g>
    </g>
</svg>