<?xml version="1.0" encoding="UTF-8"?>
<svg width="18px" height="22px" viewBox="0 0 18 22" version="1.1" xmlns="http://www.w3.org/2000/svg" xmlns:xlink="http://www.w3.org/1999/xlink">
    <!-- Generator: Sketch 63.1 (92452) - https://sketch.com -->
    <title>火苗-白@1x</title>
    <desc>Created with Sketch.</desc>
    <g id="新版定稿" stroke="none" stroke-width="1" fill="none" fill-rule="evenodd">
        <g id="项目-设置" transform="translate(-752.000000, -144.000000)" fill-rule="nonzero" stroke="#FFFFFF">
            <path d="M758.891639,164.787273 C758.891639,164.787273 750.072567,162.857131 754.014166,153.277087 C754.014166,153.277087 754.909052,154.341536 754.786091,154.853885 C754.786091,154.853885 755.487427,152.435686 757.001675,150.991392 C758.301879,149.750271 759.622577,146.260997 758.404347,145 C758.404347,145 764.438569,146.260997 765.110303,152.56819 C765.110303,152.56819 765.882228,150.558545 767.467065,150.359789 C767.467065,150.359789 766.979773,151.46399 767.467065,153.12029 C767.467065,153.12029 772.6379,161.469185 763.985888,164.554327 C763.985888,164.554327 761.196012,165.37666 758.891639,164.787273 Z" id="火苗-白"></path>
        </g>
    </g>
</svg>