<?xml version="1.0" encoding="UTF-8"?>
<svg width="16px" height="17px" viewBox="0 0 16 17" version="1.1" xmlns="http://www.w3.org/2000/svg" xmlns:xlink="http://www.w3.org/1999/xlink">
    <!-- Generator: Sketch 63.1 (92452) - https://sketch.com -->
    <title>附件-别针@1x</title>
    <desc>Created with Sketch.</desc>
    <g id="新版定稿（20202-8-22）" stroke="none" stroke-width="1" fill="none" fill-rule="evenodd">
        <g id="项目-设置" transform="translate(-713.000000, -224.000000)" fill="#333333" fill-rule="nonzero">
            <path d="M724.058824,224 C724.568627,224 725.039216,224.116173 725.431373,224.232346 C726.921569,224.851936 727.784314,226.168565 727.784314,227.756264 C727.784314,228.724374 727.431373,229.692483 726.686275,230.428246 L719.745098,237.398633 C719.509804,237.630979 719.235294,237.747153 719,237.90205 C718.764706,238.018223 718.490196,238.018223 718.137255,238.018223 C717.901961,238.018223 717.509804,238.018223 717.27451,237.90205 C717.039216,237.785877 716.764706,237.669704 716.647059,237.398633 C716.411765,237.166287 716.294118,236.895216 716.137255,236.66287 C716.019608,236.430524 716.019608,236.04328 716.019608,235.810934 C716.019608,235.191344 716.254902,234.610478 716.647059,234.223235 L722.921569,227.756264 C723.039216,227.640091 723.27451,227.523918 723.431373,227.523918 C723.666667,227.523918 723.941176,227.640091 724.058824,227.756264 C724.176471,227.872437 724.294118,228.104784 724.294118,228.259681 C724.176471,228.492027 724.176471,228.6082 724.058824,228.879271 L717.666667,235.191344 C717.54902,235.307517 717.431373,235.539863 717.431373,235.810934 C717.431373,236.159453 717.784314,236.546697 718.176471,236.546697 C718.411765,236.546697 718.529412,236.430524 718.686275,236.314351 L725.588235,229.382688 C726.098039,228.879271 726.215686,228.414579 726.215686,227.794989 C726.215686,227.175399 725.901961,226.671982 725.54902,226.207289 C725.196078,225.703872 724.686275,225.471526 724.058824,225.471526 C723.431373,225.471526 722.843137,225.703872 722.45098,226.207289 L715.54902,233.138952 C715.196078,233.487472 714.921569,233.874715 714.686275,234.339408 C714.333333,235.191344 714.333333,236.275626 714.686275,237.127563 C714.921569,237.630979 715.196078,237.979499 715.54902,238.328018 C716.294118,239.063781 717.156863,239.412301 718.137255,239.412301 C719.117647,239.412301 720.098039,239.063781 720.72549,238.328018 L727.745098,231.512528 C727.862745,231.280182 727.980392,231.280182 728.254902,231.280182 C728.490196,231.280182 728.607843,231.396355 728.764706,231.512528 C728.882353,231.628702 729,231.744875 729,232.015945 C729,232.287016 728.882353,232.364465 728.764706,232.519362 L721.862745,239.451025 C721.352941,239.954442 720.764706,240.302961 720.137255,240.651481 C719.509804,240.883827 718.921569,241 718.176471,241 C717.431373,241 716.803922,240.883827 716.215686,240.651481 C715.627451,240.419134 714.960784,240.070615 714.45098,239.451025 C713.941176,238.947608 713.588235,238.366743 713.352941,237.747153 C713.117647,237.127563 713,236.3918 713,235.810934 C713,235.075171 713.117647,234.455581 713.352941,233.758542 C713.588235,233.138952 713.980392,232.558087 714.45098,232.05467 L721.352941,225.084282 C722.098039,224.387244 723.078431,224 724.058824,224 Z" id="附件-别针"></path>
        </g>
    </g>
</svg>