<?xml version="1.0" encoding="UTF-8"?>
<svg width="26px" height="26px" viewBox="0 0 26 26" version="1.1" xmlns="http://www.w3.org/2000/svg" xmlns:xlink="http://www.w3.org/1999/xlink">
    <!-- Generator: Sketch 63.1 (92452) - https://sketch.com -->
    <title>聊天@1x</title>
    <desc>Created with Sketch.</desc>
    <g id="新版定稿（20202-8-22）" stroke="none" stroke-width="1" fill="none" fill-rule="evenodd">
        <g id="项目-设置" transform="translate(-735.000000, -216.000000)" fill="#333333" fill-rule="nonzero">
            <g id="聊天" transform="translate(735.000000, 216.000000)">
                <path d="M13.3982,0.8 C6.4592,0.8 0.8342,5.642 0.8342,11.6162 C0.8342,15.0308 2.6756,18.071 5.5466,20.051 L5.5466,25.5248 L11.051,22.238 C11.8124,22.3604 12.5972,22.4342 13.4,22.4342 C20.3408,22.4342 25.9658,17.5904 25.9658,11.6162 C25.9658,5.642 20.339,0.8 13.3982,0.8 Z M13.3982,20.888 C12.5059943,20.8841888 11.6164638,20.7901096 10.7432,20.6072 L7.0478,22.7906 L7.0964,19.2086 C4.2632,17.531 2.4038,14.759 2.4038,11.618 C2.4038,6.497 7.3268,2.348 13.3982,2.348 C19.4732,2.348 24.3944,6.4988 24.3944,11.618 C24.3944,16.739 19.4732,20.888 13.3982,20.888 Z M18.5282,8.6768 L8.27,8.6768 C7.6904,8.6768 7.2224,9.08 7.2224,9.5768 C7.2224,10.0736 7.6904,10.4768 8.27,10.4768 L18.5264,10.4768 C19.1024,10.4768 19.5740051,10.0736 19.5740051,9.5768 C19.5758,9.08 19.1042,8.6768 18.5282,8.6768 Z M14.6834,13.0346 L8.4014,13.0346 C7.83774085,13.0535114 7.38247665,13.5009532 7.3538,14.0642 C7.3538,14.5592 7.8218,14.8346 8.4014,14.8346 L14.6834,14.8346 C15.263,14.8346 15.731,14.4296 15.731,13.9346 C15.731,13.4378 15.263,13.0346 14.6834,13.0346 L14.6834,13.0346 Z" id="形状"></path>
            </g>
        </g>
    </g>
</svg>