<?xml version="1.0" encoding="UTF-8"?>
<svg width="21px" height="21px" viewBox="0 0 21 21" version="1.1" xmlns="http://www.w3.org/2000/svg" xmlns:xlink="http://www.w3.org/1999/xlink">
    <!-- Generator: Sketch 63.1 (92452) - https://sketch.com -->
    <title>3@1x</title>
    <desc>Created with Sketch.</desc>
    <g id="新版定稿（20202-8-22）" stroke="none" stroke-width="1" fill="none" fill-rule="evenodd">
        <g id="切图" transform="translate(-200.000000, -1102.000000)" fill-rule="nonzero">
            <g id="3" transform="translate(201.000000, 1103.000000)">
                <rect id="矩形" stroke="#555555" stroke-width="0.6" x="0" y="0" width="19.0624" height="19.0624" rx="9.5312"></rect>
                <path d="M6.46250019,5.90000001 L6.46250017,5.90000001 C6.71102849,5.90000001 6.91250016,6.10147176 6.91250016,6.35000008 C6.91250018,6.5985284 6.71102849,6.80000008 6.46250017,6.80000008 L6.35000017,6.80000008 L6.35000015,6.80000008 C6.10147183,6.80000009 5.90000015,7.00147175 5.90000015,7.25000008 C5.90000015,7.25000008 5.90000015,7.25000008 5.90000015,7.25000008 L5.90000015,12.6500001 L5.90000015,12.65 C5.90000011,12.8985283 6.10147183,13.1 6.35000015,13.1 L12.6500001,13.1 L12.6500001,13.1 C12.8985284,13.1 13.1000001,12.8985283 13.1000001,12.65 C13.1000001,12.65 13.1000001,12.65 13.1000001,12.65 L13.1000001,7.25000001 L13.1000001,7.25000001 C13.1000001,7.00147169 12.8985284,6.80000001 12.6500001,6.80000001 C12.6500001,6.80000001 12.6500001,6.80000001 12.6500001,6.80000001 L12.5375001,6.80000001 L12.5375001,6.80000001 C12.2889717,6.8 12.0875001,6.59852833 12.0875001,6.35000001 C12.0875001,6.10147169 12.2889717,5.90000001 12.5375001,5.90000001 L12.6500001,5.90000001 L12.65,5.90000001 C13.3955841,5.90000001 14,6.50441593 14,7.25000001 L14,12.65 L14,12.65 C14,13.3955841 13.3955841,14 12.65,14 C12.65,14 12.65,14 12.65,14 L6.35000005,14 L6.34999999,14 C5.60441591,14 5,13.3955841 5,12.65 C5,12.65 5,12.65 5,12.65 L5,7.25000001 L5,7.25000021 C5,6.50441613 5.60441504,5.90000001 6.34999999,5.90000001 L6.46250019,5.90000001 Z M8.91950017,11.6370538 L8.89542517,11.6354768 L8.89542516,11.6354768 C8.81855664,11.6282087 8.74482194,11.6014102 8.68122517,11.5576268 L8.67515017,11.5531268 L8.67515015,11.5531268 C8.65519081,11.5390561 8.63651783,11.5232443 8.61935015,11.5058768 L8.64342515,11.5283768 L8.64342518,11.5283768 C8.63774759,11.5234175 8.63219584,11.5183158 8.62677518,11.5130768 L8.61935018,11.5056518 L7.04435019,9.93065184 L7.04435018,9.93065184 C6.87169432,9.75188846 6.87664608,9.46700769 7.05540955,9.29435184 C7.22979509,9.12592439 7.50626472,9.12592439 7.68065027,9.29435185 L8.97079674,10.5842786 L11.4689735,8.58627861 L11.4689735,8.58627859 C11.6597955,8.42705242 11.9435662,8.45266551 12.1027932,8.64348774 C12.2620194,8.83430971 12.2364063,9.11808042 12.0455841,9.27730747 C12.0408116,9.28128974 12.0359571,9.28517271 12.0310238,9.28895385 L9.21852379,11.5389539 L9.20547379,11.5490789 L9.20547379,11.5490788 C9.20191308,11.5517573 9.19831268,11.5543826 9.19467379,11.5569538 L9.21852379,11.5389538 L9.21852379,11.5389538 C9.16390962,11.5824563 9.1000068,11.6127908 9.0317738,11.6276038 L9.0272738,11.6285038 L9.02727382,11.6285038 C9.00409416,11.6334083 8.98052884,11.6362693 8.95684899,11.6370538 L8.91927399,11.6370538 L8.91950017,11.6370538 Z M7.70000018,5.00000001 L7.70000016,5.00000001 C7.94852848,5.00000001 8.15000016,5.20147176 8.15000016,5.45000008 L8.15000016,7.02500008 L8.15000016,7.02500008 C8.15000016,7.2735284 7.94852848,7.47500007 7.70000016,7.47500007 C7.45147184,7.47500007 7.25000016,7.2735284 7.25000016,7.02500008 L7.25000016,5.45000008 L7.25000016,5.45000001 C7.25000016,5.20147169 7.45147184,5.00000001 7.70000016,5.00000001 L7.70000018,5.00000001 Z M11.3000002,5 L11.3000001,5 C11.5485285,5 11.7500001,5.20147176 11.7500001,5.45000008 C11.7500001,5.45000008 11.7500001,5.45000008 11.7500001,5.45000008 L11.7500001,7.02500008 L11.7500001,7.02500009 C11.7500001,7.27352841 11.5485285,7.47500009 11.3000001,7.47500009 C11.0514718,7.47500009 10.8500001,7.27352841 10.8500001,7.02500009 C10.8500001,7.02500008 10.8500001,7.02500007 10.8500001,7.02500007 L10.8500001,5.45000007 L10.8500001,5.45 C10.8500001,5.20147168 11.0514718,5 11.3000001,5 C11.3000001,5 11.3000001,5 11.3000001,5 L11.3000002,5 Z M9.95000016,5.90000008 L9.95000014,5.90000008 C10.1985285,5.90000008 10.4000001,6.10147176 10.4000001,6.35000008 C10.4000001,6.5985284 10.1985285,6.80000008 9.95000014,6.80000008 L9.05000015,6.80000008 L9.05000013,6.80000008 C8.80147181,6.80000008 8.60000013,6.5985284 8.60000013,6.35000008 C8.60000013,6.10147176 8.80147181,5.90000008 9.05000013,5.90000008 L9.95000016,5.90000008 Z" id="形状" fill="#555555"></path>
            </g>
        </g>
    </g>
</svg>