<?xml version="1.0" encoding="UTF-8"?>
<svg width="21px" height="21px" viewBox="0 0 21 21" version="1.1" xmlns="http://www.w3.org/2000/svg" xmlns:xlink="http://www.w3.org/1999/xlink">
    <!-- Generator: Sketch 63.1 (92452) - https://sketch.com -->
    <title>13@1x</title>
    <desc>Created with Sketch.</desc>
    <g id="新版定稿（20202-8-22）" stroke="none" stroke-width="1" fill="none" fill-rule="evenodd">
        <g id="切图" transform="translate(-200.000000, -1425.000000)" fill-rule="nonzero">
            <g id="13" transform="translate(201.000000, 1426.000000)">
                <rect id="矩形" stroke="#555555" stroke-width="0.6" x="0" y="0" width="19.0624" height="19.0624" rx="9.5312"></rect>
                <path d="M10.6193828,9.9999799 L13.8766667,6.74130762 C14.0411111,6.57684946 14.0411111,6.30564622 13.8766667,6.14113447 L13.8589367,6.12334362 C13.6944924,5.95888546 13.4234538,5.95888546 13.2589558,6.12334362 L10.0016719,9.38646362 L6.74433435,6.12334362 C6.57988999,5.95888546 6.30879783,5.95888546 6.14440703,6.12334362 L6.12662347,6.14113447 C6.04566655,6.21997074 6,6.32819648 6,6.44122104 C6,6.55424561 6.04566655,6.66247135 6.12662347,6.74130762 L9.383961,9.9999799 L6.12662347,13.2587058 C5.96223267,13.4231639 5.96223267,13.6944208 6.12662347,13.8588253 L6.14440703,13.8766162 C6.30879783,14.0411279 6.57988999,14.0411279 6.74433435,13.8766162 L10.0016719,10.6179439 L13.2589558,13.8766162 C13.4234538,14.0411279 13.6944924,14.0411279 13.8589367,13.8766162 L13.8766667,13.8588253 C14.0411111,13.6944208 14.0411111,13.4231639 13.8766667,13.2587058 L10.6193828,9.9999799 L10.6193828,9.9999799 Z" id="路径" fill="#555555"></path>
            </g>
        </g>
    </g>
</svg>