<?xml version="1.0" encoding="UTF-8"?>
<svg width="24px" height="22px" viewBox="0 0 24 22" version="1.1" xmlns="http://www.w3.org/2000/svg" xmlns:xlink="http://www.w3.org/1999/xlink">
    <!-- Generator: Sketch 63.1 (92452) - https://sketch.com -->
    <title>被取消完成-黑@1x</title>
    <desc>Created with Sketch.</desc>
    <g id="新版定稿" stroke="none" stroke-width="1" fill="none" fill-rule="evenodd">
        <g id="切图3" transform="translate(-188.000000, -1738.000000)" fill="#333333" fill-rule="nonzero">
            <g id="被取消完成-黑" transform="translate(188.000000, 1738.400045)">
                <path d="M0.518615725,0.468719127 L0.482134025,0.505292829 C0.173871366,0.805480617 -5.32907052e-15,1.21754059 -5.32907052e-15,1.64785516 L0.00807311075,1.80818459 C0.0455677054,2.17943672 0.212404198,2.52775318 0.482134025,2.79041749 L7.788,10.0989552 L0.476376282,17.4152077 C-0.148258609,18.0400986 -0.148258609,19.0641518 0.476448894,19.6889117 L0.518615725,19.7310958 L0.632838308,19.8349281 C1.26239514,20.35409 2.20400263,20.3194792 2.79214505,19.7310958 L10.104,12.4159552 L10.4156657,12.7310923 C11.040751,13.3562301 12.0644474,13.3562301 12.6893257,12.7310958 L12.7320737,12.688202 L12.8357385,12.5740937 C13.3540609,11.9450972 13.3194667,11.0032859 12.7313653,10.4151351 L12.419,10.0999552 L19.7314379,2.78473444 C20.3562,2.15991993 20.3562,1.13599399 19.7314344,0.510972388 L19.689965,0.469359655 L19.5756006,0.365449533 C18.945351,-0.15410282 18.0040398,-0.119509278 17.4158074,0.468580924 L10.103,7.79295518 L2.79243423,0.469008623 C2.16719042,-0.15628795 1.1433668,-0.15628795 0.518615725,0.468719127 Z" id="被取消完成-白"></path>
                <path d="M16.5351682,16.3831904 L16.3480831,16.2659529 L20.3723849,16.2661301 C21.3996565,16.4420729 21.8504438,16.970043 21.8504438,18.0821598 C21.8504438,19.193743 21.399051,19.7221944 20.2910572,19.9048481 L13.742516,19.8981896 C13.2665273,19.8981896 12.8682583,20.2715828 12.8682583,20.7490712 C12.8682583,21.2265597 13.2665273,21.5999552 13.742516,21.5999552 L20.4364471,21.5999552 L20.5504761,21.5878211 C22.5083858,21.2787113 23.6000831,20.0291976 23.6000831,18.0821598 C23.6000831,16.2072386 22.5877984,14.9792424 20.7595744,14.6131434 L20.5178831,14.5701763 L15.9920831,14.5649529 L16.5871486,14.1312823 C16.9819046,13.8428603 17.054963,13.2916375 16.7423329,12.9155315 C16.445539,12.558477 15.9128573,12.4964201 15.5379917,12.7703099 L13.0072188,14.614105 C12.5480268,14.9491825 12.4629521,15.5886214 12.8248605,16.0251777 C12.8920369,16.1064438 12.9717623,16.1761048 13.061706,16.2343297 L15.5904349,17.8149275 C15.7332723,17.9042047 15.8967608,17.9499406 16.0622396,17.9499406 C16.3450837,17.9499406 16.6147864,17.8175547 16.7810426,17.5837469 C17.0641495,17.1856107 16.9488213,16.6417346 16.5351682,16.3831904 Z" id="路径"></path>
            </g>
        </g>
    </g>
</svg>