<?xml version="1.0" encoding="UTF-8"?>
<svg width="21px" height="21px" viewBox="0 0 21 21" version="1.1" xmlns="http://www.w3.org/2000/svg" xmlns:xlink="http://www.w3.org/1999/xlink">
    <!-- Generator: Sketch 63.1 (92452) - https://sketch.com -->
    <title>8@1x</title>
    <desc>Created with Sketch.</desc>
    <g id="新版定稿（20202-8-22）" stroke="none" stroke-width="1" fill="none" fill-rule="evenodd">
        <g id="切图" transform="translate(-200.000000, -1239.000000)" fill-rule="nonzero">
            <g id="8" transform="translate(201.000000, 1240.000000)">
                <rect id="矩形" stroke="#555555" stroke-width="0.6" x="0" y="0" width="19.0624" height="19.0624" rx="9.5312"></rect>
                <g id="压缩包-归档项目" transform="translate(5.000000, 4.000000)" fill="#555555">
                    <path d="M7.9271424,2.3076864 C7.6595731,1.95170112 7.3663372,1.61575298 7.0497792,1.302528 C6.73654519,0.985225077 6.40060257,0.691172607 6.0446208,0.422707196 C5.5236096,0.0417792038 5.2704768,-1.49833159e-05 5.127936,-1.49833159e-05 L0.817305604,-1.49833159e-05 C0.602439605,-0.00130718198 0.395889963,0.0829644105 0.243263861,0.234207192 C0.0906377592,0.385449974 0.0044891222,0.591223802 0.00383999616,0.806092796 L0.00383999616,9.5158272 C0.0044891222,9.7306962 0.0906377592,9.93647003 0.243263861,10.0877128 C0.395889963,10.2389556 0.602439605,10.3232272 0.817305604,10.321935 L7.5462144,10.321935 C7.76108039,10.3232272 7.96763004,10.2389556 8.12025614,10.0877128 C8.27288224,9.93647003 8.35903088,9.7306962 8.35968,9.5158272 L8.35968,3.2243712 C8.35968,3.07937279 8.3154432,2.82869759 7.9345152,2.3076864 L7.9271424,2.3076864 Z M5.6710656,0.6488064 C6.04874191,0.945527421 6.40743641,1.2656438 6.7450368,1.6072704 C7.0865981,1.94493285 7.40671072,2.30362315 7.7035008,2.6812416 L5.6710656,2.6812416 L5.6710656,0.6488064 Z M7.8951936,9.7247232 C7.89387283,9.81782398 7.81871999,9.89297683 7.7256192,9.8942976 L0.637900796,9.8942976 C0.544800012,9.89297683 0.469647171,9.81782398 0.468326396,9.7247232 L0.468326396,0.594739204 C0.469647171,0.501638419 0.544800012,0.426485579 0.637900796,0.425164804 L5.189376,0.425164804 L5.189376,2.7918336 C5.189376,2.88178146 5.22510765,2.96804528 5.28871039,3.03164802 C5.35231313,3.09525076 5.43857695,3.1309824 5.5285248,3.1309824 L7.8951936,3.1309824 L7.8951936,9.7271808 L7.8951936,9.7247232 Z" id="形状" stroke="#555555" stroke-width="0.2"></path>
                    <path d="M2.5376256,1.9808256 L3.346176,1.9808256 L3.346176,2.789376 L2.5376256,2.789376 L2.5376256,1.9808256 Z M1.72416,2.789376 L2.5327104,2.789376 L2.5327104,3.5979264 L1.72416,3.5979264 L1.72416,2.789376 Z M1.72416,1.1722752 L2.5327104,1.1722752 L2.5327104,1.9808256 L1.72416,1.9808256 L1.72416,1.1722752 Z M1.72416,4.4040192 L2.5327104,4.4040192 L2.5327104,5.2125696 L1.72416,5.2125696 L1.72416,4.4040192 Z M2.5327104,5.2125696 L3.346176,5.2125696 L3.346176,6.02112 L2.5376256,6.02112 L2.5327104,5.2125696 Z M2.5327104,3.5954688 L3.346176,3.5954688 L3.346176,4.4040192 L2.5376256,4.4040192 L2.5327104,3.5954688 Z M1.72416,6.02112 L2.5327104,6.02112 L2.5327104,6.8296704 L1.72416,6.8296704 L1.72416,6.02112 Z M1.72416,7.6382208 L1.72416,9.2553216 L3.346176,9.2553216 L3.346176,6.8296704 L2.5376256,6.8296704 L2.5376256,7.6382208" id="形状"></path>
                </g>
            </g>
        </g>
    </g>
</svg>