<?xml version="1.0" encoding="UTF-8"?>
<svg width="21px" height="21px" viewBox="0 0 21 21" version="1.1" xmlns="http://www.w3.org/2000/svg" xmlns:xlink="http://www.w3.org/1999/xlink">
    <!-- Generator: Sketch 63.1 (92452) - https://sketch.com -->
    <title>11@1x</title>
    <desc>Created with Sketch.</desc>
    <g id="新版定稿（20202-8-22）" stroke="none" stroke-width="1" fill="none" fill-rule="evenodd">
        <g id="切图" transform="translate(-200.000000, -1331.000000)" fill-rule="nonzero" stroke="#555555">
            <g id="11" transform="translate(201.000000, 1332.000000)">
                <rect id="矩形" stroke-width="0.6" x="0" y="0" width="19.0624" height="19.0624" rx="9.5312"></rect>
                <path d="M8.67101398,10.0953557 L9.83339268,11.2507985 L8.20622274,11.7127531 L8.67101398,10.0953557 L8.67101398,10.0953557 Z M8.94511707,9.73543454 L11.8481706,6.85036671 L13.0990385,8.09359732 L10.1958515,10.9786206 L8.94511707,9.73543454 Z M9.49919879,9.73547906 L10.1513398,10.4276763 L12.5449123,8.04908016 L11.8926378,7.40140006 L9.49919879,9.73547906 Z M12.1838333,6.51622094 L12.5336509,6.16920971 C12.592985,6.11009093 12.673106,6.07630241 12.7536277,6.07630241 C12.8258257,6.07630241 12.8925042,6.10305722 12.9412891,6.15162543 L13.80219,7.00702258 C13.8510638,7.05545725 13.8779489,7.12147619 13.8780381,7.19292622 C13.8781269,7.27265645 13.8442535,7.35216409 13.785142,7.41106029 L13.4345233,7.75936251 L12.1838333,6.51622094 Z M7.17439687,14 C6.52684056,14 6,13.4730504 6,12.8254148 L6,7.17454064 C6,6.52690506 6.52684056,6 7.17439687,6 L11.1212499,6 L10.749221,6.41663606 L7.45744681,6.41663606 C6.85889789,6.41663606 6.46096323,6.85886949 6.46096323,7.45718006 L6.46096323,12.6318988 C6.46096323,13.2301648 6.85867533,13.5833639 7.45691267,13.5833639 L12.5430428,13.5833639 C13.1413247,13.5833639 13.5835485,13.141086 13.5835485,12.5427754 L13.5835485,9.25077627 L14,8.87896898 L14,12.8254594 C14,13.4730949 13.4731594,14 12.8255586,14 L7.17439687,14 L7.17439687,14 Z" id="形状" stroke-width="0.2" fill="#555555"></path>
            </g>
        </g>
    </g>
</svg>