<?xml version="1.0" encoding="UTF-8"?>
<svg width="21px" height="21px" viewBox="0 0 21 21" version="1.1" xmlns="http://www.w3.org/2000/svg" xmlns:xlink="http://www.w3.org/1999/xlink">
    <!-- Generator: Sketch 63.1 (92452) - https://sketch.com -->
    <title>5@1x</title>
    <desc>Created with Sketch.</desc>
    <g id="新版定稿（20202-8-22）" stroke="none" stroke-width="1" fill="none" fill-rule="evenodd">
        <g id="切图" transform="translate(-200.000000, -1195.000000)" fill-rule="nonzero">
            <g id="5" transform="translate(201.000000, 1196.000000)">
                <rect id="矩形" stroke="#555555" stroke-width="0.6" x="0" y="0" width="19.0624" height="19.0624" rx="9.5312"></rect>
                <path d="M14.3777769,7.91592803 L8.82082952,13.4588172 C8.81028508,13.4693618 8.80852761,13.483421 8.79798317,13.4939655 C8.59763805,13.6943106 8.30239218,13.7382464 8.05811224,13.632801 C7.9632119,13.5976528 7.87358357,13.5466878 7.79801483,13.4711189 C7.77341101,13.4465151 7.76286657,13.4148817 7.7417776,13.386763 L4.99493989,10.6487117 C4.73308521,10.386857 4.73308521,9.96156292 4.99493989,9.70146551 C5.25679457,9.43961083 5.6838459,9.43961083 5.94570058,9.70146551 L8.25494742,12.0054303 L13.3655073,6.9071713 C13.6449357,6.6277429 14.0983492,6.6277429 14.3777776,6.9071713 C14.657206,7.18484243 14.657206,7.63649861 14.3777776,7.91592701 L14.3777769,7.91592803 Z" id="路径" fill="#555555"></path>
            </g>
        </g>
    </g>
</svg>