<?xml version="1.0" encoding="UTF-8"?>
<svg width="21px" height="21px" viewBox="0 0 21 21" version="1.1" xmlns="http://www.w3.org/2000/svg" xmlns:xlink="http://www.w3.org/1999/xlink">
    <!-- Generator: Sketch 63.1 (92452) - https://sketch.com -->
    <title>4@1x</title>
    <desc>Created with Sketch.</desc>
    <g id="新版定稿（20202-8-22）" stroke="none" stroke-width="1" fill="none" fill-rule="evenodd">
        <g id="切图" transform="translate(-200.000000, -1150.000000)" fill-rule="nonzero">
            <g id="4" transform="translate(201.000000, 1151.000000)">
                <rect id="矩形" stroke="#555555" stroke-width="0.6" x="0" y="0" width="19.0624" height="19.0624" rx="9.5312"></rect>
                <path d="M7.4030823,12.1421678 L11.2681261,8.28627194 L10.6356649,7.65530773 L6.77062116,11.4761431 L7.3328085,11.6163571 L7.4030823,12.1421678 Z M11.6897668,8.70691475 L7.85986666,12.5277502 L6.31384709,12.9834462 L5.99761652,12.6679641 L6.45439367,11.0555034 L10.2491606,7.26971815 L9.7923834,6.81402211 L5.92733963,10.6348575 C5.85706613,10.6699111 5.82192944,10.7400182 5.82192944,10.8101257 L5.01378429,13.544304 C4.9786476,13.6494647 5.01378429,13.7896786 5.08405779,13.8948393 C5.15433128,13.9649465 5.22460437,14 5.33001456,14 C5.36515125,14 5.40028805,14 5.43542475,14 L8.17608972,13.1937676 C8.24636321,13.1587141 8.28149991,13.1236604 8.3166363,13.0886069 L12.1816801,9.26777149 L11.6897655,8.70691475 L11.6897668,8.70691475 Z M10.1437473,6.3933793 L12.5681817,8.81207545 L13.130369,8.32132517 L10.7059346,5.90262902 L10.1437473,6.3933793 Z M13.7628271,6.3933793 L12.603315,5.23661158 C12.2870844,4.92112947 11.7600334,4.92112947 11.4438029,5.23661158 L11.0924359,5.58714691 L13.4114601,7.90068236 L13.7628271,7.55014703 C14.0790576,7.1996117 14.0790576,6.70886141 13.7628271,6.3933793 Z" id="形状" fill="#555555"></path>
            </g>
        </g>
    </g>
</svg>