<?xml version="1.0" encoding="UTF-8"?>
<svg width="21px" height="21px" viewBox="0 0 21 21" version="1.1" xmlns="http://www.w3.org/2000/svg" xmlns:xlink="http://www.w3.org/1999/xlink">
    <!-- Generator: Sketch 63.1 (92452) - https://sketch.com -->
    <title>12@1x</title>
    <desc>Created with Sketch.</desc>
    <g id="新版定稿（20202-8-22）" stroke="none" stroke-width="1" fill="none" fill-rule="evenodd">
        <g id="切图" transform="translate(-200.000000, -1376.000000)" fill-rule="nonzero">
            <g id="12" transform="translate(201.000000, 1377.000000)">
                <rect id="矩形" stroke="#555555" stroke-width="0.6" x="0" y="0" width="19.0624" height="19.0624" rx="9.5312"></rect>
                <path d="M6,6.8880063 L6,6.17116566 C6,5.95528606 6.17947237,5.78077711 6.40053919,5.78077711 L8.69362604,5.78077711 L8.69362604,5.39114075 C8.69362604,5.17450895 8.8730984,5 9.09416522,5 L10.9073753,5 C11.1284421,5 11.306374,5.17601334 11.306374,5.39114075 L11.306374,5.78077711 L13.6010013,5.78077711 C13.8220682,5.78077711 14,5.95603825 14,6.17191785 L14,6.8880063 L6,6.8880063 L6,6.8880063 Z M12.8831119,13.6096096 L12.8831119,13.6096128 C12.8835355,13.8248025 12.7052414,13.9995841 12.4848811,13.9999993 C12.4846241,13.9999993 12.4843671,13.9999993 12.4841101,13.9999993 L7.52050523,13.9999993 L7.52050522,13.9999993 C7.30014488,14.0004143 7.12116235,13.8263052 7.1207363,13.6111155 C7.12073531,13.6106136 7.12073531,13.6101116 7.1207363,13.6096097 L6.32119846,7.1618049 L13.6849574,7.1618049 L12.883879,13.6096097 L12.8831119,13.6096096 Z M8.88157135,8.64663527 L8.88157135,8.64663527 C8.88157135,8.43123754 8.70276093,8.25662282 8.48218756,8.25662282 C8.26161419,8.25662282 8.08280377,8.43123754 8.08280377,8.64663527 L8.08280377,12.5542818 L8.08280377,12.5542818 C8.08280377,12.7696796 8.26161419,12.9442943 8.48218756,12.9442943 C8.70276093,12.9442943 8.88157135,12.7696796 8.88157135,12.5542818 L8.88157135,8.64663533 L8.88157135,8.64663527 Z M10.3758906,8.64663527 L10.3758906,8.64663526 C10.3758906,8.4310295 10.1969081,8.25624671 9.9761217,8.25624671 C9.75533531,8.25624671 9.57635278,8.4310295 9.57635278,8.64663526 C9.57635278,8.64663527 9.57635278,8.64663528 9.57635278,8.64663528 L9.57635278,12.5542818 L9.57635278,12.5542818 C9.57635278,12.7696796 9.7551632,12.9442943 9.97573657,12.9442943 C10.1963099,12.9442943 10.3751204,12.7696796 10.3751204,12.5542818 L10.3751204,8.64663534 L10.3758906,8.64663527 Z M11.896399,8.64663527 L11.896399,8.64663527 C11.896399,8.43123754 11.7175886,8.25662282 11.4970152,8.25662282 C11.2764418,8.25662282 11.0976314,8.43123754 11.0976314,8.64663527 L11.0976314,12.5542818 L11.0976314,12.5542818 C11.0976314,12.7696796 11.2764418,12.9442943 11.4970152,12.9442943 C11.7175886,12.9442943 11.896399,12.7696796 11.896399,12.5542818 L11.896399,8.64663533 L11.896399,8.64663527 Z" id="形状" fill="#555555"></path>
            </g>
        </g>
    </g>
</svg>