<?xml version="1.0" encoding="UTF-8"?>
<svg width="21px" height="21px" viewBox="0 0 21 21" version="1.1" xmlns="http://www.w3.org/2000/svg" xmlns:xlink="http://www.w3.org/1999/xlink">
    <!-- Generator: Sketch 63.1 (92452) - https://sketch.com -->
    <title>10@1x</title>
    <desc>Created with Sketch.</desc>
    <g id="新版定稿（20202-8-22）" stroke="none" stroke-width="1" fill="none" fill-rule="evenodd">
        <g id="切图" transform="translate(-200.000000, -1286.000000)" fill-rule="nonzero">
            <g id="10" transform="translate(201.000000, 1287.000000)">
                <rect id="矩形" stroke="#555555" stroke-width="0.6" x="0" y="0" width="19.0624" height="19.0624" rx="9.5312"></rect>
                <path d="M9.49402,14.5 C9.19722,14.5 8.91834,14.3843148 8.70853,14.1743583 L7.6552,13.1203332 L5.80769,13.1203332 C5.36238,13.1203332 5,12.7577075 5,12.3121079 L5,6.30821534 C5,5.8626157 5.36238,5.5 5.80769,5.5 L13.1923,5.5 C13.63761,5.5 14,5.8626157 14,6.30821534 L14,12.3121079 C14,12.7577075 13.63762,13.1203332 13.1923,13.1203332 L11.33285,13.1203332 L10.27952,14.1743583 C10.06971,14.3843148 9.79083,14.5 9.49402,14.5 Z M5.80769,6.19276029 C5.74403,6.19276029 5.69231,6.24451393 5.69231,6.30821534 L5.69231,12.3121079 C5.69231,12.3758193 5.74403,12.4275729 5.80769,12.4275729 L7.98073,12.4275729 L8.11809,12.6039175 L9.19802,13.68456 C9.35622,13.8426327 9.63184,13.8426327 9.79004,13.68456 L10.90344,12.5606294 L11.00733,12.4275729 L13.1923,12.4275729 C13.25597,12.4275729 13.30769,12.3758193 13.30769,12.3121079 L13.30769,6.30821534 C13.30769,6.24451393 13.25597,6.19276029 13.1923,6.19276029 L5.80769,6.19276029 Z M11.34615,8.65303948 L7.42308,8.65303948 C7.23186,8.65303948 7.07693,8.4979987 7.07693,8.30666433 C7.07693,8.11531996 7.23187,7.96027918 7.42308,7.96027918 L11.34616,7.96027918 C11.53738,7.96027918 11.69231,8.11531996 11.69231,8.30666433 C11.69231,8.49800871 11.53737,8.65303948 11.34615,8.65303948 Z M9.96154,10.5802221 L7.42308,10.5802221 C7.23186,10.5802221 7.07693,10.4251814 7.07693,10.233847 C7.07693,10.0425126 7.23187,9.88747186 7.42308,9.88747186 L9.96155,9.88747186 C10.15276,9.88747186 10.3077,10.0425126 10.3077,10.233847 C10.3077,10.4251814 10.15275,10.5802221 9.96154,10.5802221 Z" id="形状" fill="#555555"></path>
            </g>
        </g>
    </g>
</svg>