<?xml version="1.0" encoding="UTF-8"?>
<svg width="21px" height="21px" viewBox="0 0 21 21" version="1.1" xmlns="http://www.w3.org/2000/svg" xmlns:xlink="http://www.w3.org/1999/xlink">
    <!-- Generator: Sketch 63.1 (92452) - https://sketch.com -->
    <title>14@1x</title>
    <desc>Created with Sketch.</desc>
    <g id="新版定稿（20202-8-22）" stroke="none" stroke-width="1" fill="none" fill-rule="evenodd">
        <g id="切图" transform="translate(-200.000000, -1470.000000)" fill-rule="nonzero">
            <g id="14" transform="translate(201.000000, 1471.000000)">
                <rect id="矩形" stroke="#555555" stroke-width="0.6" x="0" y="0" width="19.0624" height="19.0624" rx="9.5312"></rect>
                <g id="编组-3" transform="translate(6.000000, 4.000000)" fill="#555555">
                    <polygon id="路径备份" points="4.42371884 2 4.42371884 2.61783224 6.78714772 2.61783224 6.78714772 3.0168653 5 3.0168653 5 3.65988307 6.78714772 3.65988307 6.78714772 4.05891613 5.66582908 4.05891613 5.66582908 4.68934113 6.78714772 4.68934113 6.78714772 5.08837419 5.66582908 5.08837419 5.66582908 5.71879919 6.78714772 5.71879919 6.78714772 6.11783225 5.66582908 6.11783225 5.66582908 6.74825726 6.78714772 6.74825726 6.78714772 7.14729031 5.66582908 7.14729031 5.66582908 7.77771532 6.78714772 7.77771532 6.78714772 8.17596132 5.66582908 8.17596132 5.66582908 9 7.45395714 9 7.45395714 2"></polygon>
                    <path d="M0.262342068,0.148087011 C0.429577891,0.0164831855 0.65589894,-0.0295436252 0.891332405,0.0186142062 L0.891332405,0.0186142062 L3.51079943,0.430716062 C3.66698458,0.461745451 6,3.95140486 6,4.05927631 L6,4.05927631 L6,8.73979998 C5.99928874,8.89977671 5.90489376,9.07022046 5.73765793,9.2150081 C5.57042211,9.36174305 5.34410106,9.47080498 5.10866759,9.51658472 L5.10866759,9.51658472 L0.891332405,10.9813858 C0.65589894,11.0295436 0.429577891,10.9835168 0.262342068,10.851913 C0.0951062444,10.7183618 0.000711261882,10.5101109 1.32782674e-13,10.2746547 L1.32782674e-13,10.2746547 L1.32782674e-13,0.725345261 C0.000711261882,0.489889083 0.0951062444,0.28163815 0.262342068,0.148087011 Z M0.694754557,0.434353793 C0.592741952,0.417174507 0.510395308,0.483087256 0.508948106,0.583078907 L0.508948106,0.583078907 L0.508948106,10.4142747 C0.510395308,10.5142665 0.592741952,10.5801871 0.694754557,10.5630174 L0.694754557,10.5630174 L5.30524544,9.14795309 C5.40725805,9.12835277 5.48960469,9.05596622 5.49105189,8.98462051 L5.49105189,8.98462051 L5.49105189,3.95002879 L4.47568023,3.74738608 C4.37712236,3.73968442 4.28260116,3.70118313 4.21291022,3.64008557 C4.14321929,3.57864675 4.10406732,3.49963042 4.10406732,3.42068577 L4.10406732,3.42068577 L3.57812062,0.817258893 Z" id="形状结合"></path>
                    <path d="M3.0030303,1.99694059 L4,2.19244943 L4,2.89460384 L3.0030303,2.74799079 L3.0030303,1.99694059 Z M2,2.60048647 L2.99696969,2.74709952 L2.99696969,3.49844697 L2,3.40072971 L2,2.60048647 Z M2,1 L2.99696969,1.24440463 L2.99696969,1.99575208 L2,1.80024324 L2,1 Z M2,4.19854059 L2.99696969,4.24751069 L2.99696969,4.99885814 L2,4.99878383 L2,4.19854059 Z M2.99696969,4.99885814 L4,4.9989329 L4,5.70108732 L3.0030303,5.7499088 L2.99696969,4.99885814 Z M2.99696969,3.49616325 L4,3.59462406 L4,4.29677847 L3.0030303,4.24780838 L2.99696969,3.49616325 Z M2,5.79902707 L2.99696969,5.75020559 L2.99696969,6.50155303 L2,6.59927029 L2,5.79902707 Z M2,7.39951353 L2,9 L4,8.50970499 L4,6.40324173 L3.0030303,6.500959 L3.0030303,7.25200921 L2,7.39951353 Z" id="形状"></path>
                </g>
            </g>
        </g>
    </g>
</svg>