<?xml version="1.0" encoding="UTF-8"?>
<svg width="35px" height="33px" viewBox="0 0 35 33" version="1.1" xmlns="http://www.w3.org/2000/svg" xmlns:xlink="http://www.w3.org/1999/xlink">
    <!-- Generator: Sketch 63.1 (92452) - https://sketch.com -->
    <title>s</title>
    <desc>Created with Sketch.</desc>
    <g id="2021.8.5修改✅" stroke="none" stroke-width="1" fill="none" fill-rule="evenodd">
        <g id="项目主页-切换到树-选中" transform="translate(-372.000000, -217.000000)" fill="#FFFFFF">
            <g id="编组-6" transform="translate(22.000000, 195.000000)">
                <path d="M372.989331,37.7565927 C372.989331,37.7565927 361.729974,36.2705033 361.729974,30.3246147 C361.729974,27.3515495 363.982075,25.8645335 367.641131,25.8645335 C371.301106,25.8645335 372.7081,27.6486385 372.989331,28.2430984 C373.270906,28.8374375 373.552289,29.4320989 373.83352,30.3246147 L378.0563,29.4320989 C377.774916,28.2430984 377.493647,27.0533326 376.929962,26.1619045 C376.366851,25.2701944 373.833367,22 367.640979,22 C361.448437,22 357.225963,25.8645335 357.225963,30.6217036 C357.225963,35.3779875 360.885785,37.4593426 360.885785,37.4593426 L350,37.4593426 L350,40.4322466 L369.04889,40.4322466 C369.04889,40.4322466 374.115095,41.3238358 374.115095,45.7837961 C374.115095,49.9457006 371.018958,51.1353456 367.359595,51.1353456 C362.292626,51.1353456 360.323018,47.2700467 359.759295,45.7837961 L355.537433,46.6753853 C356.381621,49.6484908 358.352339,55 367.078326,55 C377.493494,55 378.056147,46.9727966 378.056147,45.4867071 C378.056147,41.6212471 376.366851,40.1348757 376.366851,40.1348757 L385,40.1348757 L385,37.7564316 L372.989331,37.7564316 L372.989331,37.7565927 Z" id="s"></path>
            </g>
        </g>
    </g>
</svg>