<?xml version="1.0" encoding="UTF-8"?>
<svg width="35px" height="34px" viewBox="0 0 35 34" version="1.1" xmlns="http://www.w3.org/2000/svg" xmlns:xlink="http://www.w3.org/1999/xlink">
    <!-- Generator: Sketch 63.1 (92452) - https://sketch.com -->
    <title>取消设定任务</title>
    <desc>Created with Sketch.</desc>
    <g id="2021.8.5修改✅" stroke="none" stroke-width="1" fill="none" fill-rule="evenodd">
        <g id="项目主页-切换到树-选中" transform="translate(-297.000000, -216.000000)" fill="#FFFFFF" fill-rule="nonzero">
            <g id="编组-6" transform="translate(22.000000, 195.000000)">
                <path d="M303.53425,21 L309.794959,29.5143655 C309.929944,29.7269459 310.00105,29.9734236 309.999988,30.2248062 L309.999988,55 L275.000026,55 L275.000026,30.2248062 C274.998451,29.9740624 275.06852,29.7268012 275.203404,29.5143655 L281.507906,21 L303.53425,21 Z M307.08327,31.6752893 L277.916845,31.6752893 L277.916845,52.1007752 L307.08327,52.1007752 L307.08327,31.6752893 Z M302.79914,36.0312053 C303.378141,36.609738 303.378141,37.5470507 302.79914,38.1255835 L292.407207,48.4988099 C292.116955,48.7873288 291.736469,48.9323357 291.357487,48.9323357 C290.977001,48.9323357 290.598019,48.7873288 290.307766,48.4988099 L284.368875,42.5714655 C283.789874,41.9929328 283.789874,41.0541251 284.368875,40.4755924 C284.949379,39.8970597 285.889315,39.8970597 286.468316,40.4755924 L291.357487,45.3550002 L300.699699,36.0312053 C301.2787,35.4511776 302.218636,35.4511776 302.79914,36.0312053 Z M301.024011,23.8992248 L283.130015,23.8992248 L278.966135,28.7760645 L306.033979,28.7760645 L301.024011,23.8992248 Z" id="取消设定任务"></path>
            </g>
        </g>
    </g>
</svg>