<?xml version="1.0" encoding="UTF-8"?>
<svg width="37px" height="37px" viewBox="0 0 37 37" version="1.1" xmlns="http://www.w3.org/2000/svg" xmlns:xlink="http://www.w3.org/1999/xlink">
    <!-- Generator: Sketch 63.1 (92452) - https://sketch.com -->
    <title>频道选择</title>
    <desc>Created with Sketch.</desc>
    <g id="2021.8.5修改✅" stroke="none" stroke-width="1" fill="none" fill-rule="evenodd">
        <g id="项目主页-切换到树-选中" transform="translate(-666.000000, -212.000000)">
            <g id="编组-6" transform="translate(22.000000, 195.000000)">
                <g id="频道选择" transform="translate(644.000000, 17.000000)">
                    <circle id="椭圆形" stroke="#FFFFFF" stroke-width="0.8" cx="18.496" cy="18.496" r="18.096"></circle>
                    <g id="默认头像" transform="translate(7.360000, 8.128000)" fill="#FFFFFF" fill-rule="nonzero">
                        <g id="群-(1)">
                            <path d="M20.7171776,12.3786356 C19.2935619,11.6196641 17.7016085,11.0725661 17.6987061,10.1815366 C17.6943525,8.95092897 19.5736413,7.79723433 19.563483,4.78311639 C19.5605806,3.72229779 19.04686,-0.013060694 15.0735066,-3.41647723e-05 C14.0475165,0.00435356467 13.2595213,0.267018633 12.6456687,0.667546583 C15.3680978,1.59195348 15.7758817,4.633644 15.7802353,5.60884249 C15.7903936,8.90013738 13.7384134,10.1583176 13.7442182,11.5021179 C13.7471206,12.474414 15.4841929,13.0723035 17.0384154,13.900932 C18.4097883,14.6381356 19.826148,15.2360252 19.7855148,16.8120156 L19.7840636,16.8410393 L21.3586028,16.8352346 C22.5427724,16.8323322 23.2378915,16.0646536 23.233538,15.0459195 C23.2712689,13.6019872 21.9739066,13.0548893 20.7171776,12.3800867 L20.7171776,12.3786356 Z" id="路径"></path>
                            <path d="M15.1184934,14.6599034 C13.5584661,13.8182143 11.8170402,13.2116176 11.8141378,12.2233584 C11.8097843,10.8592415 13.866118,9.58074465 13.8559597,6.23865817 C13.8516061,5.06174453 13.2899963,0.921504522 8.93933397,0.935978351 C4.63365851,0.950528287 4.05173203,5.14155988 4.0560856,6.2720355 C4.06624392,9.56623277 6.13128476,10.8781069 6.13563832,12.2422239 C6.1385407,13.230483 4.40001721,13.8486892 2.84579462,14.7019879 C1.47442175,15.5073974 0.0101728295,16.0762631 0.0159603795,17.6769238 C0.0188799588,18.8073994 0.683524165,19.621516 2.08246961,19.6461862 L15.8208685,19.6011993 C17.119682,19.598297 17.8801046,18.7464495 17.8757511,17.6159739 C17.9163843,16.0153132 16.4942199,15.4087166 15.1184934,14.6599034 Z" id="路径"></path>
                        </g>
                    </g>
                </g>
            </g>
        </g>
    </g>
</svg>