<?xml version="1.0" encoding="UTF-8"?>
<svg width="32px" height="39px" viewBox="0 0 32 39" version="1.1" xmlns="http://www.w3.org/2000/svg" xmlns:xlink="http://www.w3.org/1999/xlink">
    <!-- Generator: Sketch 63.1 (92452) - https://sketch.com -->
    <title>任务归档</title>
    <desc>Created with Sketch.</desc>
    <g id="2021.8.5修改✅" stroke="none" stroke-width="1" fill="none" fill-rule="evenodd">
        <g id="项目主页-切换到树-选中" transform="translate(-222.000000, -214.000000)" fill="#FFFFFF" fill-rule="nonzero">
            <g id="编组-6" transform="translate(22.000000, 195.000000)">
                <g id="任务归档" transform="translate(201.000000, 20.000000)">
                    <path d="M28.5377126,8.30767104 C27.5744632,7.02612402 26.5188139,5.81671072 25.3792051,4.68910081 C24.2515627,3.54681028 23.0421692,2.48822138 21.7606349,1.52174591 C19.8849946,0.150405134 18.9737165,-5.39399371e-05 18.4605696,-5.39399371e-05 L2.94230017,-5.39399371e-05 C2.16878258,-0.00470585513 1.42520387,0.298671878 0.8757499,0.843145891 C0.326295933,1.38761991 0.0161608399,2.12840569 0.0138239862,2.90193407 L0.0138239862,34.2569779 C0.0161608399,35.0305063 0.326295933,35.7712921 0.8757499,36.3157661 C1.42520387,36.8602401 2.16878258,37.1636179 2.94230017,37.1589659 L27.1663718,37.1589659 C27.9398894,37.1636179 28.6834681,36.8602401 29.2329221,36.3157661 C29.7823761,35.7712921 30.0925112,35.0305063 30.094848,34.2569779 L30.094848,11.6077363 C30.094848,11.0857421 29.9355955,10.1833113 28.5642547,8.30767104 L28.5377126,8.30767104 Z M20.4158362,2.33570304 C21.7754709,3.40389871 23.0667711,4.55631768 24.2821325,5.78617344 C25.5117532,7.00175826 26.6641586,8.29304335 27.7326029,9.65246977 L20.4158362,9.65246977 L20.4158362,2.33570304 Z M28.422697,35.0090035 C28.4179422,35.3441663 28.147392,35.6147166 27.8122291,35.6194714 L2.29644287,35.6194714 C1.96128004,35.6147166 1.69072982,35.3441663 1.68597503,35.0090035 L1.68597503,2.14106113 C1.69072982,1.80589831 1.96128004,1.53534808 2.29644287,1.53059329 L18.6817536,1.53059329 L18.6817536,10.050601 C18.6817536,10.3744132 18.8103875,10.684963 19.0393574,10.9139329 C19.2683273,11.1429027 19.578877,11.2715367 19.9026893,11.2715367 L28.422697,11.2715367 L28.422697,35.0178509 L28.422697,35.0090035 Z" id="形状" stroke="#FFFFFF" stroke-width="0.864"></path>
                    <path d="M9.13545216,7.13097217 L12.0462336,7.13097217 L12.0462336,10.0417536 L9.13545216,10.0417536 L9.13545216,7.13097217 Z M6.20697601,10.0417536 L9.11775743,10.0417536 L9.11775743,12.952535 L6.20697601,12.952535 L6.20697601,10.0417536 Z M6.20697601,4.22019072 L9.11775743,4.22019072 L9.11775743,7.13097217 L6.20697601,7.13097217 L6.20697601,4.22019072 Z M6.20697601,15.8544691 L9.11775743,15.8544691 L9.11775743,18.7652506 L6.20697601,18.7652506 L6.20697601,15.8544691 Z M9.11775743,18.7652506 L12.0462336,18.7652506 L12.0462336,21.676032 L9.13545216,21.676032 L9.11775743,18.7652506 Z M9.11775743,12.9436877 L12.0462336,12.9436877 L12.0462336,15.8544691 L9.13545216,15.8544691 L9.11775743,12.9436877 Z M6.20697601,21.676032 L9.11775743,21.676032 L9.11775743,24.5868134 L6.20697601,24.5868134 L6.20697601,21.676032 Z M6.20697601,27.4975949 L6.20697601,33.3191577 L12.0462336,33.3191577 L12.0462336,24.5868134 L9.13545216,24.5868134 L9.13545216,27.4975949" id="形状"></path>
                </g>
            </g>
        </g>
    </g>
</svg>