<?xml version="1.0" encoding="UTF-8"?>
<svg width="35px" height="31px" viewBox="0 0 35 31" version="1.1" xmlns="http://www.w3.org/2000/svg" xmlns:xlink="http://www.w3.org/1999/xlink">
    <!-- Generator: Sketch 59 (86127) - https://sketch.com -->
    <title>心 黑</title>
    <desc>Created with Sketch.</desc>
    <g id="客服系统" stroke="none" stroke-width="1" fill="none" fill-rule="evenodd">
        <path d="M24.9900641,0 C21.9740519,0 19.13134,1.35234495 17.234515,3.55037038 C15.3376861,1.3523026 12.4950513,0 9.47896592,0 C4.13526872,0 0,4.05699634 0,9.29805008 C0,15.7223142 5.85876257,20.8783579 14.735189,28.8240631 L17.2345342,31.0221693 L19.7338795,28.8240631 C28.6103829,20.8783964 34.469107,15.7223527 34.469107,9.29805008 C34.469107,4.05699634 30.3338383,0 24.9901026,0 L24.9901026,0 L24.9900641,0 Z M18.298257,26.5999032 L17.9481643,26.9129615 L17.2345458,27.5407345 L16.5209658,26.9129615 L16.1725671,26.5999032 C11.9935229,22.8610092 8.38671782,19.6320445 6.00016106,16.7447447 C3.68425349,13.9399063 2.65083865,11.6433339 2.65083865,9.29801158 C2.65083865,7.45082581 3.34933011,5.74929289 4.61665347,4.50634062 C5.8789717,3.2676196 7.60579588,2.58508677 9.47901213,2.58508677 C11.6450895,2.58508677 13.785995,3.56803461 15.206525,5.21409155 L17.2345882,7.56699465 L19.2627321,5.21409155 C20.6832352,3.56803461 22.824056,2.58508677 24.9901295,2.58508677 C26.8633958,2.58508677 28.5902239,3.26762345 29.8524882,4.50634062 C31.11985,5.74927749 31.818303,7.45080656 31.818303,9.29801158 C31.818303,11.6433108 30.7848882,13.9398755 28.4690191,16.7447447 C26.0823545,19.6320445 22.4755418,22.8610015 18.2981916,26.5999032 L18.2981916,26.5999032 L18.298257,26.5999032 Z" id="心-黑" fill="#000000" fill-rule="nonzero"></path>
    </g>
</svg>