<?xml version="1.0" encoding="UTF-8"?>
<svg width="18px" height="21px" viewBox="0 0 18 21" version="1.1" xmlns="http://www.w3.org/2000/svg" xmlns:xlink="http://www.w3.org/1999/xlink">
    <!-- Generator: Sketch 63.1 (92452) - https://sketch.com -->
    <title>铃铛-灰色@1x</title>
    <desc>Created with Sketch.</desc>
    <g id="新版定稿（20202-8-22）" stroke="none" stroke-width="1" fill="none" fill-rule="evenodd">
        <g id="项目-设置" transform="translate(-759.000000, -183.000000)" fill="#C3C3C3" fill-rule="nonzero">
            <path d="M767.709959,183 C768.089306,183 768.406584,183.29697 768.443001,183.686078 L768.446438,183.758936 L768.446438,184.050873 C771.758626,184.416175 774.338264,187.305697 774.338264,190.816029 L774.338264,196.463525 C774.78948,197.515916 775.45722,198.330508 776.227577,198.784857 C776.883533,199.170903 776.617419,200.20255 775.862284,200.20255 L770.891546,200.20255 C770.764105,201.916373 769.377454,203.24 767.709468,203.24 C766.041483,203.24 764.654832,201.916373 764.527391,200.20255 L759.737827,200.20255 C758.982691,200.20255 758.716577,199.171409 759.372043,198.784857 C760.027508,198.399318 760.609326,197.751692 761.047285,196.916357 L761.132717,196.746355 L761.132717,190.817041 C761.132717,187.324417 763.685842,184.447038 766.97299,184.057451 L766.973481,183.758936 C766.973481,183.339787 767.303214,183 767.709959,183 Z M769.411224,200.20255 L766.008694,200.20255 C766.129366,201.07524 766.854539,201.723591 767.709959,201.723591 C768.56538,201.723591 769.290552,201.07524 769.411224,200.20255 L769.411224,200.20255 Z M767.87444,185.531811 L767.707504,185.529787 L767.596542,185.531811 C764.827383,185.607704 762.605674,187.944215 762.605674,190.816029 L762.605674,196.92091 C762.60567,197.032313 762.581866,197.142349 762.535954,197.243205 C762.304344,197.756396 762.015674,198.240128 761.675747,198.684678 L773.923873,198.683666 C773.526174,198.167589 773.187394,197.570054 772.921771,196.910285 C772.884497,196.817925 772.865308,196.718883 772.865308,196.618854 L772.865308,190.815523 C772.865308,187.943709 770.643107,185.607198 767.87444,185.531305 L767.87444,185.531811 Z" id="铃铛-灰色"></path>
        </g>
    </g>
</svg>