<?xml version="1.0" encoding="UTF-8"?>
<svg width="16px" height="22px" viewBox="0 0 16 22" version="1.1" xmlns="http://www.w3.org/2000/svg" xmlns:xlink="http://www.w3.org/1999/xlink">
    <!-- Generator: Sketch 63.1 (92452) - https://sketch.com -->
    <title>解压缩-黑色@1x</title>
    <desc>Created with Sketch.</desc>
    <g id="新版定稿（20202-8-22）" stroke="none" stroke-width="1" fill="none" fill-rule="evenodd">
        <g id="项目-设置" transform="translate(-689.000000, -219.000000)">
            <g id="解压缩-黑色" transform="translate(690.000000, 219.000000)">
                <polygon id="路径备份" fill="#333333" fill-rule="nonzero" points="9 4 9 5.23566448 13.6663812 5.23566448 13.6663812 6.03373059 9 6.03373059 9 7.31976614 13.6663812 7.31976614 13.6663812 8.11783225 9 8.11783225 9 9.37868226 13.6663812 9.37868226 13.6663812 10.1767484 9 10.1767484 9 11.4375984 13.6663812 11.4375984 13.6663812 12.2356645 9 12.2356645 9 13.4965145 13.6663812 13.4965145 13.6663812 14.2945806 9 14.2945806 9 15.5554306 13.6663812 15.5554306 13.6663812 16.3519226 9 16.3519226 9 18 15 18 15 4"></polygon>
                <path d="M6.68319999,1.11951539 L1.70272001,0.336453166 C1.25508251,0.244945257 0.824770756,0.332403871 0.506799711,0.582473081 C0.188828665,0.836242509 0.00935233793,1.231954 0.007999992,1.67935999 L0.007999992,19.82464 C0.00935233793,20.272046 0.188828665,20.6677575 0.506799711,20.9215269 C0.824770756,21.1715961 1.25508251,21.2590547 1.70272001,21.1675468 L9.72127999,18.3841806 C10.1689175,18.2971915 10.5992292,18.0899556 10.9172003,17.8111347 C11.2351713,17.5360141 11.4146477,17.2121425 11.416,16.9081601 L11.416,8.01438479 C11.416,7.80941106 6.98016001,1.17847641 6.68319999,1.11951539 Z" id="路径" stroke="#333333" stroke-width="0.5" fill="#333333" fill-rule="nonzero"></path>
                <path d="M10.44832,17.3733599 C10.4455684,17.5089286 10.289,17.6464752 10.09504,17.683719 L1.32895999,20.3725772 C1.13500002,20.4052024 0.978431606,20.2799424 0.975679992,20.0899413 L0.975679992,1.4090302 C0.978431606,1.21902939 1.13500002,1.09378418 1.32895999,1.12642769 L6.81120001,1.85401122 L7.81120001,6.80095631 C7.81120001,6.95096431 7.88564094,7.1011085 8.01814664,7.2178525 C8.15065234,7.33394806 8.33036864,7.40710693 8.51776001,7.42174137 L10.44832,7.8067963 L10.44832,17.3769255 L10.44832,17.3733599 Z" id="路径" fill="#FFFFFF"></path>
                <path d="M5.28672,4.19852005 L6.97120001,4.61005835 L6.97120001,6.0880653 L5.28672,5.77945068 L5.28672,4.19852005 Z M3.59200001,5.46895999 L5.27647999,5.77757461 L5.27647999,7.35913094 L3.59200001,7.15344 L3.59200001,5.46895999 Z M3.59200001,2.1 L5.27647999,2.61446197 L5.27647999,4.1960183 L3.59200001,3.78448001 L3.59200001,2.1 Z M3.59200001,8.83279999 L5.27647999,8.93588009 L5.27647999,10.5174364 L3.59200001,10.51728 L3.59200001,8.83279999 Z M5.27647999,10.5174364 L6.97120001,10.5175938 L6.97120001,11.9956008 L5.28672,12.098368 L5.27647999,10.5174364 Z M5.27647999,7.35432378 L6.97120001,7.56157986 L6.97120001,9.03958681 L5.28672,8.93650672 L5.27647999,7.35432378 Z M3.59200001,12.20176 L5.27647999,12.0989927 L5.27647999,13.6805491 L3.59200001,13.88624 L3.59200001,12.20176 Z M3.59200001,15.57072 L3.59200001,18.93968 L6.97120001,17.9076286 L6.97120001,13.4736077 L5.28672,13.6792987 L5.28672,15.2602293 L3.59200001,15.57072 Z" id="形状" fill="#333333" fill-rule="nonzero"></path>
            </g>
        </g>
    </g>
</svg>