<?xml version="1.0" encoding="UTF-8"?>
<svg width="68px" height="80px" viewBox="0 0 68 80" version="1.1" xmlns="http://www.w3.org/2000/svg" xmlns:xlink="http://www.w3.org/1999/xlink">
    <!-- Generator: Sketch 63.1 (92452) - https://sketch.com -->
    <title>压缩包-白色@1x</title>
    <desc>Created with Sketch.</desc>
    <g id="新版定稿（20202-8-22）" stroke="none" stroke-width="1" fill="none" fill-rule="evenodd">
        <g id="切图" transform="translate(-264.000000, -880.000000)" fill-rule="nonzero">
            <g id="压缩包-白色" transform="translate(264.000000, 880.000000)">
                <path d="M67.2380837,22.0057554 L67.2380837,71.1127465 C67.2232795,73.4846154 66.2668364,75.7534525 64.579171,77.4201158 C62.8915056,79.0867792 60.6108699,80.0147372 58.2390016,80.0003576 L9.04450898,80.0003576 C6.67264068,80.0147372 4.39200502,79.0867792 2.70433963,77.4201158 C1.01667423,75.7534525 0.0602311618,73.4846154 0.0454269531,71.1127465 L0.0454269531,8.89509273 C0.0602311618,6.52322385 1.01667423,4.25438676 2.70433963,2.58772341 C4.39200502,0.921060065 6.67264068,-0.00689795201 9.04450898,0.00748157471 L47.3683552,0.00748157471 L67.2380837,22.0057554 Z" id="路径" fill="#FFFFFF"></path>
                <path d="M67.2380837,22.0057554 L67.2380837,71.1127465 C67.2232795,73.4846154 66.2668364,75.7534525 64.579171,77.4201158 C62.8915056,79.0867792 60.6108699,80.0147372 58.2390016,79.99984 C47.1603033,80.0004022 38.8512796,80.0006832 33.3119305,80.0006832 L33.1897793,0.00715598099 C36.3405739,0.00715598099 41.0667659,0.00743706024 47.3683552,0.00799921875 L67.2380837,22.0057554 Z" id="路径" fill="#EBEBEB"></path>
                <path d="M47.5403377,0 L67.2380837,21.4658105 L56.4674271,21.4658105 C51.6091507,21.5370227 47.6126978,17.656954 47.5403377,12.7986945 L47.5403377,0 Z" id="路径" fill="#FFFFFF"></path>
                <path d="M27.7183595,0.00799921875 L33.0978108,0.00799921875 L33.0978108,5.23546602 L27.7183595,5.23546602 L27.7183595,0.00799921875 Z M33.0738132,5.23546602 L38.4532645,5.23546602 L38.4532645,10.4629328 L33.0738132,10.4629328 L33.0738132,5.23546602 Z" id="形状" fill="#B2B2B2"></path>
                <path d="M27.7183595,10.4389352 L33.0978108,10.4389352 L33.0978108,15.666402 L27.7183595,15.666402 L27.7183595,10.4389352 Z M33.0738132,15.666402 L38.4532645,15.666402 L38.4532645,20.8938688 L33.0738132,20.8938688 L33.0738132,15.666402 Z" id="形状" fill="#B2B2B2"></path>
                <path d="M27.7183595,21.5138056 L33.0978108,21.5138056 L33.0978108,26.7412724 L27.7183595,26.7412724 L27.7183595,21.5138056 Z M33.0738132,26.7412724 L38.4532645,26.7412724 L38.4532645,31.96074 L33.0738132,31.96074 L33.0738132,26.7412724 Z M27.7183595,31.96074 L33.0978108,31.96074 L33.0978108,37.1882068 L27.7183595,37.1882068 L27.7183595,31.96074 Z" id="形状" fill="#B2B2B2"></path>
                <path d="M33.0738132,37.8321411 L38.4532645,37.8321411 L38.4532645,43.0596079 L33.0738132,43.0596079 L33.0738132,37.8321411 Z M27.7183595,49.0309988 L27.7183595,59.4299381 C27.7278356,60.1307622 28.0156356,60.7990472 28.5183147,61.2874712 C29.0209937,61.7758952 29.6972794,62.0443562 30.3980862,62.0336726 L35.8655285,62.0336726 C36.5663352,62.0443561 37.2426209,61.7758951 37.7453,61.2874712 C38.247979,60.7990472 38.535779,60.1307622 38.5452552,59.4299381 L38.5452552,49.0309988 L27.7183595,49.0309988 Z M35.8655285,59.4299381 L30.3980862,59.4299381 L30.3980862,54.2024713 L35.8655285,54.2024713 L35.8655285,59.4299381 Z" id="形状" fill="#B2B2B2"></path>
            </g>
        </g>
    </g>
</svg>