<?xml version="1.0" encoding="UTF-8"?>
<svg width="18px" height="16px" viewBox="0 0 18 16" version="1.1" xmlns="http://www.w3.org/2000/svg" xmlns:xlink="http://www.w3.org/1999/xlink">
    <!-- Generator: Sketch 59 (86127) - https://sketch.com -->
    <title>形状结合备份 2</title>
    <desc>Created with Sketch.</desc>
    <g id="切图" stroke="none" stroke-width="1" fill="none" fill-rule="evenodd">
        <path d="M5.85012509,7.30337374e-06 C5.96976481,-0.000673697228 6.08473826,0.0462948335 6.1696488,0.130516906 L6.1696488,0.130516906 L8.61752011,2.58290148 L15.8405764,2.58290148 C17.0580099,2.60799216 18.0246131,3.6152912 17.9995224,4.8328012 L17.9995224,4.8328012 L17.9995224,13.0503052 C18.0240776,14.2677387 17.0570919,15.2746552 15.8396584,15.2992105 L15.8396584,15.2992105 L2.15942362,15.2992105 C0.941990125,15.2741198 -0.024613059,14.2668207 0.000477621947,13.0493107 L0.000477621947,13.0493107 L0.000477621947,2.24991449 C0.000477621947,1.00739031 1.00777667,7.30337374e-06 2.25037734,7.30337374e-06 L2.25037734,7.30337374e-06 Z M5.47667173,0.89998249 L2.25037734,0.89998249 C1.50484753,0.89998249 0.900452809,1.50438468 0.900452809,2.24991449 L0.900452809,2.24991449 L0.900452809,13.0493107 C0.877657007,13.7692909 1.44059091,14.3723852 2.16034157,14.3992353 L2.16034157,14.3992353 L15.8396584,14.3992353 C16.5594091,14.3723852 17.122343,13.7692909 17.0995472,13.0493107 L17.0995472,13.0493107 L17.0995472,4.8328012 C17.122343,4.11289754 16.5594091,3.50972675 15.8396584,3.48287667 L15.8396584,3.48287667 L8.24850351,3.48287667 L5.79619543,1.03049209 C5.7112084,0.94627002 5.59631144,0.899301489 5.47667173,0.89998249 L5.47667173,0.89998249 Z M5.02500122,3.90996136 C5.51319856,3.90996136 5.90898875,4.30567506 5.90898875,4.79387239 C5.90898875,5.13143321 5.71976385,5.42481474 5.44160487,5.57372614 L5.44109019,7.78496136 L12.4856515,7.78459467 C12.6301575,7.49311935 12.9307285,7.29273592 13.2780452,7.29273592 C13.7662426,7.29273592 14.1620328,7.68852612 14.1620328,8.17672345 C14.1620328,8.66492079 13.7662426,9.06071098 13.2780452,9.06071098 C12.9236883,9.06071098 12.6179914,8.85212157 12.4770572,8.551016 L5.44109019,8.54996136 L5.44149123,10.9547285 C5.44149123,11.2319499 5.66707787,11.4575365 5.94429929,11.4575365 L12.4266114,11.457299 C12.5306129,11.0848166 12.8724551,10.8115509 13.2780452,10.8115509 C13.7662426,10.8115509 14.1620328,11.2073411 14.1620328,11.6955385 C14.1620328,12.1837358 13.7662426,12.579526 13.2780452,12.579526 C12.987737,12.579526 12.7300882,12.4395256 12.5689396,12.2233494 L5.94429929,12.2224963 C5.24527904,12.2224963 4.67653144,11.6537487 4.67653144,10.9547285 L4.67588826,5.60622359 C4.36134998,5.47083139 4.14109019,5.15806448 4.14109019,4.79387239 C4.14109019,4.30567506 4.53688038,3.90996136 5.02500122,3.90996136 Z" id="形状结合备份-2" fill="#555555"></path>
    </g>
</svg>