<?xml version="1.0" encoding="UTF-8"?>
<svg width="37px" height="37px" viewBox="0 0 37 37" version="1.1" xmlns="http://www.w3.org/2000/svg" xmlns:xlink="http://www.w3.org/1999/xlink">
    <!-- Generator: Sketch 63.1 (92452) - https://sketch.com -->
    <title>频道选择-不可点击</title>
    <desc>Created with Sketch.</desc>
    <g id="2021.8.5修改✅" stroke="none" stroke-width="1" fill="none" fill-rule="evenodd">
        <g id="项目主页-切换到树-默认" transform="translate(-666.000000, -212.000000)">
            <g id="编组-6" transform="translate(22.000000, 195.000000)">
                <g id="频道选择-不可点击" transform="translate(644.000000, 17.000000)">
                    <circle id="椭圆形" stroke="#999999" stroke-width="0.8" cx="18.496" cy="18.496" r="18.096"></circle>
                    <path d="M28.0771776,20.5066356 C26.6535619,19.7476641 25.0616085,19.2005661 25.0587061,18.3095366 C25.0543525,17.078929 26.9336413,15.9252343 26.923483,12.9111164 C26.9205806,11.8502978 26.40686,8.11493931 22.4335066,8.12796584 C21.4075165,8.13235356 20.6195213,8.39501863 20.0056687,8.79554658 C22.7280978,9.71995348 23.1358817,12.761644 23.1402353,13.7368425 C23.1503936,17.0281374 21.0984134,18.2863176 21.1042182,19.6301179 C21.1071206,20.602414 22.8441929,21.2003035 24.3984154,22.028932 C25.7697883,22.7661356 27.186148,23.3640252 27.1455148,24.9400156 L27.1440636,24.9690393 L28.7186028,24.9632346 C29.9027724,24.9603322 30.5978915,24.1926536 30.593538,23.1739195 C30.6312689,21.7299872 29.3339066,21.1828893 28.0771776,20.5080867 L28.0771776,20.5066356 Z" id="路径" fill="#999999" fill-rule="nonzero"></path>
                    <path d="M22.4784934,22.7879034 C20.9184661,21.9462143 19.1770402,21.3396176 19.1741378,20.3513584 C19.1697843,18.9872415 21.226118,17.7087447 21.2159597,14.3666582 C21.2116061,13.1897445 20.6499963,9.04950452 16.299334,9.06397835 C11.9936585,9.07852829 11.411732,13.2695599 11.4160856,14.4000355 C11.4262439,17.6942328 13.4912848,19.0061069 13.4956383,20.3702239 C13.4985407,21.358483 11.7600172,21.9766892 10.2057946,22.8299879 C8.83442175,23.6353974 7.37017283,24.2042631 7.37596038,25.8049238 C7.37887996,26.9353994 8.04352417,27.749516 9.44246961,27.7741862 L23.1808685,27.7291993 C24.479682,27.726297 25.2401046,26.8744495 25.2357511,25.7439739 C25.2763843,24.1433132 23.8542199,23.5367166 22.4784934,22.7879034 Z" id="路径" fill="#999999" fill-rule="nonzero"></path>
                </g>
            </g>
        </g>
    </g>
</svg>