<?xml version="1.0" encoding="UTF-8"?>
<svg width="34px" height="34px" viewBox="0 0 34 34" version="1.1" xmlns="http://www.w3.org/2000/svg" xmlns:xlink="http://www.w3.org/1999/xlink">
    <!-- Generator: Sketch 63.1 (92452) - https://sketch.com -->
    <title>删除-不可点击</title>
    <desc>Created with Sketch.</desc>
    <g id="2021.8.5修改✅" stroke="none" stroke-width="1" fill="none" fill-rule="evenodd">
        <g id="项目主页-切换到树-默认" transform="translate(-603.000000, -213.000000)" fill="#999999" fill-rule="nonzero">
            <g id="编组-6" transform="translate(22.000000, 195.000000)">
                <g id="删除-不可点击" transform="translate(581.000000, 18.000000)">
                    <path d="M1.422675,6.152439 L4.6704,6.152439 L6.182313,32.787177 C6.212694,33.341016 6.672348,33.774501 7.22724,33.774501 L27.05016,33.774501 C27.605091,33.774501 28.064745,33.340002 28.095087,32.786163 L29.582859,6.1524 L32.832768,6.1524 C33.411762,6.1524 33.87984,5.683347 33.87984,5.105445 C33.87984,4.527465 33.411762,4.058412 32.832768,4.058412 L24.633564,4.058412 L24.122313,1.318428 C24.122313,0.740448 23.654313,0.271356 23.075202,0.271356 L11.179071,0.271356 C10.600077,0.271356 10.132077,0.740448 10.132077,1.318428 L9.620826,4.058412 L1.42365,4.058412 C0.844617,4.058412 0.376617,4.527465 0.376617,5.105445 C0.376617,5.683386 0.843603,6.152439 1.422636,6.152439 L1.422675,6.152439 Z M12.226104,2.3655 L22.028286,2.3655 L22.539498,4.058529 L11.714892,4.058529 L12.226143,2.3655 L12.226104,2.3655 Z M27.485712,6.152439 L26.059755,31.681566 L8.216631,31.681566 L6.767547,6.152439 L27.485712,6.152439 L27.485712,6.152439 Z M11.942925,29.718423 C11.963907,29.718423 11.982705,29.718423 12.003648,29.717409 C12.581589,29.684961 13.022367,29.1897 12.988905,28.612734 L11.887467,9.206568 C11.85498,8.628627 11.346147,8.194089 10.782831,8.220297 C10.204929,8.252784 9.764073,8.747967 9.797574,9.324894 L10.899051,28.73106 C10.930446,29.288097 11.392206,29.718423 11.942925,29.718423 Z M22.214004,29.717448 C22.235025,29.718462 22.253862,29.718462 22.274727,29.718462 C22.825446,29.718462 23.287206,29.288175 23.31864,28.731099 L24.420078,9.324933 C24.452565,8.748045 24.011787,8.252862 23.43486,8.220336 C22.866279,8.196234 22.363725,8.628666 22.330224,9.206607 L21.228786,28.612773 C21.196299,29.189739 21.637116,29.684961 22.213965,29.717448 L22.214004,29.717448 Z M17.127741,29.718423 C17.706774,29.718423 18.174774,29.249409 18.174774,28.671429 L18.174774,9.265224 C18.174774,8.687322 17.706774,8.218191 17.127741,8.218191 C16.548747,8.218191 16.080747,8.687322 16.080747,9.265224 L16.080747,28.671429 C16.080747,29.249409 16.548747,29.718423 17.127741,29.718423 Z" id="形状"></path>
                </g>
            </g>
        </g>
    </g>
</svg>