<?xml version="1.0" encoding="UTF-8"?>
<svg width="35px" height="34px" viewBox="0 0 35 34" version="1.1" xmlns="http://www.w3.org/2000/svg" xmlns:xlink="http://www.w3.org/1999/xlink">
    <!-- Generator: Sketch 63.1 (92452) - https://sketch.com -->
    <title>取消设定任务</title>
    <desc>Created with Sketch.</desc>
    <g id="2021.8.5修改✅" stroke="none" stroke-width="1" fill="none" fill-rule="evenodd">
        <g id="项目主页-切换到树-默认" transform="translate(-297.000000, -216.000000)" fill="#999999" fill-rule="nonzero">
            <g id="编组-6" transform="translate(22.000000, 195.000000)">
                <g id="取消设定任务" transform="translate(275.000000, 21.000000)">
                    <path d="M34.9999883,34 L2.59932046e-05,34 L2.59932046e-05,9.2248062 C-0.00154949912,8.97406243 0.0685200038,8.72680121 0.203403757,8.51436553 L6.50790604,0 L28.53425,0 L34.7949589,8.51436553 C34.9299442,8.72694591 35.0010499,8.97342363 34.9999883,9.2248062 L34.9999883,34 Z M2.91684474,10.6752893 L2.91684474,31.1007752 L32.0832696,31.1007752 L32.0832696,10.6752893 L2.91684474,10.6752893 Z M3.96613533,7.77606446 L31.033979,7.77606446 L26.0240105,2.89922481 L8.13001474,2.89922481 L3.96613533,7.77606446 Z" id="形状"></path>
                    <path d="M23.7995834,16.2046249 C24.0668055,15.9373804 24.0668055,15.4966751 23.7995834,15.2293435 L23.7707722,15.2004334 C23.5035501,14.9331889 23.0631124,14.9331889 22.7958032,15.2004334 L17.5027168,20.5030034 L12.2095433,15.2004334 C11.9423212,14.9331889 11.5017965,14.9331889 11.2346614,15.2004334 L11.2057631,15.2293435 C11.0742081,15.3574525 11,15.5333193 11,15.7169842 C11,15.9006491 11.0742081,16.0765159 11.2057631,16.2046249 L16.4989366,21.4999673 L11.2057631,26.7953969 C10.9386281,27.0626414 10.9386281,27.5034337 11.2057631,27.7705912 L11.2346614,27.7995013 C11.5017965,28.0668329 11.9423212,28.0668329 12.2095433,27.7995013 L17.5027168,22.5041588 L22.7958032,27.7995013 C23.0631124,28.0668329 23.5035501,28.0668329 23.7707722,27.7995013 L23.7995834,27.7705912 C24.0668055,27.5034337 24.0668055,27.0626414 23.7995834,26.7953969 L18.506497,21.4999673 L23.7995834,16.2046249 Z" id="关闭" stroke="#999999" stroke-width="0.6"></path>
                </g>
            </g>
        </g>
    </g>
</svg>