<?xml version="1.0" encoding="UTF-8"?>
<svg width="27px" height="20px" viewBox="0 0 27 20" version="1.1" xmlns="http://www.w3.org/2000/svg" xmlns:xlink="http://www.w3.org/1999/xlink">
    <!-- Generator: Sketch 63.1 (92452) - https://sketch.com -->
    <title>5任务-完成@1x</title>
    <desc>Created with Sketch.</desc>
    <g id="新版定稿" stroke="none" stroke-width="1" fill="none" fill-rule="evenodd">
        <g id="切图3" transform="translate(-188.000000, -329.000000)" fill="#333333" fill-rule="nonzero">
            <g id="5任务-完成" transform="translate(188.000000, 329.000000)">
                <path d="M26.0700458,3.510674 L10.9696454,18.5728729 C10.9409921,18.6015265 10.9362163,18.6397311 10.907563,18.6683845 C10.3631469,19.2128005 9.56084831,19.3321914 8.89704413,19.045655 C8.63916277,18.9501434 8.39560753,18.8116515 8.1902577,18.6063014 C8.12339948,18.5394432 8.09474612,18.4534829 8.03743912,18.3770734 L0.573206223,10.9367165 C-0.138355403,10.2251549 -0.138355403,9.06946446 0.573206223,8.36267802 C1.28476785,7.65111639 2.44523344,7.65111639 3.15679506,8.36267802 L9.43192234,14.623452 L23.3193134,0.769487227 C24.0786297,0.0101709242 25.3107315,0.0101709242 26.0700478,0.769487227 C26.8293641,1.52402834 26.8293641,2.75135492 26.0700478,3.51067122 L26.0700458,3.510674 Z" id="路径"></path>
            </g>
        </g>
    </g>
</svg>