<?xml version="1.0" encoding="UTF-8"?>
<svg width="18px" height="18px" viewBox="0 0 18 18" version="1.1" xmlns="http://www.w3.org/2000/svg" xmlns:xlink="http://www.w3.org/1999/xlink">
    <!-- Generator: Sketch 63.1 (92452) - https://sketch.com -->
    <title>加号-黑色@1x</title>
    <desc>Created with Sketch.</desc>
    <g id="新版定稿" stroke="none" stroke-width="1" fill="none" fill-rule="evenodd">
        <g id="切图3" transform="translate(-190.000000, -15.000000)" fill="#333333" fill-rule="nonzero" stroke="#333333">
            <path d="M206.165673,23.1657152 L199.834296,23.1657152 L199.834296,16.8343005 C199.834296,16.3735402 199.460756,16 199,16 C198.539228,16 198.165704,16.3735246 198.165704,16.8343005 L198.165704,23.1657152 L191.834296,23.1657152 C191.373524,23.1657152 191,23.5392398 191,24 C191,24.4607759 191.373524,24.8343318 191.834296,24.8343318 L198.165704,24.8343318 L198.165704,31.1657309 C198.165704,31.6264598 198.539228,32 199,32 C199.460756,32 199.834296,31.6264598 199.834296,31.1657309 L199.834296,24.8343318 L206.165673,24.8343318 C206.626476,24.8343318 207,24.4607759 207,24 C207,23.5392398 206.626476,23.1657152 206.165673,23.1657152 Z" id="加号-黑色"></path>
        </g>
    </g>
</svg>