<?xml version="1.0" encoding="UTF-8"?>
<svg width="25px" height="25px" viewBox="0 0 25 25" version="1.1" xmlns="http://www.w3.org/2000/svg" xmlns:xlink="http://www.w3.org/1999/xlink">
    <!-- Generator: Sketch 63.1 (92452) - https://sketch.com -->
    <title>15任务超时未完成@1x</title>
    <desc>Created with Sketch.</desc>
    <g id="新版定稿" stroke="none" stroke-width="1" fill="none" fill-rule="evenodd">
        <g id="切图3" transform="translate(-189.000000, -987.000000)" fill="#333333" fill-rule="nonzero">
            <path d="M207.6444,987.1272 L213.1728,991.7388 L211.6356,993.582 L206.106,988.9704 L207.6444,987.1272 L207.6444,987.1272 Z M194.8356,987.1272 L196.374,988.968 L190.8444,993.582 L189.3072,991.7388 L194.8356,987.126 L194.8356,987.1272 Z M201.24,989.7528 C197.381317,989.7528 193.815862,991.811795 191.886706,995.15362 C189.95755,998.495444 189.957779,1002.61261 191.887306,1005.95422 C193.816833,1009.29583 197.382517,1011.354 201.2412,1011.354 C207.206207,1011.354 212.0418,1006.51841 212.0418,1000.5534 C212.0418,994.588393 207.206207,989.7528 201.2412,989.7528 L201.24,989.7528 Z M201.24,1008.9528 C196.608,1008.9528 192.84,1005.1848 192.84,1000.5528 C192.84,995.9208 196.608,992.1528 201.24,992.1528 C205.872,992.1528 209.64,995.9208 209.64,1000.5528 C209.64,1005.1848 205.872,1008.9528 201.24,1008.9528 L201.24,1008.9528 Z M200.04,994.44 L202.44,994.44 L202.44,1001.64 L200.04,1001.64 L200.04,994.44 Z M200.04,1004.04 L202.44,1004.04 L202.44,1006.44 L200.04,1006.44 L200.04,1004.04 Z" id="15任务超时未完成"></path>
        </g>
    </g>
</svg>