<?xml version="1.0" encoding="UTF-8"?>
<svg width="28px" height="26px" viewBox="0 0 28 26" version="1.1" xmlns="http://www.w3.org/2000/svg" xmlns:xlink="http://www.w3.org/1999/xlink">
    <!-- Generator: Sketch 63.1 (92452) - https://sketch.com -->
    <title>19我被指派任务@1x</title>
    <desc>Created with Sketch.</desc>
    <g id="新版定稿" stroke="none" stroke-width="1" fill="none" fill-rule="evenodd">
        <g id="切图3" transform="translate(-107.000000, -1257.000000)" fill="#FFFFFF" fill-rule="nonzero" stroke="#FFFFFF" stroke-width="0.7">
            <path d="M109.632067,1281.85526 C109.591384,1281.85526 109.550701,1281.85234 109.507112,1281.84941 C108.981136,1281.79968 108.548151,1281.43399 108.402854,1280.92203 C107.763546,1278.64598 107.00219,1272.76279 113.738163,1267.31551 C113.86893,1267.20726 114.848233,1266.39982 116.495902,1265.63334 C117.928531,1264.96633 120.14867,1264.21154 122.883162,1264.17644 L122.883162,1259.41079 C122.883162,1258.81984 123.237687,1258.30495 123.784004,1258.09431 C124.330321,1257.88368 124.937662,1258.03288 125.327059,1258.4717 L133.425918,1267.6022 C134.065226,1268.32188 134.056508,1269.40139 133.408483,1270.11521 L125.315435,1278.99119 C124.923133,1279.42124 124.318697,1279.56459 123.775286,1279.35103 C123.231875,1279.13747 122.883162,1278.62258 122.883162,1278.03748 L122.883162,1273.57901 C122.005567,1273.58486 120.474136,1273.69018 118.748006,1274.22847 C115.19404,1275.33431 112.508949,1277.66302 110.76829,1281.15022 C110.547439,1281.58904 110.111547,1281.85526 109.632067,1281.85526 Z M123.074954,1265.93174 C120.593279,1265.93174 118.579462,1266.60753 117.286318,1267.20141 C115.75198,1267.90646 114.868574,1268.65539 114.859856,1268.66124 L114.839515,1268.67879 C109.899414,1272.66625 109.510017,1276.8234 109.829671,1279.22523 C110.823503,1277.5577 112.055622,1276.14468 113.499876,1275.01251 C114.912163,1273.90667 116.527867,1273.0729 118.303397,1272.52875 C121.316859,1271.60722 123.74332,1271.84711 123.845028,1271.85589 L124.626727,1271.9378 L124.626727,1277.14813 L132.129868,1268.92746 C132.170552,1268.88358 132.170552,1268.81629 132.129868,1268.77241 L124.629633,1260.3177 L124.629633,1265.99025 L123.717167,1265.94637 C123.502127,1265.93759 123.287088,1265.93174 123.074954,1265.93174 Z" id="19我被指派任务"></path>
        </g>
    </g>
</svg>