<?xml version="1.0" encoding="UTF-8"?>
<svg width="28px" height="26px" viewBox="0 0 28 26" version="1.1" xmlns="http://www.w3.org/2000/svg" xmlns:xlink="http://www.w3.org/1999/xlink">
    <!-- Generator: Sketch 63.1 (92452) - https://sketch.com -->
    <title>10评论-创建@1x</title>
    <desc>Created with Sketch.</desc>
    <g id="新版定稿" stroke="none" stroke-width="1" fill="none" fill-rule="evenodd">
        <g id="切图3" transform="translate(-110.000000, -655.000000)" fill="#FFFFFF" fill-rule="nonzero">
            <path d="M134.771272,680.822222 C134.56508,680.822222 134.362808,680.765872 134.186072,680.659667 L129.244383,677.70485 C127.536664,678.349774 125.725429,678.677063 123.9,678.670578 C116.566528,678.670578 110.6,673.518306 110.6,667.185289 C110.6,660.852272 116.566528,655.7 123.9,655.7 C131.233472,655.7 137.2,660.852272 137.2,667.185289 C137.2,669.979028 136.053244,672.622033 133.951844,674.709394 L135.830839,679.212922 C136.02295,679.673989 135.900294,680.207467 135.527156,680.536272 C135.312878,680.725428 135.043183,680.822222 134.771272,680.822222 Z M129.344133,675.256911 C129.547328,675.256911 129.749783,675.311589 129.929333,675.419467 L132.361756,676.872861 L131.5209,674.85865 C131.32695,674.394761 131.452009,673.858798 131.831233,673.52865 C133.811456,671.810733 134.902056,669.557861 134.902056,667.185289 C134.902056,662.131289 129.966278,658.018633 123.9,658.018633 C117.833722,658.018633 112.897944,662.131289 112.897944,667.185289 C112.897944,672.239289 117.833722,676.351944 123.9,676.351944 C125.656339,676.351944 127.336572,676.014272 128.896367,675.348533 C129.039711,675.287206 129.191922,675.256911 129.344133,675.256911 L129.344133,675.256911 Z M117.197539,667.294644 C117.202012,666.467095 117.874355,665.798715 118.701917,665.799133 C119.529583,665.807256 120.195215,666.482463 120.191532,667.310161 C120.191532,668.141411 119.526517,668.816756 118.701917,668.82045 C117.87493,668.82045 117.203154,668.15265 117.198278,667.325678 L117.198278,667.295383 L117.197539,667.294644 Z M122.176158,667.294644 C122.176158,668.148061 122.8626,668.8404 123.708628,668.8404 C124.558367,668.836329 125.244026,668.144385 125.240359,667.294644 C125.244026,666.444904 124.558367,665.75296 123.708628,665.748889 C123.30043,665.750649 122.909651,665.914494 122.622259,666.204381 C122.334867,666.494267 122.174405,666.886447 122.176158,667.294644 L122.176158,667.294644 Z M127.155544,667.294644 C127.160018,666.467095 127.832361,665.798715 128.659922,665.799133 C129.487589,665.807256 130.153221,666.482463 130.149538,667.310161 C130.149538,668.141411 129.484522,668.816756 128.659922,668.82045 C127.832361,668.820869 127.160018,668.152488 127.155544,667.324939 L127.155544,667.294644 L127.155544,667.294644 Z" id="10评论-创建"></path>
        </g>
    </g>
</svg>