<?xml version="1.0" encoding="UTF-8"?>
<svg width="27px" height="22px" viewBox="0 0 27 22" version="1.1" xmlns="http://www.w3.org/2000/svg" xmlns:xlink="http://www.w3.org/1999/xlink">
    <!-- Generator: Sketch 63.1 (92452) - https://sketch.com -->
    <title>21我被移除某个项目@1x</title>
    <desc>Created with Sketch.</desc>
    <g id="新版定稿" stroke="none" stroke-width="1" fill="none" fill-rule="evenodd">
        <g id="切图3" transform="translate(-106.000000, -1392.000000)" fill="#FFFFFF" fill-rule="nonzero">
            <path d="M127.40886,1396.86959 L125.687198,1395.14793 L125.687198,1395.14793 C125.211848,1394.67243 125.211965,1393.90162 125.687462,1393.42626 C126.162855,1392.95102 126.933467,1392.95102 127.40886,1393.42626 L129.130522,1395.14793 L130.852184,1393.42626 L130.852053,1393.4264 C131.327476,1392.95097 132.098292,1392.95097 132.573717,1393.4264 C133.049037,1393.90172 133.049154,1394.67233 132.573981,1395.1478 L130.852319,1396.86946 L132.573981,1398.59112 L132.573981,1398.59112 C133.049331,1399.06662 133.049213,1399.83743 132.573717,1400.31278 C132.098324,1400.78803 131.327712,1400.78803 130.852319,1400.31278 L129.130657,1398.59112 L127.408995,1400.31278 L127.409127,1400.31265 C126.933704,1400.78807 126.162888,1400.78808 125.687463,1400.31265 C125.212142,1399.83733 125.212023,1399.06672 125.687198,1398.59125 L127.40886,1396.86959 Z M116.956595,1401.73921 L116.956594,1401.73921 C114.26719,1401.73921 112.086987,1399.55902 112.086987,1396.86961 C112.086987,1394.1802 114.267181,1392 116.956594,1392 C119.645999,1392 121.826202,1394.18019 121.826202,1396.86961 C121.826202,1396.86961 121.826202,1396.86961 121.826202,1396.86961 L121.826202,1396.86961 C121.826202,1399.55901 119.646008,1401.73921 116.956594,1401.73921 L116.956595,1401.73921 Z M106,1412.93928 C106.474786,1407.13228 111.186121,1404.174 116.956595,1404.174 C122.727068,1404.174 127.572308,1406.96185 127.913189,1412.93928 L127.913189,1412.93928 C127.989501,1413.39688 127.680402,1413.82971 127.222798,1413.90602 C127.149227,1413.91829 127.074348,1413.9207 127.000139,1413.9132 L106.88871,1413.9132 L106.88871,1413.9132 C106.443456,1413.7649 106.107028,1413.39621 106,1412.93928 L106,1412.93928 Z" id="21我被移除某个项目"></path>
        </g>
    </g>
</svg>