<?xml version="1.0" encoding="UTF-8"?>
<svg width="28px" height="26px" viewBox="0 0 28 26" version="1.1" xmlns="http://www.w3.org/2000/svg" xmlns:xlink="http://www.w3.org/1999/xlink">
    <!-- Generator: Sketch 63.1 (92452) - https://sketch.com -->
    <title>19我被指派任务@1x</title>
    <desc>Created with Sketch.</desc>
    <g id="新版定稿" stroke="none" stroke-width="1" fill="none" fill-rule="evenodd">
        <g id="切图3" transform="translate(-187.000000, -1257.000000)" fill="#333333" fill-rule="nonzero" stroke="#333333" stroke-width="0.7">
            <path d="M189.632067,1281.85526 C189.591384,1281.85526 189.550701,1281.85234 189.507112,1281.84941 C188.981136,1281.79968 188.548151,1281.43399 188.402854,1280.92203 C187.763546,1278.64598 187.00219,1272.76279 193.738163,1267.31551 C193.86893,1267.20726 194.848233,1266.39982 196.495902,1265.63334 C197.928531,1264.96633 200.14867,1264.21154 202.883162,1264.17644 L202.883162,1259.41079 C202.883162,1258.81984 203.237687,1258.30495 203.784004,1258.09431 C204.330321,1257.88368 204.937662,1258.03288 205.327059,1258.4717 L213.425918,1267.6022 C214.065226,1268.32188 214.056508,1269.40139 213.408483,1270.11521 L205.315435,1278.99119 C204.923133,1279.42124 204.318697,1279.56459 203.775286,1279.35103 C203.231875,1279.13747 202.883162,1278.62258 202.883162,1278.03748 L202.883162,1273.57901 C202.005567,1273.58486 200.474136,1273.69018 198.748006,1274.22847 C195.19404,1275.33431 192.508949,1277.66302 190.76829,1281.15022 C190.547439,1281.58904 190.111547,1281.85526 189.632067,1281.85526 Z M203.074954,1265.93174 C200.593279,1265.93174 198.579462,1266.60753 197.286318,1267.20141 C195.75198,1267.90646 194.868574,1268.65539 194.859856,1268.66124 L194.839515,1268.67879 C189.899414,1272.66625 189.510017,1276.8234 189.829671,1279.22523 C190.823503,1277.5577 192.055622,1276.14468 193.499876,1275.01251 C194.912163,1273.90667 196.527867,1273.0729 198.303397,1272.52875 C201.316859,1271.60722 203.74332,1271.84711 203.845028,1271.85589 L204.626727,1271.9378 L204.626727,1277.14813 L212.129868,1268.92746 C212.170552,1268.88358 212.170552,1268.81629 212.129868,1268.77241 L204.629633,1260.3177 L204.629633,1265.99025 L203.717167,1265.94637 C203.502127,1265.93759 203.287088,1265.93174 203.074954,1265.93174 Z" id="19我被指派任务"></path>
        </g>
    </g>
</svg>