<?xml version="1.0" encoding="UTF-8"?>
<svg width="24px" height="24px" viewBox="0 0 24 24" version="1.1" xmlns="http://www.w3.org/2000/svg" xmlns:xlink="http://www.w3.org/1999/xlink">
    <!-- Generator: Sketch 63.1 (92452) - https://sketch.com -->
    <title>4任务-修改@1x</title>
    <desc>Created with Sketch.</desc>
    <g id="新版定稿" stroke="none" stroke-width="1" fill="none" fill-rule="evenodd">
        <g id="切图3" transform="translate(-189.000000, -258.000000)" fill="#333333" fill-rule="nonzero">
            <g id="4任务-修改" transform="translate(189.000000, 258.000000)">
                <path d="M6.35481765,18.9318746 L16.5757112,8.71098107 L14.9032028,7.03847271 L4.68230928,17.166431 L6.16898248,17.5380986 L6.35481765,18.9318746 Z M17.6907168,9.82598665 L7.5627585,19.9539449 L3.47439564,21.1618667 L2.63814146,20.3256125 L3.84606326,16.0514335 L13.8811135,6.01638335 L12.6731917,4.80846155 L2.45229812,14.9364198 C2.26646377,15.0293368 2.17354673,15.2151712 2.17354673,15.4010064 L0.0364518001,22.6485426 C-0.0564652407,22.927294 0.0364518001,23.2989616 0.222286154,23.577713 C0.408120507,23.7635474 0.593953772,23.8564644 0.872705166,23.8564644 C0.965622207,23.8564644 1.05853952,23.8564644 1.15145656,23.8564644 L8.39899281,21.7193695 C8.58482717,21.6264525 8.67774421,21.5335351 8.77066043,21.4406181 L18.991554,11.3126598 L17.6907132,9.82598665 L17.6907168,9.82598665 Z M13.6023539,3.69345597 L20.013636,10.104738 L21.5003092,8.8038973 L15.0890271,2.39261523 L13.6023539,3.69345597 Z M23.1728094,3.69345597 L20.106544,0.627190637 C19.2702898,-0.209063546 17.8765329,-0.209063546 17.0402787,0.627190637 L16.1111083,1.55636104 L22.243639,7.68889172 L23.1728094,6.75972131 C24.0090635,5.83055091 24.0090635,4.52971016 23.1728094,3.69345597 Z" id="形状"></path>
            </g>
        </g>
    </g>
</svg>