<?xml version="1.0" encoding="UTF-8"?>
<svg width="25px" height="25px" viewBox="0 0 25 25" version="1.1" xmlns="http://www.w3.org/2000/svg" xmlns:xlink="http://www.w3.org/1999/xlink">
    <!-- Generator: Sketch 63.1 (92452) - https://sketch.com -->
    <title>树叶-黑色@1x</title>
    <desc>Created with Sketch.</desc>
    <g id="新版定稿" stroke="none" stroke-width="1" fill="none" fill-rule="evenodd">
        <g id="切图3" transform="translate(-147.000000, -1793.000000)" fill="#333333" fill-rule="nonzero">
            <g id="树叶-黑色" transform="translate(147.000000, 1793.000000)">
                <path d="M21.7158117,0.330930625 C21.5569194,0.121312734 21.30537,0.00627074219 21.0421084,0.0228594922 C20.7808456,0.0394082813 20.5449255,0.187627773 20.4142941,0.41479375 C18.1407156,4.3925768 15.1963918,5.76332746 12.5991128,6.97230777 C10.8987856,7.76397102 9.29303434,8.51170406 8.09680539,9.86786457 C6.76302969,11.381998 6.14105141,13.4264518 6.14105141,16.2966659 C6.14105141,17.3964402 6.2326693,18.6151339 6.41590504,19.9800885 C2.98407184,20.8048893 0.00273316406,20.3300512 0.00273316406,20.3300512 L0.00273316406,23.4547727 C3.83037801,23.4547727 7.00678441,22.5539035 9.32225453,21.5808832 C10.839266,21.0057132 12.1778384,20.2383934 13.3575186,19.357031 C13.4931067,19.2556997 13.5661372,19.1980987 13.5690952,19.1952207 C19.2559994,14.8089945 21.092874,7.83224473 21.092874,7.83224473 C21.092874,15.2885893 15.6546012,21.7554448 8.71294762,24.0709549 C10.84814,24.7505341 12.8311954,25.0507706 14.6250592,24.9669474 C16.6392936,24.8714521 18.4254026,24.2962021 19.93366,23.2520301 C23.1441633,21.0339739 24.9859146,16.734489 24.9859146,11.4590657 C24.9859146,7.19367762 23.7623042,3.0335382 21.7149723,0.330011211 L21.7158117,0.330930625 Z" id="路径"></path>
            </g>
        </g>
    </g>
</svg>