<?xml version="1.0" encoding="UTF-8"?>
<svg width="28px" height="22px" viewBox="0 0 28 22" version="1.1" xmlns="http://www.w3.org/2000/svg" xmlns:xlink="http://www.w3.org/1999/xlink">
    <!-- Generator: Sketch 63.1 (92452) - https://sketch.com -->
    <title>20我被加入某个项目@1x</title>
    <desc>Created with Sketch.</desc>
    <g id="新版定稿" stroke="none" stroke-width="1" fill="none" fill-rule="evenodd">
        <g id="切图3" transform="translate(-188.000000, -1327.000000)" fill="#333333" fill-rule="nonzero">
            <path d="M209.913189,1333.08702 L207.478391,1333.08702 L207.478391,1333.08702 C206.806042,1333.08691 206.261077,1332.54178 206.261179,1331.86943 C206.261282,1331.19723 206.806187,1330.65232 207.478391,1330.65222 L209.913189,1330.65222 L209.913189,1328.21742 L209.913189,1328.21761 C209.913189,1327.54526 210.458237,1327.00021 211.13059,1327.00021 C211.802794,1327.00021 212.347782,1327.54503 212.34799,1328.21723 L212.34799,1330.65203 L214.782788,1330.65203 L214.782788,1330.65203 C215.455138,1330.65213 216.000103,1331.19727 216,1331.86962 C215.999897,1332.54182 215.454992,1333.08673 214.782788,1333.08683 L212.34799,1333.08683 L212.34799,1335.52163 L212.34799,1335.52144 C212.34799,1336.19379 211.802942,1336.73884 211.13059,1336.73884 C210.458386,1336.73884 209.913395,1336.19402 209.913189,1335.52181 L209.913189,1333.08702 Z M198.956595,1336.73921 L198.956594,1336.73921 C196.26719,1336.73921 194.086987,1334.55902 194.086987,1331.86961 C194.086987,1329.1802 196.267181,1327 198.956594,1327 C201.645999,1327 203.826202,1329.18019 203.826202,1331.86961 C203.826202,1331.86961 203.826202,1331.86961 203.826202,1331.86961 L203.826202,1331.86961 C203.826202,1334.55901 201.646008,1336.73921 198.956594,1336.73921 L198.956595,1336.73921 Z M188,1347.93928 C188.474786,1342.13228 193.186121,1339.174 198.956595,1339.174 C204.727068,1339.174 209.572308,1341.96185 209.913189,1347.93928 L209.913189,1347.93928 C209.989501,1348.39688 209.680402,1348.82971 209.222798,1348.90602 C209.149227,1348.91829 209.074348,1348.9207 209.000139,1348.9132 L188.88871,1348.9132 L188.88871,1348.9132 C188.443456,1348.7649 188.107028,1348.39621 188,1347.93928 L188,1347.93928 Z" id="20我被加入某个项目"></path>
        </g>
    </g>
</svg>