<?xml version="1.0" encoding="UTF-8"?>
<svg width="20px" height="29px" viewBox="0 0 20 29" version="1.1" xmlns="http://www.w3.org/2000/svg" xmlns:xlink="http://www.w3.org/1999/xlink">
    <!-- Generator: Sketch 63.1 (92452) - https://sketch.com -->
    <title>14任务-取消归档@1x</title>
    <desc>Created with Sketch.</desc>
    <g id="新版定稿" stroke="none" stroke-width="1" fill="none" fill-rule="evenodd">
        <g id="切图3" transform="translate(-192.000000, -923.000000)" fill="#333333" fill-rule="nonzero">
            <g id="14任务-取消归档" transform="translate(192.000000, 923.000000)">
                <polygon id="路径备份" points="12.101669 5.6 12.101669 7.20636383 18.2465841 7.20636383 18.2465841 8.24384977 13.6 8.24384977 13.6 9.91569598 18.2465841 9.91569598 18.2465841 10.9531819 15.3311556 10.9531819 15.3311556 12.5922869 18.2465841 12.5922869 18.2465841 13.6297729 15.3311556 13.6297729 15.3311556 15.2688779 18.2465841 15.2688779 18.2465841 16.3063639 15.3311556 16.3063639 15.3311556 17.9454689 18.2465841 17.9454689 18.2465841 18.9829548 15.3311556 18.9829548 15.3311556 20.6220598 18.2465841 20.6220598 18.2465841 21.6574994 15.3311556 21.6574994 15.3311556 23.8 19.9802886 23.8 19.9802886 5.6"></polygon>
                <path d="M1.28208938,0.78502623 C1.71690252,0.442856282 2.30533724,0.323186574 2.91746425,0.448396936 L2.91746425,0.448396936 L9.72807853,1.51986176 C10.1341599,1.60053817 16.2,10.6736526 16.2,10.9541184 L16.2,10.9541184 L16.2,23.1234799 C16.1981507,23.5394195 15.9527238,23.9825732 15.5179106,24.3590211 C15.0830975,24.7405319 14.4946628,25.024093 13.8825357,25.1431203 L13.8825357,25.1431203 L2.91746425,28.9516031 C2.30533724,29.0768134 1.71690252,28.9571437 1.28208938,28.6149738 C0.847276235,28.2677408 0.601849281,27.7262884 0.6,27.1141023 L0.6,27.1141023 L0.6,2.28589768 C0.601849281,1.67371162 0.847276235,1.13225919 1.28208938,0.78502623 Z M2.40636185,1.52931986 C2.14112907,1.48465372 1.9270278,1.65602686 1.92326508,1.91600516 L1.92326508,1.91600516 L1.92326508,27.4771143 C1.9270278,27.737093 2.14112907,27.9084864 2.40636185,27.8638453 L2.40636185,27.8638453 L14.3936382,24.184678 C14.6588709,24.1337172 14.8729722,23.9455122 14.8767349,23.7600133 L14.8767349,23.7600133 L14.8767349,10.6700749 L12.2367686,10.1432038 C11.9805181,10.1231795 11.734763,10.0230761 11.5535666,9.86422248 C11.3723701,9.70448154 11.270575,9.4990391 11.270575,9.29378301 L11.270575,9.29378301 L9.90311361,2.52487312 Z" id="形状结合"></path>
                <path d="M8.40787878,5.59204552 L11,6.10036852 L11,7.92596999 L8.40787878,7.54477605 L8.40787878,5.59204552 Z M5.8,7.16126481 L8.39212119,7.54245876 L8.39212119,9.49596213 L5.8,9.24189724 L5.8,7.16126481 Z M5.8,3 L8.39212119,3.63545204 L8.39212119,5.58895541 L5.8,5.08063242 L5.8,3 Z M5.8,11.3162055 L8.39212119,11.4435278 L8.39212119,13.3970312 L5.8,13.3968379 L5.8,11.3162055 Z M8.39212119,13.3970312 L11,13.3972255 L11,15.222827 L8.40787878,15.3497629 L8.39212119,13.3970312 Z M8.39212119,9.49002444 L11,9.74602256 L11,11.571624 L8.40787878,11.4443018 L8.39212119,9.49002444 Z M5.8,15.4774704 L8.39212119,15.3505345 L8.39212119,17.3040379 L5.8,17.5581028 L5.8,15.4774704 Z M5.8,19.6387352 L5.8,23.8 L11,22.525233 L11,17.0484285 L8.40787878,17.3024934 L8.40787878,19.255224 L5.8,19.6387352 Z" id="形状"></path>
            </g>
        </g>
    </g>
</svg>