<?xml version="1.0" encoding="UTF-8"?>
<svg width="25px" height="25px" viewBox="0 0 25 25" version="1.1" xmlns="http://www.w3.org/2000/svg" xmlns:xlink="http://www.w3.org/1999/xlink">
    <!-- Generator: Sketch 63.1 (92452) - https://sketch.com -->
    <title>15任务超时未完成@1x</title>
    <desc>Created with Sketch.</desc>
    <g id="新版定稿" stroke="none" stroke-width="1" fill="none" fill-rule="evenodd">
        <g id="切图3" transform="translate(-109.000000, -987.000000)" fill="#FFFFFF" fill-rule="nonzero">
            <path d="M127.6444,987.1272 L133.1728,991.7388 L131.6356,993.582 L126.106,988.9704 L127.6444,987.1272 L127.6444,987.1272 Z M114.8356,987.1272 L116.374,988.968 L110.8444,993.582 L109.3072,991.7388 L114.8356,987.126 L114.8356,987.1272 Z M121.24,989.7528 C117.381317,989.7528 113.815862,991.811795 111.886706,995.15362 C109.95755,998.495444 109.957779,1002.61261 111.887306,1005.95422 C113.816833,1009.29583 117.382517,1011.354 121.2412,1011.354 C127.206207,1011.354 132.0418,1006.51841 132.0418,1000.5534 C132.0418,994.588393 127.206207,989.7528 121.2412,989.7528 L121.24,989.7528 Z M121.24,1008.9528 C116.608,1008.9528 112.84,1005.1848 112.84,1000.5528 C112.84,995.9208 116.608,992.1528 121.24,992.1528 C125.872,992.1528 129.64,995.9208 129.64,1000.5528 C129.64,1005.1848 125.872,1008.9528 121.24,1008.9528 L121.24,1008.9528 Z M120.04,994.44 L122.44,994.44 L122.44,1001.64 L120.04,1001.64 L120.04,994.44 Z M120.04,1004.04 L122.44,1004.04 L122.44,1006.44 L120.04,1006.44 L120.04,1004.04 Z" id="15任务超时未完成"></path>
        </g>
    </g>
</svg>