<?xml version="1.0" encoding="UTF-8"?>
<svg width="28px" height="22px" viewBox="0 0 28 22" version="1.1" xmlns="http://www.w3.org/2000/svg" xmlns:xlink="http://www.w3.org/1999/xlink">
    <!-- Generator: Sketch 63.1 (92452) - https://sketch.com -->
    <title>20我被加入某个项目@1x</title>
    <desc>Created with Sketch.</desc>
    <g id="新版定稿" stroke="none" stroke-width="1" fill="none" fill-rule="evenodd">
        <g id="切图3" transform="translate(-108.000000, -1327.000000)" fill="#FFFFFF" fill-rule="nonzero">
            <path d="M129.913189,1333.08702 L127.478391,1333.08702 L127.478391,1333.08702 C126.806042,1333.08691 126.261077,1332.54178 126.261179,1331.86943 C126.261282,1331.19723 126.806187,1330.65232 127.478391,1330.65222 L129.913189,1330.65222 L129.913189,1328.21742 L129.913189,1328.21761 C129.913189,1327.54526 130.458237,1327.00021 131.13059,1327.00021 C131.802794,1327.00021 132.347782,1327.54503 132.34799,1328.21723 L132.34799,1330.65203 L134.782788,1330.65203 L134.782788,1330.65203 C135.455138,1330.65213 136.000103,1331.19727 136,1331.86962 C135.999897,1332.54182 135.454992,1333.08673 134.782788,1333.08683 L132.34799,1333.08683 L132.34799,1335.52163 L132.34799,1335.52144 C132.34799,1336.19379 131.802942,1336.73884 131.13059,1336.73884 C130.458386,1336.73884 129.913395,1336.19402 129.913189,1335.52181 L129.913189,1333.08702 Z M118.956595,1336.73921 L118.956594,1336.73921 C116.26719,1336.73921 114.086987,1334.55902 114.086987,1331.86961 C114.086987,1329.1802 116.267181,1327 118.956594,1327 C121.645999,1327 123.826202,1329.18019 123.826202,1331.86961 C123.826202,1331.86961 123.826202,1331.86961 123.826202,1331.86961 L123.826202,1331.86961 C123.826202,1334.55901 121.646008,1336.73921 118.956594,1336.73921 L118.956595,1336.73921 Z M108,1347.93928 C108.474786,1342.13228 113.186121,1339.174 118.956595,1339.174 C124.727068,1339.174 129.572308,1341.96185 129.913189,1347.93928 L129.913189,1347.93928 C129.989501,1348.39688 129.680402,1348.82971 129.222798,1348.90602 C129.149227,1348.91829 129.074348,1348.9207 129.000139,1348.9132 L108.88871,1348.9132 L108.88871,1348.9132 C108.443456,1348.7649 108.107028,1348.39621 108,1347.93928 L108,1347.93928 Z" id="20我被加入某个项目"></path>
        </g>
    </g>
</svg>