<?xml version="1.0" encoding="UTF-8"?>
<svg width="28px" height="26px" viewBox="0 0 28 26" version="1.1" xmlns="http://www.w3.org/2000/svg" xmlns:xlink="http://www.w3.org/1999/xlink">
    <!-- Generator: Sketch 63.1 (92452) - https://sketch.com -->
    <title>10评论-创建@1x</title>
    <desc>Created with Sketch.</desc>
    <g id="新版定稿" stroke="none" stroke-width="1" fill="none" fill-rule="evenodd">
        <g id="切图3" transform="translate(-190.000000, -655.000000)" fill="#333333" fill-rule="nonzero">
            <path d="M214.771272,680.822222 C214.56508,680.822222 214.362808,680.765872 214.186072,680.659667 L209.244383,677.70485 C207.536664,678.349774 205.725429,678.677063 203.9,678.670578 C196.566528,678.670578 190.6,673.518306 190.6,667.185289 C190.6,660.852272 196.566528,655.7 203.9,655.7 C211.233472,655.7 217.2,660.852272 217.2,667.185289 C217.2,669.979028 216.053244,672.622033 213.951844,674.709394 L215.830839,679.212922 C216.02295,679.673989 215.900294,680.207467 215.527156,680.536272 C215.312878,680.725428 215.043183,680.822222 214.771272,680.822222 Z M209.344133,675.256911 C209.547328,675.256911 209.749783,675.311589 209.929333,675.419467 L212.361756,676.872861 L211.5209,674.85865 C211.32695,674.394761 211.452009,673.858798 211.831233,673.52865 C213.811456,671.810733 214.902056,669.557861 214.902056,667.185289 C214.902056,662.131289 209.966278,658.018633 203.9,658.018633 C197.833722,658.018633 192.897944,662.131289 192.897944,667.185289 C192.897944,672.239289 197.833722,676.351944 203.9,676.351944 C205.656339,676.351944 207.336572,676.014272 208.896367,675.348533 C209.039711,675.287206 209.191922,675.256911 209.344133,675.256911 L209.344133,675.256911 Z M197.197539,667.294644 C197.202012,666.467095 197.874355,665.798715 198.701917,665.799133 C199.529583,665.807256 200.195215,666.482463 200.191532,667.310161 C200.191532,668.141411 199.526517,668.816756 198.701917,668.82045 C197.87493,668.82045 197.203154,668.15265 197.198278,667.325678 L197.198278,667.295383 L197.197539,667.294644 Z M202.176158,667.294644 C202.176158,668.148061 202.8626,668.8404 203.708628,668.8404 C204.558367,668.836329 205.244026,668.144385 205.240359,667.294644 C205.244026,666.444904 204.558367,665.75296 203.708628,665.748889 C203.30043,665.750649 202.909651,665.914494 202.622259,666.204381 C202.334867,666.494267 202.174405,666.886447 202.176158,667.294644 L202.176158,667.294644 Z M207.155544,667.294644 C207.160018,666.467095 207.832361,665.798715 208.659922,665.799133 C209.487589,665.807256 210.153221,666.482463 210.149538,667.310161 C210.149538,668.141411 209.484522,668.816756 208.659922,668.82045 C207.832361,668.820869 207.160018,668.152488 207.155544,667.324939 L207.155544,667.294644 L207.155544,667.294644 Z" id="10评论-创建"></path>
        </g>
    </g>
</svg>