<?xml version="1.0" encoding="UTF-8"?>
<svg width="23px" height="28px" viewBox="0 0 23 28" version="1.1" xmlns="http://www.w3.org/2000/svg" xmlns:xlink="http://www.w3.org/1999/xlink">
    <!-- Generator: Sketch 63.1 (92452) - https://sketch.com -->
    <title>8任务-归档@1x</title>
    <desc>Created with Sketch.</desc>
    <g id="新版定稿" stroke="none" stroke-width="1" fill="none" fill-rule="evenodd">
        <g id="切图3" transform="translate(-110.000000, -520.000000)" fill="#FFFFFF" fill-rule="nonzero">
            <g id="8任务-归档" transform="translate(111.000000, 521.000000)">
                <path d="M19.817856,5.769216 C19.1489328,4.87925279 18.415843,4.03938244 17.624448,3.25632001 C16.841363,2.46306269 16.0015064,1.72793152 15.111552,1.05676799 C13.809024,0.10444801 13.176192,-3.74582896e-05 12.81984,-3.74582896e-05 L2.04326401,-3.74582896e-05 C1.50609901,-0.00326795495 0.989724907,0.207411026 0.608159653,0.58551798 C0.226594398,0.963624934 0.0112228055,1.47805951 0.0095999904,2.01523199 L0.0095999904,23.789568 C0.0112228055,24.3267405 0.226594398,24.8411751 0.608159653,25.219282 C0.989724907,25.597389 1.50609901,25.808068 2.04326401,25.8048375 L18.865536,25.8048375 C19.402701,25.808068 19.9190751,25.597389 20.3006403,25.219282 C20.6822056,24.8411751 20.8975772,24.3267405 20.8992,23.789568 L20.8992,8.06092799 C20.8992,7.69843198 20.788608,7.07174398 19.836288,5.769216 L19.817856,5.769216 Z M14.177664,1.622016 C15.1218548,2.36381855 16.018591,3.1641095 16.862592,4.018176 C17.7164952,4.86233213 18.5167768,5.75905788 19.258752,6.70310401 L14.177664,6.70310401 L14.177664,1.622016 Z M19.737984,24.311808 C19.7346821,24.54456 19.5468,24.7324421 19.314048,24.735744 L1.59475199,24.735744 C1.36200003,24.7324421 1.17411793,24.54456 1.17081599,24.311808 L1.17081599,1.48684801 C1.17411793,1.25409605 1.36200003,1.06621395 1.59475199,1.06291201 L12.97344,1.06291201 L12.97344,6.97958401 C12.97344,7.20445365 13.0627691,7.42011321 13.221776,7.57912005 C13.3807828,7.73812689 13.5964424,7.82745601 13.821312,7.82745601 L19.737984,7.82745601 L19.737984,24.317952 L19.737984,24.311808 Z" id="形状" stroke="#FFFFFF" stroke-width="0.6"></path>
                <path d="M6.344064,4.95206401 L8.36544001,4.95206401 L8.36544001,6.97343999 L6.344064,6.97343999 L6.344064,4.95206401 Z M4.31040001,6.97343999 L6.33177599,6.97343999 L6.33177599,8.994816 L4.31040001,8.994816 L4.31040001,6.97343999 Z M4.31040001,2.930688 L6.33177599,2.930688 L6.33177599,4.95206401 L4.31040001,4.95206401 L4.31040001,2.930688 Z M4.31040001,11.010048 L6.33177599,11.010048 L6.33177599,13.031424 L4.31040001,13.031424 L4.31040001,11.010048 Z M6.33177599,13.031424 L8.36544001,13.031424 L8.36544001,15.0528 L6.344064,15.0528 L6.33177599,13.031424 Z M6.33177599,8.98867201 L8.36544001,8.98867201 L8.36544001,11.010048 L6.344064,11.010048 L6.33177599,8.98867201 Z M4.31040001,15.0528 L6.33177599,15.0528 L6.33177599,17.074176 L4.31040001,17.074176 L4.31040001,15.0528 Z M4.31040001,19.095552 L4.31040001,23.138304 L8.36544001,23.138304 L8.36544001,17.074176 L6.344064,17.074176 L6.344064,19.095552" id="形状"></path>
            </g>
        </g>
    </g>
</svg>