<?xml version="1.0" encoding="UTF-8"?>
<svg width="30px" height="23px" viewBox="0 0 30 23" version="1.1" xmlns="http://www.w3.org/2000/svg" xmlns:xlink="http://www.w3.org/1999/xlink">
    <!-- Generator: Sketch 63.1 (92452) - https://sketch.com -->
    <title>6任务-专注@1x</title>
    <desc>Created with Sketch.</desc>
    <g id="新版定稿" stroke="none" stroke-width="1" fill="none" fill-rule="evenodd">
        <g id="切图3" transform="translate(-184.000000, -391.000000)" fill="#333333" fill-rule="nonzero">
            <g id="6任务-专注" transform="translate(184.000000, 391.000000)">
                <path d="M14.904,22.08 C9.506544,22.08 4.69126401,18.673792 0.468831988,12.019616 C0.0889039384,11.4217945 0.0889039384,10.6582055 0.468831988,10.060384 C4.69126401,3.40620801 9.506544,0 14.904,0 C20.301456,0 25.116736,3.40620801 29.339168,10.060384 C29.7190961,10.6582055 29.7190961,11.4217945 29.339168,12.019616 C25.116736,18.673792 20.301456,22.08 14.904,22.08 Z M14.904,2.208 C10.435744,2.208 6.29758401,5.10084801 2.47995201,11.04 C6.29758401,16.979152 10.435744,19.872 14.904,19.872 C19.372256,19.872 23.510416,16.979152 27.328048,11.04 C23.510416,5.10084801 19.372256,2.208 14.904,2.208 Z M14.904,16.192 C12.033232,16.192 9.70599999,13.885376 9.70599999,11.04 C9.70599999,8.19462402 12.033232,5.88800001 14.904,5.88800001 C17.774768,5.88800001 20.102,8.19462402 20.102,11.04 C20.102,13.885376 17.774768,16.192 14.904,16.192 Z M14.904,13.984 C16.544544,13.984 17.874496,12.665824 17.874496,11.04 C17.874496,9.41417601 16.544544,8.09600001 14.904,8.09600001 C13.263456,8.09600001 11.933504,9.41417601 11.933504,11.04 C11.933504,12.665824 13.263456,13.984 14.904,13.984 Z" id="形状"></path>
            </g>
        </g>
    </g>
</svg>