<?xml version="1.0" encoding="UTF-8"?>
<svg width="21px" height="21px" viewBox="0 0 21 21" version="1.1" xmlns="http://www.w3.org/2000/svg" xmlns:xlink="http://www.w3.org/1999/xlink">
    <!-- Generator: Sketch 63.1 (92452) - https://sketch.com -->
    <title>22任务-取消完成@1x</title>
    <desc>Created with Sketch.</desc>
    <g id="新版定稿" stroke="none" stroke-width="1" fill="none" fill-rule="evenodd">
        <g id="切图3" transform="translate(-109.000000, -1463.000000)" fill="#FFFFFF" fill-rule="nonzero" stroke="#FFFFFF" stroke-width="1.2">
            <path d="M120.971034,1473.49995 L128.707083,1465.76061 C129.097639,1465.37002 129.097639,1464.72591 128.707083,1464.33519 L128.664975,1464.29294 C128.274419,1463.90235 127.630703,1463.90235 127.24002,1464.29294 L119.503971,1472.04285 L111.767794,1464.29294 C111.377239,1463.90235 110.733395,1463.90235 110.342967,1464.29294 L110.300731,1464.33519 C110.108458,1464.52243 110,1464.77947 110,1465.0479 C110,1465.31633 110.108458,1465.57337 110.300731,1465.76061 L118.036907,1473.49995 L110.300731,1481.23943 C109.910303,1481.63001 109.910303,1482.27425 110.300731,1482.66471 L110.342967,1482.70696 C110.733395,1483.09768 111.377239,1483.09768 111.767794,1482.70696 L119.503971,1474.96762 L127.24002,1482.70696 C127.630703,1483.09768 128.274419,1483.09768 128.664975,1482.70696 L128.707083,1482.66471 C129.097639,1482.27425 129.097639,1481.63001 128.707083,1481.23943 L120.971034,1473.49995 L120.971034,1473.49995 Z" id="22任务-取消完成"></path>
        </g>
    </g>
</svg>