<?xml version="1.0" encoding="UTF-8"?>
<svg width="27px" height="22px" viewBox="0 0 27 22" version="1.1" xmlns="http://www.w3.org/2000/svg" xmlns:xlink="http://www.w3.org/1999/xlink">
    <!-- Generator: Sketch 63.1 (92452) - https://sketch.com -->
    <title>21我被移除某个项目@1x</title>
    <desc>Created with Sketch.</desc>
    <g id="新版定稿" stroke="none" stroke-width="1" fill="none" fill-rule="evenodd">
        <g id="切图3" transform="translate(-186.000000, -1392.000000)" fill="#333333" fill-rule="nonzero">
            <path d="M207.40886,1396.86959 L205.687198,1395.14793 L205.687198,1395.14793 C205.211848,1394.67243 205.211965,1393.90162 205.687462,1393.42626 C206.162855,1392.95102 206.933467,1392.95102 207.40886,1393.42626 L209.130522,1395.14793 L210.852184,1393.42626 L210.852053,1393.4264 C211.327476,1392.95097 212.098292,1392.95097 212.573717,1393.4264 C213.049037,1393.90172 213.049154,1394.67233 212.573981,1395.1478 L210.852319,1396.86946 L212.573981,1398.59112 L212.573981,1398.59112 C213.049331,1399.06662 213.049213,1399.83743 212.573717,1400.31278 C212.098324,1400.78803 211.327712,1400.78803 210.852319,1400.31278 L209.130657,1398.59112 L207.408995,1400.31278 L207.409127,1400.31265 C206.933704,1400.78807 206.162888,1400.78808 205.687463,1400.31265 C205.212142,1399.83733 205.212023,1399.06672 205.687198,1398.59125 L207.40886,1396.86959 Z M196.956595,1401.73921 L196.956594,1401.73921 C194.26719,1401.73921 192.086987,1399.55902 192.086987,1396.86961 C192.086987,1394.1802 194.267181,1392 196.956594,1392 C199.645999,1392 201.826202,1394.18019 201.826202,1396.86961 C201.826202,1396.86961 201.826202,1396.86961 201.826202,1396.86961 L201.826202,1396.86961 C201.826202,1399.55901 199.646008,1401.73921 196.956594,1401.73921 L196.956595,1401.73921 Z M186,1412.93928 C186.474786,1407.13228 191.186121,1404.174 196.956595,1404.174 C202.727068,1404.174 207.572308,1406.96185 207.913189,1412.93928 L207.913189,1412.93928 C207.989501,1413.39688 207.680402,1413.82971 207.222798,1413.90602 C207.149227,1413.91829 207.074348,1413.9207 207.000139,1413.9132 L186.88871,1413.9132 L186.88871,1413.9132 C186.443456,1413.7649 186.107028,1413.39621 186,1412.93928 L186,1412.93928 Z" id="21我被移除某个项目"></path>
        </g>
    </g>
</svg>