<?xml version="1.0" encoding="UTF-8"?>
<svg width="22px" height="22px" viewBox="0 0 22 22" version="1.1" xmlns="http://www.w3.org/2000/svg" xmlns:xlink="http://www.w3.org/1999/xlink">
    <!-- Generator: Sketch 63.1 (92452) - https://sketch.com -->
    <title>11评论-修改@1x</title>
    <desc>Created with Sketch.</desc>
    <g id="新版定稿" stroke="none" stroke-width="1" fill="none" fill-rule="evenodd">
        <g id="切图3" transform="translate(-192.000000, -726.000000)" fill="#333333" fill-rule="nonzero">
            <path d="M199.345288,737.262228 L202.54183,740.439696 L198.067113,741.710071 L199.345288,737.262228 L199.345288,737.262228 Z M200.099072,736.272445 L208.082469,728.338508 L211.522356,731.757393 L203.538592,739.691207 L200.099072,736.272445 Z M201.622797,736.272567 L203.416184,738.17611 L209.998509,731.63497 L208.204754,729.85385 L201.622797,736.272567 Z M209.005542,727.419608 L209.96754,726.465327 C210.130709,726.30275 210.351042,726.209832 210.572476,726.209832 C210.771021,726.209832 210.954387,726.283407 211.088545,726.41697 L213.456022,728.769312 C213.590426,728.902507 213.664359,729.08406 213.664605,729.280547 C213.664849,729.499805 213.571697,729.718451 213.40914,729.880416 L212.444939,730.838247 L209.005542,727.419608 Z M195.229591,748 C193.448812,748 192,746.550889 192,744.769891 L192,729.229987 C192,727.448989 193.448812,726 195.229591,726 L206.083437,726 L205.060358,727.145749 L196.007979,727.145749 C194.361969,727.145749 193.267649,728.361891 193.267649,730.007245 L193.267649,744.237722 C193.267649,745.882953 194.361357,746.854251 196.00651,746.854251 L209.993368,746.854251 C211.638643,746.854251 212.854758,745.637986 212.854758,743.992632 L212.854758,734.939635 L214,733.917165 L214,744.770013 C214,746.551011 212.551188,748 210.770286,748 L195.229591,748 L195.229591,748 Z" id="11评论-修改"></path>
        </g>
    </g>
</svg>