<?xml version="1.0" encoding="UTF-8"?>
<svg width="21px" height="21px" viewBox="0 0 21 21" version="1.1" xmlns="http://www.w3.org/2000/svg" xmlns:xlink="http://www.w3.org/1999/xlink">
    <!-- Generator: Sketch 63.1 (92452) - https://sketch.com -->
    <title>13任务-取消完成@1x</title>
    <desc>Created with Sketch.</desc>
    <g id="新版定稿" stroke="none" stroke-width="1" fill="none" fill-rule="evenodd">
        <g id="切图3" transform="translate(-191.000000, -856.000000)" fill="#333333" fill-rule="nonzero" stroke="#333333" stroke-width="1.2">
            <path d="M202.971034,866.499952 L210.707083,858.760606 C211.097639,858.370017 211.097639,857.72591 210.707083,857.335194 L210.664975,857.292941 C210.274419,856.902353 209.630703,856.902353 209.24002,857.292941 L201.503971,865.042851 L193.767794,857.292941 C193.377239,856.902353 192.733395,856.902353 192.342967,857.292941 L192.300731,857.335194 C192.108458,857.522431 192,857.779467 192,858.0479 C192,858.316333 192.108458,858.573369 192.300731,858.760606 L200.036907,866.499952 L192.300731,874.239426 C191.910303,874.630014 191.910303,875.274249 192.300731,875.66471 L192.342967,875.706963 C192.733395,876.097679 193.377239,876.097679 193.767794,875.706963 L201.503971,867.967617 L209.24002,875.706963 C209.630703,876.097679 210.274419,876.097679 210.664975,875.706963 L210.707083,875.66471 C211.097639,875.274249 211.097639,874.630014 210.707083,874.239426 L202.971034,866.499952 L202.971034,866.499952 Z" id="13任务-取消完成"></path>
        </g>
    </g>
</svg>