<?xml version="1.0" encoding="UTF-8"?>
<svg width="26px" height="26px" viewBox="0 0 26 26" version="1.1" xmlns="http://www.w3.org/2000/svg" xmlns:xlink="http://www.w3.org/1999/xlink">
    <!-- Generator: Sketch 63.1 (92452) - https://sketch.com -->
    <title>18日完成任务数量@1x</title>
    <desc>Created with Sketch.</desc>
    <g id="新版定稿" stroke="none" stroke-width="1" fill="none" fill-rule="evenodd">
        <g id="切图3" transform="translate(-108.000000, -1190.000000)" fill="#FFFFFF" fill-rule="nonzero">
            <path d="M112.095005,1192.52 L112.095005,1192.52 C112.790885,1192.52 113.355007,1193.08412 113.355007,1193.78 C113.355007,1194.47588 112.790885,1195.04001 112.095005,1195.04001 L111.780005,1195.04001 L111.780005,1195.04001 C111.084125,1195.04001 110.520003,1195.60413 110.520003,1196.30001 C110.520003,1196.30001 110.520003,1196.30001 110.520003,1196.30001 L110.520003,1211.42003 L110.520003,1211.42002 C110.520003,1212.11591 111.084125,1212.68003 111.780005,1212.68003 L129.420025,1212.68003 L129.420025,1212.68003 C130.115905,1212.68003 130.680027,1212.11591 130.680027,1211.42002 C130.680027,1211.42002 130.680027,1211.42002 130.680027,1211.42002 L130.680027,1196.30001 L130.680027,1196.30001 C130.680027,1195.60413 130.115905,1195.04001 129.420025,1195.04001 C129.420025,1195.04001 129.420025,1195.04001 129.420025,1195.04001 L129.105025,1195.04001 L129.105025,1195.04001 C128.409145,1195.04001 127.845023,1194.47588 127.845023,1193.78 C127.845023,1193.08412 128.409145,1192.52 129.105025,1192.52 L129.420025,1192.52 L129.420025,1192.52 C131.507663,1192.52 133.200029,1194.21237 133.200029,1196.30001 L133.200029,1211.42002 L133.200029,1211.42002 C133.200029,1213.50766 131.507663,1215.20003 129.420025,1215.20003 C129.420025,1215.20003 129.420025,1215.20003 129.420025,1215.20003 L111.780005,1215.20003 L111.780004,1215.20003 C109.692367,1215.20003 108,1213.50766 108,1211.42002 C108,1211.42002 108,1211.42002 108,1211.42002 L108,1196.30001 L108,1196.30001 C108,1194.21237 109.692364,1192.52 111.780004,1192.52 L112.095005,1192.52 Z M115.560009,1190 L115.560009,1190 C116.255889,1190 116.820011,1190.56412 116.820011,1191.26 L116.820011,1195.67001 L116.820011,1195.67001 C116.820011,1196.36589 116.255889,1196.93001 115.560009,1196.93001 C114.864129,1196.93001 114.300008,1196.36589 114.300008,1195.67001 L114.300008,1191.26 L114.300008,1191.26 C114.300008,1190.56412 114.864129,1190 115.560009,1190 L115.560009,1190 Z M125.640021,1190 L125.640021,1190 C126.335901,1190 126.900022,1190.56412 126.900022,1191.26 C126.900022,1191.26 126.900022,1191.26 126.900022,1191.26 L126.900022,1195.67001 L126.900022,1195.67001 C126.900022,1196.36589 126.335901,1196.93001 125.640021,1196.93001 C124.944141,1196.93001 124.38002,1196.36589 124.38002,1195.67001 C124.38002,1195.67001 124.38002,1195.67001 124.38002,1195.67001 L124.38002,1191.26 L124.38002,1191.26 C124.38002,1190.56412 124.944141,1190 125.640021,1190 C125.640021,1190 125.640021,1190 125.640021,1190 L125.640021,1190 Z M127.148,1200.004 L127.148,1210 L126,1210 L126,1201.404 C125.37,1202.048 124.586,1202.496 123.648,1202.776 L123.648,1202.776 L123.648,1201.628 C124.096,1201.502 124.572,1201.306 125.048,1201.026 C125.524,1200.718 125.916,1200.382 126.252,1200.004 L126.252,1200.004 L127.148,1200.004 Z M113.148,1205.73 L121.884,1208.474 L121.884,1209.426 L113.148,1206.682 L113.148,1205.73 Z M121.884,1200.788 L121.884,1201.796 L114.688,1204.05 L121.884,1206.304 L121.884,1207.326 L113.148,1204.568 L113.148,1203.532 L121.884,1200.788 Z M121.860017,1192.52 C122.555897,1192.52 123.120018,1193.08412 123.120018,1193.78 C123.120018,1194.47588 122.555897,1195.04001 121.860017,1195.04001 L119.340014,1195.04001 C118.644134,1195.04001 118.080012,1194.47588 118.080012,1193.78 C118.080012,1193.08412 118.644134,1192.52 119.340014,1192.52 L121.860017,1192.52 Z" id="18日完成任务数量"></path>
        </g>
    </g>
</svg>