<?xml version="1.0" encoding="UTF-8"?>
<svg width="26px" height="26px" viewBox="0 0 26 26" version="1.1" xmlns="http://www.w3.org/2000/svg" xmlns:xlink="http://www.w3.org/1999/xlink">
    <!-- Generator: Sketch 63.1 (92452) - https://sketch.com -->
    <title>2打卡@1x</title>
    <desc>Created with Sketch.</desc>
    <g id="新版定稿" stroke="none" stroke-width="1" fill="none" fill-rule="evenodd">
        <g id="切图3" transform="translate(-188.000000, -118.000000)" fill="#333333" fill-rule="nonzero">
            <path d="M192.395005,120.820003 L192.395005,120.820003 C193.090885,120.820003 193.655006,121.384124 193.655006,122.080004 C193.655006,122.775885 193.090885,123.340006 192.395005,123.340006 L192.080004,123.340006 L192.080004,123.340006 C191.384124,123.340006 190.820003,123.904127 190.820003,124.600007 C190.820003,124.600007 190.820003,124.600007 190.820003,124.600007 L190.820003,139.720025 L190.820003,139.720025 C190.820003,140.415905 191.384124,140.980026 192.080004,140.980026 L209.720025,140.980026 L209.720025,140.980026 C210.415905,140.980026 210.980026,140.415905 210.980026,139.720025 C210.980026,139.720025 210.980026,139.720025 210.980026,139.720025 L210.980026,124.600007 L210.980026,124.600007 C210.980026,123.904127 210.415905,123.340006 209.720025,123.340006 C209.720025,123.340006 209.720025,123.340006 209.720025,123.340006 L209.405024,123.340006 L209.405024,123.340006 C208.709144,123.340006 208.145023,122.775884 208.145023,122.080004 C208.145023,121.384124 208.709144,120.820003 209.405024,120.820003 L209.720025,120.820003 L209.720025,120.820003 C211.807662,120.820003 213.500029,122.512369 213.500029,124.600007 L213.500029,139.720025 L213.500029,139.720025 C213.500029,141.807663 211.807662,143.500029 209.720025,143.500029 C209.720025,143.500029 209.720025,143.500029 209.720025,143.500029 L192.080004,143.500029 L192.080004,143.500029 C189.992366,143.500029 188.299999,141.807663 188.299999,139.720025 C188.299999,139.720025 188.299999,139.720025 188.299999,139.720025 L188.299999,124.600007 L188.299999,124.600008 C188.299999,122.51237 189.992364,120.820003 192.080004,120.820003 L192.395005,120.820003 Z M199.274613,136.883772 L199.207203,136.879357 L199.207203,136.879357 C198.991971,136.859006 198.785513,136.78397 198.607442,136.661376 L198.590432,136.648776 L198.590432,136.648776 C198.534546,136.609378 198.482261,136.565105 198.434192,136.516476 L198.501602,136.579476 L198.501602,136.579476 C198.485705,136.56559 198.47016,136.551305 198.454982,136.536636 L198.434192,136.515846 L194.024187,132.105841 L194.024187,132.105841 C193.54075,131.605303 193.554615,130.807636 194.055153,130.324199 C194.543433,129.852602 195.317549,129.852602 195.805829,130.324199 L199.418243,133.935998 L206.413146,128.341592 L206.413146,128.341592 C206.947449,127.895758 207.742008,127.967474 208.187844,128.501777 C208.633678,129.036079 208.561961,129.830638 208.027658,130.276475 C208.014295,130.287625 208.000702,130.298497 207.986889,130.309085 L200.11188,136.609092 L200.07534,136.637442 L200.07534,136.637442 C200.06537,136.644942 200.055289,136.652292 200.0451,136.659492 L200.11188,136.609092 L200.11188,136.609092 C199.95896,136.730899 199.780032,136.815836 199.588979,136.857312 L199.576379,136.859832 L199.576379,136.859832 C199.511476,136.873565 199.445493,136.881575 199.37919,136.883772 L199.273979,136.883772 L199.274613,136.883772 Z M195.860009,118.3 L195.860009,118.3 C196.555889,118.3 197.12001,118.864121 197.12001,119.560001 L197.12001,123.970007 L197.12001,123.970007 C197.12001,124.665887 196.555889,125.230008 195.860009,125.230008 C195.164129,125.230008 194.600007,124.665887 194.600007,123.970007 L194.600007,119.560001 L194.600007,119.560001 C194.600007,118.864121 195.164129,118.3 195.860009,118.3 L195.860009,118.3 Z M205.940021,118.3 L205.94002,118.3 C206.635901,118.3 207.200022,118.864121 207.200022,119.560001 C207.200022,119.560001 207.200022,119.560001 207.200022,119.560001 L207.200022,123.970007 L207.200022,123.970007 C207.200022,124.665887 206.635901,125.230008 205.94002,125.230008 C205.24414,125.230008 204.680019,124.665887 204.680019,123.970007 C204.680019,123.970007 204.680019,123.970007 204.680019,123.970007 L204.680019,119.560001 L204.680019,119.560001 C204.680019,118.864121 205.24414,118.3 205.94002,118.3 C205.94002,118.3 205.94002,118.3 205.94002,118.3 L205.940021,118.3 Z M202.160016,120.820003 L202.160016,120.820003 C202.855896,120.820003 203.420018,121.384124 203.420018,122.080004 C203.420018,122.775885 202.855896,123.340006 202.160016,123.340006 L199.640013,123.340006 L199.640013,123.340006 C198.944133,123.340006 198.380012,122.775885 198.380012,122.080004 C198.380012,121.384124 198.944133,120.820003 199.640013,120.820003 L202.160016,120.820003 Z" id="2打卡"></path>
        </g>
    </g>
</svg>