<?xml version="1.0" encoding="UTF-8"?>
<svg width="21px" height="21px" viewBox="0 0 21 21" version="1.1" xmlns="http://www.w3.org/2000/svg" xmlns:xlink="http://www.w3.org/1999/xlink">
    <!-- Generator: Sketch 63.1 (92452) - https://sketch.com -->
    <title>23任务-取消完成@1x</title>
    <desc>Created with Sketch.</desc>
    <g id="新版定稿" stroke="none" stroke-width="1" fill="none" fill-rule="evenodd">
        <g id="切图3" transform="translate(-189.000000, -1531.000000)" fill="#333333" fill-rule="nonzero" stroke="#333333" stroke-width="1.2">
            <path d="M200.971034,1541.49995 L208.707083,1533.76061 C209.097639,1533.37002 209.097639,1532.72591 208.707083,1532.33519 L208.664975,1532.29294 C208.274419,1531.90235 207.630703,1531.90235 207.24002,1532.29294 L199.503971,1540.04285 L191.767794,1532.29294 C191.377239,1531.90235 190.733395,1531.90235 190.342967,1532.29294 L190.300731,1532.33519 C190.108458,1532.52243 190,1532.77947 190,1533.0479 C190,1533.31633 190.108458,1533.57337 190.300731,1533.76061 L198.036907,1541.49995 L190.300731,1549.23943 C189.910303,1549.63001 189.910303,1550.27425 190.300731,1550.66471 L190.342967,1550.70696 C190.733395,1551.09768 191.377239,1551.09768 191.767794,1550.70696 L199.503971,1542.96762 L207.24002,1550.70696 C207.630703,1551.09768 208.274419,1551.09768 208.664975,1550.70696 L208.707083,1550.66471 C209.097639,1550.27425 209.097639,1549.63001 208.707083,1549.23943 L200.971034,1541.49995 L200.971034,1541.49995 Z" id="23任务-取消完成"></path>
        </g>
    </g>
</svg>