<?xml version="1.0" encoding="UTF-8"?>
<svg width="24px" height="24px" viewBox="0 0 24 24" version="1.1" xmlns="http://www.w3.org/2000/svg" xmlns:xlink="http://www.w3.org/1999/xlink">
    <!-- Generator: Sketch 63.1 (92452) - https://sketch.com -->
    <title>17日完成任务时长@1x</title>
    <desc>Created with Sketch.</desc>
    <g id="新版定稿" stroke="none" stroke-width="1" fill="none" fill-rule="evenodd">
        <g id="切图3" transform="translate(-188.000000, -1123.000000)" fill="#333333" fill-rule="nonzero" stroke="#333333" stroke-width="0.4">
            <g id="17日完成任务时长" transform="translate(189.000000, 1124.000000)">
                <path d="M21.6923051,15.3682399 C21.4329014,15.059444 21.1241347,14.7877141 20.7906281,14.5530503 C21.1488454,13.5154937 21.3464725,12.4038343 21.3464725,11.2427827 C21.3464725,5.6598042 16.825732,1.13909298 11.2427827,1.13909298 C5.65983348,1.13909298 1.13909298,5.6598042 1.13909298,11.2427827 C1.13909298,16.8257612 5.65983348,21.3464725 11.2427827,21.3464725 C12.4038343,21.3464725 13.5154937,21.1488454 14.553021,20.7906281 C14.7877141,21.1241347 15.059444,21.4329306 15.3682399,21.6923051 C14.0960195,22.1987281 12.7002748,22.470458 11.2427827,22.470458 C5.04224166,22.470458 0.0151074893,17.4433238 0.0151074893,11.2427827 C0.0151074893,5.04224166 5.04224166,0.0151074893 11.2427827,0.0151074893 C17.4433238,0.0151074893 22.470458,5.04224166 22.470458,11.2427827 C22.470458,12.7002748 22.1987574,14.0836641 21.6923051,15.3682399 L21.6923051,15.3682399 Z M18.3871225,15.0151075 C20.252224,15.0151075 21.7591375,16.522021 21.7591375,18.3871225 C21.7591375,20.252224 20.252224,21.7591375 18.3871225,21.7591375 C16.522021,21.7591375 15.0151075,20.252224 15.0151075,18.3871225 C15.0151075,16.5343763 16.5343471,15.0151075 18.3871225,15.0151075 Z M18.1851075,15.9191075 C17.6181075,15.9191075 17.1701075,16.1781075 16.8411075,16.7031075 C16.5261075,17.2001075 16.3721075,17.8511075 16.3721075,18.6491075 C16.3721075,19.4121075 16.5121075,20.0071075 16.8061075,20.4341075 C17.1141075,20.8821075 17.5691075,21.1131075 18.1781075,21.1131075 C18.6681075,21.1131075 19.0671075,20.9451075 19.3891075,20.6231075 C19.7041075,20.3011075 19.8651075,19.8881075 19.8651075,19.3981075 C19.8651075,18.9081075 19.7181075,18.5161075 19.4311075,18.2081075 C19.1371075,17.9001075 18.7521075,17.7461075 18.2761075,17.7461075 C17.9821075,17.7461075 17.7231075,17.8161075 17.4991075,17.9631075 C17.2611075,18.1031075 17.0861075,18.3061075 16.9601075,18.5651075 L16.9321075,18.5651075 C16.9251075,18.4741075 16.9251075,18.4111075 16.9251075,18.3831075 C16.9251075,17.8161075 17.0301075,17.3471075 17.2541075,16.9831075 C17.4781075,16.5911075 17.7861075,16.4021075 18.1781075,16.4021075 C18.7591075,16.4021075 19.1021075,16.6821075 19.2141075,17.2561075 L19.7811075,17.2561075 C19.6411075,16.3601075 19.1091075,15.9191075 18.1851075,15.9191075 Z M18.1641075,18.2221075 C18.5071075,18.2221075 18.7801075,18.3271075 18.9901075,18.5511075 C19.1931075,18.7611075 19.2981075,19.0411075 19.2981075,19.3981075 C19.2981075,19.7551075 19.1931075,20.0491075 18.9831075,20.2871075 C18.7731075,20.5111075 18.5001075,20.6301075 18.1641075,20.6301075 C17.8141075,20.6301075 17.5411075,20.5111075 17.3311075,20.2731075 C17.1211075,20.0491075 17.0231075,19.7621075 17.0231075,19.4121075 C17.0231075,19.0621075 17.1281075,18.7821075 17.3451075,18.5581075 C17.5621075,18.3341075 17.8351075,18.2221075 18.1641075,18.2221075 Z M11.8109531,4.07878788 L12.2309179,11.9468327 L8.40190134,15.2323896 C8.34012459,15.2817817 8.26605105,15.2817817 8.21662965,15.2200342 L7.41376614,14.4171707 C7.36434474,14.3677493 7.36434474,14.2813204 7.40141079,14.2195437 L10.2546475,10.9586975 L10.6746123,4.07878788 C10.6746123,4.00471434 10.736389,3.94293759 10.8104626,3.94293759 L11.6627475,3.94293759 C11.7492057,3.94293759 11.8109531,4.00471434 11.8109531,4.07878788 Z" id="形状"></path>
            </g>
        </g>
    </g>
</svg>