<?xml version="1.0" encoding="UTF-8"?>
<svg width="25px" height="25px" viewBox="0 0 25 25" version="1.1" xmlns="http://www.w3.org/2000/svg" xmlns:xlink="http://www.w3.org/1999/xlink">
    <!-- Generator: Sketch 63.1 (92452) - https://sketch.com -->
    <title>16任务超时未完成@1x</title>
    <desc>Created with Sketch.</desc>
    <g id="新版定稿" stroke="none" stroke-width="1" fill="none" fill-rule="evenodd">
        <g id="切图3" transform="translate(-108.000000, -1054.000000)" fill="#FFFFFF" fill-rule="nonzero">
            <path d="M126.6444,1054.1272 L132.1728,1058.7388 L130.6356,1060.582 L125.106,1055.9704 L126.6444,1054.1272 L126.6444,1054.1272 Z M113.8356,1054.1272 L115.374,1055.968 L109.8444,1060.582 L108.3072,1058.7388 L113.8356,1054.126 L113.8356,1054.1272 Z M120.24,1056.7528 C116.381317,1056.7528 112.815862,1058.8118 110.886706,1062.15362 C108.95755,1065.49544 108.957779,1069.61261 110.887306,1072.95422 C112.816833,1076.29583 116.382517,1078.354 120.2412,1078.354 C126.206207,1078.354 131.0418,1073.51841 131.0418,1067.5534 C131.0418,1061.58839 126.206207,1056.7528 120.2412,1056.7528 L120.24,1056.7528 Z M120.24,1075.9528 C115.608,1075.9528 111.84,1072.1848 111.84,1067.5528 C111.84,1062.9208 115.608,1059.1528 120.24,1059.1528 C124.872,1059.1528 128.64,1062.9208 128.64,1067.5528 C128.64,1072.1848 124.872,1075.9528 120.24,1075.9528 L120.24,1075.9528 Z M119.04,1061.44 L121.44,1061.44 L121.44,1068.64 L119.04,1068.64 L119.04,1061.44 Z M119.04,1071.04 L121.44,1071.04 L121.44,1073.44 L119.04,1073.44 L119.04,1071.04 Z" id="16任务超时未完成"></path>
        </g>
    </g>
</svg>