<?xml version="1.0" encoding="UTF-8"?>
<svg width="26px" height="26px" viewBox="0 0 26 26" version="1.1" xmlns="http://www.w3.org/2000/svg" xmlns:xlink="http://www.w3.org/1999/xlink">
    <!-- Generator: Sketch 63.1 (92452) - https://sketch.com -->
    <title>18日完成任务数量@1x</title>
    <desc>Created with Sketch.</desc>
    <g id="新版定稿" stroke="none" stroke-width="1" fill="none" fill-rule="evenodd">
        <g id="切图3" transform="translate(-188.000000, -1190.000000)" fill="#333333" fill-rule="nonzero">
            <path d="M192.095005,1192.52 L192.095005,1192.52 C192.790885,1192.52 193.355007,1193.08412 193.355007,1193.78 C193.355007,1194.47588 192.790885,1195.04001 192.095005,1195.04001 L191.780005,1195.04001 L191.780005,1195.04001 C191.084125,1195.04001 190.520003,1195.60413 190.520003,1196.30001 C190.520003,1196.30001 190.520003,1196.30001 190.520003,1196.30001 L190.520003,1211.42003 L190.520003,1211.42002 C190.520003,1212.11591 191.084125,1212.68003 191.780005,1212.68003 L209.420025,1212.68003 L209.420025,1212.68003 C210.115905,1212.68003 210.680027,1212.11591 210.680027,1211.42002 C210.680027,1211.42002 210.680027,1211.42002 210.680027,1211.42002 L210.680027,1196.30001 L210.680027,1196.30001 C210.680027,1195.60413 210.115905,1195.04001 209.420025,1195.04001 C209.420025,1195.04001 209.420025,1195.04001 209.420025,1195.04001 L209.105025,1195.04001 L209.105025,1195.04001 C208.409145,1195.04001 207.845023,1194.47588 207.845023,1193.78 C207.845023,1193.08412 208.409145,1192.52 209.105025,1192.52 L209.420025,1192.52 L209.420025,1192.52 C211.507663,1192.52 213.200029,1194.21237 213.200029,1196.30001 L213.200029,1211.42002 L213.200029,1211.42002 C213.200029,1213.50766 211.507663,1215.20003 209.420025,1215.20003 C209.420025,1215.20003 209.420025,1215.20003 209.420025,1215.20003 L191.780005,1215.20003 L191.780004,1215.20003 C189.692367,1215.20003 188,1213.50766 188,1211.42002 C188,1211.42002 188,1211.42002 188,1211.42002 L188,1196.30001 L188,1196.30001 C188,1194.21237 189.692364,1192.52 191.780004,1192.52 L192.095005,1192.52 Z M195.560009,1190 L195.560009,1190 C196.255889,1190 196.820011,1190.56412 196.820011,1191.26 L196.820011,1195.67001 L196.820011,1195.67001 C196.820011,1196.36589 196.255889,1196.93001 195.560009,1196.93001 C194.864129,1196.93001 194.300008,1196.36589 194.300008,1195.67001 L194.300008,1191.26 L194.300008,1191.26 C194.300008,1190.56412 194.864129,1190 195.560009,1190 L195.560009,1190 Z M205.640021,1190 L205.640021,1190 C206.335901,1190 206.900022,1190.56412 206.900022,1191.26 C206.900022,1191.26 206.900022,1191.26 206.900022,1191.26 L206.900022,1195.67001 L206.900022,1195.67001 C206.900022,1196.36589 206.335901,1196.93001 205.640021,1196.93001 C204.944141,1196.93001 204.38002,1196.36589 204.38002,1195.67001 C204.38002,1195.67001 204.38002,1195.67001 204.38002,1195.67001 L204.38002,1191.26 L204.38002,1191.26 C204.38002,1190.56412 204.944141,1190 205.640021,1190 C205.640021,1190 205.640021,1190 205.640021,1190 L205.640021,1190 Z M207.148,1200.004 L207.148,1210 L206,1210 L206,1201.404 C205.37,1202.048 204.586,1202.496 203.648,1202.776 L203.648,1202.776 L203.648,1201.628 C204.096,1201.502 204.572,1201.306 205.048,1201.026 C205.524,1200.718 205.916,1200.382 206.252,1200.004 L206.252,1200.004 L207.148,1200.004 Z M193.148,1205.73 L201.884,1208.474 L201.884,1209.426 L193.148,1206.682 L193.148,1205.73 Z M201.884,1200.788 L201.884,1201.796 L194.688,1204.05 L201.884,1206.304 L201.884,1207.326 L193.148,1204.568 L193.148,1203.532 L201.884,1200.788 Z M201.860017,1192.52 C202.555897,1192.52 203.120018,1193.08412 203.120018,1193.78 C203.120018,1194.47588 202.555897,1195.04001 201.860017,1195.04001 L199.340014,1195.04001 C198.644134,1195.04001 198.080012,1194.47588 198.080012,1193.78 C198.080012,1193.08412 198.644134,1192.52 199.340014,1192.52 L201.860017,1192.52 Z" id="18日完成任务数量"></path>
        </g>
    </g>
</svg>