<?xml version="1.0" encoding="UTF-8"?>
<svg width="21px" height="21px" viewBox="0 0 21 21" version="1.1" xmlns="http://www.w3.org/2000/svg" xmlns:xlink="http://www.w3.org/1999/xlink">
    <!-- Generator: Sketch 63.1 (92452) - https://sketch.com -->
    <title>13任务-取消完成@1x</title>
    <desc>Created with Sketch.</desc>
    <g id="新版定稿" stroke="none" stroke-width="1" fill="none" fill-rule="evenodd">
        <g id="切图3" transform="translate(-111.000000, -856.000000)" fill="#FFFFFF" fill-rule="nonzero" stroke="#FFFFFF" stroke-width="1.2">
            <path d="M122.971034,866.499952 L130.707083,858.760606 C131.097639,858.370017 131.097639,857.72591 130.707083,857.335194 L130.664975,857.292941 C130.274419,856.902353 129.630703,856.902353 129.24002,857.292941 L121.503971,865.042851 L113.767794,857.292941 C113.377239,856.902353 112.733395,856.902353 112.342967,857.292941 L112.300731,857.335194 C112.108458,857.522431 112,857.779467 112,858.0479 C112,858.316333 112.108458,858.573369 112.300731,858.760606 L120.036907,866.499952 L112.300731,874.239426 C111.910303,874.630014 111.910303,875.274249 112.300731,875.66471 L112.342967,875.706963 C112.733395,876.097679 113.377239,876.097679 113.767794,875.706963 L121.503971,867.967617 L129.24002,875.706963 C129.630703,876.097679 130.274419,876.097679 130.664975,875.706963 L130.707083,875.66471 C131.097639,875.274249 131.097639,874.630014 130.707083,874.239426 L122.971034,866.499952 L122.971034,866.499952 Z" id="13任务-取消完成"></path>
        </g>
    </g>
</svg>