<?xml version="1.0" encoding="UTF-8"?>
<svg width="25px" height="25px" viewBox="0 0 25 25" version="1.1" xmlns="http://www.w3.org/2000/svg" xmlns:xlink="http://www.w3.org/1999/xlink">
    <!-- Generator: Sketch 63.1 (92452) - https://sketch.com -->
    <title>16任务超时未完成@1x</title>
    <desc>Created with Sketch.</desc>
    <g id="新版定稿" stroke="none" stroke-width="1" fill="none" fill-rule="evenodd">
        <g id="切图3" transform="translate(-188.000000, -1054.000000)" fill="#333333" fill-rule="nonzero">
            <path d="M206.6444,1054.1272 L212.1728,1058.7388 L210.6356,1060.582 L205.106,1055.9704 L206.6444,1054.1272 L206.6444,1054.1272 Z M193.8356,1054.1272 L195.374,1055.968 L189.8444,1060.582 L188.3072,1058.7388 L193.8356,1054.126 L193.8356,1054.1272 Z M200.24,1056.7528 C196.381317,1056.7528 192.815862,1058.8118 190.886706,1062.15362 C188.95755,1065.49544 188.957779,1069.61261 190.887306,1072.95422 C192.816833,1076.29583 196.382517,1078.354 200.2412,1078.354 C206.206207,1078.354 211.0418,1073.51841 211.0418,1067.5534 C211.0418,1061.58839 206.206207,1056.7528 200.2412,1056.7528 L200.24,1056.7528 Z M200.24,1075.9528 C195.608,1075.9528 191.84,1072.1848 191.84,1067.5528 C191.84,1062.9208 195.608,1059.1528 200.24,1059.1528 C204.872,1059.1528 208.64,1062.9208 208.64,1067.5528 C208.64,1072.1848 204.872,1075.9528 200.24,1075.9528 L200.24,1075.9528 Z M199.04,1061.44 L201.44,1061.44 L201.44,1068.64 L199.04,1068.64 L199.04,1061.44 Z M199.04,1071.04 L201.44,1071.04 L201.44,1073.44 L199.04,1073.44 L199.04,1071.04 Z" id="16任务超时未完成"></path>
        </g>
    </g>
</svg>