<?xml version="1.0" encoding="UTF-8"?>
<svg width="24px" height="24px" viewBox="0 0 24 24" version="1.1" xmlns="http://www.w3.org/2000/svg" xmlns:xlink="http://www.w3.org/1999/xlink">
    <!-- Generator: Sketch 63.1 (92452) - https://sketch.com -->
    <title>11评论-修改@1x</title>
    <desc>Created with Sketch.</desc>
    <g id="新版定稿" stroke="none" stroke-width="1" fill="none" fill-rule="evenodd">
        <g id="切图3" transform="translate(-111.000000, -725.000000)" fill="#FFFFFF" fill-rule="nonzero" stroke="#FFFFFF" stroke-width="0.7">
            <path d="M119.345288,737.262228 L122.54183,740.439696 L118.067113,741.710071 L119.345288,737.262228 L119.345288,737.262228 Z M120.099072,736.272445 L128.082469,728.338508 L131.522356,731.757393 L123.538592,739.691207 L120.099072,736.272445 Z M121.622797,736.272567 L123.416184,738.17611 L129.998509,731.63497 L128.204754,729.85385 L121.622797,736.272567 Z M129.005542,727.419608 L129.96754,726.465327 C130.130709,726.30275 130.351042,726.209832 130.572476,726.209832 C130.771021,726.209832 130.954387,726.283407 131.088545,726.41697 L133.456022,728.769312 C133.590426,728.902507 133.664359,729.08406 133.664605,729.280547 C133.664849,729.499805 133.571697,729.718451 133.40914,729.880416 L132.444939,730.838247 L129.005542,727.419608 Z M115.229591,748 C113.448812,748 112,746.550889 112,744.769891 L112,729.229987 C112,727.448989 113.448812,726 115.229591,726 L126.083437,726 L125.060358,727.145749 L116.007979,727.145749 C114.361969,727.145749 113.267649,728.361891 113.267649,730.007245 L113.267649,744.237722 C113.267649,745.882953 114.361357,746.854251 116.00651,746.854251 L129.993368,746.854251 C131.638643,746.854251 132.854758,745.637986 132.854758,743.992632 L132.854758,734.939635 L134,733.917165 L134,744.770013 C134,746.551011 132.551188,748 130.770286,748 L115.229591,748 L115.229591,748 Z" id="11评论-修改"></path>
        </g>
    </g>
</svg>