<?xml version="1.0" encoding="UTF-8"?>
<svg width="22px" height="22px" viewBox="0 0 22 22" version="1.1" xmlns="http://www.w3.org/2000/svg" xmlns:xlink="http://www.w3.org/1999/xlink">
    <!-- Generator: Sketch 63.1 (92452) - https://sketch.com -->
    <title>1用户登陆/退出登陆@1x</title>
    <desc>Created with Sketch.</desc>
    <g id="新版定稿" stroke="none" stroke-width="1" fill="none" fill-rule="evenodd">
        <g id="切图3" transform="translate(-110.000000, -52.000000)" fill="#FFFFFF" fill-rule="nonzero">
            <path d="M120.956595,61.7392143 L120.956594,61.7392143 C118.26719,61.7392143 116.086987,59.5590203 116.086987,56.8696071 C116.086987,54.1802026 118.267181,52 120.956594,52 C123.645999,52 125.826202,54.180194 125.826202,56.8696071 C125.826202,56.8696071 125.826202,56.8696072 125.826202,56.8696072 L125.826202,56.8696071 C125.826202,59.5590117 123.646008,61.7392143 120.956594,61.7392143 L120.956595,61.7392143 Z M110,72.9392793 C110.474786,67.1322842 115.186121,64.1740036 120.956595,64.1740036 C126.727068,64.1740036 131.572308,66.9618492 131.913189,72.9392793 L131.913189,72.9392792 C131.989501,73.3968826 131.680402,73.8297051 131.222798,73.9060161 C131.149227,73.9182851 131.074348,73.9207006 131.000139,73.9131987 L110.88871,73.9131987 L110.88871,73.9131987 C110.443456,73.7649029 110.107028,73.3962129 110,72.9392801 L110,72.9392793 Z" id="1用户登陆/退出登陆"></path>
        </g>
    </g>
</svg>