<?xml version="1.0" encoding="UTF-8"?>
<svg width="18px" height="22px" viewBox="0 0 18 22" version="1.1" xmlns="http://www.w3.org/2000/svg" xmlns:xlink="http://www.w3.org/1999/xlink">
    <!-- Generator: Sketch 63.1 (92452) - https://sketch.com -->
    <title>火苗-白@1x</title>
    <desc>Created with Sketch.</desc>
    <g id="新版定稿" stroke="none" stroke-width="1" fill="none" fill-rule="evenodd">
        <g id="项目-设置" transform="translate(-713.000000, -87.000000)" fill-rule="nonzero" stroke="#FFFFFF">
            <g id="编组-4" transform="translate(564.000000, 25.000000)">
                <path d="M155.891639,82.787273 C155.891639,82.787273 147.072567,80.8571305 151.014166,71.2770869 C151.014166,71.2770869 151.909052,72.3415362 151.786091,72.8538853 C151.786091,72.8538853 152.487427,70.4356862 154.001675,68.9913919 C155.301879,67.7502706 156.622577,64.260997 155.404347,63 C155.404347,63 161.438569,64.260997 162.110303,70.5681902 C162.110303,70.5681902 162.882228,68.5585453 164.467065,68.3597892 C164.467065,68.3597892 163.979773,69.4639897 164.467065,71.1202905 C164.467065,71.1202905 169.6379,79.4691853 160.985888,82.5543269 C160.985888,82.5543269 158.196012,83.3766603 155.891639,82.787273 Z" id="火苗-白"></path>
            </g>
        </g>
    </g>
</svg>