<?xml version="1.0" encoding="UTF-8"?>
<svg width="21px" height="24px" viewBox="0 0 21 24" version="1.1" xmlns="http://www.w3.org/2000/svg" xmlns:xlink="http://www.w3.org/1999/xlink">
    <!-- Generator: Sketch 63.1 (92452) - https://sketch.com -->
    <title>12评论-删除@1x</title>
    <desc>Created with Sketch.</desc>
    <g id="新版定稿" stroke="none" stroke-width="1" fill="none" fill-rule="evenodd">
        <g id="切图3" transform="translate(-194.000000, -791.000000)" fill="#333333" fill-rule="nonzero">
            <g id="12评论-删除" transform="translate(194.000000, 791.000000)">
                <path d="M0.1,5.53175562 L0.1,3.69722849 C0.1,3.14475284 0.548525522,2.69815233 1.10100116,2.69815233 L6.83173283,2.69815233 L6.83173283,1.70100116 C6.83173283,1.14660052 7.28025836,0.7 7.832734,0.7 L12.3641893,0.7 C12.9166649,0.7 13.3613404,1.15045052 13.3613404,1.70100116 L13.3613404,2.69815233 L19.0959221,2.69815233 C19.6483977,2.69815233 20.0930733,3.14667785 20.0930733,3.69915349 L20.0930733,5.53175562 L0.1,5.53175562 L0.1,5.53175562 Z M17.30182,22.7335756 L17.30182,22.7335838 C17.3028787,23.2842938 16.8572979,23.7315921 16.3065879,23.7326546 C16.3059456,23.7326546 16.3053033,23.7326546 16.304661,23.7326546 L3.89994656,23.7326546 L3.89994653,23.7326546 C3.34923648,23.7337169 2.90193514,23.2881396 2.90087037,22.7374296 C2.90086789,22.736145 2.90086789,22.7348604 2.90087037,22.7335759 L0.902718044,6.23245665 L19.3057395,6.23245665 L17.3037371,22.7335759 L17.30182,22.7335756 Z M7.30143338,10.0324109 L7.30143338,10.0324109 C7.30143338,9.48116842 6.85456216,9.0342972 6.30331972,9.0342972 C5.75207728,9.0342972 5.30520606,9.48116842 5.30520606,10.0324109 L5.30520606,20.0327975 L5.30520606,20.0327976 C5.30520606,20.5840401 5.75207728,21.0309113 6.30331972,21.0309113 C6.85456216,21.0309113 7.30143338,20.5840401 7.30143338,20.0327976 L7.30143338,10.032411 L7.30143338,10.0324109 Z M11.0359377,10.0324109 L11.0359377,10.0324108 C11.0359377,9.48063601 10.5886364,9.03333467 10.0368616,9.03333467 C9.48508674,9.03333467 9.0377854,9.48063601 9.0377854,10.0324108 C9.0377854,10.0324108 9.0377854,10.0324109 9.0377854,10.0324109 L9.0377854,20.0327975 L9.0377854,20.0327977 C9.0377854,20.5840401 9.48465662,21.0309113 10.0358991,21.0309113 C10.5871415,21.0309113 11.0340127,20.5840401 11.0340127,20.0327977 L11.0340127,10.032411 L11.0359377,10.0324109 Z M14.8358921,10.0324109 L14.8358921,10.0324109 C14.8358921,9.48116842 14.3890209,9.0342972 13.8377785,9.0342972 C13.286536,9.0342972 12.8396648,9.48116842 12.8396648,10.0324109 L12.8396648,20.0327975 L12.8396648,20.0327976 C12.8396648,20.5840401 13.286536,21.0309113 13.8377785,21.0309113 C14.3890209,21.0309113 14.8358921,20.5840401 14.8358921,20.0327976 L14.8358921,10.032411 L14.8358921,10.0324109 Z" id="形状"></path>
            </g>
        </g>
    </g>
</svg>