<?xml version="1.0" encoding="UTF-8"?>
<svg width="18px" height="18px" viewBox="0 0 18 18" version="1.1" xmlns="http://www.w3.org/2000/svg" xmlns:xlink="http://www.w3.org/1999/xlink">
    <!-- Generator: Sketch 63.1 (92452) - https://sketch.com -->
    <title>加号-白色@1x</title>
    <desc>Created with Sketch.</desc>
    <g id="新版定稿" stroke="none" stroke-width="1" fill="none" fill-rule="evenodd">
        <g id="切图3" transform="translate(-112.000000, -15.000000)" fill="#FFFFFF" fill-rule="nonzero" stroke="#FFFFFF">
            <path d="M128.165673,23.1657152 L121.834296,23.1657152 L121.834296,16.8343005 C121.834296,16.3735402 121.460756,16 121,16 C120.539228,16 120.165704,16.3735246 120.165704,16.8343005 L120.165704,23.1657152 L113.834296,23.1657152 C113.373524,23.1657152 113,23.5392398 113,24 C113,24.4607759 113.373524,24.8343318 113.834296,24.8343318 L120.165704,24.8343318 L120.165704,31.1657309 C120.165704,31.6264598 120.539228,32 121,32 C121.460756,32 121.834296,31.6264598 121.834296,31.1657309 L121.834296,24.8343318 L128.165673,24.8343318 C128.626476,24.8343318 129,24.4607759 129,24 C129,23.5392398 128.626476,23.1657152 128.165673,23.1657152 Z" id="加号-白色"></path>
        </g>
    </g>
</svg>