<?xml version="1.0" encoding="UTF-8"?>
<svg width="26px" height="26px" viewBox="0 0 26 26" version="1.1" xmlns="http://www.w3.org/2000/svg" xmlns:xlink="http://www.w3.org/1999/xlink">
    <!-- Generator: Sketch 63.1 (92452) - https://sketch.com -->
    <title>2打卡@1x</title>
    <desc>Created with Sketch.</desc>
    <g id="新版定稿" stroke="none" stroke-width="1" fill="none" fill-rule="evenodd">
        <g id="切图3" transform="translate(-108.000000, -118.000000)" fill="#FFFFFF" fill-rule="nonzero">
            <path d="M112.395005,120.820003 L112.395005,120.820003 C113.090885,120.820003 113.655006,121.384124 113.655006,122.080004 C113.655006,122.775885 113.090885,123.340006 112.395005,123.340006 L112.080004,123.340006 L112.080004,123.340006 C111.384124,123.340006 110.820003,123.904127 110.820003,124.600007 C110.820003,124.600007 110.820003,124.600007 110.820003,124.600007 L110.820003,139.720025 L110.820003,139.720025 C110.820003,140.415905 111.384124,140.980026 112.080004,140.980026 L129.720025,140.980026 L129.720025,140.980026 C130.415905,140.980026 130.980026,140.415905 130.980026,139.720025 C130.980026,139.720025 130.980026,139.720025 130.980026,139.720025 L130.980026,124.600007 L130.980026,124.600007 C130.980026,123.904127 130.415905,123.340006 129.720025,123.340006 C129.720025,123.340006 129.720025,123.340006 129.720025,123.340006 L129.405024,123.340006 L129.405024,123.340006 C128.709144,123.340006 128.145023,122.775884 128.145023,122.080004 C128.145023,121.384124 128.709144,120.820003 129.405024,120.820003 L129.720025,120.820003 L129.720025,120.820003 C131.807662,120.820003 133.500029,122.512369 133.500029,124.600007 L133.500029,139.720025 L133.500029,139.720025 C133.500029,141.807663 131.807662,143.500029 129.720025,143.500029 C129.720025,143.500029 129.720025,143.500029 129.720025,143.500029 L112.080004,143.500029 L112.080004,143.500029 C109.992366,143.500029 108.299999,141.807663 108.299999,139.720025 C108.299999,139.720025 108.299999,139.720025 108.299999,139.720025 L108.299999,124.600007 L108.299999,124.600008 C108.299999,122.51237 109.992364,120.820003 112.080004,120.820003 L112.395005,120.820003 Z M119.274613,136.883772 L119.207203,136.879357 L119.207203,136.879357 C118.991971,136.859006 118.785513,136.78397 118.607442,136.661376 L118.590432,136.648776 L118.590432,136.648776 C118.534546,136.609378 118.482261,136.565105 118.434192,136.516476 L118.501602,136.579476 L118.501602,136.579476 C118.485705,136.56559 118.47016,136.551305 118.454982,136.536636 L118.434192,136.515846 L114.024187,132.105841 L114.024187,132.105841 C113.54075,131.605303 113.554615,130.807636 114.055153,130.324199 C114.543433,129.852602 115.317549,129.852602 115.805829,130.324199 L119.418243,133.935998 L126.413146,128.341592 L126.413146,128.341592 C126.947449,127.895758 127.742008,127.967474 128.187844,128.501777 C128.633678,129.036079 128.561961,129.830638 128.027658,130.276475 C128.014295,130.287625 128.000702,130.298497 127.986889,130.309085 L120.11188,136.609092 L120.07534,136.637442 L120.07534,136.637442 C120.06537,136.644942 120.055289,136.652292 120.0451,136.659492 L120.11188,136.609092 L120.11188,136.609092 C119.95896,136.730899 119.780032,136.815836 119.588979,136.857312 L119.576379,136.859832 L119.576379,136.859832 C119.511476,136.873565 119.445493,136.881575 119.37919,136.883772 L119.273979,136.883772 L119.274613,136.883772 Z M115.860009,118.3 L115.860009,118.3 C116.555889,118.3 117.12001,118.864121 117.12001,119.560001 L117.12001,123.970007 L117.12001,123.970007 C117.12001,124.665887 116.555889,125.230008 115.860009,125.230008 C115.164129,125.230008 114.600007,124.665887 114.600007,123.970007 L114.600007,119.560001 L114.600007,119.560001 C114.600007,118.864121 115.164129,118.3 115.860009,118.3 L115.860009,118.3 Z M125.940021,118.3 L125.94002,118.3 C126.635901,118.3 127.200022,118.864121 127.200022,119.560001 C127.200022,119.560001 127.200022,119.560001 127.200022,119.560001 L127.200022,123.970007 L127.200022,123.970007 C127.200022,124.665887 126.635901,125.230008 125.94002,125.230008 C125.24414,125.230008 124.680019,124.665887 124.680019,123.970007 C124.680019,123.970007 124.680019,123.970007 124.680019,123.970007 L124.680019,119.560001 L124.680019,119.560001 C124.680019,118.864121 125.24414,118.3 125.94002,118.3 C125.94002,118.3 125.94002,118.3 125.94002,118.3 L125.940021,118.3 Z M122.160016,120.820003 L122.160016,120.820003 C122.855896,120.820003 123.420018,121.384124 123.420018,122.080004 C123.420018,122.775885 122.855896,123.340006 122.160016,123.340006 L119.640013,123.340006 L119.640013,123.340006 C118.944133,123.340006 118.380012,122.775885 118.380012,122.080004 C118.380012,121.384124 118.944133,120.820003 119.640013,120.820003 L122.160016,120.820003 Z" id="2打卡"></path>
        </g>
    </g>
</svg>