<?xml version="1.0" encoding="UTF-8"?>
<svg width="24px" height="24px" viewBox="0 0 24 24" version="1.1" xmlns="http://www.w3.org/2000/svg" xmlns:xlink="http://www.w3.org/1999/xlink">
    <!-- Generator: Sketch 63.1 (92452) - https://sketch.com -->
    <title>17日完成任务时长@1x</title>
    <desc>Created with Sketch.</desc>
    <g id="新版定稿" stroke="none" stroke-width="1" fill="none" fill-rule="evenodd">
        <g id="切图3" transform="translate(-108.000000, -1123.000000)" fill="#FFFFFF" fill-rule="nonzero" stroke="#FFFFFF" stroke-width="0.4">
            <g id="17日完成任务时长" transform="translate(109.000000, 1124.000000)">
                <path d="M21.6923051,15.3682399 C21.4329014,15.059444 21.1241347,14.7877141 20.7906281,14.5530503 C21.1488454,13.5154937 21.3464725,12.4038343 21.3464725,11.2427827 C21.3464725,5.6598042 16.825732,1.13909298 11.2427827,1.13909298 C5.65983348,1.13909298 1.13909298,5.6598042 1.13909298,11.2427827 C1.13909298,16.8257612 5.65983348,21.3464725 11.2427827,21.3464725 C12.4038343,21.3464725 13.5154937,21.1488454 14.553021,20.7906281 C14.7877141,21.1241347 15.059444,21.4329306 15.3682399,21.6923051 C14.0960195,22.1987281 12.7002748,22.470458 11.2427827,22.470458 C5.04224166,22.470458 0.0151074893,17.4433238 0.0151074893,11.2427827 C0.0151074893,5.04224166 5.04224166,0.0151074893 11.2427827,0.0151074893 C17.4433238,0.0151074893 22.470458,5.04224166 22.470458,11.2427827 C22.470458,12.7002748 22.1987574,14.0836641 21.6923051,15.3682399 L21.6923051,15.3682399 Z M18.2585426,14.8865276 C20.1236442,14.8865276 21.6305577,16.3934411 21.6305577,18.2585426 C21.6305577,20.1236442 20.1236442,21.6305577 18.2585426,21.6305577 C16.3934411,21.6305577 14.8865276,20.1236442 14.8865276,18.2585426 C14.8865276,16.4057965 16.4057672,14.8865276 18.2585426,14.8865276 Z M18.3319818,16.5063974 C17.8260566,16.5063974 17.4263132,16.737499 17.1327517,17.2059483 C16.8516821,17.6494136 16.7142703,18.2302907 16.7142703,18.9423336 C16.7142703,19.6231466 16.8391901,20.1540558 17.1015217,20.5350612 C17.3763453,20.9348046 17.7823347,21.1409223 18.3257358,21.1409223 C18.7629552,21.1409223 19.1189766,20.9910185 19.4062922,20.7037029 C19.6873617,20.4163874 19.8310195,20.0478739 19.8310195,19.6106546 C19.8310195,19.1734353 19.6998537,18.8236598 19.4437681,18.5488362 C19.1814365,18.2740127 18.837907,18.1366009 18.4131797,18.1366009 C18.1508481,18.1366009 17.9197465,18.1990608 17.7198748,18.3302266 C17.5075111,18.4551464 17.3513613,18.6362801 17.2389335,18.8673818 L17.2139495,18.8673818 C17.2077036,18.7861839 17.2077036,18.72997 17.2077036,18.704986 C17.2077036,18.1990608 17.3013934,17.7805794 17.5012651,17.4557879 C17.7011368,17.1060125 17.9759604,16.9373707 18.3257358,16.9373707 C18.844153,16.9373707 19.1502066,17.1872103 19.2501424,17.6993816 L19.7560676,17.6993816 C19.6311478,16.8998948 19.1564526,16.5063974 18.3319818,16.5063974 Z M18.3132439,18.5613282 C18.6192974,18.5613282 18.862891,18.6550181 19.0502707,18.8548898 C19.2314044,19.0422695 19.3250943,19.2921091 19.3250943,19.6106546 C19.3250943,19.9292001 19.2314044,20.1915317 19.0440247,20.4038954 C18.856645,20.6037671 18.6130514,20.7099489 18.3132439,20.7099489 C18.0009443,20.7099489 17.7573507,20.6037671 17.569971,20.3914034 C17.3825913,20.1915317 17.2951474,19.9354461 17.2951474,19.6231466 C17.2951474,19.3108471 17.3888373,19.0610075 17.582463,18.8611358 C17.7760887,18.6612641 18.0196823,18.5613282 18.3132439,18.5613282 Z M11.8109531,4.07878788 L12.2309179,11.9468327 L8.40190134,15.2323896 C8.34012459,15.2817817 8.26605105,15.2817817 8.21662965,15.2200342 L7.41376614,14.4171707 C7.36434474,14.3677493 7.36434474,14.2813204 7.40141079,14.2195437 L10.2546475,10.9586975 L10.6746123,4.07878788 C10.6746123,4.00471434 10.736389,3.94293759 10.8104626,3.94293759 L11.6627475,3.94293759 C11.7492057,3.94293759 11.8109531,4.00471434 11.8109531,4.07878788 Z" id="形状"></path>
            </g>
        </g>
    </g>
</svg>