<?xml version="1.0" encoding="UTF-8"?>
<svg width="27px" height="26px" viewBox="0 0 27 26" version="1.1" xmlns="http://www.w3.org/2000/svg" xmlns:xlink="http://www.w3.org/1999/xlink">
    <!-- Generator: Sketch 63.1 (92452) - https://sketch.com -->
    <title>9点赞@1x</title>
    <desc>Created with Sketch.</desc>
    <g id="新版定稿" stroke="none" stroke-width="1" fill="none" fill-rule="evenodd">
        <g id="切图3" transform="translate(-190.000000, -583.000000)" fill="#333333" fill-rule="nonzero">
            <g id="9点赞" transform="translate(190.000000, 583.000000)">
                <path d="M7.6544,25.2928 L3.19488,25.2928 C1.757184,25.2928 0.59904,24.134656 0.59904,22.69696 L0.59904,12.44672 C0.59904,11.009024 1.757184,9.85088 3.19488,9.85088 L7.6544,9.85088 L7.6544,25.2928 Z M3.19488,11.84768 C2.86208,11.84768 2.59584,12.11392 2.59584,12.44672 L2.59584,22.69696 C2.59584,23.02976 2.86208,23.296 3.19488,23.296 L5.6576,23.296 L5.6576,11.84768 L3.19488,11.84768 Z" id="形状"></path>
                <path d="M19.954688,25.2928 L6.656,25.2928 C6.38976,25.2928 6.136832,25.186304 5.950464,24.999936 C5.764096,24.813568 5.6576,24.56064 5.6576,24.2944 L5.6576,10.875904 C5.6576,10.330112 6.110208,9.877504 6.656,9.877504 C7.45472,9.877504 8.439808,9.225216 9.531392,7.9872 C10.702848,6.656 11.44832,4.965376 11.767808,2.968576 C11.78112,2.915328 11.794432,2.86208 11.807744,2.822144 C11.994112,1.291264 13.285376,0.13312 14.856192,0.13312 C16.546816,0.13312 17.931264,1.504256 17.931264,3.208192 L17.931264,8.599552 L22.76352,8.599552 C24.640512,8.599552 26.15808,10.11712 26.15808,11.994112 C26.15808,12.3136 26.118144,12.619776 26.02496,12.91264 L23.216128,22.816768 C22.803456,24.281088 21.458944,25.2928 19.954688,25.2928 Z M15.149056,23.296 L19.954688,23.296 C20.580352,23.296 21.126144,22.883328 21.2992,22.284288 L24.108032,12.38016 C24.147968,12.260352 24.16128,12.127232 24.16128,11.994112 C24.16128,11.222016 23.535616,10.596352 22.76352,10.596352 L16.932864,10.596352 C16.387072,10.596352 15.934464,10.143744 15.934464,9.597952 L15.934464,3.208192 C15.934464,2.622464 15.455232,2.12992 14.856192,2.12992 C14.270464,2.12992 13.804544,2.582528 13.77792,3.168256 C13.77792,3.288064 13.751296,3.407872 13.698048,3.514368 C13.298688,5.79072 12.406784,7.747584 11.022336,9.305088 C9.864192,10.622976 8.745984,11.435008 7.641088,11.727872 L7.641088,23.296 L15.149056,23.296 Z" id="形状"></path>
            </g>
        </g>
    </g>
</svg>