<?xml version="1.0" encoding="UTF-8"?>
<svg width="22px" height="22px" viewBox="0 0 22 22" version="1.1" xmlns="http://www.w3.org/2000/svg" xmlns:xlink="http://www.w3.org/1999/xlink">
    <!-- Generator: Sketch 63.1 (92452) - https://sketch.com -->
    <title>1用户登陆@1x</title>
    <desc>Created with Sketch.</desc>
    <g id="新版定稿" stroke="none" stroke-width="1" fill="none" fill-rule="evenodd">
        <g id="切图3" transform="translate(-190.000000, -52.000000)" fill="#333333" fill-rule="nonzero">
            <path d="M200.956595,61.7392143 L200.956594,61.7392143 C198.26719,61.7392143 196.086987,59.5590203 196.086987,56.8696071 C196.086987,54.1802026 198.267181,52 200.956594,52 C203.645999,52 205.826202,54.180194 205.826202,56.8696071 C205.826202,56.8696071 205.826202,56.8696072 205.826202,56.8696072 L205.826202,56.8696071 C205.826202,59.5590117 203.646008,61.7392143 200.956594,61.7392143 L200.956595,61.7392143 Z M190,72.9392793 C190.474786,67.1322842 195.186121,64.1740036 200.956595,64.1740036 C206.727068,64.1740036 211.572308,66.9618492 211.913189,72.9392793 L211.913189,72.9392792 C211.989501,73.3968826 211.680402,73.8297051 211.222798,73.9060161 C211.149227,73.9182851 211.074348,73.9207006 211.000139,73.9131987 L190.88871,73.9131987 L190.88871,73.9131987 C190.443456,73.7649029 190.107028,73.3962129 190,72.9392801 L190,72.9392793 Z" id="1用户登陆"></path>
        </g>
    </g>
</svg>