<?xml version="1.0" encoding="UTF-8"?>
<svg width="32px" height="40px" viewBox="0 0 32 40" version="1.1" xmlns="http://www.w3.org/2000/svg" xmlns:xlink="http://www.w3.org/1999/xlink">
    <!-- Generator: Sketch 59 (86127) - https://sketch.com -->
    <title>wendang</title>
    <desc>Created with Sketch.</desc>
    <g id="页面-1" stroke="none" stroke-width="1" fill="none" fill-rule="evenodd">
        <path d="M7.1780583,12.996412 L24.7252701,12.980187 C25.6905041,12.980187 26.4731765,12.1975618 26.4731765,11.2322806 C26.4731765,10.2670467 25.6905084,9.48442157 24.7252701,9.48442157 L7.1780583,9.50064659 C6.21273413,9.50064659 5.430109,10.2828334 5.430109,11.2485529 C5.430109,12.2137869 6.21273413,12.996412 7.1780583,12.996412 Z M7.1780583,19.9879943 L24.7252701,19.9717693 C25.6905041,19.9717693 26.4731765,19.1891442 26.4731765,18.2239103 C26.4731765,17.2586763 25.6905084,16.4760512 24.7252701,16.4760512 L7.1780583,16.4922762 C6.21273413,16.4922762 5.430109,17.2744201 5.430109,18.2401353 C5.430109,19.2053692 6.21273413,19.9879943 7.1780583,19.9879943 Z M31.6903837,24.8207382 L31.6758735,4.0867024 C31.5940008,2.23295961 30.0799307,0.75222039 28.2073675,0.745800851 L3.57047559,0.759871329 C1.71334686,0.842271737 0.229088494,2.36271929 0.229088494,4.24033553 L0.229088494,6.09746426 L0.214666275,6.09746426 L0.22658221,33.8453403 L0.229088494,33.8453403 L0.229088494,35.702469 C0.229088494,37.6329842 1.79438602,39.1981914 3.72494412,39.1981914 L5.47280319,39.1981914 L5.47280319,39.2080408 L10.6328404,39.1986751 C11.5981646,39.1986751 12.3807897,38.41605 12.3807897,37.4508161 C12.3807897,36.4854919 11.5981646,35.7028668 10.6328404,35.7028668 L6.13087036,35.7110013 C4.448702,35.5484434 3.83162276,34.9800418 3.72240037,33.2129199 L3.71044048,6.43166996 L3.72068553,7.81633524 C3.6789138,4.8373513 4.36251909,4.29792529 7.16698524,4.25830805 L6.76245891,4.25404293 L24.7833158,4.24379787 C27.3856052,4.30522435 28.146819,4.78744773 28.1827881,7.25909904 L28.1827881,7.41998626 C28.1827881,7.54886301 28.1827881,7.67773976 28.1792705,7.81725731 L28.1827881,7.64190378 L28.1938247,23.4527464 L21.3131878,23.4621121 L21.3131878,23.4671686 L19.456059,23.4671686 C17.5255439,23.4671686 15.9603366,25.0320236 15.9603366,26.9630242 L15.9603366,28.7108833 L15.9483767,28.7108833 L15.9594572,37.1115845 C15.8468055,37.6672355 16.0038672,38.2663323 16.434821,38.6972836 C16.6080639,38.8704822 16.8095794,38.9990075 17.0229221,39.0842658 C17.2337154,39.1739649 17.4649551,39.2239152 17.7073206,39.2239152 C18.3176279,39.2239152 18.8527012,38.9106714 19.1650199,38.4373756 L30.8387835,26.7342644 C30.9684517,26.6557776 31.0896775,26.5652866 31.1955582,26.4565484 C31.52661,26.1386438 31.7340604,25.6938866 31.7340604,25.1984735 C31.7340604,25.0682776 31.7177475,24.9428745 31.6903981,24.8207692 L31.6903837,24.8207382 Z M19.4499906,33.2017736 L19.4466048,30.290138 C19.4705247,27.6299396 20.086681,26.9616802 22.9936406,26.9616802 L19.4671396,26.9851163 L19.4457701,30.1314508 L19.4415049,26.960362 L25.6837974,26.9518757 L19.4500128,33.2017736 L19.4499906,33.2017736 Z" id="wendang" fill="#FFFFFF" fill-rule="nonzero"></path>
    </g>
</svg>