<?xml version="1.0" encoding="UTF-8"?>
<svg width="17px" height="20px" viewBox="0 0 17 20" version="1.1" xmlns="http://www.w3.org/2000/svg" xmlns:xlink="http://www.w3.org/1999/xlink">
    <!-- Generator: Sketch 63.1 (92452) - https://sketch.com -->
    <title>8我私有的@1x</title>
    <desc>Created with Sketch.</desc>
    <g id="新版定稿" stroke="none" stroke-width="1" fill="none" fill-rule="evenodd">
        <g id="切图3" transform="translate(-410.000000, -2218.000000)" fill="#333333" fill-rule="nonzero">
            <g id="8我私有的" transform="translate(410.000000, 2218.000000)">
                <path d="M7.1106383,10.6450525 L7.1106383,14.1175887 C7.1106383,15.1558596 7.86808511,16 8.8,16 C9.73191489,16 10.4893617,15.1558596 10.4893617,14.1175887 L10.4893617,10.6450525 C11.3,10.0713861 11.7978723,9.11382114 11.8,8.09518144 C11.8,6.38945072 10.4553191,5 8.8,5 C7.14680851,5 5.8,6.38945072 5.8,8.09518144 C5.80212766,9.11600238 6.29787234,10.0713861 7.1106383,10.6450525 Z M8.8,6.59448741 C9.6,6.59448741 10.2510638,7.26849098 10.2510638,8.09518144 C10.2510638,8.68193536 9.91489362,9.21852072 9.39574468,9.46500099 L9.39148936,9.46718223 C9.34893617,9.4868134 9.31914894,9.51080706 9.29787234,9.52825699 C9.25957447,9.55225064 9.20638298,9.58715051 9.15531915,9.64168154 C9.11489362,9.68530637 9.09148936,9.72674995 9.0787234,9.74856236 L9.07659574,9.7507436 C9.07446809,9.75292485 9.07234043,9.75510609 9.07234043,9.75946857 C9.05319149,9.78782471 9.0212766,9.83581202 8.99574468,9.89906802 C8.97234043,9.96014277 8.96382979,10.0146738 8.95957447,10.0473924 C8.95106383,10.0757486 8.93829787,10.1259171 8.93829787,10.1913544 L8.93829787,14.11977 C8.93829787,14.3029942 8.83191489,14.3422566 8.79787234,14.3422566 C8.76382979,14.3422566 8.65744681,14.3029942 8.65744681,14.11977 L8.65744681,10.1913544 C8.65744681,10.1346421 8.64680851,10.0910173 8.64042553,10.0648424 C8.63617021,10.02558 8.62765957,9.96232401 8.6,9.89470553 C8.57659574,9.83581202 8.54893617,9.79436843 8.53191489,9.76819354 C8.52978723,9.76601229 8.52978723,9.76383105 8.52765957,9.76383105 C8.52765957,9.76164981 8.52553191,9.75946857 8.52553191,9.75946857 C8.5106383,9.73329367 8.48510638,9.68748761 8.44255319,9.64386278 C8.39148936,9.58933175 8.34042553,9.55661313 8.30638298,9.53261947 C8.28723404,9.51735078 8.25319149,9.49117589 8.20638298,9.46718223 L8.20425532,9.46500099 C7.68297872,9.22070196 7.34893617,8.6841166 7.34893617,8.09518144 C7.34893617,7.26849098 8,6.59448741 8.8,6.59448741 L8.8,6.59448741 Z" id="形状"></path>
                <path d="M16.0173665,2.65567562 C12.0625972,2.65567562 9.31959565,0.35423861 9.18519959,0.240614905 C9.00673924,0.0868887156 8.77980819,0 8.5462675,0 C8.24663038,0.00222791578 7.9690254,0.138130779 7.7817522,0.372061936 L7.77954899,0.374289852 C7.18908761,1.1295533 6.07646449,1.74223014 4.56065319,2.14325498 C2.90383618,2.58215439 1.40344738,2.61780105 0.982633489,2.61780105 L0.95619492,2.61780105 L0.931959565,2.62225688 C0.652151374,2.66013145 0.44064282,2.75370391 0.288621047,2.90965801 C0.105754277,3.09457503 0,3.35078534 0,3.6136794 L0,10.5625487 C0,12.117634 1.09720062,14.4324385 2.79587869,16.4598418 C3.64852255,17.4779993 4.58929497,18.3379748 5.51464489,18.9439679 C6.58320373,19.6435335 7.60549508,20 8.55067392,20 C9.5311042,20 10.5732245,19.6390776 11.6461897,18.9261446 C12.5583204,18.3201515 13.4836703,17.4579481 14.3230949,16.4308789 C15.9248315,14.4725409 17,12.2022948 17,10.7808845 L17,3.65155397 C16.9977968,3.10125877 16.557154,2.65567562 16.0173665,2.65567562 Z M15.3938569,4.26645873 L15.3938569,10.7831124 C15.3938569,11.8101816 14.4288491,13.7395566 13.100311,15.370391 C12.37986,16.2526456 11.6021255,16.9923137 10.8486262,17.5114181 C10.0158113,18.0839924 9.24027994,18.3736215 8.5462675,18.3736215 C7.25959046,18.3736215 5.55870918,17.2529798 3.99663038,15.3770747 C3.29821151,14.5393784 2.69893727,13.6326167 2.2649041,12.7548179 C1.83748056,11.8948424 1.60393987,11.1172998 1.60393987,10.5625487 L1.60393987,4.23303999 C2.79147227,4.17957001 4.06493002,3.97905759 5.15331778,3.67160521 C6.65811301,3.2460733 7.82361327,2.63562437 8.6255832,1.8491701 C9.62804562,2.57101482 12.1088647,4.09045338 15.3938569,4.26645873 L15.3938569,4.26645873 Z" id="形状"></path>
            </g>
        </g>
    </g>
</svg>