<?xml version="1.0" encoding="UTF-8"?>
<svg width="20px" height="19px" viewBox="0 0 20 19" version="1.1" xmlns="http://www.w3.org/2000/svg" xmlns:xlink="http://www.w3.org/1999/xlink">
    <!-- Generator: Sketch 63.1 (92452) - https://sketch.com -->
    <title>6我指派未完成的@1x</title>
    <desc>Created with Sketch.</desc>
    <g id="新版定稿" stroke="none" stroke-width="1" fill="none" fill-rule="evenodd">
        <g id="切图3" transform="translate(-410.000000, -2144.000000)">
            <g id="6我指派未完成的" transform="translate(410.000000, 2144.000000)">
                <path d="M2.78249436,1.71230402 C3.25533436,1.71230402 3.63864631,2.0956161 3.63864631,2.56845614 C3.63864633,3.04129619 3.25533436,3.42460814 2.78249432,3.42460814 L2.56845632,3.42460814 C2.09561624,3.42460816 1.71230429,3.8079201 1.71230429,4.28076014 L1.71230429,14.5545841 C1.71230422,15.027424 2.09561624,15.410736 2.56845628,15.410736 L7.48216486,15.4107104 C7.79047015,16.0454739 8.1978227,16.6232238 8.68412868,17.1238662 L2.5684561,17.12304 C1.14993754,17.12304 -1.48844492e-12,15.9731025 -1.48844492e-12,14.554584 L-1.48844492e-12,4.28076001 C-1.48844492e-12,2.86224195 1.14993587,1.71230402 2.56845598,1.71230402 L2.78249436,1.71230402 Z M14.5545841,1.71230402 C15.9731025,1.71230402 17.12304,2.86224156 17.12304,4.28076001 L17.1234543,7.11067647 C16.6017587,6.75260578 16.0258564,6.46778084 15.4105775,6.27103175 L15.4107362,4.28076001 C15.4107362,3.80791997 15.0274242,3.42460801 14.5545842,3.42460801 L14.3405462,3.42460801 C13.8677061,3.42460799 13.4843941,3.04129606 13.4843941,2.56845602 C13.4843942,2.09561597 13.8677061,1.71230402 14.3405461,1.71230402 L14.5545841,1.71230402 Z M5.1369123,1.78749415e-08 C5.60975234,1.78749415e-08 5.9930643,0.383312106 5.9930643,0.856152146 L5.9930643,3.85268414 C5.9930643,4.32552418 5.60975234,4.70883614 5.1369123,4.70883614 C4.66407227,4.70883614 4.28076031,4.32552418 4.28076031,3.85268414 L4.28076031,0.856152146 C4.28076031,0.383311976 4.66407227,1.78749415e-08 5.1369123,1.78749415e-08 Z M11.9861283,-2.34830466e-11 C12.4589683,-2.34830466e-11 12.8422803,0.383312106 12.8422803,0.856152146 L12.8422803,3.85268414 C12.8422803,4.32552421 12.4589683,4.70883617 11.9861283,4.70883617 C11.5132882,4.70883617 11.1299763,4.32552421 11.1299763,3.85268417 L11.1299763,0.856152128 C11.1299763,0.383311958 11.5132882,-2.34830466e-11 11.9861283,-2.34830466e-11 Z M9.41767231,1.71230415 C9.89051231,1.71230415 10.2738243,2.0956161 10.2738243,2.56845614 C10.2738243,3.04129619 9.89051231,3.42460814 9.41767228,3.42460814 L7.70536829,3.42460814 C7.23252821,3.42460814 6.84921625,3.04129619 6.84921625,2.56845614 C6.84921625,2.0956161 7.23252821,1.71230415 7.70536825,1.71230415 L9.41767231,1.71230415 Z" id="形状结合" fill="#333333" fill-rule="nonzero"></path>
                <circle id="椭圆形" stroke="#333333" stroke-width="1.21072" cx="14.1" cy="13.16" r="5.03464"></circle>
                <path d="M14.3911099,13.1599906 L15.9220334,11.6284146 C15.9993222,11.5511192 15.9993222,11.4236537 15.9220334,11.3463332 L15.9137003,11.3379715 C15.8364114,11.2606762 15.7090233,11.2606762 15.6317092,11.3379715 L14.1007858,12.8716379 L12.5698371,11.3379715 C12.4925483,11.2606762 12.365135,11.2606762 12.2878713,11.3379715 L12.279513,11.3463332 C12.2414633,11.3833862 12.22,11.4342523 12.22,11.4873739 C12.22,11.5404954 12.2414633,11.5913615 12.279513,11.6284146 L13.8104617,13.1599906 L12.279513,14.6915917 C12.2022494,14.7688871 12.2022494,14.8963778 12.279513,14.9736479 L12.2878713,14.9820096 C12.365135,15.0593301 12.4925483,15.0593301 12.5698371,14.9820096 L14.1007858,13.4504336 L15.6317092,14.9820096 C15.7090233,15.0593301 15.8364114,15.0593301 15.9137003,14.9820096 L15.9220334,14.9736479 C15.9993222,14.8963778 15.9993222,14.7688871 15.9220334,14.6915917 L14.3911099,13.1599906 L14.3911099,13.1599906 Z" stroke="#333333" stroke-width="0.5" fill="#333333" fill-rule="nonzero"></path>
            </g>
        </g>
    </g>
</svg>