<?xml version="1.0" encoding="UTF-8"?>
<svg width="20px" height="20px" viewBox="0 0 20 20" version="1.1" xmlns="http://www.w3.org/2000/svg" xmlns:xlink="http://www.w3.org/1999/xlink">
    <!-- Generator: Sketch 63.1 (92452) - https://sketch.com -->
    <title>3我完成的@1x</title>
    <desc>Created with Sketch.</desc>
    <g id="新版定稿" stroke="none" stroke-width="1" fill="none" fill-rule="evenodd">
        <g id="切图3" transform="translate(-408.000000, -2028.000000)" stroke="#333333">
            <g id="3我完成的" transform="translate(408.000000, 2028.000000)">
                <circle id="椭圆形" stroke-width="1.4" cx="10" cy="10" r="9.3"></circle>
                <path d="M14.8073157,8.04566746 L9.69815766,12.8030224 C9.68846292,12.8120726 9.68684706,12.8241394 9.67715232,12.8331895 C9.49295138,13.0051418 9.22149698,13.0428511 8.99690159,12.9523493 C8.90964849,12.9221823 8.82724258,12.87844 8.75776332,12.8135807 C8.73514212,12.7924637 8.72544737,12.7653134 8.70605778,12.7411796 L6.18056545,10.391163 C5.93981152,10.1664181 5.93981152,9.80139644 6.18056545,9.57815985 C6.42131938,9.35341503 6.81395812,9.35341503 7.05471205,9.57815985 L9.17787541,11.5556084 L13.8766168,7.17987101 C14.1335283,6.940043 14.5504048,6.940043 14.8073164,7.17987101 C15.0642279,7.41819078 15.0642279,7.80583857 14.8073164,8.04566658 L14.8073157,8.04566746 Z" id="路径" stroke-width="0.8" fill="#333333" fill-rule="nonzero"></path>
            </g>
        </g>
    </g>
</svg>