<?xml version="1.0" encoding="UTF-8"?>
<svg width="20px" height="20px" viewBox="0 0 20 20" version="1.1" xmlns="http://www.w3.org/2000/svg" xmlns:xlink="http://www.w3.org/1999/xlink">
    <!-- Generator: Sketch 63.1 (92452) - https://sketch.com -->
    <title>1我执行的@1x</title>
    <desc>Created with Sketch.</desc>
    <g id="新版定稿" stroke="none" stroke-width="1" fill="none" fill-rule="evenodd">
        <g id="切图3" transform="translate(-408.000000, -1953.000000)" stroke="#333333">
            <g id="1我执行的" transform="translate(408.000000, 1953.000000)">
                <circle id="椭圆形备份" stroke-width="1.4" cx="10" cy="10" r="9.3"></circle>
                <path d="M6.62204317,13.319407 C6.60790616,13.319407 6.59376914,13.3185485 6.57862234,13.3176901 C6.39585094,13.3030964 6.24539272,13.1957903 6.19490339,13.0455617 C5.97275031,12.3776882 5.70818619,10.6513468 8.04887181,9.05291432 C8.09431221,9.0211517 8.43461034,8.78421971 9.00715941,8.55930602 C9.50498427,8.36357959 10.2764613,8.14209969 11.2266706,8.1317983 L11.2266706,6.73338452 C11.2266706,6.55997777 11.3498646,6.40889071 11.5397045,6.34708237 C11.7295444,6.28527402 11.9405898,6.32905493 12.0759013,6.45782232 L14.8901769,9.13704234 C15.1123299,9.34822085 15.1093006,9.66498862 14.8841181,9.87445023 L12.0718621,12.4789852 C11.9355409,12.6051772 11.7255053,12.6472412 11.5366752,12.5845744 C11.347845,12.5219076 11.2266706,12.3708206 11.2266706,12.1991307 L11.2266706,10.8908541 C10.921715,10.892571 10.3895574,10.9234752 9.78974412,11.0814298 C8.55477496,11.4059236 7.62173203,12.0892492 7.01686978,13.1125207 C6.94012599,13.2412881 6.78865798,13.319407 6.62204317,13.319407 Z" id="形状备份-4" stroke-width="0.52" fill="#333333" fill-rule="nonzero" transform="translate(10.554916, 9.819407) rotate(88.000000) translate(-10.554916, -9.819407) "></path>
            </g>
        </g>
    </g>
</svg>