<?xml version="1.0" encoding="UTF-8"?>
<svg width="20px" height="20px" viewBox="0 0 20 20" version="1.1" xmlns="http://www.w3.org/2000/svg" xmlns:xlink="http://www.w3.org/1999/xlink">
    <!-- Generator: Sketch 63.1 (92452) - https://sketch.com -->
    <title>4我指派的@1x</title>
    <desc>Created with Sketch.</desc>
    <g id="新版定稿" stroke="none" stroke-width="1" fill="none" fill-rule="evenodd">
        <g id="切图3" transform="translate(-408.000000, -2067.000000)" stroke="#333333">
            <g id="4我指派的" transform="translate(408.000000, 2067.000000)">
                <circle id="椭圆形备份" stroke-width="1.4" cx="10" cy="10" r="9.3"></circle>
                <path d="M6.56712754,13 C6.55299053,13 6.53885351,12.9991416 6.52370671,12.9982831 C6.34093531,12.9836895 6.19047709,12.8763833 6.13998776,12.7261547 C5.91783468,12.0582812 5.65327056,10.3319398 7.99395618,8.73350736 C8.03939658,8.70174474 8.37969471,8.46481275 8.95224378,8.23989906 C9.45006864,8.04417263 10.2215457,7.82269273 11.171755,7.81239134 L11.171755,6.41397756 C11.171755,6.24057081 11.294949,6.08948375 11.4847889,6.02767541 C11.6746288,5.96586706 11.8856742,6.00964797 12.0209856,6.13841536 L14.8352612,8.81763538 C15.0574143,9.02881389 15.054385,9.34558166 14.8292025,9.55504327 L12.0169465,12.1595782 C11.8806253,12.2857702 11.6705896,12.3278343 11.4817595,12.2651675 C11.2929294,12.2025007 11.171755,12.0514136 11.171755,11.8797238 L11.171755,10.5714471 C10.8667994,10.573164 10.3346418,10.6040682 9.73482849,10.7620229 C8.49985933,11.0865167 7.5668164,11.7698423 6.96195415,12.7931137 C6.88521036,12.9218811 6.73374235,13 6.56712754,13 Z" id="形状备份-4" stroke-width="0.52" fill="#333333" fill-rule="nonzero"></path>
            </g>
        </g>
    </g>
</svg>