<?xml version="1.0" encoding="UTF-8"?>
<svg width="20px" height="19px" viewBox="0 0 20 19" version="1.1" xmlns="http://www.w3.org/2000/svg" xmlns:xlink="http://www.w3.org/1999/xlink">
    <!-- Generator: Sketch 63.1 (92452) - https://sketch.com -->
    <title>5我指派且完成的@1x</title>
    <desc>Created with Sketch.</desc>
    <g id="新版定稿" stroke="none" stroke-width="1" fill="none" fill-rule="evenodd">
        <g id="切图3" transform="translate(-410.000000, -2108.000000)">
            <g id="5我指派且完成的" transform="translate(410.000000, 2108.000000)">
                <path d="M2.78249436,1.71230402 C3.25533436,1.71230402 3.63864631,2.0956161 3.63864631,2.56845614 C3.63864633,3.04129619 3.25533436,3.42460814 2.78249432,3.42460814 L2.56845632,3.42460814 C2.09561624,3.42460816 1.71230429,3.8079201 1.71230429,4.28076014 L1.71230429,14.5545841 C1.71230422,15.027424 2.09561624,15.410736 2.56845628,15.410736 L7.48216486,15.4107104 C7.79047015,16.0454739 8.1978227,16.6232238 8.68412868,17.1238662 L2.5684561,17.12304 C1.14993754,17.12304 -1.48844492e-12,15.9731025 -1.48844492e-12,14.554584 L-1.48844492e-12,4.28076001 C-1.48844492e-12,2.86224195 1.14993587,1.71230402 2.56845598,1.71230402 L2.78249436,1.71230402 Z M14.5545841,1.71230402 C15.9731025,1.71230402 17.12304,2.86224156 17.12304,4.28076001 L17.1234543,7.11067647 C16.6017587,6.75260578 16.0258564,6.46778084 15.4105775,6.27103175 L15.4107362,4.28076001 C15.4107362,3.80791997 15.0274242,3.42460801 14.5545842,3.42460801 L14.3405462,3.42460801 C13.8677061,3.42460799 13.4843941,3.04129606 13.4843941,2.56845602 C13.4843942,2.09561597 13.8677061,1.71230402 14.3405461,1.71230402 L14.5545841,1.71230402 Z M5.1369123,1.78749415e-08 C5.60975234,1.78749415e-08 5.9930643,0.383312106 5.9930643,0.856152146 L5.9930643,3.85268414 C5.9930643,4.32552418 5.60975234,4.70883614 5.1369123,4.70883614 C4.66407227,4.70883614 4.28076031,4.32552418 4.28076031,3.85268414 L4.28076031,0.856152146 C4.28076031,0.383311976 4.66407227,1.78749415e-08 5.1369123,1.78749415e-08 Z M11.9861283,-2.34830466e-11 C12.4589683,-2.34830466e-11 12.8422803,0.383312106 12.8422803,0.856152146 L12.8422803,3.85268414 C12.8422803,4.32552421 12.4589683,4.70883617 11.9861283,4.70883617 C11.5132882,4.70883617 11.1299763,4.32552421 11.1299763,3.85268417 L11.1299763,0.856152128 C11.1299763,0.383311958 11.5132882,-2.34830466e-11 11.9861283,-2.34830466e-11 Z M9.41767231,1.71230415 C9.89051231,1.71230415 10.2738243,2.0956161 10.2738243,2.56845614 C10.2738243,3.04129619 9.89051231,3.42460814 9.41767228,3.42460814 L7.70536829,3.42460814 C7.23252821,3.42460814 6.84921625,3.04129619 6.84921625,2.56845614 C6.84921625,2.0956161 7.23252821,1.71230415 7.70536825,1.71230415 L9.41767231,1.71230415 Z" id="形状结合" fill="#333333" fill-rule="nonzero"></path>
                <circle id="椭圆形" stroke="#333333" stroke-width="1.21072" cx="13.724" cy="12.784" r="5.03464"></circle>
                <path d="M13.4141917,15.04 L13.3885202,15.0381207 L13.3885202,15.0381207 C13.3065544,15.0294596 13.2279303,14.9975251 13.1601163,14.9453503 L13.1536384,14.9399878 L13.1536384,14.9399878 C13.1323555,14.9232204 13.1124443,14.9043781 13.0941382,14.8836821 L13.1198097,14.9104943 L13.1198097,14.9104944 C13.1137556,14.9045845 13.1078357,14.8985051 13.1020556,14.892262 L13.0941383,14.883414 L11.4146975,13.0065551 L11.4146975,13.0065551 C11.2305925,12.7935306 11.2358727,12.4540506 11.4264902,12.2483041 C11.6124396,12.0475965 11.9072423,12.0475965 12.0931917,12.2483042 L13.4688898,13.7854536 L16.1327247,11.4045241 L16.1327247,11.4045241 C16.3362004,11.2147812 16.6387884,11.2453032 16.808574,11.4726978 C16.9783587,11.700092 16.9510472,12.0382492 16.7475712,12.2279931 C16.7424823,12.2327386 16.7373058,12.2373658 16.7320454,12.2418716 L13.733044,14.9230985 L13.7191287,14.935164 L13.7191287,14.935164 C13.7153318,14.9383558 13.7114927,14.9414843 13.7076125,14.9445483 L13.733044,14.9230985 L13.733044,14.9230985 C13.6748083,14.9749385 13.606668,15.0110868 13.5339104,15.0287389 L13.5291119,15.0298113 L13.529112,15.0298113 C13.5043952,15.0356558 13.4792673,15.0390651 13.4540172,15.04 L13.4139505,15.04 L13.4141917,15.04 Z" id="路径" fill="#333333"></path>
            </g>
        </g>
    </g>
</svg>