<?xml version="1.0" encoding="UTF-8"?>
<svg width="88px" height="92px" viewBox="0 0 88 92" version="1.1" xmlns="http://www.w3.org/2000/svg" xmlns:xlink="http://www.w3.org/1999/xlink">
    <!-- Generator: Sketch 59 (86127) - https://sketch.com -->
    <title>文档2@1</title>
    <desc>Created with Sketch.</desc>
    <g id="页面-3" stroke="none" stroke-width="1" fill="none" fill-rule="evenodd">
        <g id="编组-48">
            <g id="文档2" transform="translate(1.000000, 1.000000)">
                <path d="M6.14285714,-0.5 L46.3476615,-0.5 L69.5,22.2905832 L69.5,84.375 C69.5,87.7466703 66.7029666,90.5 63.2857143,90.5 L6.14285714,90.5 C2.72560481,90.5 -0.0714285714,87.7466703 -0.0714285714,84.375 L-0.0714285714,5.625 C-0.0714285714,2.25332974 2.72560481,-0.5 6.14285714,-0.5 Z" id="路径" stroke="#BCC6CF" fill="#FFFFFF" fill-rule="nonzero"></path>
                <path d="M30.9732143,58.6607143 C32.2612804,58.6607143 33.3035714,59.7389464 33.3035714,61.0714286 C33.3035714,62.4039107 32.2612804,63.4821429 30.9732143,63.4821429 L12.3303571,63.4821429 C11.0422911,63.4821429 10,62.4039107 10,61.0714286 C10,59.7389464 11.0422911,58.6607143 12.3303571,58.6607143 L30.9732143,58.6607143 Z M39.8469388,49.8214286 C41.1159694,49.8214286 42.1428571,50.8996607 42.1428571,52.2321429 C42.1428571,53.564625 41.1159694,54.6428571 39.8469388,54.6428571 L12.2959184,54.6428571 C11.0268878,54.6428571 10,53.564625 10,52.2321429 C10,50.8996607 11.0268878,49.8214286 12.2959184,49.8214286 L39.8469388,49.8214286 Z M39.8469388,40.1785714 C41.1159694,40.1785714 42.1428571,41.2568036 42.1428571,42.5892857 C42.1428571,43.9217679 41.1159694,45 39.8469388,45 L12.2959184,45 C11.0268878,45 10,43.9217679 10,42.5892857 C10,41.2568036 11.0268878,40.1785714 12.2959184,40.1785714 L39.8469388,40.1785714 Z M39.8469388,31.3392857 C41.1159694,31.3392857 42.1428571,32.4175179 42.1428571,33.75 C42.1428571,35.0824821 41.1159694,36.1607143 39.8469388,36.1607143 L12.2959184,36.1607143 C11.0268878,36.1607143 10,35.0824821 10,33.75 C10,32.4175179 11.0268878,31.3392857 12.2959184,31.3392857 L39.8469388,31.3392857 Z" id="形状结合备份-2" fill="#BCC6CF" fill-rule="nonzero"></path>
                <g id="编组-18备份-4" transform="translate(51.000000, 46.607143)">
                    <rect id="矩形" fill="#4086F4" x="0" y="0" width="35.3571429" height="35.3571429" rx="5"></rect>
                    <path d="M9.68705357,28.9285714 L5.44017857,8.22857143 L8.81517857,8.22857143 L10.7558036,19.0004464 L11.8526786,25.6379464 L11.9651786,25.6379464 C12.4151786,23.4160714 12.8933036,21.1941964 13.3714286,19.0004464 L16.0433036,8.22857143 L18.9120536,8.22857143 L21.6120536,19.0004464 C22.0901786,21.1660714 22.5401786,23.3879464 23.0183036,25.6379464 L23.1589286,25.6379464 C23.4964286,23.3879464 23.8620536,21.1660714 24.1995536,19.0004464 L26.1683036,8.22857143 L29.2901786,8.22857143 L25.2120536,28.9285714 L21.1901786,28.9285714 L18.4058036,17.4254464 C18.0401786,15.7941964 17.7308036,14.2473214 17.4495536,12.6723214 L17.3089286,12.6723214 C17.0276786,14.2473214 16.6901786,15.7941964 16.3526786,17.4254464 L13.6245536,28.9285714 L9.68705357,28.9285714 Z" id="W" fill="#FFFFFF" fill-rule="nonzero"></path>
                </g>
                <path d="M51.8571429,22.5 L69,22.5 L46.1428571,0 L46.1428571,16.875 C46.1428571,19.96875 48.7142857,22.5 51.8571429,22.5 Z" id="路径" fill="#BCC6CF" fill-rule="nonzero"></path>
                <polygon id="路径" fill="#EBEEF2" fill-rule="nonzero" points="69 39.375 51.8571429 22.5 69 22.5"></polygon>
            </g>
        </g>
    </g>
</svg>