<?xml version="1.0" encoding="UTF-8"?>
<svg width="88px" height="92px" viewBox="0 0 88 92" version="1.1" xmlns="http://www.w3.org/2000/svg" xmlns:xlink="http://www.w3.org/1999/xlink">
    <!-- Generator: Sketch 59 (86127) - https://sketch.com -->
    <title>演示2@1</title>
    <desc>Created with Sketch.</desc>
    <g id="页面-3" stroke="none" stroke-width="1" fill="none" fill-rule="evenodd">
        <g id="编组-58">
            <g id="演示2" transform="translate(1.000000, 1.000000)">
                <path d="M6.14285714,-0.5 L46.3476615,-0.5 L69.5,22.2905832 L69.5,84.375 C69.5,87.7466703 66.7029666,90.5 63.2857143,90.5 L6.14285714,90.5 C2.72560481,90.5 -0.0714285714,87.7466703 -0.0714285714,84.375 L-0.0714285714,5.625 C-0.0714285714,2.25332974 2.72560481,-0.5 6.14285714,-0.5 Z" id="路径" stroke="#BCC6CF" fill="#FFFFFF" fill-rule="nonzero"></path>
                <path d="M27.0582335,27 L27.0582335,43.6759543 L43.7341878,43.6759543 C43.7341878,34.4660697 36.2681181,27 27.0582335,27 Z M24.6759543,29.3822792 C15.4660697,29.3822792 8,36.8483489 8,46.0582335 C8,55.2681181 15.4660697,62.7341878 24.6759543,62.7341878 C33.8858389,62.7341878 41.3519086,55.2681181 41.3519086,46.0582335 L24.6759543,46.0582335 L24.6759543,29.3822792 Z" id="形状备份-2" fill="#BCC6CF" fill-rule="nonzero"></path>
                <g id="编组-18备份-4" transform="translate(51.000000, 46.607143)">
                    <rect id="矩形" fill="#E16F55" x="0" y="0" width="35.3571429" height="35.3571429" rx="5"></rect>
                    <path d="M13,27.8486944 L16.2240178,27.8486944 L16.2240178,20.0943757 L19.3090694,20.0943757 C23.7559905,20.0943757 27.0078016,18.0376746 27.0078016,13.5629602 C27.0078016,8.94927954 23.7559905,7.39285714 19.1978963,7.39285714 L13,7.39285714 L13,27.8486944 Z M16.2240178,17.5096028 L16.2240178,9.97763006 L18.8921705,9.97763006 C22.1439816,9.97763006 23.8393703,10.8670143 23.8393703,13.5629602 C23.8393703,16.2589062 22.2829479,17.5096028 19.0033435,17.5096028 L16.2240178,17.5096028 Z" id="P备份" fill="#FFFFFF" fill-rule="nonzero"></path>
                </g>
                <path d="M51.8571429,22.5 L69,22.5 L46.1428571,0 L46.1428571,16.875 C46.1428571,19.96875 48.7142857,22.5 51.8571429,22.5 Z" id="路径" fill="#BCC6CF" fill-rule="nonzero"></path>
                <polygon id="路径" fill="#EBEEF2" fill-rule="nonzero" points="69 39.375 51.8571429 22.5 69 22.5"></polygon>
            </g>
        </g>
    </g>
</svg>