<?xml version="1.0" encoding="UTF-8"?>
<svg width="88px" height="92px" viewBox="0 0 88 92" version="1.1" xmlns="http://www.w3.org/2000/svg" xmlns:xlink="http://www.w3.org/1999/xlink">
    <!-- Generator: Sketch 59 (86127) - https://sketch.com -->
    <title>表格2@1</title>
    <desc>Created with Sketch.</desc>
    <g id="页面-3" stroke="none" stroke-width="1" fill="none" fill-rule="evenodd">
        <g id="编组-52">
            <g id="表格2" transform="translate(1.000000, 1.000000)">
                <path d="M6.14285714,-0.5 L46.3476615,-0.5 L69.5,22.2905832 L69.5,84.375 C69.5,87.7466703 66.7029666,90.5 63.2857143,90.5 L6.14285714,90.5 C2.72560481,90.5 -0.0714285714,87.7466703 -0.0714285714,84.375 L-0.0714285714,5.625 C-0.0714285714,2.25332974 2.72560481,-0.5 6.14285714,-0.5 Z" id="路径" stroke="#BCC6CF" fill="#FFFFFF" fill-rule="nonzero"></path>
                <path d="M38.8469388,31 L11.2959184,31 C10.0268878,31 9,32.0268878 9,33.2959184 L9,60.8469388 C9,62.1159694 10.0268878,63.1428571 11.2959184,63.1428571 L38.8469388,63.1428571 C40.1159694,63.1428571 41.1428571,62.1159694 41.1428571,60.8469388 L41.1428571,33.2959184 C41.1428571,32.0268878 40.1159694,31 38.8469388,31 Z M13.0178571,45.4642857 L22.6607143,45.4642857 L22.6607143,49.4821429 L13.0178571,49.4821429 L13.0178571,45.4642857 Z M27.4821429,45.4642857 L37.125,45.4642857 L37.125,49.4821429 L27.4821429,49.4821429 L27.4821429,45.4642857 Z M37.125,39.8392857 L27.4821429,39.8392857 L27.4821429,35.8214286 L37.125,35.8214286 L37.125,39.8392857 Z M22.6607143,35.8214286 L22.6607143,39.8392857 L13.0178571,39.8392857 L13.0178571,35.8214286 L22.6607143,35.8214286 Z M13.0178571,54.3035714 L22.6607143,54.3035714 L22.6607143,58.3214286 L13.0178571,58.3214286 L13.0178571,54.3035714 Z M27.4821429,58.3214286 L27.4821429,54.3035714 L37.125,54.3035714 L37.125,58.3214286 L27.4821429,58.3214286 Z" id="形状备份" fill="#BCC6CF" fill-rule="nonzero"></path>
                <g id="编组-18备份-4" transform="translate(51.000000, 46.607143)">
                    <rect id="矩形" fill="#00B794" x="0" y="0" width="35.3571429" height="35.3571429" rx="5"></rect>
                    <path d="M10,29.0928571 L15.934375,18.4053571 L10.365625,8.39285714 L13.99375,8.39285714 L16.795675,13.8034321 C17.189875,14.5702321 17.576875,15.3622321 18.071875,16.3522321 L18.2125,16.3522321 L18.80065,14.9941321 C19.075375,14.3677321 19.331875,13.8041071 19.61875,13.2303571 L22.065625,8.39285714 L25.496875,8.39285714 L19.928125,18.5741071 L25.890625,29.0928571 L22.2625,29.0928571 L19.534375,23.9459821 L17.81875,20.5709821 L17.81875,20.5709821 L17.70625,20.5709821 L16.8730469,22.3428571 C16.609375,22.8983259 16.35625,23.4256696 16.103125,23.9459821 L13.459375,29.0928571 L10,29.0928571 Z" id="X备份" fill="#FFFFFF" fill-rule="nonzero"></path>
                </g>
                <path d="M51.8571429,22.5 L69,22.5 L46.1428571,0 L46.1428571,16.875 C46.1428571,19.96875 48.7142857,22.5 51.8571429,22.5 Z" id="路径" fill="#BCC6CF" fill-rule="nonzero"></path>
                <polygon id="路径" fill="#EBEEF2" fill-rule="nonzero" points="69 39.375 51.8571429 22.5 69 22.5"></polygon>
            </g>
        </g>
    </g>
</svg>